<?xml version="1.0" encoding="utf-8"?>
<!-- Generator: Adobe Illustrator 25.1.0, SVG Export Plug-In . SVG Version: 6.00 Build 0)  -->
<svg version="1.1" id="Capa_1" xmlns="http://www.w3.org/2000/svg" xmlns:xlink="http://www.w3.org/1999/xlink" x="0px" y="0px"
	 viewBox="0 0 50.9 50.9" style="enable-background:new 0 0 50.9 50.9;" xml:space="preserve">
<style type="text/css">
	.st0{fill:#FFFFFF;}
</style>
<g>
	<path class="st0" d="M18.6,3c-4.5,0-8.1,3.6-8.1,8.1c0,3.1,1.8,5.8,4.3,7.2c0.5,0.3,4.5,2.3,3.8,5.5c-1,4.3-6.1,2.9-6.1,2.9l0,0
		c-0.8-0.2-1.7-0.4-2.6-0.4c-5.5,0-10,4.5-10,10C0,41.1,3.3,45,7.7,46l0,0c0,0,40,10.3,43.1-17.7C53.6,2.9,18.6,3,18.6,3z M13,42
		c-2.7,0-4.9-1.8-4.9-4s2.2-4,4.9-4c2.7,0,4.9,1.8,4.9,4S15.7,42,13,42z M22.9,12.5c0-1.5,1.5-2.8,3.4-2.8c1.9,0,3.4,1.2,3.4,2.8
		s-1.5,2.8-3.4,2.8C24.4,15.2,22.9,14,22.9,12.5z M28.8,44c-2.7,0-4.9-1.8-4.9-4s2.2-4,4.9-4s4.9,1.8,4.9,4S31.5,44,28.8,44z
		 M34.4,18.2c0-2.2,2.2-4,4.9-4s4.9,1.8,4.9,4c0,2.2-2.2,4-4.9,4S34.4,20.4,34.4,18.2z M41.6,36c-2.7,0-4.9-1.8-4.9-4s2.2-4,4.9-4
		s4.9,1.8,4.9,4S44.3,36,41.6,36z"/>
</g>
</svg>
