<svg id="Capa_1" data-name="Capa 1" xmlns="http://www.w3.org/2000/svg" viewBox="0 0 1894.3 769.39"><defs><style>.cls-1{opacity:0.6;}.cls-2{fill:#f4e0f2;}.cls-3{fill:#9b5b97;}.cls-4{fill:#dadbdc;}.cls-5{fill:#bcc2c5;}.cls-6{fill:#e4e4e4;}.cls-7{fill:#f8f6f8;}.cls-8{fill:#faedf9;}.cls-9{fill:#c3daf6;}.cls-10{fill:#a8afb5;}.cls-11{fill:#434343;}.cls-12{fill:#541453;}.cls-13{fill:#40083f;}.cls-14{fill:#fff;}.cls-15{fill:#ffae73;}.cls-16{fill:#ee8c4d;}.cls-17{fill:#c38fbf;}.cls-18{fill:#d44b40;}.cls-19{fill:#f99352;}.cls-20{fill:#aaa6a4;}.cls-21{fill:#bab4b9;}.cls-22{fill:#c0bebc;}.cls-23{fill:#141c29;}.cls-24{fill:#f4726b;}.cls-25{fill:#0a111d;}.cls-26{fill:#27282b;}.cls-27{fill:#fff7ff;}.cls-28{fill:#f9924f;}.cls-29{fill:#20232e;}.cls-30{fill:#151619;}.cls-31{fill:#101729;}.cls-32{fill:#161c2c;}.cls-33{fill:#161f3c;}.cls-34{opacity:0.72;}.cls-35{fill:#f48f4e;}.cls-36{fill:#fc9f38;}.cls-37{fill:#d97b3b;}.cls-38{fill:#e38f50;}.cls-39{fill:#3d6aa9;}.cls-40{fill:#f6bb85;}.cls-41{fill:#c85d00;}.cls-42{fill:#ffd8b6;}.cls-43{fill:#f9a759;}.cls-44{fill:#f9a553;}</style></defs><g class="cls-1"><path class="cls-2" d="M417.66,495.45s-12.06-14.07-.75-23c0,0,8.27-5,15-4.59,0,0-9.55,16-6.46,17.61s9.35-18.62,9.35-18.62,18.82-1.82,24.87,1.09c0,0-16.08,13.16-12.7,13.94s20.76-12.13,20.76-12.13,17.51,3,16.57,13.66-7,14-9.61,13.69-18.17-6.2-18.5-4,9,9.27,15.53,9.6c0,0-12.34,13.62-20.54,9.69s-8.91-10.16-14-12.49-9.48-2.33-7.37.05,11.37,4.7,14.29,9.87,5.55,8.66-2.94,7.38-22.28-7.48-22.89-14.6Z" transform="translate(1.29 -0.61)"/><path class="cls-3" d="M475.71,483.68s-47.55-1.83-58,11.77a34.46,34.46,0,0,1-9.47,13.29l-1.12,3s8.24-8.69,11.19-9.22C418.26,502.56,413.65,485.72,475.71,483.68Z" transform="translate(1.29 -0.61)"/><path class="cls-3" d="M408.19,508.74s-10.21,7.55-10.92,21l1.85.16s3.26-13.94,9.16-19.4S408.19,508.74,408.19,508.74Z" transform="translate(1.29 -0.61)"/><path class="cls-3" d="M315.63,440.92s53.72,17.4,59.86,36.84a40.78,40.78,0,0,0,5.11,18.67v3.84s-5.62-13-8.69-14.84C371.91,485.43,383.93,468.55,315.63,440.92Z" transform="translate(1.29 -0.61)"/><path class="cls-3" d="M380.6,496.43s8.29,12.58,3.56,27.9l-2.13-.58s2.07-16.86-2.26-25.35S380.6,496.43,380.6,496.43Z" transform="translate(1.29 -0.61)"/><path class="cls-3" d="M484.92,414.38S414.1,437.31,406,462.94c0,0,.34,11.46-6.74,24.62v5.05s7.41-17.19,11.46-19.55C410.73,473.06,394.88,450.8,484.92,414.38Z" transform="translate(1.29 -0.61)"/><path class="cls-3" d="M399.27,487.56s-10.92,16.58-4.7,36.77l2.81-.76s-2.73-22.23,3-33.42S399.27,487.56,399.27,487.56Z" transform="translate(1.29 -0.61)"/><path class="cls-4" d="M405.16,568.1a49.54,49.54,0,0,0,49.54-49.54H355.62A49.54,49.54,0,0,0,405.16,568.1Z" transform="translate(1.29 -0.61)"/><path class="cls-5" d="M455.38,570.62H354.93a6.12,6.12,0,0,1,6.12-6.11h88.22a6.11,6.11,0,0,1,6.11,6.11Z" transform="translate(1.29 -0.61)"/><rect class="cls-3" x="355.28" y="517.95" width="101.83" height="1.52"/><path class="cls-6" d="M1772.5,767.48,1479.29,769l-373.94-1L0,770s-2.91-64.83,0-195c1.86-83.17,205.23-122,465-163C708.64,373.51,617.58-22.4,976.81,1.66c141.75,9.49,204.64,103.73,314.19,78.62C1754-25.8,1855.59,194.8,1890.43,409,1903.29,488,1868.57,733.81,1772.5,767.48Z" transform="translate(1.29 -0.61)"/></g><g class="cls-1"><rect class="cls-7" x="767.52" y="128.88" width="173.72" height="214.15"/><path class="cls-8" d="M898.81,289.52a9,9,0,0,0-5.73-4l-.8-.15-.16,0a14.44,14.44,0,0,0-5.52.32h0c4.84,2.05,3.17,15.64-4.84,17.13a26,26,0,0,1-8.93-.13,4.1,4.1,0,0,1-3.42-4.34c.61-8.53.12-19.75-6.65-23.89-11.7-7.16-17-7.82-17.49-14.89-.26-3.71-6.83-9.81-7.35-12.07l-.15-.72c-.48-3.15,1-7.37,1.1-10.1.16-2.93-1.2-4.09-1.2-4.09a5.14,5.14,0,0,1,1.2.88c-1.11-4.18-6.36-5.57-6.38-5.57h0a12.68,12.68,0,0,0-6.39-1.1s-.32,0-.86,0h0a37.21,37.21,0,0,0-9.37,1.41c-3.73,1.3-3.91,4.22-3.91,4.22a2.61,2.61,0,0,0-1.59,0c1.52,1.43,0,5.26,0,5.26h0a12.77,12.77,0,0,1-.62,1.17c-.65,1-4.25,2.21-7.5,3.71l-1.12.51-.52.23a.91.91,0,0,0-.16.11.55.55,0,0,0-.13.54c.06.19.15.44.25.72s.13.34.21.54.15.34.24.52c.79,1.66,2.18,3.7,4.4,4.1a8.4,8.4,0,0,0,3.7-.59h0a7.39,7.39,0,0,0-3.9,3.35c-.4.91-.18,4.1,1.18,3.91.75-.1,1-1.11,1-2a2.27,2.27,0,0,1,.44-1.24.53.53,0,0,0,.24.41,6.86,6.86,0,0,0,3.38,1c2.58.09,8.29-3.17,9.59-1.88.3.29,0,1-.68,1.92-2,3-7.14,8.76-6.9,15.54a.53.53,0,0,0,1,.3,4.76,4.76,0,0,1,1.9-1.59c.42-.18-.74,1.06-1,1.44-2,2.87-.44,9.38,1.81,12.09.62.75,1.23,1.54,1.81,2.35a71.81,71.81,0,0,1,6.86,12.31c1.62,3.61,2.5,6.21,2.5,6.21a.54.54,0,0,1-.63.67c-.29-.07-.64-.14-1-.2-1.69-.3-4-.5-4.76.4-.94,1.15-.65,3.4-.47,4.34a.54.54,0,0,0,.53.44h11.91a.54.54,0,0,0,.53-.45l3-14c-1.28,8.71,4.41,10.47,4.69,10.65-.66,0-3.34-.61-3.71-.4-1.61.93-2.3,4.24-2.3,4.24s9.69.64,9.69,0h53.81C902.8,305.9,902.8,295.85,898.81,289.52Z" transform="translate(1.29 -0.61)"/><rect class="cls-8" x="783.44" y="142.79" width="60.27" height="2.51"/><rect class="cls-8" x="849.44" y="142.79" width="33.94" height="2.51"/><rect class="cls-8" x="783.44" y="149.49" width="33.94" height="2.51"/><rect class="cls-8" x="820.44" y="149.49" width="38.83" height="2.51"/><rect class="cls-8" x="863.96" y="149.49" width="38.83" height="2.51"/><rect class="cls-8" x="783.44" y="157.86" width="60.27" height="2.51"/><rect class="cls-8" x="849.44" y="157.86" width="33.94" height="2.51"/><rect class="cls-8" x="783.44" y="164.56" width="33.94" height="2.51"/><rect class="cls-8" x="820.44" y="164.56" width="38.83" height="2.51"/><rect class="cls-8" x="863.96" y="164.56" width="38.83" height="2.51"/><rect class="cls-8" x="783.44" y="321.38" width="60.27" height="2.51"/><rect class="cls-8" x="849.44" y="321.38" width="33.94" height="2.51"/><rect class="cls-8" x="783.44" y="328.08" width="33.94" height="2.51"/><rect class="cls-8" x="820.44" y="328.08" width="38.83" height="2.51"/><rect class="cls-9" x="863.96" y="328.08" width="38.83" height="2.51"/><rect class="cls-8" x="856.69" y="220.68" width="60.27" height="2.51"/><rect class="cls-8" x="856.69" y="234.7" width="60.27" height="2.51"/><rect class="cls-8" x="856.69" y="227.38" width="33.94" height="2.51"/><rect class="cls-8" x="893.69" y="227.38" width="27.11" height="2.51"/><rect class="cls-8" x="856.69" y="242.31" width="33.94" height="2.51"/><rect class="cls-8" x="893.69" y="242.31" width="27.11" height="2.51"/><path class="cls-8" d="M827.56,228.58s-5.86-7.54-13.39-5.86a4.19,4.19,0,0,0,.52,2.81,10.46,10.46,0,0,1,.94,3.78Z" transform="translate(1.29 -0.61)"/><rect class="cls-8" x="783.44" y="182.7" width="142.17" height="25.11"/><path class="cls-8" d="M942,345.73H764.13V127.4H942Zm-173.72-4.18H937.85v-210H768.32Z" transform="translate(1.29 -0.61)"/></g><g class="cls-1"><path class="cls-10" d="M489.71,572.38v4.78c0,1.68-.54,3-1.2,3H313.89c-.66,0-1.21-1.36-1.21-3v-4.78c0-1.68.55-3,1.21-3H488.51C489.17,569.33,489.71,570.7,489.71,572.38Z" transform="translate(1.29 -0.61)"/><path class="cls-5" d="M489.71,572.38v4.78c0,1.68-.5,3-1.1,3H350c-.61,0-1.11-1.36-1.11-3v-4.78c0-1.68.5-3,1.11-3H488.61C489.21,569.33,489.71,570.7,489.71,572.38Z" transform="translate(1.29 -0.61)"/><rect class="cls-4" x="322.84" y="579.6" width="123.97" height="180.69"/><rect class="cls-4" x="357.58" y="579.6" width="123.97" height="180.69"/><path class="cls-5" d="M473.6,750.92H363V585.31H473.6Zm-109.46-1.2H472.4V586.5H364.14Z" transform="translate(1.29 -0.61)"/><rect class="cls-5" x="364.84" y="639.49" width="109.45" height="1.19"/><rect class="cls-5" x="364.84" y="695.34" width="109.45" height="1.19"/><path class="cls-5" d="M429.49,596H409.18a1.79,1.79,0,0,1-1.79-1.79h0a1.79,1.79,0,0,1,1.79-1.79h20.31a1.79,1.79,0,0,1,1.79,1.79h0A1.8,1.8,0,0,1,429.49,596Z" transform="translate(1.29 -0.61)"/><path class="cls-5" d="M429.49,650.61H409.18a1.79,1.79,0,0,1-1.79-1.79h0a1.8,1.8,0,0,1,1.79-1.8h20.31a1.8,1.8,0,0,1,1.79,1.8h0A1.8,1.8,0,0,1,429.49,650.61Z" transform="translate(1.29 -0.61)"/><path class="cls-5" d="M429.49,707.54H409.18a1.79,1.79,0,0,1-1.79-1.79h0a1.79,1.79,0,0,1,1.79-1.79h20.31a1.8,1.8,0,0,1,1.79,1.79h0A1.79,1.79,0,0,1,429.49,707.54Z" transform="translate(1.29 -0.61)"/></g><g class="cls-1"><path class="cls-11" d="M1583,762.39h-32.48a78.07,78.07,0,0,1,2.59-11.65,33.3,33.3,0,0,1,1.84-4.68c3.16-6.31,23.22-2.3,23.22-2.3s1.86,1.6,3.32,7.7A65.44,65.44,0,0,1,1583,762.39Z" transform="translate(1.29 -0.61)"/><path class="cls-8" d="M1523.38,266.34s-25.88,4.54-31.73,19.82-38.9,262-38.9,262,16.37,13,51.5,8.31S1523.38,266.34,1523.38,266.34Z" transform="translate(1.29 -0.61)"/><path class="cls-11" d="M1484.86,752.15c-.09,4.41-.64,8.59-2.25,10.24h-64.23c.81-2.32,3.13-5.82,9.72-6.89,7.49-1.21,19.18-4.82,26-12a19.39,19.39,0,0,0,5-9.12c3-13.45,25,4.12,25,4.12A109.91,109.91,0,0,1,1484.86,752.15Z" transform="translate(1.29 -0.61)"/><path class="cls-12" d="M1457.2,745.6c7.18,2.29,20.9,9.28,29.61,6,5.63-2.12,37.12-93.19,39.16-133a102,102,0,0,1,1.61-11.86c1.87-10.28,5.13-24.41,8.89-40,10.07-41.77,23.7-94,23.4-110.73-.45-25.92-77.25-5.43-77.25-5.43s-5.28,21.26-6.33,52c-2.09,61.11-7.82,164.34-23.42,236A6.15,6.15,0,0,0,1457.2,745.6Z" transform="translate(1.29 -0.61)"/><path class="cls-13" d="M1510.5,456.06l40.6,294.24s17.83,4.3,31.69.86c0,0,11.89-156.49,10.9-194.32s8.53-101.23-2.18-108.23S1510.5,456.06,1510.5,456.06Z" transform="translate(1.29 -0.61)"/><path class="cls-14" d="M1596.65,279.82s-42.67-27.59-73.27-13.48c-4.88,2.25-10.44,8.52-14.42,12.91-11.06,12.19-32.68,205.81-32.68,205.81s61.36,20.78,120.37-7.06Z" transform="translate(1.29 -0.61)"/><path class="cls-8" d="M1521,265.64s-43.19,17.7-49,31.3-24.86,97.12-24.86,106.92,33.1,2.19,38.43-13.61c4.43-13.12,19.35-53.41,27.23-78.9Z" transform="translate(1.29 -0.61)"/><path class="cls-15" d="M1529.92,279.13c9.43,1.85,23.28-.12,33.42-6.81a96.47,96.47,0,0,1-7.12-25.16c0-.29-.07-.58-.1-.86a25.13,25.13,0,0,1-.11-5.76h-24.38s-6.66,3.05-6.66,5.15c0,1.13,0,2.21,0,3.23,0,2.81-.17,5.26-.31,7.36a66,66,0,0,1-1.25,10.06S1520.4,277.26,1529.92,279.13Z" transform="translate(1.29 -0.61)"/><path class="cls-16" d="M1524.63,256.28c18.47,3.57,29.19-6.53,31.59-9.12.34-.37.52-.59.52-.59l-.62-.27c-6.87-2.78-22.47-.57-31.18,2.62C1524.89,251.73,1524.77,254.18,1524.63,256.28Z" transform="translate(1.29 -0.61)"/><path class="cls-15" d="M1562.25,236.53c-3.3,17.76-26.22,17.18-36.12,16.06-2.79-.31-4.54-.66-4.54-.66-3.14-.84-4.9-5.79-5.71-12.28-1.62-12.83.42-31.66,2.59-36.48,3.26-7.25,9.41-15.09,32.49-9.43S1566.49,213.78,1562.25,236.53Z" transform="translate(1.29 -0.61)"/><path class="cls-13" d="M1517.61,193.26c3.16-4.37,9.85-9.7,15.92-13,13-7.06,29.75.22,29.82.25,18.85,8.29,23.78,22.71,13.78,45.18-10.57,23.76-20.63,21.09-20.63,21.09s2.14-1.33,1.94-8.74c0-.42,0-.77,0-1.07a4.94,4.94,0,0,1,1.57-4c2.34-2.09,3.48-8.41,1.52-10.17-2.36-2.13-5.69.45-6.75,2.43a2.89,2.89,0,0,1-4.14.92c-5.86-3.71-2-11.13-7.66-15.67s-17-.73-25.39-4.34C1506.54,202,1515.24,196.55,1517.61,193.26Z" transform="translate(1.29 -0.61)"/><path class="cls-8" d="M1515,566.29c3.71,1,7.39,1.74,11,2.34,3.24.56,6.45,1,9.68,1.24,18.25,1.59,36.6-1,58-7.13q7.24-2.07,15-4.69c.56-.19-1.4-56.88-3.67-115.35-.23-6-.46-12.09-.7-18.11-.1-2.55-.2-5.08-.3-7.61-2-51.72-4.09-98.42-4.52-100.93-1-5.69-1.89-10.54-2.89-14.75-2.92-12.25-6.55-19-14.46-24.74-.77-.59-7.09-3.78-12.67-6.55-4.62-2.3-8.72-4.3-8.72-4.3h0c-1.84.9-4,5.11-6.36,11-4.24,10.9-8.83,27.59-12,40.06l0,.06h0c-2.05,8.05-3.52,14.32-3.94,16.11-.72,3-1.66,8.92-2.76,16.89-1.5,10.85-3.3,25.57-5.2,42.28-.19,1.72-.39,3.46-.58,5.21q-.33,3-.68,6.08l-.21,2c-.73,6.61-1.47,13.44-2.2,20.39-.61,5.73-9.31,9.88-9.91,15.72-.35,3.43-1.07,35.05-2,45.14C1514.25,493.87,1514.72,562.9,1515,566.29Z" transform="translate(1.29 -0.61)"/><path class="cls-17" d="M1578,336.9c0,.11,1.48,52.29-37.76,58.63s-13.17,8-13.17,8,73.84-3.14,75.06-5.09S1578,336.9,1578,336.9Z" transform="translate(1.29 -0.61)"/><path class="cls-17" d="M1544.79,417.92s.74.52,2.15,1.44l.08,0c6,3.82,23.75,14.24,49.63,21.23,2.71.73,5.52,1.43,8.41,2.07-.23-6-.46-12.09-.7-18.11a76.89,76.89,0,0,0,9.73-1.34c-.1-.8-.21-1.59-.31-2.39-3.3-1.35-6.57-2.65-9.72-3.88-2.57-1-5.06-2-7.41-2.85-10.63-4-18.51-6.77-18.51-6.77l-31.46,10Z" transform="translate(1.29 -0.61)"/><path class="cls-8" d="M1536.47,417.05s4,1,10.47,2.31h.07c11.87,2.38,31.82,5.73,49.64,5.55,2.63,0,5.21-.13,7.71-.33a76.89,76.89,0,0,0,9.73-1.34c6.51-1.38,12-3.7,15.54-7.34,26.5-27-14.47-123.9-23.08-133.33-10.06-11-28.42-14.87-38.55-16.2l-1.23-.15c-3.56-.43-5.85-.51-6-.52h0l2.13,6.89c.51,1.68,1.11,3.62,1.77,5.79,6.23,20.39,18.24,60.46,23.53,83.06,1.94,8.27,3,14.19,2.51,16-2.07,7.72-23.48,11.69-37,13.45-5.66.73-10,1.07-10.92,1.15h-.2l-.78,3.22L1539.9,403l-1.85,7.58Z" transform="translate(1.29 -0.61)"/><polygon class="cls-11" points="1463.83 462.89 1554.87 459.06 1536.4 345.6 1445.36 349.44 1463.83 462.89"/><path class="cls-15" d="M1542.56,392s-17.72-1.23-18.61,2.9c-2.07,9.63,15.24,17.53,20.84,17S1546.64,391.38,1542.56,392Z" transform="translate(1.29 -0.61)"/><path class="cls-15" d="M1449,373.09s17-5.31,18.78-1.49c4.24,8.88-10.77,20.58-16.35,21.35S1444.93,373.4,1449,373.09Z" transform="translate(1.29 -0.61)"/><path class="cls-17" d="M1559,260s7.46,3.56,11.19,8.92c0,0-27.86,48.38-27.74,47.93S1551.82,266.21,1559,260Z" transform="translate(1.29 -0.61)"/><path class="cls-17" d="M1524.24,260.7c-2.45.92-7.16,5.74-8.22,8.41l-3.31,42.24s7.07-31,10.67-45A23.13,23.13,0,0,0,1524.24,260.7Z" transform="translate(1.29 -0.61)"/><path class="cls-18" d="M1504.93,347.48s-.72-3.15-4.87-2.78-27.42,1.51-27.42,1.51-4.49-.07-4.08,2.8Z" transform="translate(1.29 -0.61)"/><path class="cls-14" d="M1531.63,240.54a9.73,9.73,0,0,1-7.9,1.9c-2.89-.51-4.51-4.27-4.51-4.27A21.81,21.81,0,0,1,1531.63,240.54Z" transform="translate(1.29 -0.61)"/></g><g class="cls-1"><path class="cls-10" d="M609.68,763.22h-.23a2.39,2.39,0,0,1-2.39-2.44l3.62-156.9,10.66-1.24-9.09,158.15A2.58,2.58,0,0,1,609.68,763.22Z" transform="translate(1.29 -0.61)"/><path class="cls-10" d="M547.54,763.22h-.23a2.39,2.39,0,0,1-2.39-2.44l3.62-156.9,10.67-1.24-9.1,158.15A2.57,2.57,0,0,1,547.54,763.22Z" transform="translate(1.29 -0.61)"/><path class="cls-10" d="M719,763.22h.23a2.39,2.39,0,0,0,2.39-2.44L718,603.88l-10.67-1.24,9.1,158.15A2.57,2.57,0,0,0,719,763.22Z" transform="translate(1.29 -0.61)"/><path class="cls-4" d="M540.47,594.15V486.64a34.25,34.25,0,0,1,34.26-34.25h77.46a34.25,34.25,0,0,1,34.25,34.25V598.26Z" transform="translate(1.29 -0.61)"/><path class="cls-10" d="M541.77,593.54H701.61a0,0,0,0,1,0,0v17a0,0,0,0,1,0,0H558.74a17,17,0,0,1-17-17v0A0,0,0,0,1,541.77,593.54Z"/><rect class="cls-5" x="598.78" y="593.54" width="128.36" height="16.97" rx="8.49"/></g><g class="cls-1"><path class="cls-10" d="M909.05,763.22h-.23a2.37,2.37,0,0,1-2.38-2.44l3.62-156.9,10.66-1.24-9.09,158.15A2.59,2.59,0,0,1,909.05,763.22Z" transform="translate(1.29 -0.61)"/><path class="cls-10" d="M846.91,763.22h-.22a2.39,2.39,0,0,1-2.39-2.44l3.62-156.9,10.66-1.24-9.09,158.15A2.59,2.59,0,0,1,846.91,763.22Z" transform="translate(1.29 -0.61)"/><path class="cls-10" d="M1018.38,763.22h.22a2.39,2.39,0,0,0,2.39-2.44l-3.62-156.9-10.66-1.24,9.09,158.15A2.59,2.59,0,0,0,1018.38,763.22Z" transform="translate(1.29 -0.61)"/><path class="cls-4" d="M839.85,594.15V486.64a34.24,34.24,0,0,1,34.25-34.25h77.46a34.24,34.24,0,0,1,34.25,34.25V598.26Z" transform="translate(1.29 -0.61)"/><path class="cls-10" d="M841.14,593.54H1001a0,0,0,0,1,0,0v17a0,0,0,0,1,0,0H858.12a17,17,0,0,1-17-17v0A0,0,0,0,1,841.14,593.54Z"/><rect class="cls-5" x="898.16" y="593.54" width="128.36" height="16.97" rx="8.49"/></g><g class="cls-1"><path class="cls-10" d="M1188.25,763.22H1188a2.39,2.39,0,0,1-2.39-2.44l3.62-156.9,10.67-1.24-9.1,158.15A2.58,2.58,0,0,1,1188.25,763.22Z" transform="translate(1.29 -0.61)"/><path class="cls-10" d="M1126.11,763.22h-.23a2.38,2.38,0,0,1-2.38-2.44l3.62-156.9,10.66-1.24-9.09,158.15A2.59,2.59,0,0,1,1126.11,763.22Z" transform="translate(1.29 -0.61)"/><path class="cls-10" d="M1297.57,763.22h.23a2.39,2.39,0,0,0,2.39-2.44l-3.62-156.9-10.66-1.24L1295,760.79A2.58,2.58,0,0,0,1297.57,763.22Z" transform="translate(1.29 -0.61)"/><path class="cls-4" d="M1119.05,594.15V486.64a34.24,34.24,0,0,1,34.25-34.25h77.46A34.24,34.24,0,0,1,1265,486.64V598.26Z" transform="translate(1.29 -0.61)"/><path class="cls-10" d="M1120.34,593.54h159.84a0,0,0,0,1,0,0v17a0,0,0,0,1,0,0H1137.31a17,17,0,0,1-17-17v0A0,0,0,0,1,1120.34,593.54Z"/><rect class="cls-5" x="1177.35" y="593.54" width="128.36" height="16.97" rx="8.49"/></g><g class="cls-1"><path class="cls-13" d="M872.77,280.66c-.5-1.22-6.37-14.17-26.31-7.1,0,0,10.12-2.63,13.42,1.1,0,0-8.6-2.82-13.32,1s-4.27,14.79-3.12,18,7.95,12.29,11.68,11.82a10.81,10.81,0,0,0,4.13-1.62,51.24,51.24,0,0,0-.84,5.91c-1.68,19.71,12.44,32.75,18.42,28.33,3.84-2.83,7.83,4.19,7.83,4.19l28.59-50.9S886,265,872.77,280.66Z" transform="translate(1.29 -0.61)"/><path class="cls-15" d="M926.4,400.54C899.32,413,879,369,880.74,368.54c2.7-3.15,5.5-14.4,3.51-30.58l1.41.1,23.54,1.8s.37,7.52,1.18,14.54c.54,4.62,1.27,9,2.23,10.94.28.57,5.38,1.33,5.39,1.34C918.4,367.13,933.62,397.22,926.4,400.54Z" transform="translate(1.29 -0.61)"/><path class="cls-11" d="M1099.22,761h-47.45s-1.13-7.46,1.34-13.11c2.38-5.43,3.89-6.91,1.31-13.19,3,3.2,11.83,5.52,18.68,4.56.84,1.41,5.43,8.92,8.24,11C1084.44,752.53,1098.26,751.71,1099.22,761Z" transform="translate(1.29 -0.61)"/><path class="cls-11" d="M1015.68,760.54H968.23s-1.14-7.45,1.34-13.1c2.38-5.43,7-9.06,8.36-15.31,3,3.2,4.77,7.63,11.63,6.68.84,1.41,5.43,8.92,8.23,11C1000.89,752.11,1014.72,751.29,1015.68,760.54Z" transform="translate(1.29 -0.61)"/><path class="cls-12" d="M851.69,530.9S841,565.1,864.8,581.32c31.83,21.73,120.08,3.21,130.15,14.31,2.55,2.81-5.16,4.23-9.51,44.42-6.26,57.8-11.33,90.13-11.33,90.13a14.91,14.91,0,0,0,7.77,10c4.38,2.23,9.94.85,9.94.85s64.82-146.67,58.37-167c-11.19-35.24-73.09-31.79-144.85-52.61C861.52,508.7,851.69,530.9,851.69,530.9Z" transform="translate(1.29 -0.61)"/><path class="cls-3" d="M885.28,530.16c31.51-3,117.5-4.53,136.09,8.64,22.89,16.2,54,201.53,54,201.53s-2.4,2-7.6,2.48c-4.84.49-15.35-2.7-15.35-2.7s-51.13-83.47-54.2-104.35-1.5-39.45-10.15-40.08-127.48,13.49-137.62-20c-7.93-26.18,1.57-51.51,1.57-51.51S856.21,532.93,885.28,530.16Z" transform="translate(1.29 -0.61)"/><path class="cls-7" d="M950.8,422.89c2,7.36,3.55,13.95,4.34,18.39,3.62,20.48,6.81,83,6.81,83-32.19,51.2-121.78,35.8-121.78,35.8-2-19.41,5.59-62.58,10.18-101,1.13-9.41,2.07-18.53,2.66-26.95a175,175,0,0,1,2.43-19.66c7.64-41.06,27.28-45.57,27.28-45.57,9.19,18.39,38.17,23.34,38.17,23.34.36-10.35-2.89-23.53-2.89-23.53,3.67.45,16,2,19.39,3.68,9.93,4.95,33.45,46.44,33.45,46.44S976.94,414,950.8,422.89Z" transform="translate(1.29 -0.61)"/><path class="cls-19" d="M909.2,339.86s.36,7.52,1.18,14.55c-12.91,1.25-21.14-10-24.72-16.35Z" transform="translate(1.29 -0.61)"/><path class="cls-15" d="M914.29,346s-30.38,4.35-32.72-15.19-7.83-32.13,11.46-35.73,24,3.37,26.29,9.69S922.13,344.33,914.29,346Z" transform="translate(1.29 -0.61)"/><path class="cls-13" d="M917.12,294c-5.4-5.28-8.8-3.55-10.58-1.53-17.76-7.33-26.82,8-26.82,8A38.12,38.12,0,0,1,870.48,324s6,2.84,18.36-2.16c3.78-1.53,6.93-4.83,9.48-8.68a73.83,73.83,0,0,1-10.39,16.93c14.41-9.21,18-31.88,18.29-34.27,2.06,1.49,6.16,4.76,7.71,8.28,2.11,4.79,4,14.94,6.86,14.23C920.79,318.29,925.22,301.92,917.12,294Z" transform="translate(1.29 -0.61)"/><path class="cls-20" d="M914.42,531.87c-.52-.3-40.35-3.07-53.34-69.14,1.12-9.41,1.39-5.55,2.46-11.35,5.56-.88,4.12-33.67,7.11-24.52C876.8,445.69,914.26,531.08,914.42,531.87Z" transform="translate(1.29 -0.61)"/><path class="cls-21" d="M883.85,360.42s-5.23,3.35-5.24,8.33c0,0,6.18,17.41,42.28,21.46C920.89,390.21,887.66,373.36,883.85,360.42Z" transform="translate(1.29 -0.61)"/><path class="cls-22" d="M912,364.56s9.11,17.24,8.85,25.65c0,0,.62-19.1-.67-23.53s-9-6.26-9-6.26Z" transform="translate(1.29 -0.61)"/><path class="cls-14" d="M905.35,335.56c.31,0,3.2,2.66,7,1.92s3.78-3.83,3.78-3.83a16.35,16.35,0,0,0-4.89,0A38.73,38.73,0,0,0,905.35,335.56Z" transform="translate(1.29 -0.61)"/><path class="cls-23" d="M984.34,433.87s3.7-10.67-.92-18.35a60.32,60.32,0,0,0-6.14-8.19c-2.33-2.67-3.18-1.78-3.93,1.7-.57,2.71-2.38,5.87-2.51,7.77-.39,5.88-1.25,9.95,3.65,14.29S984.34,433.87,984.34,433.87Z" transform="translate(1.29 -0.61)"/><path class="cls-11" d="M1004.06,498.22s24.15-3.75-6.07-19.39c-7.39-3.82-31.36-26.15-19.27-32.91a17.68,17.68,0,0,0,9.21-12.57c.11-.57.19-1.13.24-1.66h0a19,19,0,0,0-.17-5.4s-.31-4.92-8-8.81a37.16,37.16,0,0,0-8.16-2.84h0c-.73-.18-1.49-.33-2.29-.49-7.84-1.47-9.69,1.82-13.1.69-3.12-1-7.06-2.48-7.71-2.73l-.1,0s-4.17-2.53-5.09,1.63c-.1.45-.2.87-.28,1.27-.64,2.91-.88,4.69-.09,6.11.59,1.08,3.58,3,5.9,4,1.8.78,6.11,2.36,6.33,2.5.59.4-3,1-12.31-2l-.51-.16a.91.91,0,0,0-1.11.51,3.67,3.67,0,0,0,.39,3.61c1.58,2.38,9.9,4.93,8,6.85a4.29,4.29,0,0,1-1.77.94h0c-2.78.9-7.34,1.11-9.57,4,0,0,3.38-.3,5.43.72,0,0-7.75.08-9.09,3.57a4.05,4.05,0,0,1,2.79.11s-7.45,3.68-9.52,12a15.88,15.88,0,0,0-.4,2.26c-1,8.69-.64,3.75,10.45,18.74,6.19,8.37,34.15,28.34,48.25,29C1003.9,508.54,1004.06,498.22,1004.06,498.22Z" transform="translate(1.29 -0.61)"/><path class="cls-11" d="M1020.58,528.38c-4-4.66-.83-33.32-11.14-41.85s-44.14,5.57-44.14,5.57,3.28,20.11,27.22,29.66c11.92,4.76,16.28,11.79,18.48,17.6-.85,2.06-1.51,4.72-.58,6.95a5.59,5.59,0,0,0,6.16,3.42C1023.22,549.44,1024.58,533,1020.58,528.38Z" transform="translate(1.29 -0.61)"/><path class="cls-24" d="M948.62,425.73s-5.77-1.32-6.11.19,15.62,4.14,15.78,3.15S950.67,426.19,948.62,425.73Z" transform="translate(1.29 -0.61)"/><path class="cls-11" d="M982.25,429.64s7.22-1.62,7.69-10.15c.18-3.27-2-6.63-3.23-9.71-1.37-3.27-2.46-2.7-4.27.37-1.4,2.39-4.11,4.82-4.84,6.58C975.36,422.18,982.25,429.64,982.25,429.64Z" transform="translate(1.29 -0.61)"/><path class="cls-11" d="M950,451.21s-24.6,2.69-31.76-2.52c0,0-.73-5.22-2.08-6.81s-5.84-2.06-7.79-.5,5.06,11.46,6.35,12.32,24.61,26.77,34.23,28.85c4,.87-2.88-12.17.59-16S950,451.21,950,451.21Z" transform="translate(1.29 -0.61)"/><path class="cls-11" d="M963.08,438.56s-24.71,1.36-31.58-4.22c0,0-.46-5.26-1.71-6.92s-5.73-2.37-7.76-.92,4.43,11.72,5.67,12.64,23.14,28.06,32.64,30.66c3.94,1.08-2.23-12.31,1.44-15.93S963.08,438.56,963.08,438.56Z" transform="translate(1.29 -0.61)"/><path class="cls-25" d="M948.73,412.11c-1,1.23-3,3.38-5.47,2.87.08-.4.18-.82.28-1.27.92-4.16,5.09-1.63,5.09-1.63Z" transform="translate(1.29 -0.61)"/><path class="cls-11" d="M1006.58,487.68a37.23,37.23,0,0,0,9.24-4.69c4.48-3.45,4-11.36-9-13,0,0,3.72-4.36,10.75-1.93a5.38,5.38,0,0,0-1.05-2.78s9.12,1.34,10.45,8.86c0,0,2.39-3.7,2-5.85,0,0,8.35,5.62,3.9,14.37a6.21,6.21,0,0,0,3.54-2.93s-3.15,16.47-25.39,14.28Z" transform="translate(1.29 -0.61)"/><path class="cls-26" d="M978.65,417.91a10.14,10.14,0,0,1,2-2.73c1.58-1.67,2.61-5,3-4.81s1.6,9.57-1.76,11.1C981.92,421.47,979.43,421.48,978.65,417.91Z" transform="translate(1.29 -0.61)"/><path class="cls-11" d="M1004.47,543.5c-1.07-6,16.26-29.1,11.74-41.69s-40.82-17.7-40.82-17.7-7.43,19,8.3,39.4c7.83,10.17,8,18.43,6.94,24.56-1.78,1.34-3.7,3.29-4,5.68a5.58,5.58,0,0,0,3.55,6.08C996,563,1005.54,549.55,1004.47,543.5Z" transform="translate(1.29 -0.61)"/><path class="cls-15" d="M863.54,421.77c.66,4.61,13.54,106.26,36.38,114.32s75.92-37.83,75.92-37.83l-8.13-9.71s-48.46,14.81-49.34,12.51-18.62-63.16-18.62-63.16Z" transform="translate(1.29 -0.61)"/><path class="cls-27" d="M878,382.34s-14.35,7.19-19.36,17-5.63,41.24,2.13,82.07c0,0,29.63-12.32,44.92-33.22C905.65,448.21,893.73,376.44,878,382.34Z" transform="translate(1.29 -0.61)"/><path class="cls-15" d="M967.71,488.55a32.86,32.86,0,0,0,2.81-7.12c.92-3.73,3.77-8.1,4-11.56s2.3-1.16,3.07,1-.88,9,.66,8,7-9.25,5.74-12,9,2.37,9.11,8.54-4.43,13.29-6.74,15.16-10.51,7.62-10.51,7.62Z" transform="translate(1.29 -0.61)"/></g><g class="cls-1"><path class="cls-15" d="M1381.47,700.66c1.08,5.4,8.78,4.5,17.39,2.4s6.56.4,18.8-1,16-5.92,16.34-7.74c.33-1.62-5.72-2.19-12.21-2.94l-2.46-.29c-7.33-.92-12.7-5.65-19.35-9.53-6.31-3.68-15.72-18.67-15.72-18.67l-16.8,1.33s8.82,13.39,12.23,19.21c2,3.42,1.9,7.95,1.65,11.44A21.31,21.31,0,0,0,1381.47,700.66Z" transform="translate(1.29 -0.61)"/><path class="cls-11" d="M1398.86,703.06c8.6-2.1,6.56.4,18.8-1s16-5.92,16.34-7.74c.33-1.62-5.72-2.19-12.21-2.94l-.06.13a34.51,34.51,0,0,1-17.54,5.45c-8.31.2-17.12-2.18-22.85-2.09a21.31,21.31,0,0,0,.13,5.75C1382.55,706.06,1390.25,705.16,1398.86,703.06Z" transform="translate(1.29 -0.61)"/><path class="cls-15" d="M1237.12,724.83c-3.34,4.39,2.43,9.57,9.7,14.63s4,5.18,13.16,13.47,15,8.05,16.61,7.12c1.44-.81-2.14-5.73-5.87-11.09l-1.41-2c-4.16-6.1-4.16-13.26-5.65-20.82-1.41-7.16,10.28-33.48,10.28-33.48l-18.79-2.37s-2.45,15.9-4.56,22.31c-1.24,3.76-6.46,6.25-9.25,8.37A21.38,21.38,0,0,0,1237.12,724.83Z" transform="translate(1.29 -0.61)"/><path class="cls-11" d="M1246.82,739.46c7.27,5.06,4,5.18,13.16,13.47s15,8.05,16.61,7.12c1.44-.81-2.14-5.73-5.87-11.09l-.14,0a34.6,34.6,0,0,1-15.69-9.55c-5.65-6.1-9.68-14.27-13.55-18.52a21.38,21.38,0,0,0-4.22,3.9C1233.78,729.22,1239.55,734.4,1246.82,739.46Z" transform="translate(1.29 -0.61)"/><path class="cls-15" d="M1304,510.17s17.51,4.73,19.31,7.45,5.33,11,5.18,13.19-4.93-4.29-6.72-5.94c-1.16-1.07-5.36-1.7-7.43-2-5.2-.85-7.71-3.23-9.66-4.41a5.28,5.28,0,0,0-2.9-.65Z" transform="translate(1.29 -0.61)"/><path class="cls-15" d="M1321.79,522.38s1.06,6,1.88,7a3.64,3.64,0,0,0,1.57,1.31l-.12-5.15Z" transform="translate(1.29 -0.61)"/><path class="cls-15" d="M1323.32,517.62l7.12,9.64a1.92,1.92,0,0,1-1.9-.22,25.68,25.68,0,0,1-3.55-3.31Z" transform="translate(1.29 -0.61)"/><path class="cls-15" d="M1304.69,518.43s1.62,3.94,4.86,5.35,5.62,3.53,6.14,2.77-2.45-4.78-2.45-4.78Z" transform="translate(1.29 -0.61)"/><path class="cls-13" d="M1313.86,590.26l-17.17,46.18-22.4,60.3a36.46,36.46,0,0,1-11.9-1.09c-5.36-1.55-11.52-5.6-11.52-5.6s6.23-64.75,17.83-101.91c3-9.54,6.31-17.26,10-21.6C1296.68,545.28,1313.86,590.26,1313.86,590.26Z" transform="translate(1.29 -0.61)"/><path class="cls-12" d="M1296.41,516.92c-11.25-3.63-45.13-1.47-77.34,4.84l-4.93-8.63-69.58-5.43s-23,50.91-10.39,83.35c1.85,4.77,5.52,7.83,11.78,7.93h1l54.86,0c34.6,0,73.23-23.79,78.23-24.79,8.18-1.63,11.45,14.72,19.63,31.9s76.88,76.07,76.88,76.07,10.56.1,14.92-1.53c4.7-1.76,6.41-4.05,6.41-4.05S1321.76,525.1,1296.41,516.92Z" transform="translate(1.29 -0.61)"/><path class="cls-13" d="M1211.4,310.53c-8.91-4.68-22.47-5.31-24.68-5.61-26.36-3.54-42.23,34.77-43.16,46.38-1.72,21.39-13,24.66-29,38.06-31.94,26.87-22.57,58.09-5.11,69.69,10.48,7,29,0,29,0,.26.18,50.52-28.1,75.3-41.74C1250.87,412,1234.12,322.46,1211.4,310.53Z" transform="translate(1.29 -0.61)"/><path class="cls-15" d="M1193,405.7c.11.07-12.19,4.27-20.41.63-7.74-3.42-13.6-16.15-13.49-16.16,3.53-.16,7.39-3.24,10.36-23.43l1.5.54,25.2,9.06s-1.82,8.09-3,15.79C1192.12,398.59,1191.59,404.78,1193,405.7Z" transform="translate(1.29 -0.61)"/><path class="cls-28" d="M1196.12,376.34s-1.82,8.09-3,15.79c-14.48-2.61-20.16-17-22.2-24.85Z" transform="translate(1.29 -0.61)"/><path class="cls-15" d="M1199.87,384.37s-34.47-4.63-31.26-26.05.93-36.46,23.07-34.41,25.19,10.87,25.86,18.28S1208.93,385,1199.87,384.37Z" transform="translate(1.29 -0.61)"/><path class="cls-13" d="M1216.29,330.44s-22.07,19-37.09,20.56-20.69-3.29-20.69-3.29a58.62,58.62,0,0,0,14.17-19.2,10.56,10.56,0,0,1,8.7-6.23C1192.1,321.36,1212.42,320.94,1216.29,330.44Z" transform="translate(1.29 -0.61)"/><path class="cls-13" d="M1202.49,328.74s7.38,7.14,9.71,12.43c2.24,5.11,2.91,17.33,1.13,22.19,0,0,11.5-22.37,5-33.24C1211.41,318.6,1202.49,328.74,1202.49,328.74Z" transform="translate(1.29 -0.61)"/><path class="cls-14" d="M1222,456.49c-1,69.79-.29,55.2-7.93,61.82-1.83,1.6-7,2.55-13.81,3-21.4,1.42-59-2.11-60.45-6.06-4.94-13.69-1.45-17.94-5.57-38.89-.43-2.23-1-4.64-1.59-7.26-3.43-14.39-6.77-19.29,5.41-42.4,11-20.94,22.53-37.94,23.56-37.33,29.14,17.31,31.49,2.76,31.49,2.76S1222.51,422.44,1222,456.49Z" transform="translate(1.29 -0.61)"/><path class="cls-3" d="M1296.69,636.44l-22.91,62.81s-8.23,2.68-14.23,1.81a17.84,17.84,0,0,1-9.46-4.22s7-71.54,18.61-108.7Z" transform="translate(1.29 -0.61)"/><path class="cls-14" d="M1193.12,392.13s30,5.08,33.51,18,29.27,84.06,29.27,84.06-20.27,7.5-27.32.45-24.5-65.34-24.5-65.34Z" transform="translate(1.29 -0.61)"/><path class="cls-2" d="M1200.26,521.31c-21.4,1.42-59-2.11-60.45-6.06-4.94-13.69-1.45-17.94-5.57-38.89l10-22.85s-1.43,26.15,8.12,34.67,39.08,16.43,43.72,23.54A26.08,26.08,0,0,1,1200.26,521.31Z" transform="translate(1.29 -0.61)"/><path class="cls-14" d="M1249.85,477.37l56.83,33.37s-1.65,6.92-3.33,7.54c-8.88,3.25-61.08-3.09-74.77-23.64Z" transform="translate(1.29 -0.61)"/><path class="cls-11" d="M1153.3,529.94l105.88-11.61a30.35,30.35,0,0,0,1.53-3.4h0c.32-.83.58-1.64.8-2.43,3.13-11.47-3.87-19.25-13-21.68-10.6-2.82-18.16,5.37-18.16,5.37s-20.62-15.55-55.41-10.55c-20.26,2.91-29.23,18-33.18,30.1A10.87,10.87,0,0,0,1153.3,529.94Z" transform="translate(1.29 -0.61)"/><path class="cls-11" d="M1244.92,490.26s4.6-7,11.56-7.11c0,0,2.92,5.48-2,13.33S1244.92,490.26,1244.92,490.26Z" transform="translate(1.29 -0.61)"/><path class="cls-11" d="M1255.18,502.36s6.68-5.06,13.27-2.82c0,0,.92,6.14-6.37,11.88S1255.18,502.36,1255.18,502.36Z" transform="translate(1.29 -0.61)"/><path class="cls-29" d="M1155.8,519.56a38.69,38.69,0,0,0,22.38-.78c12.41-4.37,44.5-10,50.4,2.9l-72.66,8.17Z" transform="translate(1.29 -0.61)"/><path class="cls-11" d="M1251.68,515l13.42-.14s5.07-2.22,6.58-2,3,3.78,3,3.78l-20.92,2.3Z" transform="translate(1.29 -0.61)"/><path class="cls-11" d="M1152.36,517.85a28.62,28.62,0,0,0,22.2,2.74c12.55-3.62,38.93-5.87,42.94-3.27,0,0,3.74,1.55,1.57,4.44s-21.79,3.36-30,4.45c-6,.8-36.31,5.65-41.07,3S1152.36,517.85,1152.36,517.85Z" transform="translate(1.29 -0.61)"/><path class="cls-30" d="M1250.15,507.12s-3.19-3.06-3.63-2.27-.4,2.91.37,3.32S1251,508.83,1250.15,507.12Z" transform="translate(1.29 -0.61)"/><path class="cls-31" d="M1247.07,514.08c.52.47,13.64.85,13.64.85h0c.32-.83.58-1.64.8-2.43C1259.1,515.18,1246.55,513.6,1247.07,514.08Z" transform="translate(1.29 -0.61)"/><path class="cls-32" d="M1253.11,493.31s3.09-1.34,2.1-7.37c0,0-5.4,1.42-6.92,3.42s.14,1.32,1.88,2S1252.49,494.45,1253.11,493.31Z" transform="translate(1.29 -0.61)"/><path class="cls-33" d="M1262.17,507.25s3.36-.12,4.63-6.1c0,0-5.54-.64-7.69.66s-.35,1.28,1,2.58S1261.17,508.09,1262.17,507.25Z" transform="translate(1.29 -0.61)"/><path class="cls-14" d="M1245.46,513.56s-5-.28-6.87-2.15a7.88,7.88,0,0,0,2.91,0s-3.39-.59-4.25-1.67-1.47-2-2.43-.94-2.2,4.08-.87,4.93S1245.46,513.56,1245.46,513.56Z" transform="translate(1.29 -0.61)"/><path class="cls-15" d="M1201.28,510.74s4.42,5.71,5.87,6.39a4.34,4.34,0,0,0,2.39.51l-3-5.36Z" transform="translate(1.29 -0.61)"/><path class="cls-15" d="M1200.26,504.87l12.86,6.24a2.3,2.3,0,0,1-2.13.83,31.05,31.05,0,0,1-5.58-1.54Z" transform="translate(1.29 -0.61)"/><path class="cls-28" d="M1175.74,507.7s21.11-4.71,24.52-2.83,11.73,8.7,12.77,11.07-7.58-1.8-10.39-2.56c-1.81-.48-6.6,1.18-9,2-10,3.32-16.07,1.61-16.07,1.61Z" transform="translate(1.29 -0.61)"/><path class="cls-14" d="M1161.6,389.36s-28.35,1.74-38.16,15.43c-13.82,19.27-41.22,101.38-25.51,112.33,17.68,12.34,80.49,3.23,80.49,3.23s2.09-9.77-.82-14.5-50.16-12.36-52.34-14.54,21.54-33.72,19-39.75C1136.18,432.22,1161.6,389.36,1161.6,389.36Z" transform="translate(1.29 -0.61)"/></g><g class="cls-34"><path class="cls-15" d="M850,325.46c0-.35-5.24-11.18-3.57-12s4.65-.7,5,1.19S850,325.46,850,325.46Z" transform="translate(1.29 -0.61)"/><path class="cls-13" d="M771.84,190.86s-30.71-36.9-47-13.29c0,0-12.13,5-16.51,25.68-4.48,21.07,9.53,37.08,16.77,33.12,4.64-2.54,8.16,5.59,8.16,5.59Z" transform="translate(1.29 -0.61)"/><path class="cls-15" d="M809.93,387.24c24.42-9,47.93-50.77,47.93-50.77l-7.7-5.39c-6.41,9.38-35.26,27.39-35.26,27.39-.66-7.9-1.62-15.08-2.8-21.57-8-44.16-26.33-57.24-31.25-60a12.56,12.56,0,0,0-1.24-.63s0,.33,0,.94c.07,1.33.23,4,.48,7.68C782.05,312.21,789.53,394.77,809.93,387.24Z" transform="translate(1.29 -0.61)"/><path class="cls-13" d="M728.23,173.83s-4.13-16.52-28.39-11.35c0,0,11.61-1.47,14.79,3,0,0-9.2-4.22-15-.69s-6.71,15.4-5.85,19,7.22,14.37,11.44,14.37,9.2-3.7,9.2-3.7Z" transform="translate(1.29 -0.61)"/><path class="cls-15" d="M691.93,432.33c12.06-27.05,17.83-34.7,18-43.21.16-6.73-3.16-14-9.61-31.8a67.33,67.33,0,0,1-3.21-12.87c-5.09-34.33,14.76-71.44,27.1-74,3.43-.91,9.25-13.31,9.18-33.29l1.54.31,26,5.14s-.59,8.18-.61,15.88c0,6.42.37,12.5,1.83,13.27l3,.28s21.66,30.08,23.49,58.07-17.35,40.13.14,96C806.62,483.29,685.26,447.28,691.93,432.33Z" transform="translate(1.29 -0.61)"/><path class="cls-35" d="M760.94,242.64s-.59,8.18-.61,15.88c-14.53-.41-22.22-13.67-25.37-21Z" transform="translate(1.29 -0.61)"/><path class="cls-13" d="M732.28,234.67s-7.62-12-9.45-22.33c-1.3-7.35,2.44-34.59,29.81-30.67a37.35,37.35,0,0,1,15.43,5.83c5.94,4,14.52,12.68,4.93,36.45l-2.5,8Z" transform="translate(1.29 -0.61)"/><path class="cls-15" d="M765.8,249.94s-34.4.56-34.42-20.86S726.9,193.29,748.86,192s26.23,6.9,28,14.05S774.74,249.24,765.8,249.94Z" transform="translate(1.29 -0.61)"/><path class="cls-13" d="M764.52,191.5s-9.41,25.14-23.87,28.85-20.72-.15-20.72-.15A40.93,40.93,0,0,0,733.32,196S757.42,179.54,764.52,191.5Z" transform="translate(1.29 -0.61)"/><path class="cls-13" d="M762.19,193.54s7,5.61,8.75,11.07,2.48,16.69,5.76,16.31c0,0,7.09-17.09-.88-26.76C767.36,183.92,762.19,193.54,762.19,193.54Z" transform="translate(1.29 -0.61)"/><path class="cls-13" d="M722.38,691.91a340.81,340.81,0,0,0,21.68,60.82l11.35-.79s-5.57-26.46-5.25-62.22c.23-25,3.32-54.54,13.2-82.75C797.3,510,791.81,439.5,791.81,439.5L728,447l-3,.35c-.26,29.31-1,69.11-1.68,100.23-.59,28-1.1,49-1.1,49C710,622.92,714.42,660.23,722.38,691.91Z" transform="translate(1.29 -0.61)"/><path class="cls-15" d="M647.19,461.06l10.33,3.1s34.06-56.52,37.16-71.22c1-4.79,3.49-14.37,6.38-25.11,6-22.23,13.7-49.43,13.7-49.43l2.54-11L726,269.84s-16.6,1.69-26.31,5.75c-3.22,1.34-5.67,3-6.53,4.83-7.13,15.68-14.26,55.27-19.26,83.52-2.79,15.74-4.92,28-6,30.54C664.74,401.71,655.28,441.45,647.19,461.06Z" transform="translate(1.29 -0.61)"/><path class="cls-12" d="M685.77,686.41c3.67,39.17,19.82,64.49,19.82,64.49l5.42,3.94s5.13-27.59,8.76-60.42c3.46-31.2,8.2-64.22,13.56-74.3,21.29-40,27.69-190.86,27.69-190.86l-64.71-3.21c-6.51,10.95-9.35,28.89-10,49.3-1.7,51.49,10.4,118.64,12.21,128.35v0a3.39,3.39,0,0,1-.43,2.17C685.21,631.38,683.35,660.54,685.77,686.41Z" transform="translate(1.29 -0.61)"/><path class="cls-13" d="M763.5,194.39s-6.71,26.32-25,34.75c0,0,18.24-16.17,19.79-33.55S763.5,194.39,763.5,194.39Z" transform="translate(1.29 -0.61)"/><path class="cls-3" d="M683.81,451.86a15.24,15.24,0,0,0,.41,5.17c1.37,4.34,6.1,6.31,17.53,5.13,7-.73,10.11-12.44,11.49-22.43,4.2,14.29,10.08,22.32,17.67,24,11.09,2.47,67,9.26,70.65-17.31,4-29.23-8-81-8.69-108.89a138.24,138.24,0,0,0,2-25.86c-.47-19.88-6.3-31-10.79-35.51-1.27-1-2.54-1.58-7.64-2.46-2.61-.44-6.22-1-11.34-1.63a18.41,18.41,0,0,0-2-.16c.95,1.69,13.61,20.87,12.62,25.8-1,5.16-45.94.51-49-2.33s-8-24.58-8-24.58-15.9,1.74-23.68,7.4l.08.1a6.5,6.5,0,0,0-2,2.15c-8.3,15.8-16.59,55.68-22.42,84.12,14.13,7.78,26.47,5.47,30.3,4.44C695.91,401.77,684.56,436.94,683.81,451.86Z" transform="translate(1.29 -0.61)"/><path class="cls-15" d="M850.16,331.08c0-1.07-.89-16.43,1.85-19.66s8.32-7.82,10.07-7.67,8.63,9.26,6.56,16.26-10.78,16.46-10.78,16.46Z" transform="translate(1.29 -0.61)"/><rect class="cls-36" x="833.57" y="289.22" width="33.69" height="18.62" rx="1" transform="translate(321.59 1026.83) rotate(-73.32)"/><rect class="cls-37" x="844.51" y="282.7" width="18.62" height="33.69" rx="3.03" transform="translate(1586.98 831.02) rotate(-163.32)"/><path class="cls-15" d="M685.77,686.41c3.67,39.17,19.82,64.49,19.82,64.49l5.52,5s5-28.68,8.66-61.51C716,694.7,699.09,695.31,685.77,686.41Z" transform="translate(1.29 -0.61)"/><path class="cls-38" d="M722.38,691.91a340.81,340.81,0,0,0,21.68,60.82l11.35-.79s-5.57-26.46-5.25-62.22C746.32,691.66,738.37,693.63,722.38,691.91Z" transform="translate(1.29 -0.61)"/><path class="cls-11" d="M737.53,762.24h7.24c2.43-.38,4.22-1.09,6.71-1.41,3.78-.5,5.52,1,5.86,1.41l.07.07h30.76c.78-1.11,0-3.67-.7-5.55a4.35,4.35,0,0,0-2.88-2.63c-3.26-1-9.69-1.79-15.58-7.12-3.31-3-16-11-16-11h-.07c-.27,0-1.6.41-7.37,5.28-3,2.51-8.07-3.55-8.07-3.55a7.37,7.37,0,0,0-1.67,2.26,7.66,7.66,0,0,0-.66,4.72c.46,2.78-1,7.93-2.2,11.41-.72,2.11-1.32,3.61-1.32,3.61S731.3,761.46,737.53,762.24Z" transform="translate(1.29 -0.61)"/><path class="cls-39" d="M735.83,740c1.73,1.22,5.38,3.62,7.8,3.93,3.27.43,9.38-7.91,9.38-7.91h-.07c-.27,0-1.6.41-7.37,5.28-3,2.51-8.07-3.55-8.07-3.55A7.37,7.37,0,0,0,735.83,740Z" transform="translate(1.29 -0.61)"/><path class="cls-39" d="M737.53,762.24h7.24c2.43-.38,4.22-1.09,6.71-1.41,3.78-.5,5.52,1,5.86,1.41l.07.07h30.76c.78-1.11,0-3.67-.7-5.55-.93-.83-1.19,3.61-1.71,4.32s-25.09.25-26.51-.78-5.68-2.84-11.62-1.42c-5.16,1.24-12.78-1.93-14.66-2.77-.72,2.11-1.32,3.61-1.32,3.61S731.3,761.46,737.53,762.24Z" transform="translate(1.29 -0.61)"/><path class="cls-11" d="M698.89,762.24h7.24c2.43-.38,4.22-1.09,6.7-1.41,3.78-.5,5.52,1,5.87,1.41l.06.07h30.77c.77-1.11,0-3.67-.7-5.55a4.37,4.37,0,0,0-2.88-2.63c-3.26-1-9.69-1.79-15.58-7.12-3.32-3-16-11-16-11h-.07c-.28,0-1.61.41-7.38,5.28-3,2.51-8.06-3.55-8.06-3.55a7.19,7.19,0,0,0-1.67,2.26,7.66,7.66,0,0,0-.66,4.72c.46,2.78-1,7.93-2.2,11.41-.72,2.11-1.33,3.61-1.33,3.61S692.66,761.46,698.89,762.24Z" transform="translate(1.29 -0.61)"/><path class="cls-39" d="M697.19,740c1.73,1.22,5.38,3.62,7.8,3.93,3.27.43,9.38-7.91,9.38-7.91h-.07c-.28,0-1.61.41-7.38,5.28-3,2.51-8.06-3.55-8.06-3.55A7.19,7.19,0,0,0,697.19,740Z" transform="translate(1.29 -0.61)"/><path class="cls-39" d="M698.89,762.24h7.24c2.43-.38,4.22-1.09,6.7-1.41,3.78-.5,5.52,1,5.87,1.41l.06.07h30.77c.77-1.11,0-3.67-.7-5.55-.93-.83-1.2,3.61-1.71,4.32s-25.1.25-26.52-.78-5.68-2.84-11.61-1.42c-5.17,1.24-12.78-1.93-14.66-2.77-.72,2.11-1.33,3.61-1.33,3.61S692.66,761.46,698.89,762.24Z" transform="translate(1.29 -0.61)"/><path class="cls-3" d="M782.19,275.25s21.45,10.8,28.6,54.36c0,0-7,9.63-16.93,12.47a19.39,19.39,0,0,1-4.4.76C777.31,343.49,782.19,275.25,782.19,275.25Z" transform="translate(1.29 -0.61)"/><path class="cls-15" d="M863.73,304.93s-6.64-10.21-8.26-9.64c-2.31.81,6,13.76,6,13.76s-6.17-9.68-7.14-8.95c-2.19,1.66,1.3,7.74,4.77,12.4,0,0-6.2-5.68-6.41-4.66-.7,3.58,6.81,12.26,6.81,12.26l4.21-9.59Z" transform="translate(1.29 -0.61)"/><path class="cls-15" d="M868.7,314.4c-.32-1.25-1.94-25.61-2.63-23.3s-2.34,15.08-2.34,15.08Z" transform="translate(1.29 -0.61)"/><path class="cls-14" d="M759.08,237.22s.59,2.52,6.87,2.13c0,0,5.28-.32,5.12-3.1C771.07,236.25,766,234.28,759.08,237.22Z" transform="translate(1.29 -0.61)"/><path class="cls-15" d="M647.19,461.06s-12.46,8.29-14.36,11.78-6.35,16.34-6.35,16.34,3.17.48,6.35-5.08S646.47,479,650,476s7.55-11.85,7.55-11.85Z" transform="translate(1.29 -0.61)"/><path class="cls-15" d="M656.16,466.89s-2.07,9.76-4.61,12.61-6,7.62-7.46,6.35,1.59-11.9,1.59-11.9Z" transform="translate(1.29 -0.61)"/><path class="cls-15" d="M634.57,474c-.31.47-11.26,12.11-11.26,12.11s4,1.8,5.07,0S634.57,474,634.57,474Z" transform="translate(1.29 -0.61)"/></g><g class="cls-1"><path class="cls-37" d="M743.47,634.61c-4.08,2.1-10.82,4-13.21,9.37-.84,1.9-.39,8.58,2.47,8.19,1.58-.21,2-2.32,2.12-4.18a5,5,0,0,1,2.89-4.26l18.62-8.16-3.5-7.21S745.27,633.69,743.47,634.61Z" transform="translate(1.29 -0.61)"/><path class="cls-40" d="M928.11,762.27H815.33c0,1.35-20.29,0-20.29,0s1.43-6.94,4.81-8.89c.77-.44,6.4.9,7.78.84-.58-.36-12.52-4.06-9.84-22.32l-6.37,29.43a1.12,1.12,0,0,1-1.1.94h-25a1.12,1.12,0,0,1-1.1-.91c-.37-2-1-6.7,1-9.1,1.55-1.89,6.43-1.47,10-.85.8.14,1.53.28,2.14.42a1.13,1.13,0,0,0,1.32-1.39s-1.86-5.45-5.24-13a150.63,150.63,0,0,0-14.38-25.78q-1.83-2.57-3.8-4.94c-4.72-5.68-7.91-19.32-3.79-25.34.55-.78,3-3.39,2.1-3a10,10,0,0,0-4,3.33,1.12,1.12,0,0,1-2-.63c-.5-14.22,10.25-26.37,14.46-32.57,1.37-2,2.05-3.41,1.42-4-2.71-2.7-14.67,4.13-20.08,3.94a14.38,14.38,0,0,1-7.08-2.14,1.13,1.13,0,0,1-.53-.87,1.11,1.11,0,0,1,.6-1.07c3.11-1.62,7.81-3.6,11.51-6.27a15.94,15.94,0,0,0,4.52-5.77,7.16,7.16,0,0,0,.48-3.47,46.62,46.62,0,0,1-14.45,8.14c-3.15,1.08-5.94,1.56-7.75,1.23-4.65-.83-7.58-5.1-9.23-8.57a29.39,29.39,0,0,1-1.46-3.74,1.1,1.1,0,0,1,.61-1.35L724,623c6.81-3.14,14.37-5.62,15.72-7.78a25.4,25.4,0,0,0,1.31-2.45h0c2-4.22,4-9.77,9.64-14.26a39.37,39.37,0,0,1,21.5-8.54c1.15-.07,1.81,0,1.81,0,5.84-.23,10.16.64,13.39,2.31h0c12.5,6.5,8.43,25.18,11,39.45.1.56.22,1.11.34,1.65,1.08,4.72,14.85,17.51,15.39,25.28,1,14.83,12.14,16.21,36.67,31.22C865,698.44,866,722,864.75,739.82a8.61,8.61,0,0,0,7.17,9.11,55.2,55.2,0,0,0,18.72.27c16.78-3.12,20.29-31.61,10.15-35.91,0,0,17.22-5.07,25.59,8.2S934.74,755.83,928.11,762.27Z" transform="translate(1.29 -0.61)"/><path class="cls-37" d="M776.31,594a10.24,10.24,0,0,0-9.95,8.89c-1.19,7.77-2.37,19-.87,26.69,2.23,11.5,12.15,15.71,18.52,12.3,11.76-6.29,6.39-30.63,3.12-42a8,8,0,0,0-7.57-5.9Z" transform="translate(1.29 -0.61)"/><path class="cls-41" d="M721.43,629.59a28.79,28.79,0,0,1-1.46-3.73,1.13,1.13,0,0,1,.61-1.36L724,623S725,628.39,721.43,629.59Z" transform="translate(1.29 -0.61)"/><path class="cls-42" d="M928.11,762.27H908.27c22.65-4.66,17.9-22,17.9-22-2.34,4.29-15.41,5.07-15.41,5.07s8.78-8.2,8-20.29c-.64-9.83-12.11-11.44-16.38-11.69-1-.06-1.59-.05-1.59-.05s17.22-5.07,25.59,8.2S934.74,755.83,928.11,762.27Z" transform="translate(1.29 -0.61)"/><path class="cls-43" d="M787.38,592.17s11,2.91,13.38,11.69a11.45,11.45,0,0,0-2.51-1.86s2.84,2.43,2.51,8.59-3.81,16-2,22.68l-6.94-12.06Z" transform="translate(1.29 -0.61)"/><path class="cls-44" d="M741,612.72s3.19-8,0-11c0,0,2.22-.65,3.32,0,0,0,.39-6.11,8.2-8.84s19.64-3,19.64-3l-20.42,15.17Z" transform="translate(1.29 -0.61)"/><path class="cls-42" d="M780,762.27H765.35a1.12,1.12,0,0,1-1.1-.91c-.37-2-1-6.7,1-9.1,1.55-1.89,6.43-1.47,10-.85C778.93,755.45,780,762.27,780,762.27Z" transform="translate(1.29 -0.61)"/></g></svg>