<?xml version="1.0" encoding="utf-8"?>
<!-- Generator: Adobe Illustrator 25.1.0, SVG Export Plug-In . SVG Version: 6.00 Build 0)  -->
<svg version="1.1" id="Capa_1" xmlns="http://www.w3.org/2000/svg" xmlns:xlink="http://www.w3.org/1999/xlink" x="0px" y="0px"
	 viewBox="0 0 1920 770" style="enable-background:new 0 0 1920 770;" xml:space="preserve">
<style type="text/css">
	.st0{opacity:0.6;}
	.st1{fill:#DADBDC;}
	.st2{fill:#BCC2C5;}
	.st3{fill:#9B5B97;}
	.st4{fill:#EFEFEF;}
	.st5{display:none;}
	.st6{display:inline;fill:#F4E0F2;}
	.st7{display:inline;}
	.st8{fill:#F8F6F8;}
	.st9{fill:#FAEDF9;}
	.st10{fill:#C3DAF6;}
	.st11{fill:#A8AFB5;}
	.st12{fill:#434343;}
	.st13{display:none;fill:#40083F;}
	.st14{display:none;fill:#541453;}
	.st15{fill:#541453;}
	.st16{fill:#40083F;}
	.st17{fill:#FFFFFF;}
	.st18{fill:#FFAE73;}
	.st19{fill:#EE8C4D;}
	.st20{fill:#C38FBF;}
	.st21{fill:#D44B40;}
	.st22{fill:#F99352;}
	.st23{fill:#AAA6A4;}
	.st24{fill:#BAB4B9;}
	.st25{fill:#C0BEBC;}
	.st26{fill:#141C29;}
	.st27{fill:#F4726B;}
	.st28{fill:#0A111D;}
	.st29{fill:#27282B;}
	.st30{fill:#FFF7FF;}
	.st31{fill:#F9924F;}
	.st32{fill:#F4E0F2;}
	.st33{fill:#20232E;}
	.st34{fill:#151619;}
	.st35{fill:#101729;}
	.st36{fill:#161C2C;}
	.st37{fill:#161F3C;}
	.st38{opacity:0.72;}
	.st39{fill:#F48F4E;}
	.st40{fill:#FC9F38;}
	.st41{fill:#D97B3B;}
	.st42{fill:#E38F50;}
	.st43{fill:#3D6AA9;}
	.st44{fill:#F6BB85;}
	.st45{fill:#C85D00;}
	.st46{fill:#FFD8B6;}
	.st47{fill:#F9A759;}
	.st48{fill:#F9A553;}
</style>
<g class="st0">
	<path class="st1" d="M405.2,568.1c27.4,0,49.5-22.2,49.5-49.5h-99.1C355.6,545.9,377.8,568.1,405.2,568.1z"/>
	<path class="st2" d="M455.4,570.6H354.9l0,0c0-3.4,2.7-6.1,6.1-6.1h88.2C452.6,564.5,455.4,567.2,455.4,570.6L455.4,570.6z"/>
	<rect x="354" y="518.6" class="st3" width="101.8" height="1.5"/>
	<path class="st4" d="M1779.3,767.9l-293.2,1.5l-373.9-1l-1105.4,2c0,0-2.9-64.8,0-195c1.9-83.2,262.8-32.8,522.6-73.8
		C773,463.1,671,65,1030.2,89.1c141.7,9.5,157.9,16.6,267.5-8.5c463-106.1,564.6,114.5,599.4,328.7
		C1910.1,488.4,1875.4,734.2,1779.3,767.9z"/>
</g>
<g class="st5">
	<path class="st6" d="M417.7,495.5c0,0-12.1-14.1-0.7-23c0,0,8.3-5,15-4.6c0,0-9.6,16-6.5,17.6s9.4-18.6,9.4-18.6s18.8-1.8,24.9,1.1
		c0,0-16.1,13.2-12.7,13.9c3.4,0.8,20.8-12.1,20.8-12.1s17.5,3,16.6,13.7s-7,14-9.6,13.7c-2.7-0.3-18.2-6.2-18.5-4s9,9.3,15.5,9.6
		c0,0-12.3,13.6-20.5,9.7c-8.2-3.9-8.9-10.2-14-12.5s-9.5-2.3-7.4,0.1s11.4,4.7,14.3,9.9c2.9,5.2,5.5,8.7-2.9,7.4
		c-8.5-1.3-22.3-7.5-22.9-14.6C417.7,495.5,417.7,495.5,417.7,495.5z"/>
	<g class="st7">
		<path class="st3" d="M475.7,483.7c0,0-47.6-1.8-58.1,11.8c0,0-2.3,7-9.5,13.3l-1.1,3c0,0,8.2-8.7,11.2-9.2
			C418.3,502.6,413.7,485.7,475.7,483.7z"/>
		<path class="st3" d="M408.2,508.7c0,0-10.2,7.5-10.9,21l1.9,0.2c0,0,3.3-13.9,9.2-19.4C414.2,505.1,408.2,508.7,408.2,508.7z"/>
	</g>
</g>
<g class="st5">
	<g class="st7">
		<path class="st3" d="M315.6,440.9c0,0,53.7,17.4,59.9,36.8c0,0-0.3,8.7,5.1,18.7v3.8c0,0-5.6-13-8.7-14.8
			C371.9,485.4,383.9,468.5,315.6,440.9z"/>
		<path class="st3" d="M380.6,496.4c0,0,8.3,12.6,3.6,27.9l-2.1-0.6c0,0,2.1-16.9-2.3-25.4C375.4,489.9,380.6,496.4,380.6,496.4z"/>
	</g>
</g>
<g class="st5">
	<g class="st7">
		<path class="st3" d="M484.9,414.4c0,0-70.8,22.9-78.9,48.6c0,0,0.3,11.5-6.7,24.6v5.1c0,0,7.4-17.2,11.5-19.6
			C410.7,473.1,394.9,450.8,484.9,414.4z"/>
		<path class="st3" d="M399.3,487.6c0,0-10.9,16.6-4.7,36.8l2.8-0.8c0,0-2.7-22.2,3-33.4C406.1,479,399.3,487.6,399.3,487.6z"/>
	</g>
</g>
<g class="st0">
	<rect x="990.6" y="137.1" class="st8" width="173.7" height="214.2"/>
	<path class="st9" d="M1123.2,297.1c-1.5-2.4-3.7-3.6-5.7-4c-0.3-0.1-0.5-0.1-0.8-0.2c-0.1,0-0.1,0-0.2,0c-3-0.4-5.5,0.3-5.5,0.3
		l0,0l0,0l0,0c4.8,2,3.2,15.6-4.8,17.1c-2.9,0.5-6.1,0.3-8.9-0.1c-2.1-0.3-3.6-2.2-3.4-4.3c0.6-8.5,0.1-19.7-6.6-23.9
		c-11.7-7.2-17-7.8-17.5-14.9c-0.3-3.7-6.8-9.8-7.3-12.1c-0.1-0.2-0.1-0.5-0.1-0.7c-0.5-3.2,0.9-7.4,1.1-10.1
		c0.2-2.9-1.2-4.1-1.2-4.1c0.5,0.2,1.2,0.9,1.2,0.9c-1.1-4.2-6.4-5.6-6.4-5.6l0,0l0,0l0,0l0,0c-1.5-0.8-3.6-1.2-6.4-1.1
		c0,0-0.3,0-0.9,0l0,0c0,0-5.6,0.1-9.4,1.4c-3.7,1.3-3.9,4.2-3.9,4.2c-0.5-0.3-1.6,0-1.6,0c1.5,1.4,0,5.3,0,5.3l0,0l0,0
		c-0.2,0.4-0.4,0.8-0.6,1.2c-0.6,1-4.3,2.2-7.5,3.7c-0.4,0.2-0.8,0.4-1.1,0.5c-0.2,0.1-0.4,0.2-0.5,0.2s-0.1,0.1-0.2,0.1
		c-0.1,0.1-0.2,0.3-0.1,0.5s0.1,0.4,0.2,0.7c0.1,0.2,0.1,0.3,0.2,0.5s0.2,0.3,0.2,0.5c0.8,1.7,2.2,3.7,4.4,4.1
		c0.9,0.2,2.2-0.1,3.7-0.6l0,0c-1.6,0.7-3.2,1.7-3.9,3.4c-0.4,0.9-0.2,4.1,1.2,3.9c0.8-0.1,1-1.1,1-2c0-0.5,0.2-0.9,0.4-1.2
		c0,0.2,0.1,0.3,0.2,0.4c0.7,0.4,1.9,1,3.4,1c2.6,0.1,8.3-3.2,9.6-1.9c0.3,0.3,0,1-0.7,1.9c-2,3-7.1,8.8-6.9,15.5
		c0,0.5,0.7,0.7,1,0.3c0.4-0.6,1-1.2,1.9-1.6c0.4-0.2-0.7,1.1-1,1.4c-2,2.9-0.4,9.4,1.8,12.1c0.6,0.8,1.2,1.5,1.8,2.4
		c2.9,4.1,5.2,8.7,6.9,12.3c1.6,3.6,2.5,6.2,2.5,6.2c0.1,0.4-0.2,0.7-0.6,0.7c-0.3-0.1-0.6-0.1-1-0.2c-1.7-0.3-4-0.5-4.8,0.4
		c-0.9,1.1-0.6,3.4-0.5,4.3c0,0.3,0.3,0.4,0.5,0.4h7h4.9c0.3,0,0.5-0.2,0.5-0.4l3-14c-1.3,8.7,4.4,10.5,4.7,10.7
		c-0.7,0-3.3-0.6-3.7-0.4c-1.6,0.9-2.3,4.2-2.3,4.2s9.7,0.6,9.7,0h53.8l0,0l0,0C1127.2,313.5,1127.2,303.5,1123.2,297.1z"/>
	<g>
		<rect x="1006.5" y="151" class="st9" width="60.3" height="2.5"/>
		<rect x="1072.5" y="151" class="st9" width="33.9" height="2.5"/>
		<rect x="1006.5" y="157.7" class="st9" width="33.9" height="2.5"/>
		<rect x="1043.5" y="157.7" class="st9" width="38.8" height="2.5"/>
		<rect x="1087.1" y="157.7" class="st9" width="38.8" height="2.5"/>
	</g>
	<g>
		<rect x="1006.5" y="166.1" class="st9" width="60.3" height="2.5"/>
		<rect x="1072.5" y="166.1" class="st9" width="33.9" height="2.5"/>
		<rect x="1006.5" y="172.8" class="st9" width="33.9" height="2.5"/>
		<rect x="1043.5" y="172.8" class="st9" width="38.8" height="2.5"/>
		<rect x="1087.1" y="172.8" class="st9" width="38.8" height="2.5"/>
	</g>
	<g>
		<rect x="1006.5" y="329.6" class="st9" width="60.3" height="2.5"/>
		<rect x="1072.5" y="329.6" class="st9" width="33.9" height="2.5"/>
		<rect x="1006.5" y="336.3" class="st9" width="33.9" height="2.5"/>
		<rect x="1043.5" y="336.3" class="st9" width="38.8" height="2.5"/>
		<rect x="1087.1" y="336.3" class="st10" width="38.8" height="2.5"/>
	</g>
	<g>
		<rect x="1079.8" y="228.9" class="st9" width="60.3" height="2.5"/>
		<rect x="1079.8" y="242.9" class="st9" width="60.3" height="2.5"/>
		<rect x="1079.8" y="235.6" class="st9" width="33.9" height="2.5"/>
		<rect x="1116.8" y="235.6" class="st9" width="27.1" height="2.5"/>
		<rect x="1079.8" y="250.5" class="st9" width="33.9" height="2.5"/>
		<rect x="1116.8" y="250.5" class="st9" width="27.1" height="2.5"/>
	</g>
	<path class="st9" d="M1052,236.2c0,0-5.9-7.5-13.4-5.9c0,0-0.3,1.2,0.5,2.8c0.8,1.6,0.9,3.8,0.9,3.8L1052,236.2z"/>
	<rect x="1006.5" y="190.9" class="st9" width="142.2" height="25.1"/>
	<g>
		<path class="st9" d="M1166.4,353.3H988.5V135h177.9V353.3z M992.7,349.1h169.5v-210H992.7V349.1z"/>
	</g>
</g>
<g class="st0">
	<path class="st11" d="M714.1,580v4.8c0,1.7-0.5,3-1.2,3H538.3c-0.7,0-1.2-1.4-1.2-3V580c0-1.7,0.5-3,1.2-3h174.6
		C713.6,576.9,714.1,578.3,714.1,580z"/>
	<path class="st2" d="M714.1,580v4.8c0,1.7-0.5,3-1.1,3H574.4c-0.6,0-1.1-1.4-1.1-3V580c0-1.7,0.5-3,1.1-3H713
		C713.6,576.9,714.1,578.3,714.1,580z"/>
	<rect x="545.9" y="587.8" class="st1" width="124" height="180.7"/>
	<rect x="580.7" y="587.8" class="st1" width="124" height="180.7"/>
	<g>
		<g>
			<path class="st2" d="M698,758.5H587.3V592.9h110.6L698,758.5L698,758.5z M588.5,757.3h108.3V594.1H588.5V757.3z"/>
		</g>
		<g>
			<rect x="587.9" y="647.7" class="st2" width="109.5" height="1.2"/>
		</g>
		<g>
			<rect x="587.9" y="703.5" class="st2" width="109.5" height="1.2"/>
		</g>
		<path class="st2" d="M653.9,603.6h-20.3c-1,0-1.8-0.8-1.8-1.8l0,0c0-1,0.8-1.8,1.8-1.8h20.3c1,0,1.8,0.8,1.8,1.8l0,0
			C655.7,602.8,654.9,603.6,653.9,603.6z"/>
		<path class="st2" d="M653.9,658.2h-20.3c-1,0-1.8-0.8-1.8-1.8l0,0c0-1,0.8-1.8,1.8-1.8h20.3c1,0,1.8,0.8,1.8,1.8l0,0
			C655.7,657.4,654.9,658.2,653.9,658.2z"/>
		<path class="st2" d="M653.9,715.1h-20.3c-1,0-1.8-0.8-1.8-1.8l0,0c0-1,0.8-1.8,1.8-1.8h20.3c1,0,1.8,0.8,1.8,1.8l0,0
			C655.7,714.3,654.9,715.1,653.9,715.1z"/>
	</g>
</g>
<g class="st0">
	<path class="st12" d="M1840.4,770h-32.5c0.2-1.7,1.1-6.9,2.6-11.7c0.5-1.7,1.1-3.3,1.8-4.7c3.2-6.3,23.2-2.3,23.2-2.3
		s1.9,1.6,3.3,7.7C1839.5,761.7,1840.1,765.3,1840.4,770z"/>
	<path class="st13" d="M632.9,485.4c0,0,19.2-10.7,10.2-25.3c0,0-7.2-9-14.8-11.3c0,0,4.1,21.7,0,22.3c-4.1,0.5-2.8-24.6-2.8-24.6
		s-20.2-9.7-28.1-9c0,0,12.5,21.2,8.4,20.7c-4.1-0.5-18.2-22-18.2-22s-20.7-3.8-24,8.4c-3.3,12.3,2,18.4,5.1,19.2
		c3.1,0.8,22.8,0.5,22.3,3.1s-13.8,6.7-21.2,4.3c0,0,8.2,20.2,18.9,19.2s14.1-7.7,20.7-8.2c6.7-0.5,11.5,1.3,8.2,3.1
		s-14.6,0.6-20,5.2c-5.4,4.6-9.7,7.4,0.3,9.4s27.9,0.8,31.5-6.9C632.9,485.4,632.9,485.4,632.9,485.4z"/>
	<path class="st14" d="M663.4,470.5c0,0-25.3-14.2-13.5-33.4c0,0,9.4-11.8,19.6-14.8c0,0-5.4,28.7,0,29.3c5.4,0.7,3.7-32.4,3.7-32.4
		s26.6-12.8,37.1-11.8c0,0-16.5,28-11.1,27.3s23.9-29,23.9-29s27.3-5.1,31.7,11.1s-2.7,24.3-6.7,25.3s-30,0.7-29.3,4
		c0.7,3.4,18.2,8.8,28,5.7c0,0-10.8,26.6-25,25.3c-14.2-1.3-18.5-10.1-27.3-10.8c-8.8-0.7-15.2,1.7-10.8,4
		c4.4,2.4,19.2,0.8,26.3,6.8s12.8,9.7-0.3,12.4c-13.2,2.7-36.8,1-41.5-9.1C663.4,470.5,663.4,470.5,663.4,470.5z"/>
	<path class="st9" d="M1780.8,273.9c0,0-25.9,4.5-31.7,19.8c-5.8,15.3-38.9,262-38.9,262s16.4,13,51.5,8.3
		C1796.8,559.4,1780.8,273.9,1780.8,273.9z"/>
	<path class="st12" d="M1742.3,759.7c-0.1,4.4-0.6,8.6-2.2,10.2h-64.2c0.8-2.3,3.1-5.8,9.7-6.9c7.5-1.2,19.2-4.8,26-12
		c2.4-2.6,4.2-5.6,5-9.1c3-13.5,25,4.1,25,4.1S1742.4,753.2,1742.3,759.7z"/>
	<path class="st15" d="M1714.6,753.2c7.2,2.3,20.9,9.3,29.6,6c5.6-2.1,37.1-93.2,39.2-133c0.2-2.9,0.7-6.9,1.6-11.9
		c1.9-10.3,5.1-24.4,8.9-40c10.1-41.8,23.7-94,23.4-110.7c-0.5-25.9-77.3-5.4-77.3-5.4s-5.3,21.3-6.3,52.1
		c-2.1,61.1-7.8,164.3-23.4,236C1709.6,749.3,1711.6,752.3,1714.6,753.2z"/>
	<path class="st16" d="M1767.9,463.7l40.6,294.2c0,0,17.8,4.3,31.7,0.9c0,0,11.9-156.5,10.9-194.3s8.5-101.2-2.2-108.2
		C1838.2,449.2,1767.9,463.7,1767.9,463.7z"/>
	<path class="st17" d="M1854,287.4c0,0-42.7-27.6-73.3-13.5c-4.9,2.2-10.4,8.5-14.4,12.9c-11.1,12.2-32.7,205.8-32.7,205.8
		s61.4,20.8,120.4-7.1V287.4z"/>
	<path class="st9" d="M1778.4,273.2c0,0-43.2,17.7-49,31.3c-5.8,13.6-24.9,97.1-24.9,106.9s33.1,2.2,38.4-13.6
		c4.4-13.1,19.4-53.4,27.2-78.9L1778.4,273.2z"/>
	<g>
		<path class="st18" d="M1787.3,286.7c9.4,1.8,23.3-0.1,33.4-6.8c-4.6-10.9-6.5-19.6-7.1-25.2c0-0.3-0.1-0.6-0.1-0.9
			c-0.3-2.9-0.3-4.9-0.1-5.8H1789c0,0-6.7,3-6.7,5.2c0,1.1,0,2.2,0,3.2c0,2.8-0.2,5.3-0.3,7.4c-0.5,6.8-1.2,10.1-1.2,10.1
			S1777.8,284.9,1787.3,286.7z"/>
		<path class="st19" d="M1782,263.9c18.5,3.6,29.2-6.5,31.6-9.1c0.3-0.4,0.5-0.6,0.5-0.6c-0.2-0.1-0.4-0.2-0.6-0.3
			c-6.9-2.8-22.5-0.6-31.2,2.6C1782.3,259.3,1782.2,261.8,1782,263.9z"/>
		<path class="st18" d="M1819.7,244.1c-3.3,17.8-26.2,17.2-36.1,16.1c-2.8-0.3-4.5-0.7-4.5-0.7c-3.1-0.8-4.9-5.8-5.7-12.3
			c-1.6-12.8,0.4-31.7,2.6-36.5c3.3-7.2,9.4-15.1,32.5-9.4C1831.4,207,1823.9,221.4,1819.7,244.1z"/>
		<path class="st16" d="M1775,200.9c3.2-4.4,9.8-9.7,15.9-13c13.1-7.1,29.8,0.2,29.8,0.3c18.9,8.3,23.8,22.7,13.8,45.2
			c-10.6,23.8-20.6,21.1-20.6,21.1s2.1-1.3,1.9-8.7c0-0.4,0-0.8,0-1.1c-0.1-1.5,0.4-3,1.6-4.1c2.3-2.1,3.5-8.4,1.5-10.2
			c-2.4-2.1-5.7,0.5-6.8,2.4c-0.9,1.4-2.6,1.9-4.1,0.9c-5.9-3.7-2.1-11.1-7.7-15.7c-5.6-4.5-17-0.7-25.4-4.3
			C1763.9,209.6,1772.6,204.2,1775,200.9z"/>
	</g>
	<path class="st9" d="M1772.4,573.9c3.7,1,7.4,1.7,11,2.3c3.2,0.6,6.4,1,9.7,1.2c18.3,1.6,36.6-1,58-7.1c4.8-1.4,9.8-3,15-4.7
		c0.6-0.2-1.4-56.9-3.7-115.3c-0.2-6-0.5-12.1-0.7-18.1c-0.1-2.5-0.2-5.1-0.3-7.6c-2.1-51.7-4.1-98.4-4.5-100.9
		c-1-5.7-1.9-10.5-2.9-14.7c-2.9-12.3-6.5-19-14.5-24.7c-0.8-0.6-7.1-3.8-12.7-6.5c-4.6-2.3-8.7-4.3-8.7-4.3l0,0
		c-1.8,0.9-4,5.1-6.4,11c-4.2,10.9-8.8,27.6-12,40.1v0.1l0,0c-2.1,8-3.5,14.3-3.9,16.1c-0.7,3-1.7,8.9-2.8,16.9
		c-1.5,10.8-3.3,25.6-5.2,42.3c-0.2,1.7-0.4,3.5-0.6,5.2c-0.2,2-0.5,4-0.7,6.1c-0.1,0.7-0.1,1.3-0.2,2c-0.7,6.6-1.5,13.4-2.2,20.4
		c-0.6,5.7-9.3,9.9-9.9,15.7c-0.3,3.4-1.1,35-2,45.1C1771.6,501.5,1772.1,570.5,1772.4,573.9z"/>
	<path class="st20" d="M1835.4,344.5c0,0.1,1.5,52.3-37.8,58.6c-39.2,6.3-13.2,8-13.2,8s73.8-3.1,75.1-5.1
		C1860.7,404.1,1835.4,344.5,1835.4,344.5z"/>
	<path class="st20" d="M1802.2,425.5c0,0,0.7,0.5,2.2,1.4c0,0,0,0,0.1,0c6,3.8,23.8,14.2,49.6,21.2c2.7,0.7,5.5,1.4,8.4,2.1
		c-0.2-6-0.5-12.1-0.7-18.1c3.4-0.3,6.7-0.7,9.7-1.3c-0.1-0.8-0.2-1.6-0.3-2.4c-3.3-1.4-6.6-2.7-9.7-3.9c-2.6-1-5.1-2-7.4-2.8
		c-10.6-4-18.5-6.8-18.5-6.8l-31.5,10L1802.2,425.5z"/>
	<path class="st9" d="M1793.9,424.7c0,0,4,1,10.5,2.3c0,0,0,0,0.1,0c11.9,2.4,31.8,5.7,49.6,5.5c2.6,0,5.2-0.1,7.7-0.3
		c3.4-0.3,6.7-0.7,9.7-1.3c6.5-1.4,12-3.7,15.5-7.3c26.5-27-14.5-123.9-23.1-133.3c-10.1-11-28.4-14.9-38.5-16.2
		c-0.4-0.1-0.8-0.1-1.2-0.2c-3.6-0.4-5.9-0.5-6-0.5l0,0c0,0,0.8,2.6,2.1,6.9c0.5,1.7,1.1,3.6,1.8,5.8c6.2,20.4,18.2,60.5,23.5,83.1
		c1.9,8.3,3,14.2,2.5,16c-2.1,7.7-23.5,11.7-37.1,13.4c-5.7,0.7-10,1.1-10.9,1.2c-0.1,0-0.1,0-0.2,0l-0.8,3.2l-1.9,7.7l-1.8,7.6
		L1793.9,424.7z"/>
	<polygon class="st12" points="1719.9,471.1 1811,467.3 1792.5,353.8 1701.5,357.6 	"/>
	<path class="st18" d="M1800,399.6c0,0-17.7-1.2-18.6,2.9c-2.1,9.6,15.2,17.5,20.8,17C1807.8,419,1804,399,1800,399.6z"/>
	<path class="st18" d="M1706.4,380.7c0,0,17-5.3,18.8-1.5c4.2,8.9-10.8,20.6-16.3,21.4C1703.3,401.3,1702.3,381,1706.4,380.7z"/>
	<path class="st20" d="M1816.4,267.6c0,0,7.5,3.6,11.2,8.9c0,0-27.9,48.4-27.7,47.9C1799.9,324,1809.2,273.8,1816.4,267.6z"/>
	<path class="st20" d="M1781.6,268.3c-2.5,0.9-7.2,5.7-8.2,8.4l-3.3,42.2c0,0,7.1-31,10.7-45
		C1781.7,270.4,1781.5,269.3,1781.6,268.3z"/>
	<path class="st21" d="M1762.3,355.1c0,0-0.7-3.1-4.9-2.8c-4.1,0.4-27.4,1.5-27.4,1.5s-4.5-0.1-4.1,2.8L1762.3,355.1z"/>
	<path class="st17" d="M1789,248.1c0,0-3,2.8-7.9,1.9c-2.9-0.5-4.5-4.3-4.5-4.3S1782.2,244.8,1789,248.1z"/>
</g>
<g class="st0">
	<g>
		<path class="st11" d="M834.1,770.8h-0.2c-1.3,0-2.4-1.1-2.4-2.4l3.6-156.9l10.7-1.2l-9.1,158.2
			C836.6,769.8,835.4,770.8,834.1,770.8z"/>
	</g>
	<g>
		<path class="st11" d="M771.9,770.8h-0.2c-1.3,0-2.4-1.1-2.4-2.4l3.6-156.9l10.7-1.2l-9.1,158.2
			C774.4,769.8,773.3,770.8,771.9,770.8z"/>
	</g>
	<g>
		<path class="st11" d="M943.4,770.8h0.2c1.3,0,2.4-1.1,2.4-2.4l-3.6-156.9l-10.7-1.2l9.1,158.2C940.9,769.8,942,770.8,943.4,770.8z
			"/>
	</g>
	<path class="st1" d="M764.9,601.8V494.2c0-18.9,15.3-34.3,34.3-34.3h77.5c18.9,0,34.3,15.3,34.3,34.3v111.6L764.9,601.8z"/>
	<path class="st11" d="M924.7,618.7H781.8c-9.4,0-17-7.6-17-17l0,0h159.8L924.7,618.7L924.7,618.7z"/>
	<path class="st2" d="M941.8,618.7H830.4c-4.7,0-8.5-3.8-8.5-8.5l0,0c0-4.7,3.8-8.5,8.5-8.5h111.4c4.7,0,8.5,3.8,8.5,8.5l0,0
		C950.2,614.9,946.4,618.7,941.8,618.7z"/>
</g>
<g class="st0">
	<g>
		<path class="st11" d="M1157.5,770.8h-0.2c-1.3,0-2.4-1.1-2.4-2.4l3.6-156.9l10.7-1.2l-9.1,158.2
			C1159.9,769.8,1158.8,770.8,1157.5,770.8z"/>
	</g>
	<g>
		<path class="st11" d="M1095.3,770.8h-0.2c-1.3,0-2.4-1.1-2.4-2.4l3.6-156.9l10.7-1.2l-9.1,158.2
			C1097.8,769.8,1096.7,770.8,1095.3,770.8z"/>
	</g>
	<g>
		<path class="st11" d="M1266.8,770.8h0.2c1.3,0,2.4-1.1,2.4-2.4l-3.6-156.9l-10.7-1.2l9.1,158.2
			C1264.3,769.8,1265.4,770.8,1266.8,770.8z"/>
	</g>
	<path class="st1" d="M1088.2,601.8V494.2c0-18.9,15.3-34.3,34.3-34.3h77.5c18.9,0,34.3,15.3,34.3,34.3v111.6L1088.2,601.8z"/>
	<path class="st11" d="M1248.1,618.7h-142.9c-9.4,0-17-7.6-17-17l0,0H1248L1248.1,618.7L1248.1,618.7z"/>
	<path class="st2" d="M1265.1,618.7h-111.4c-4.7,0-8.5-3.8-8.5-8.5l0,0c0-4.7,3.8-8.5,8.5-8.5h111.4c4.7,0,8.5,3.8,8.5,8.5l0,0
		C1273.6,614.9,1269.8,618.7,1265.1,618.7z"/>
</g>
<g class="st0">
	<g>
		<path class="st11" d="M1424.6,770.8h-0.2c-1.3,0-2.4-1.1-2.4-2.4l3.6-156.9l10.7-1.2l-9.1,158.2
			C1427.1,769.8,1426,770.8,1424.6,770.8z"/>
	</g>
	<g>
		<path class="st11" d="M1362.5,770.8h-0.2c-1.3,0-2.4-1.1-2.4-2.4l3.6-156.9l10.7-1.2l-9.1,158.2
			C1365,769.8,1363.9,770.8,1362.5,770.8z"/>
	</g>
	<g>
		<path class="st11" d="M1534,770.8h0.2c1.3,0,2.4-1.1,2.4-2.4l-3.6-156.9l-10.7-1.2l9.1,158.2
			C1531.5,769.8,1532.6,770.8,1534,770.8z"/>
	</g>
	<path class="st1" d="M1355.4,601.8V494.2c0-18.9,15.3-34.3,34.3-34.3h77.5c18.9,0,34.3,15.3,34.3,34.3v111.6L1355.4,601.8z"/>
	<path class="st11" d="M1515.3,618.7h-142.9c-9.4,0-17-7.6-17-17l0,0h159.8L1515.3,618.7L1515.3,618.7z"/>
	<path class="st2" d="M1532.3,618.7h-111.4c-4.7,0-8.5-3.8-8.5-8.5l0,0c0-4.7,3.8-8.5,8.5-8.5h111.4c4.7,0,8.5,3.8,8.5,8.5l0,0
		C1540.8,614.9,1537,618.7,1532.3,618.7z"/>
</g>
<g class="st0">
	<path class="st16" d="M1166.2,288.3c-0.5-1.2-6.4-14.2-26.3-7.1c0,0,10.1-2.6,13.4,1.1c0,0-8.6-2.8-13.3,1
		c-4.7,3.9-4.3,14.8-3.1,18c1.2,3.2,7.9,12.3,11.7,11.8c1.4-0.2,2.9-0.9,4.1-1.6c-0.4,1.8-0.7,3.8-0.8,5.9
		c-1.7,19.7,12.4,32.8,18.4,28.3c3.8-2.8,7.8,4.2,7.8,4.2l28.6-50.9C1206.6,299,1179.4,272.6,1166.2,288.3z"/>
	<path class="st18" d="M1219.8,408.1c-27.1,12.5-47.4-31.5-45.7-32c2.7-3.2,5.5-14.4,3.5-30.6l1.4,0.1l23.5,1.8
		c0,0,0.4,7.5,1.2,14.5c0.5,4.6,1.3,9,2.2,10.9c0.3,0.6,5.4,1.3,5.4,1.3C1211.8,374.7,1227,404.8,1219.8,408.1z"/>
	<path class="st12" d="M1392.6,768.6h-47.4c0,0-1.1-7.5,1.3-13.1c2.4-5.4,3.9-6.9,1.3-13.2c3,3.2,11.8,5.5,18.7,4.6
		c0.8,1.4,5.4,8.9,8.2,11C1377.8,760.1,1391.7,759.3,1392.6,768.6z"/>
	<path class="st12" d="M1309.1,768.1h-47.4c0,0-1.1-7.5,1.3-13.1c2.4-5.4,7-9.1,8.4-15.3c3,3.2,4.8,7.6,11.6,6.7
		c0.8,1.4,5.4,8.9,8.2,11C1294.3,759.7,1308.1,758.9,1309.1,768.1z"/>
	<path class="st15" d="M1145.1,538.5c0,0-10.6,34.2,13.1,50.4c31.8,21.7,120.1,3.2,130.2,14.3c2.6,2.8-5.2,4.2-9.5,44.4
		c-6.3,57.8-11.3,90.1-11.3,90.1s1.1,6.6,7.8,10c4.4,2.2,9.9,0.9,9.9,0.9s64.8-146.7,58.4-167c-11.2-35.2-73.1-31.8-144.8-52.6
		C1154.9,516.3,1145.1,538.5,1145.1,538.5z"/>
	<path class="st3" d="M1178.7,537.8c31.5-3,117.5-4.5,136.1,8.6c22.9,16.2,54,201.5,54,201.5s-2.4,2-7.6,2.5
		c-4.8,0.5-15.3-2.7-15.3-2.7s-51.1-83.5-54.2-104.3c-3.1-20.9-1.5-39.5-10.1-40.1s-127.5,13.5-137.6-20
		c-7.9-26.2,1.6-51.5,1.6-51.5S1149.6,540.5,1178.7,537.8z"/>
	<path class="st8" d="M1244.2,430.5c1.9,7.4,3.6,14,4.3,18.4c3.6,20.5,6.8,83,6.8,83c-32.2,51.2-121.8,35.8-121.8,35.8
		c-2-19.4,5.6-62.6,10.2-101c1.1-9.4,2.1-18.5,2.7-27c0.5-7.3,1.3-13.9,2.4-19.7c7.6-41.1,27.3-45.6,27.3-45.6
		c9.2,18.4,38.2,23.3,38.2,23.3c0.4-10.3-2.9-23.5-2.9-23.5c3.7,0.5,16,2,19.4,3.7c9.9,5,33.5,46.4,33.5,46.4
		S1270.3,421.6,1244.2,430.5z"/>
	<path class="st22" d="M1202.6,347.5c0,0,0.4,7.5,1.2,14.5c-12.9,1.2-21.1-10-24.7-16.3L1202.6,347.5z"/>
	<path class="st18" d="M1207.7,353.6c0,0-30.4,4.4-32.7-15.2c-2.3-19.5-7.8-32.1,11.5-35.7c19.3-3.6,24,3.4,26.3,9.7
		C1215,318.7,1215.5,351.9,1207.7,353.6z"/>
	<path class="st16" d="M1210.5,301.6c-5.4-5.3-8.8-3.5-10.6-1.5c-17.8-7.3-26.8,8-26.8,8c-0.4,14.3-9.2,23.5-9.2,23.5
		s6,2.8,18.4-2.2c3.8-1.5,6.9-4.8,9.5-8.7c-4.1,9.6-10.4,16.9-10.4,16.9c14.4-9.2,18-31.9,18.3-34.3c2.1,1.5,6.2,4.8,7.7,8.3
		c2.1,4.8,4,14.9,6.9,14.2C1214.2,325.9,1218.6,309.5,1210.5,301.6z"/>
	<path class="st23" d="M1207.8,539.5c-0.5-0.3-40.4-3.1-53.3-69.1c1.1-9.4,1.4-5.6,2.5-11.3c5.6-0.9,4.1-33.7,7.1-24.5
		C1170.2,453.3,1207.7,538.7,1207.8,539.5z"/>
	<path class="st24" d="M1177.3,368c0,0-5.2,3.4-5.2,8.3c0,0,6.2,17.4,42.3,21.5C1214.3,397.8,1181.1,381,1177.3,368z"/>
	<path class="st25" d="M1205.4,372.2c0,0,9.1,17.2,8.8,25.6c0,0,0.6-19.1-0.7-23.5c-1.3-4.4-9-6.3-9-6.3L1205.4,372.2z"/>
	<path class="st17" d="M1198.7,343.2c0.3,0,3.2,2.7,7,1.9c3.8-0.7,3.8-3.8,3.8-3.8s-2.6-0.4-4.9,0
		C1202.4,341.7,1198.7,343.2,1198.7,343.2z"/>
	<g>
		<path class="st26" d="M1277.7,441.5c0,0,3.7-10.7-0.9-18.3c-1.7-2.8-4-5.7-6.1-8.2c-2.3-2.7-3.2-1.8-3.9,1.7
			c-0.6,2.7-2.4,5.9-2.5,7.8c-0.4,5.9-1.3,9.9,3.6,14.3C1272.8,443,1277.7,441.5,1277.7,441.5z"/>
		<path class="st12" d="M1297.5,505.8c0,0,24.2-3.8-6.1-19.4c-7.4-3.8-31.4-26.2-19.3-32.9c6.2-3.4,8.4-8.5,9.2-12.6
			c0.1-0.6,0.2-1.1,0.2-1.7l0,0c0.3-3.1-0.2-5.4-0.2-5.4s-0.3-4.9-8-8.8c-2.1-1.1-4.8-2.1-8.2-2.8l0,0c-0.7-0.2-1.5-0.3-2.3-0.5
			c-7.8-1.5-9.7,1.8-13.1,0.7c-3.1-1-7.1-2.5-7.7-2.7c-0.1,0-0.1,0-0.1,0s-4.2-2.5-5.1,1.6c-0.1,0.4-0.2,0.9-0.3,1.3
			c-0.6,2.9-0.9,4.7-0.1,6.1c0.6,1.1,3.6,3,5.9,4c1.8,0.8,6.1,2.4,6.3,2.5c0.6,0.4-3,1-12.3-2c-0.2-0.1-0.3-0.1-0.5-0.2
			c-0.4-0.1-0.9,0.1-1.1,0.5c-0.3,0.8-0.6,2.1,0.4,3.6c1.6,2.4,9.9,4.9,8,6.8c-0.4,0.4-1,0.7-1.8,0.9l0,0c-2.8,0.9-7.3,1.1-9.6,4
			c0,0,3.4-0.3,5.4,0.7c0,0-7.7,0.1-9.1,3.6c0,0,1.2-0.5,2.8,0.1c0,0-7.5,3.7-9.5,12c-0.2,0.7-0.3,1.5-0.4,2.3
			c-1,8.7-0.6,3.7,10.5,18.7c6.2,8.4,34.2,28.3,48.3,29C1297.3,516.1,1297.5,505.8,1297.5,505.8z"/>
		<path class="st12" d="M1314,536c-4-4.7-0.8-33.3-11.1-41.9c-10.3-8.5-44.1,5.6-44.1,5.6s3.3,20.1,27.2,29.7
			c11.9,4.8,16.3,11.8,18.5,17.6c-0.9,2.1-1.5,4.7-0.6,6.9c1.8,4.3,6.2,3.4,6.2,3.4C1316.6,557,1318,540.6,1314,536z"/>
		<path class="st27" d="M1242,433.3c0,0-5.8-1.3-6.1,0.2c-0.3,1.5,15.6,4.1,15.8,3.2C1251.8,435.7,1244.1,433.8,1242,433.3z"/>
		<path class="st12" d="M1275.7,437.2c0,0,7.2-1.6,7.7-10.1c0.2-3.3-2-6.6-3.2-9.7c-1.4-3.3-2.5-2.7-4.3,0.4
			c-1.4,2.4-4.1,4.8-4.8,6.6C1268.8,429.8,1275.7,437.2,1275.7,437.2z"/>
		<path class="st12" d="M1243.4,458.8c0,0-24.6,2.7-31.8-2.5c0,0-0.7-5.2-2.1-6.8c-1.3-1.6-5.8-2.1-7.8-0.5
			c-1.9,1.6,5.1,11.5,6.3,12.3c1.3,0.9,24.6,26.8,34.2,28.9c4,0.9-2.9-12.2,0.6-16C1246.4,470.4,1243.4,458.8,1243.4,458.8z"/>
		<path class="st12" d="M1256.5,446.2c0,0-24.7,1.4-31.6-4.2c0,0-0.5-5.3-1.7-6.9c-1.3-1.7-5.7-2.4-7.8-0.9
			c-2,1.4,4.4,11.7,5.7,12.6c1.2,0.9,23.1,28.1,32.6,30.7c3.9,1.1-2.2-12.3,1.4-15.9C1258.9,457.8,1256.5,446.2,1256.5,446.2z"/>
		<path class="st28" d="M1242.1,419.7c-1,1.2-3,3.4-5.5,2.9c0.1-0.4,0.2-0.8,0.3-1.3C1237.9,417.2,1242,419.7,1242.1,419.7
			C1242,419.7,1242.1,419.7,1242.1,419.7z"/>
		<path class="st12" d="M1300,495.3c0,0,5.6-1.9,9.2-4.7c4.5-3.5,4-11.4-9-13c0,0,3.7-4.4,10.8-1.9c0,0-0.1-1.5-1.1-2.8
			c0,0,9.1,1.3,10.4,8.9c0,0,2.4-3.7,2-5.9c0,0,8.3,5.6,3.9,14.4c0,0,2.2-0.6,3.5-2.9c0,0-3.2,16.5-25.4,14.3L1300,495.3z"/>
		<path class="st29" d="M1272,425.5c0,0,0.4-1.1,2-2.7c1.6-1.7,2.6-5,3-4.8s1.6,9.6-1.8,11.1C1275.3,429.1,1272.8,429.1,1272,425.5z
			"/>
		<path class="st12" d="M1297.9,551.1c-1.1-6,16.3-29.1,11.7-41.7c-4.5-12.6-40.8-17.7-40.8-17.7s-7.4,19,8.3,39.4
			c7.8,10.2,8,18.4,6.9,24.6c-1.8,1.3-3.7,3.3-4,5.7c-0.6,4.6,3.6,6.1,3.6,6.1C1289.4,570.6,1298.9,557.1,1297.9,551.1z"/>
	</g>
	<path class="st18" d="M1156.9,429.4c0.7,4.6,13.5,106.3,36.4,114.3s75.9-37.8,75.9-37.8l-8.1-9.7c0,0-48.5,14.8-49.3,12.5
		c-0.9-2.3-18.6-63.2-18.6-63.2L1156.9,429.4z"/>
	<path class="st30" d="M1171.4,389.9c0,0-14.4,7.2-19.4,17s-5.6,41.2,2.1,82.1c0,0,29.6-12.3,44.9-33.2
		C1199.1,455.8,1187.1,384,1171.4,389.9z"/>
	<path class="st18" d="M1261.1,496.2c0,0,1.9-3.4,2.8-7.1s3.8-8.1,4-11.6s2.3-1.2,3.1,1c0.8,2.2-0.9,9,0.7,8c1.5-1,7-9.2,5.7-12
		c-1.2-2.7,9,2.4,9.1,8.5c0.1,6.2-4.4,13.3-6.7,15.2c-2.3,1.9-10.5,7.6-10.5,7.6L1261.1,496.2z"/>
</g>
<g class="st0">
	<path class="st18" d="M1648.9,708.3c1.1,5.4,8.8,4.5,17.4,2.4s6.6,0.4,18.8-1c12.2-1.4,16-5.9,16.3-7.7c0.3-1.6-5.7-2.2-12.2-2.9
		c-0.8-0.1-1.6-0.2-2.5-0.3c-7.3-0.9-12.7-5.6-19.4-9.5c-6.3-3.7-15.7-18.7-15.7-18.7l-16.8,1.3c0,0,8.8,13.4,12.2,19.2
		c2,3.4,1.9,8,1.6,11.4C1648.6,704.4,1648.5,706.4,1648.9,708.3z"/>
	<path class="st12" d="M1666.3,710.7c8.6-2.1,6.6,0.4,18.8-1c12.2-1.4,16-5.9,16.3-7.7c0.3-1.6-5.7-2.2-12.2-2.9l-0.1,0.1
		c0,0-7.3,5.2-17.5,5.5c-8.3,0.2-17.1-2.2-22.8-2.1c-0.1,1.9-0.3,3.8,0.1,5.7C1649.9,713.7,1657.6,712.8,1666.3,710.7z"/>
	<path class="st18" d="M1504.5,732.4c-3.3,4.4,2.4,9.6,9.7,14.6c7.3,5.1,4,5.2,13.2,13.5c9.1,8.3,15,8,16.6,7.1
		c1.4-0.8-2.1-5.7-5.9-11.1c-0.5-0.7-0.9-1.4-1.4-2c-4.2-6.1-4.2-13.3-5.7-20.8c-1.4-7.2,10.3-33.5,10.3-33.5l-18.8-2.4
		c0,0-2.5,15.9-4.6,22.3c-1.2,3.8-6.5,6.3-9.2,8.4C1507.2,729.7,1505.7,730.9,1504.5,732.4z"/>
	<path class="st12" d="M1514.2,747.1c7.3,5.1,4,5.2,13.2,13.5c9.1,8.3,15,8,16.6,7.1c1.4-0.8-2.1-5.7-5.9-11.1h-0.1
		c0,0-8.8-2.1-15.7-9.5c-5.6-6.1-9.7-14.3-13.6-18.5c-1.5,1.2-3.1,2.4-4.2,3.9C1501.2,736.8,1507,742,1514.2,747.1z"/>
	<path class="st18" d="M1571.4,517.8c0,0,17.5,4.7,19.3,7.4s5.3,11,5.2,13.2c-0.2,2.2-4.9-4.3-6.7-5.9c-1.2-1.1-5.4-1.7-7.4-2
		c-5.2-0.8-7.7-3.2-9.7-4.4c-1.3-0.8-2.9-0.6-2.9-0.6L1571.4,517.8z"/>
	<path class="st18" d="M1589.2,530c0,0,1.1,6,1.9,7c0.8,1.1,1.6,1.3,1.6,1.3l-0.1-5.1L1589.2,530z"/>
	<path class="st18" d="M1590.7,525.2l7.1,9.6c0,0-0.8,0.5-1.9-0.2s-3.5-3.3-3.5-3.3L1590.7,525.2z"/>
	<path class="st18" d="M1572.1,526c0,0,1.6,3.9,4.9,5.4c3.2,1.4,5.6,3.5,6.1,2.8c0.5-0.8-2.5-4.8-2.5-4.8L1572.1,526z"/>
	<path class="st16" d="M1581.3,597.9l-17.2,46.2l-22.4,60.3c0,0-6.1,0.6-11.9-1.1c-5.4-1.5-11.5-5.6-11.5-5.6s6.2-64.7,17.8-101.9
		c3-9.5,6.3-17.3,10-21.6C1564.1,552.9,1581.3,597.9,1581.3,597.9z"/>
	<path class="st15" d="M1563.8,524.5c-11.2-3.6-45.1-1.5-77.3,4.8l-4.9-8.6l-69.6-5.4c0,0-23,50.9-10.4,83.4
		c1.8,4.8,5.5,7.8,11.8,7.9h1c0,0,41.4,0,54.9,0c34.6,0,73.2-23.8,78.2-24.8c8.2-1.6,11.5,14.7,19.6,31.9
		c8.2,17.2,76.9,76.1,76.9,76.1s10.6,0.1,14.9-1.5c4.7-1.8,6.4-4,6.4-4S1589.2,532.7,1563.8,524.5z"/>
	<path class="st16" d="M1478.8,318.1c-8.9-4.7-22.5-5.3-24.7-5.6c-26.4-3.5-42.2,34.8-43.2,46.4c-1.7,21.4-13,24.7-29,38.1
		c-31.9,26.9-22.6,58.1-5.1,69.7c10.5,7,29,0,29,0c0.3,0.2,50.5-28.1,75.3-41.7C1518.3,419.6,1501.5,330.1,1478.8,318.1z"/>
	<path class="st18" d="M1460.4,413.3c0.1,0.1-12.2,4.3-20.4,0.6c-7.7-3.4-13.6-16.1-13.5-16.2c3.5-0.2,7.4-3.2,10.4-23.4l1.5,0.5
		l25.2,9.1c0,0-1.8,8.1-3,15.8C1459.5,406.2,1459,412.4,1460.4,413.3z"/>
	<path class="st31" d="M1463.5,383.9c0,0-1.8,8.1-3,15.8c-14.5-2.6-20.2-17-22.2-24.9L1463.5,383.9z"/>
	<path class="st18" d="M1467.3,392c0,0-34.5-4.6-31.3-26.1c3.2-21.4,0.9-36.5,23.1-34.4c22.1,2,25.2,10.9,25.9,18.3
		C1485.6,357.2,1476.3,392.6,1467.3,392z"/>
	<path class="st16" d="M1483.7,338c0,0-22.1,19-37.1,20.6c-15,1.5-20.7-3.3-20.7-3.3s8.8-7.3,14.2-19.2c1.6-3.5,4.9-5.9,8.7-6.2
		C1459.5,329,1479.8,328.5,1483.7,338z"/>
	<path class="st16" d="M1469.9,336.3c0,0,7.4,7.1,9.7,12.4c2.2,5.1,2.9,17.3,1.1,22.2c0,0,11.5-22.4,5-33.2
		C1478.8,326.2,1469.9,336.3,1469.9,336.3z"/>
	<path class="st17" d="M1489.4,464.1c-1,69.8-0.3,55.2-7.9,61.8c-1.8,1.6-7,2.5-13.8,3c-21.4,1.4-59-2.1-60.4-6.1
		c-4.9-13.7-1.5-17.9-5.6-38.9c-0.4-2.2-1-4.6-1.6-7.3c-3.4-14.4-6.8-19.3,5.4-42.4c11-20.9,22.5-37.9,23.6-37.3
		c29.1,17.3,31.5,2.8,31.5,2.8S1489.9,430,1489.4,464.1z"/>
	<path class="st3" d="M1564.1,644l-22.9,62.8c0,0-8.2,2.7-14.2,1.8c-6.1-0.9-9.5-4.2-9.5-4.2s7-71.5,18.6-108.7L1564.1,644z"/>
	<path class="st17" d="M1460.5,399.7c0,0,30,5.1,33.5,18s29.3,84.1,29.3,84.1s-20.3,7.5-27.3,0.5s-24.5-65.3-24.5-65.3L1460.5,399.7
		z"/>
	<path class="st32" d="M1467.7,528.9c-21.4,1.4-59-2.1-60.4-6.1c-4.9-13.7-1.5-17.9-5.6-38.9l10-22.9c0,0-1.4,26.2,8.1,34.7
		s39.1,16.4,43.7,23.5C1465.8,522.7,1467.2,526.2,1467.7,528.9z"/>
	<path class="st17" d="M1517.2,485l56.8,33.4c0,0-1.6,6.9-3.3,7.5c-8.9,3.3-61.1-3.1-74.8-23.6L1517.2,485z"/>
	<g>
		<path class="st12" d="M1420.7,537.5l105.9-11.6c0.6-1.2,1.1-2.3,1.5-3.4l0,0c0.3-0.8,0.6-1.6,0.8-2.4c3.1-11.5-3.9-19.2-13-21.7
			c-10.6-2.8-18.2,5.4-18.2,5.4s-20.6-15.6-55.4-10.6c-20.3,2.9-29.2,18-33.2,30.1C1406.7,530.9,1412.8,538.4,1420.7,537.5z"/>
		<path class="st12" d="M1512.3,497.9c0,0,4.6-7,11.6-7.1c0,0,2.9,5.5-2,13.3C1516.9,511.9,1512.3,497.9,1512.3,497.9z"/>
		<path class="st12" d="M1522.6,510c0,0,6.7-5.1,13.3-2.8c0,0,0.9,6.1-6.4,11.9C1522.2,524.8,1522.6,510,1522.6,510z"/>
		<path class="st33" d="M1423.2,527.2c0,0,10.6,3.4,22.4-0.8c12.4-4.4,44.5-10,50.4,2.9l-72.7,8.2L1423.2,527.2z"/>
		<path class="st12" d="M1519.1,522.6l13.4-0.1c0,0,5.1-2.2,6.6-2s3,3.8,3,3.8l-20.9,2.3L1519.1,522.6z"/>
		<path class="st12" d="M1419.8,525.5c0,0,9.7,6.4,22.2,2.7c12.5-3.6,38.9-5.9,42.9-3.3c0,0,3.7,1.5,1.6,4.4
			c-2.2,2.9-21.8,3.4-30,4.5c-6,0.8-36.3,5.6-41.1,3S1419.8,525.5,1419.8,525.5z"/>
		<path class="st34" d="M1517.5,514.7c0,0-3.2-3.1-3.6-2.3c-0.4,0.8-0.4,2.9,0.4,3.3C1515.1,516.2,1518.4,516.4,1517.5,514.7z"/>
		<path class="st35" d="M1514.5,521.7c0.5,0.5,13.6,0.9,13.6,0.9l0,0c0.3-0.8,0.6-1.6,0.8-2.4
			C1526.5,522.8,1513.9,521.2,1514.5,521.7z"/>
		<path class="st36" d="M1520.5,500.9c0,0,3.1-1.3,2.1-7.4c0,0-5.4,1.4-6.9,3.4s0.1,1.3,1.9,2
			C1519.3,499.7,1519.9,502.1,1520.5,500.9z"/>
		<path class="st37" d="M1529.6,514.8c0,0,3.4-0.1,4.6-6.1c0,0-5.5-0.6-7.7,0.7c-2.1,1.3-0.3,1.3,1,2.6
			C1528.9,513.3,1528.6,515.7,1529.6,514.8z"/>
		<path class="st17" d="M1512.9,521.2c0,0-5-0.3-6.9-2.1c0,0,2,0.4,2.9,0c0,0-3.4-0.6-4.2-1.7c-0.9-1.1-1.5-2-2.4-0.9
			c-1,1-2.2,4.1-0.9,4.9C1502.7,522.2,1512.9,521.2,1512.9,521.2z"/>
	</g>
	<path class="st18" d="M1468.7,518.3c0,0,4.4,5.7,5.9,6.4c1.4,0.7,2.4,0.5,2.4,0.5l-3-5.4L1468.7,518.3z"/>
	<path class="st18" d="M1467.7,512.5l12.9,6.2c0,0-0.5,0.9-2.1,0.8c-1.6-0.1-5.6-1.5-5.6-1.5L1467.7,512.5z"/>
	<path class="st31" d="M1443.1,515.3c0,0,21.1-4.7,24.5-2.8c3.4,1.9,11.7,8.7,12.8,11.1c1,2.4-7.6-1.8-10.4-2.6
		c-1.8-0.5-6.6,1.2-9,2c-10,3.3-16.1,1.6-16.1,1.6L1443.1,515.3z"/>
	<path class="st17" d="M1429,397c0,0-28.3,1.7-38.2,15.4c-13.8,19.3-41.2,101.4-25.5,112.3c17.7,12.3,80.5,3.2,80.5,3.2
		s2.1-9.8-0.8-14.5c-2.9-4.7-50.2-12.4-52.3-14.5c-2.2-2.2,21.5-33.7,19-39.8C1403.6,439.8,1429,397,1429,397z"/>
</g>
<g class="st38">
	<g>
		<g>
			<g>
				<path class="st18" d="M1117.4,333.1c0-0.4-5.2-11.2-3.6-12c1.7-0.8,4.7-0.7,5,1.2C1119.2,324.1,1117.4,333.1,1117.4,333.1z"/>
				<path class="st16" d="M1039.2,198.5c0,0-30.7-36.9-47-13.3c0,0-12.1,5-16.5,25.7c-4.5,21.1,9.5,37.1,16.8,33.1
					c4.6-2.5,8.2,5.6,8.2,5.6L1039.2,198.5z"/>
				<path class="st18" d="M1077.3,394.8c24.4-9,47.9-50.8,47.9-50.8l-7.7-5.4c-6.4,9.4-35.3,27.4-35.3,27.4
					c-0.7-7.9-1.6-15.1-2.8-21.6c-8-44.2-26.3-57.2-31.3-60c-0.8-0.5-1.2-0.6-1.2-0.6s0,0.3,0.1,0.9c0.1,1.3,0.2,4,0.5,7.7
					C1049.5,319.8,1056.9,402.4,1077.3,394.8z"/>
				<path class="st16" d="M995.6,181.4c0,0-4.1-16.5-28.4-11.4c0,0,11.6-1.5,14.8,3c0,0-9.2-4.2-15-0.7s-6.7,15.4-5.8,19
					s7.2,14.4,11.4,14.4s9.2-3.7,9.2-3.7L995.6,181.4z"/>
				<path class="st18" d="M959.3,439.9c12.1-27.1,17.8-34.7,18-43.2c0.2-6.7-3.2-14-9.6-31.8c-1.5-4.2-2.6-8.5-3.2-12.9
					c-5.1-34.3,14.8-71.4,27.1-74c3.4-0.9,9.3-13.3,9.2-33.3l1.5,0.3l26,5.1c0,0-0.6,8.2-0.6,15.9c0,6.4,0.4,12.5,1.8,13.3
					c1.9,0.2,3,0.3,3,0.3s21.7,30.1,23.5,58.1c1.8,28-17.3,40.1,0.1,96C1074,490.9,952.7,454.9,959.3,439.9z"/>
				<path class="st39" d="M1028.3,250.2c0,0-0.6,8.2-0.6,15.9c-14.5-0.4-22.2-13.7-25.4-21L1028.3,250.2z"/>
				<path class="st16" d="M999.7,242.3c0,0-7.6-12-9.4-22.3c-1.3-7.3,2.4-34.6,29.8-30.7c0,0,8,0.8,15.4,5.8
					c5.9,4,14.5,12.7,4.9,36.5l-2.5,8L999.7,242.3z"/>
				<path class="st18" d="M1033.2,257.5c0,0-34.4,0.6-34.4-20.9c0-21.4-4.5-35.8,17.5-37.1c22-1.3,26.2,6.9,28,14.1
					C1046,220.8,1042.1,256.8,1033.2,257.5z"/>
				<path class="st16" d="M1031.9,199.1c0,0-9.4,25.1-23.9,28.9c-14.5,3.7-20.7-0.2-20.7-0.2s11.1-8.8,13.4-24.2
					C1000.7,203.6,1024.8,187.1,1031.9,199.1z"/>
				<path class="st16" d="M1029.6,201.1c0,0,7,5.6,8.7,11.1c1.7,5.5,2.5,16.7,5.8,16.3c0,0,7.1-17.1-0.9-26.8
					C1034.8,191.5,1029.6,201.1,1029.6,201.1z"/>
				<path class="st16" d="M989.8,699.5c8.7,34.4,21.7,60.8,21.7,60.8l11.3-0.8c0,0-5.6-26.5-5.2-62.2c0.2-25,3.3-54.5,13.2-82.7
					c33.9-96.9,28.5-167.5,28.5-167.5l-63.9,7.5l-3,0.3c-0.3,29.3-1,69.1-1.7,100.2c-0.6,28-1.1,49-1.1,49
					C977.4,630.5,981.8,667.8,989.8,699.5z"/>
				<path class="st18" d="M914.6,468.7l10.3,3.1c0,0,34.1-56.5,37.2-71.2c1-4.8,3.5-14.4,6.4-25.1c6-22.2,13.7-49.4,13.7-49.4
					l2.5-11l8.7-37.6c0,0-16.6,1.7-26.3,5.8c-3.2,1.3-5.7,2.9-6.5,4.8c-7.1,15.7-14.3,55.3-19.3,83.5c-2.8,15.7-4.9,28-6,30.5
					C932.1,409.3,922.7,449.1,914.6,468.7z"/>
				<path class="st15" d="M953.2,694c3.7,39.2,19.8,64.5,19.8,64.5l5.4,3.9c0,0,5.1-27.6,8.8-60.4c3.5-31.2,8.2-64.2,13.6-74.3
					c21.3-40,27.7-190.9,27.7-190.9l-64.7-3.2c-6.5,10.9-9.3,28.9-10,49.3c-1.7,51.5,10.4,118.6,12.2,128.4l0,0
					c0.1,0.8-0.1,1.5-0.4,2.2C952.6,639,950.7,668.1,953.2,694z"/>
				<path class="st16" d="M1030.9,202c0,0-6.7,26.3-24.9,34.8c0,0,18.2-16.2,19.8-33.5S1030.9,202,1030.9,202z"/>
				<path class="st3" d="M951.2,459.5c-0.1,2.2,0,3.9,0.4,5.2c1.4,4.3,6.1,6.3,17.5,5.1c7-0.7,10.1-12.4,11.5-22.4
					c4.2,14.3,10.1,22.3,17.7,24c11.1,2.5,67,9.3,70.6-17.3c4-29.2-8-81-8.7-108.9c1.6-9.9,2.2-18.5,2-25.9
					c-0.5-19.9-6.3-31-10.8-35.5c-1.3-1-2.5-1.6-7.6-2.5c-2.6-0.4-6.2-1-11.3-1.6c0,0-2.1-0.2-2-0.2c0.9,1.7,13.6,20.9,12.6,25.8
					c-1,5.2-45.9,0.5-49-2.3s-8-24.6-8-24.6s-15.9,1.7-23.7,7.4c0,0,0,0,0.1,0.1c-0.9,0.7-1.6,1.4-2,2.2
					c-8.3,15.8-16.6,55.7-22.4,84.1c14.1,7.8,26.5,5.5,30.3,4.4C963.3,409.4,952,444.5,951.2,459.5z"/>
				<path class="st18" d="M1117.6,338.7c0-1.1-0.9-16.4,1.8-19.7c2.7-3.2,8.3-7.8,10.1-7.7c1.8,0.1,8.6,9.3,6.6,16.3
					c-2.1,7-10.8,16.5-10.8,16.5L1117.6,338.7z"/>
				<g>
					<path class="st40" d="M1105,319.9l15.9,4.8c0.5,0.2,1.1-0.1,1.2-0.7l9.1-30.4c0.2-0.5-0.1-1.1-0.7-1.2l-15.9-4.8
						c-0.5-0.2-1.1,0.1-1.2,0.7l-9,30.3C1104.2,319.2,1104.5,319.7,1105,319.9z"/>
					<path class="st41" d="M1110.4,321.5l12,3.6c1.6,0.5,3.3-0.4,3.8-2l7.9-26.5c0.5-1.6-0.4-3.3-2-3.8l-12-3.6
						c-1.6-0.5-3.3,0.4-3.8,2l-7.9,26.5C1107.9,319.3,1108.8,321,1110.4,321.5z"/>
				</g>
				<path class="st18" d="M953.2,694c3.7,39.2,19.8,64.5,19.8,64.5l5.5,5c0,0,5-28.7,8.7-61.5C983.3,702.3,966.5,702.9,953.2,694z"
					/>
				<path class="st42" d="M989.8,699.5c8.7,34.4,21.7,60.8,21.7,60.8l11.3-0.8c0,0-5.6-26.5-5.2-62.2
					C1013.7,699.3,1005.8,701.2,989.8,699.5z"/>
				<g>
					<path class="st12" d="M1004.9,769.8h7.2c2.4-0.4,4.2-1.1,6.7-1.4c3.8-0.5,5.5,1.1,5.9,1.4l0.1,0.1h30.8c0.8-1.1,0-3.7-0.7-5.5
						c-0.5-1.3-1.6-2.3-2.9-2.6c-3.3-0.9-9.7-1.8-15.6-7.1c-3.3-3-16-11-16-11h-0.1c-0.3,0-1.6,0.4-7.4,5.3c-3,2.5-8.1-3.6-8.1-3.6
						s-1,0.8-1.7,2.3c-0.6,1.2-1,2.8-0.7,4.7c0.5,2.8-1,7.9-2.2,11.4c-0.7,2.1-1.3,3.6-1.3,3.6S998.7,769.1,1004.9,769.8z"/>
					<path class="st43" d="M1003.2,747.6c1.7,1.2,5.4,3.6,7.8,3.9c3.3,0.4,9.4-7.9,9.4-7.9h-0.1c-0.3,0-1.6,0.4-7.4,5.3
						c-3,2.5-8.1-3.6-8.1-3.6S1003.9,746.1,1003.2,747.6z"/>
					<path class="st43" d="M1004.9,769.8h7.2c2.4-0.4,4.2-1.1,6.7-1.4c3.8-0.5,5.5,1.1,5.9,1.4l0.1,0.1h30.8c0.8-1.1,0-3.7-0.7-5.5
						c-0.9-0.8-1.2,3.6-1.7,4.3s-25.1,0.3-26.5-0.8c-1.4-1-5.7-2.8-11.6-1.4c-5.2,1.2-12.8-1.9-14.7-2.8c-0.7,2.1-1.3,3.6-1.3,3.6
						S998.7,769.1,1004.9,769.8z"/>
				</g>
				<g>
					<path class="st12" d="M966.3,769.8h7.2c2.4-0.4,4.2-1.1,6.7-1.4c3.8-0.5,5.5,1.1,5.9,1.4l0.1,0.1h30.8c0.8-1.1,0-3.7-0.7-5.5
						c-0.5-1.3-1.6-2.3-2.9-2.6c-3.3-0.9-9.7-1.8-15.6-7.1c-3.3-3-16-11-16-11h-0.1c-0.3,0-1.6,0.4-7.4,5.3c-3,2.5-8.1-3.6-8.1-3.6
						s-1,0.8-1.7,2.3c-0.6,1.2-1,2.8-0.7,4.7c0.5,2.8-1,7.9-2.2,11.4c-0.7,2.1-1.3,3.6-1.3,3.6S960.1,769.1,966.3,769.8z"/>
					<path class="st43" d="M964.6,747.6c1.7,1.2,5.4,3.6,7.8,3.9c3.3,0.4,9.4-7.9,9.4-7.9h-0.1c-0.3,0-1.6,0.4-7.4,5.3
						c-3,2.5-8.1-3.6-8.1-3.6S965.3,746.1,964.6,747.6z"/>
					<path class="st43" d="M966.3,769.8h7.2c2.4-0.4,4.2-1.1,6.7-1.4c3.8-0.5,5.5,1.1,5.9,1.4l0.1,0.1h30.8c0.8-1.1,0-3.7-0.7-5.5
						c-0.9-0.8-1.2,3.6-1.7,4.3s-25.1,0.3-26.5-0.8c-1.4-1-5.7-2.8-11.6-1.4c-5.2,1.2-12.8-1.9-14.7-2.8c-0.7,2.1-1.3,3.6-1.3,3.6
						S960.1,769.1,966.3,769.8z"/>
				</g>
				<path class="st3" d="M1049.6,282.9c0,0,21.5,10.8,28.6,54.4c0,0-7,9.6-16.9,12.5c-1.4,0.4-2.9,0.7-4.4,0.8
					C1044.7,351.1,1049.6,282.9,1049.6,282.9z"/>
				<path class="st18" d="M1131.1,312.5c0,0-6.6-10.2-8.3-9.6c-2.3,0.8,6,13.8,6,13.8s-6.2-9.7-7.1-8.9c-2.2,1.7,1.3,7.7,4.8,12.4
					c0,0-6.2-5.7-6.4-4.7c-0.7,3.6,6.8,12.3,6.8,12.3l4.2-9.6V312.5z"/>
				<path class="st18" d="M1136.1,322c-0.3-1.2-1.9-25.6-2.6-23.3c-0.7,2.3-2.3,15.1-2.3,15.1L1136.1,322z"/>
			</g>
		</g>
		<path class="st17" d="M1026.5,244.8c0,0,0.6,2.5,6.9,2.1c0,0,5.3-0.3,5.1-3.1C1038.5,243.9,1033.4,241.9,1026.5,244.8z"/>
	</g>
	<path class="st18" d="M914.6,468.7c0,0-12.5,8.3-14.4,11.8s-6.3,16.3-6.3,16.3s3.2,0.5,6.3-5.1c3.2-5.6,13.6-5.1,17.1-8.1
		s7.6-11.8,7.6-11.8L914.6,468.7z"/>
	<path class="st18" d="M923.6,474.5c0,0-2.1,9.8-4.6,12.6c-2.5,2.9-6,7.6-7.5,6.3c-1.4-1.3,1.6-11.9,1.6-11.9L923.6,474.5z"/>
	<path class="st18" d="M902,481.5c-0.3,0.5-11.3,12.1-11.3,12.1s4,1.8,5.1,0C896.9,491.9,902,481.5,902,481.5z"/>
</g>
<g class="st0">
	<g>
		<path class="st41" d="M967.9,642.2c-4.1,2.1-10.8,4-13.2,9.4c-0.8,1.9-0.4,8.6,2.5,8.2c1.6-0.2,2-2.3,2.1-4.2
			c0.1-1.8,1.2-3.5,2.9-4.3l18.6-8.2l-3.5-7.2C977.3,636,969.7,641.3,967.9,642.2z"/>
		<path class="st44" d="M1152.5,769.9h-112.8c0,1.3-20.3,0-20.3,0s1.4-6.9,4.8-8.9c0.8-0.4,6.4,0.9,7.8,0.8
			c-0.6-0.4-12.5-4.1-9.8-22.3l-6.4,29.4c-0.1,0.5-0.6,0.9-1.1,0.9h-25c-0.5,0-1-0.4-1.1-0.9c-0.4-2-1-6.7,1-9.1
			c1.6-1.9,6.4-1.5,10-0.8c0.8,0.1,1.5,0.3,2.1,0.4c0.8,0.2,1.5-0.6,1.3-1.4c0,0-1.9-5.5-5.2-13c-3.4-7.6-8.3-17.3-14.4-25.8
			c-1.2-1.7-2.5-3.4-3.8-4.9c-4.7-5.7-7.9-19.3-3.8-25.3c0.5-0.8,3-3.4,2.1-3c-1.8,0.8-3.1,2.1-4,3.3c-0.6,0.9-2,0.4-2-0.6
			c-0.5-14.2,10.2-26.4,14.5-32.6c1.4-2,2.1-3.4,1.4-4c-2.7-2.7-14.7,4.1-20.1,3.9c-3.2-0.1-5.6-1.2-7.1-2.1
			c-0.3-0.2-0.5-0.5-0.5-0.9s0.2-0.9,0.6-1.1c3.1-1.6,7.8-3.6,11.5-6.3c1.9-1.3,3.5-3.7,4.5-5.8c0.7-1.6,0.5-3.5,0.5-3.5
			c-4.2,3.6-9.7,6.5-14.4,8.1c-3.1,1.1-5.9,1.6-7.7,1.2c-4.7-0.8-7.6-5.1-9.2-8.6c-0.7-1.5-1.2-2.9-1.5-3.7
			c-0.2-0.5,0.1-1.1,0.6-1.4c0.8-0.3,2-0.9,3.4-1.6c6.8-3.1,14.4-5.6,15.7-7.8c0.5-0.7,0.9-1.6,1.3-2.4l0,0c2-4.2,4-9.8,9.6-14.3
			c8.8-7,17.8-8.3,21.5-8.5c1.1-0.1,1.8,0,1.8,0c5.8-0.2,10.2,0.6,13.4,2.3l0,0c12.5,6.5,8.4,25.2,11,39.4c0.1,0.6,0.2,1.1,0.3,1.6
			c1.1,4.7,14.8,17.5,15.4,25.3c1,14.8,12.1,16.2,36.7,31.2c14.2,8.7,15.2,32.2,13.9,50.1c-0.3,4.4,2.8,8.4,7.2,9.1
			c6,1,12.6,1.4,18.7,0.3c16.8-3.1,20.3-31.6,10.1-35.9c0,0,17.2-5.1,25.6,8.2C1159.1,742.4,1159.1,763.4,1152.5,769.9z"/>
		<path class="st41" d="M1000.7,601.6c-4.9,0-9.2,3.8-9.9,8.9c-1.2,7.8-2.4,19-0.9,26.7c2.2,11.5,12.2,15.7,18.5,12.3
			c11.8-6.3,6.4-30.6,3.1-42c-1-3.5-4.1-5.9-7.6-5.9H1000.7z"/>
		<path class="st45" d="M945.8,637.2c-0.7-1.5-1.2-2.9-1.5-3.7c-0.2-0.5,0.1-1.1,0.6-1.4c0.8-0.3,2-0.9,3.4-1.6
			C948.4,630.5,949.4,636,945.8,637.2z"/>
		<path class="st46" d="M1152.5,769.9h-19.8c22.6-4.7,17.9-22,17.9-22c-2.3,4.3-15.4,5.1-15.4,5.1s8.8-8.2,8-20.3
			c-0.6-9.8-12.1-11.4-16.4-11.7c-1-0.1-1.6,0-1.6,0s17.2-5.1,25.6,8.2C1159.1,742.4,1159.1,763.4,1152.5,769.9z"/>
		<path class="st47" d="M1011.8,599.8c0,0,11,2.9,13.4,11.7c0,0-1.5-1.4-2.5-1.9c0,0,2.8,2.4,2.5,8.6c-0.3,6.2-3.8,16-2,22.7
			l-6.9-12.1L1011.8,599.8z"/>
		<path class="st48" d="M965.4,620.3c0,0,3.2-8,0-11c0,0,2.2-0.7,3.3,0c0,0,0.4-6.1,8.2-8.8s19.6-2.9,19.6-2.9l-20.4,15.2
			L965.4,620.3z"/>
	</g>
	<path class="st46" d="M1004.4,769.9h-14.7c-0.5,0-1-0.4-1.1-0.9c-0.4-2-1-6.7,1-9.1c1.6-1.9,6.4-1.5,10-0.8
		C1003.3,763.1,1004.4,769.9,1004.4,769.9z"/>
</g>
</svg>
