<svg width="151" height="152" viewBox="0 0 151 152" fill="none" xmlns="http://www.w3.org/2000/svg">
<path d="M74.9962 0.999998V18.6181H88.5067C93.9306 18.6181 98.7569 23.1191 98.7569 28.543V52.8105H122.147C127.563 52.8105 131.883 56.7214 131.883 62.1377V89.4387C131.891 90.7201 131.644 91.9904 131.158 93.1761C130.672 94.3618 129.955 95.4392 129.05 96.3461C128.144 97.2529 127.068 97.9712 125.883 98.4593C124.698 98.9473 123.428 99.1955 122.147 99.1895H98.7417V123.079C98.7417 128.495 93.9155 133.42 88.4916 133.42H74.9962V151C84.9087 151.1 94.7427 149.233 103.929 145.509C113.116 141.784 121.473 136.276 128.518 129.301C135.563 122.327 141.155 114.025 144.972 104.877C148.788 95.7277 150.753 85.913 150.753 76C150.753 66.087 148.788 56.2723 144.972 47.1234C141.155 37.9745 135.563 29.673 128.518 22.6987C121.473 15.7244 113.116 10.2158 103.929 6.49132C94.7427 2.76686 84.9087 0.900446 74.9962 0.999998Z" fill="#935F95"/>
<path d="M74.4441 133.42H61.1907C55.7744 133.42 50.1539 128.495 50.1539 123.079V99.1895H27.5582C22.1343 99.1895 18.1326 94.8625 18.1326 89.4387V62.1377C18.1326 56.7214 22.1343 52.8105 27.5582 52.8105H50.1539V28.5052C50.1539 23.0813 55.7744 18.6181 61.1907 18.6181H74.9963V1C55.2355 1.19846 36.3515 9.18763 22.4482 23.2313C8.54485 37.275 0.745728 56.2382 0.745728 76C0.745728 95.7618 8.54485 114.725 22.4482 128.769C36.3515 142.812 55.2355 150.802 74.9963 151V133.42H74.4441Z" fill="#935F95"/>
<path d="M68.7856 70.2849C71.8568 69.8915 73.7631 65.0804 73.2033 60.7912C72.6436 56.5021 69.8446 54.3386 66.7734 54.7395C63.7021 55.1404 61.5386 57.9545 62.0984 62.2285C62.6582 66.5026 65.7219 70.6858 68.7856 70.2849Z" fill="#935F95"/>
<path d="M60.5553 68.1214C58.7851 64.8307 55.7366 64.0289 53.2326 65.383C50.7287 66.737 49.7226 69.7175 51.4928 73.0006C53.2629 76.2837 57.1436 78.6212 59.6475 77.2746C62.1514 75.9281 62.3254 71.4044 60.5553 68.1214Z" fill="#935F95"/>
<path d="M81.2144 70.2849C84.2402 70.6858 87.3417 66.5026 87.9015 62.2285C88.4613 57.9545 86.2903 55.1328 83.2266 54.7319C80.1629 54.331 77.3488 56.4945 76.789 60.7837C76.2292 65.0728 78.1431 69.8915 81.2144 70.2849Z" fill="#935F95"/>
<path d="M88.953 79.5289C84.7395 79.476 81.9784 80.4291 80.4806 75.7995C80.0921 74.7034 79.3875 73.7469 78.4559 73.0508C77.5242 72.3548 76.4072 71.9504 75.2459 71.8886H74.9962V97.2908H75.382C84.3159 97.2908 91.4569 90.944 91.4569 82.0404C91.4511 81.3775 91.1856 80.7432 90.7175 80.2737C90.2494 79.8042 89.616 79.5368 88.953 79.5289Z" fill="#935F95"/>
<path d="M74.8146 71.8886H74.7541C73.5927 71.9504 72.4757 72.3548 71.5441 73.0508C70.6124 73.7469 69.9078 74.7034 69.5193 75.7995C68.0064 80.4291 65.2604 79.476 61.0393 79.5289C60.3758 79.5369 59.742 79.8055 59.2749 80.2769C58.8078 80.7482 58.5449 81.3844 58.543 82.048C58.543 90.9516 65.684 97.2984 74.6179 97.2984H74.9961V71.8886H74.8146Z" fill="#935F95"/>
<path d="M96.7674 65.383C94.2635 64.0289 91.2149 64.8307 89.4448 68.1214C87.6747 71.412 87.8486 75.9281 90.3526 77.2746C92.8565 78.6212 96.7296 76.2837 98.4997 73.0006C100.27 69.7175 99.2713 66.7295 96.7674 65.383Z" fill="#935F95"/>
</svg>
