<svg width="1440" height="1479" viewBox="0 0 1440 1479" fill="none" xmlns="http://www.w3.org/2000/svg">
<path d="M474.5 556.25C468.875 556.25 461 564.898 461 570.383C461 572.844 462.828 574.25 465.992 574.25C469.438 574.25 471.688 572.492 474.5 572.492C477.242 572.492 479.492 574.25 482.938 574.25C486.102 574.25 488 572.844 488 570.383C488 564.898 480.055 556.25 474.5 556.25ZM464.094 555.406C463.391 552.945 461.141 551.398 459.102 551.891C457.062 552.383 455.938 554.703 456.711 557.164C457.414 559.625 459.664 561.172 461.703 560.68C463.742 560.188 464.867 557.867 464.094 555.406ZM470.07 553.93C472.25 553.367 473.305 550.414 472.531 547.391C471.688 544.297 469.227 542.328 467.047 542.891C464.867 543.453 463.812 546.406 464.586 549.43C465.43 552.523 467.891 554.492 470.07 553.93ZM489.828 551.891C487.789 551.398 485.539 552.945 484.836 555.406C484.062 557.867 485.188 560.188 487.227 560.68C489.266 561.172 491.516 559.625 492.219 557.164C492.992 554.703 491.867 552.383 489.828 551.891ZM478.859 553.93C481.039 554.492 483.5 552.523 484.344 549.43C485.117 546.406 484.062 543.453 481.883 542.891C479.703 542.328 477.242 544.297 476.398 547.391C475.625 550.414 476.68 553.367 478.859 553.93Z" fill="#EFE7EF"/>
<path d="M914.5 94.25C908.875 94.25 901 102.898 901 108.383C901 110.844 902.828 112.25 905.992 112.25C909.438 112.25 911.688 110.492 914.5 110.492C917.242 110.492 919.492 112.25 922.938 112.25C926.102 112.25 928 110.844 928 108.383C928 102.898 920.055 94.25 914.5 94.25ZM904.094 93.4062C903.391 90.9453 901.141 89.3984 899.102 89.8906C897.062 90.3828 895.938 92.7031 896.711 95.1641C897.414 97.625 899.664 99.1719 901.703 98.6797C903.742 98.1875 904.867 95.8672 904.094 93.4062ZM910.07 91.9297C912.25 91.3672 913.305 88.4141 912.531 85.3906C911.688 82.2969 909.227 80.3281 907.047 80.8906C904.867 81.4531 903.812 84.4062 904.586 87.4297C905.43 90.5234 907.891 92.4922 910.07 91.9297ZM929.828 89.8906C927.789 89.3984 925.539 90.9453 924.836 93.4062C924.062 95.8672 925.188 98.1875 927.227 98.6797C929.266 99.1719 931.516 97.625 932.219 95.1641C932.992 92.7031 931.867 90.3828 929.828 89.8906ZM918.859 91.9297C921.039 92.4922 923.5 90.5234 924.344 87.4297C925.117 84.4062 924.062 81.4531 921.883 80.8906C919.703 80.3281 917.242 82.2969 916.398 85.3906C915.625 88.4141 916.68 91.3672 918.859 91.9297Z" fill="#EFE7EF"/>
<path d="M258.5 882.25C252.875 882.25 245 890.898 245 896.383C245 898.844 246.828 900.25 249.992 900.25C253.438 900.25 255.688 898.492 258.5 898.492C261.242 898.492 263.492 900.25 266.938 900.25C270.102 900.25 272 898.844 272 896.383C272 890.898 264.055 882.25 258.5 882.25ZM248.094 881.406C247.391 878.945 245.141 877.398 243.102 877.891C241.062 878.383 239.938 880.703 240.711 883.164C241.414 885.625 243.664 887.172 245.703 886.68C247.742 886.188 248.867 883.867 248.094 881.406ZM254.07 879.93C256.25 879.367 257.305 876.414 256.531 873.391C255.688 870.297 253.227 868.328 251.047 868.891C248.867 869.453 247.812 872.406 248.586 875.43C249.43 878.523 251.891 880.492 254.07 879.93ZM273.828 877.891C271.789 877.398 269.539 878.945 268.836 881.406C268.062 883.867 269.188 886.188 271.227 886.68C273.266 887.172 275.516 885.625 276.219 883.164C276.992 880.703 275.867 878.383 273.828 877.891ZM262.859 879.93C265.039 880.492 267.5 878.523 268.344 875.43C269.117 872.406 268.062 869.453 265.883 868.891C263.703 868.328 261.242 870.297 260.398 873.391C259.625 876.414 260.68 879.367 262.859 879.93Z" fill="#EFE7EF"/>
<path d="M112.5 276.25C106.875 276.25 99 284.898 99 290.383C99 292.844 100.828 294.25 103.992 294.25C107.438 294.25 109.688 292.492 112.5 292.492C115.242 292.492 117.492 294.25 120.938 294.25C124.102 294.25 126 292.844 126 290.383C126 284.898 118.055 276.25 112.5 276.25ZM102.094 275.406C101.391 272.945 99.1406 271.398 97.1016 271.891C95.0625 272.383 93.9375 274.703 94.7109 277.164C95.4141 279.625 97.6641 281.172 99.7031 280.68C101.742 280.188 102.867 277.867 102.094 275.406ZM108.07 273.93C110.25 273.367 111.305 270.414 110.531 267.391C109.688 264.297 107.227 262.328 105.047 262.891C102.867 263.453 101.812 266.406 102.586 269.43C103.43 272.523 105.891 274.492 108.07 273.93ZM127.828 271.891C125.789 271.398 123.539 272.945 122.836 275.406C122.062 277.867 123.188 280.188 125.227 280.68C127.266 281.172 129.516 279.625 130.219 277.164C130.992 274.703 129.867 272.383 127.828 271.891ZM116.859 273.93C119.039 274.492 121.5 272.523 122.344 269.43C123.117 266.406 122.062 263.453 119.883 262.891C117.703 262.328 115.242 264.297 114.398 267.391C113.625 270.414 114.68 273.367 116.859 273.93Z" fill="#EFE7EF"/>
<path d="M579.5 1046.25C573.875 1046.25 566 1054.9 566 1060.38C566 1062.84 567.828 1064.25 570.992 1064.25C574.438 1064.25 576.688 1062.49 579.5 1062.49C582.242 1062.49 584.492 1064.25 587.938 1064.25C591.102 1064.25 593 1062.84 593 1060.38C593 1054.9 585.055 1046.25 579.5 1046.25ZM569.094 1045.41C568.391 1042.95 566.141 1041.4 564.102 1041.89C562.062 1042.38 560.938 1044.7 561.711 1047.16C562.414 1049.62 564.664 1051.17 566.703 1050.68C568.742 1050.19 569.867 1047.87 569.094 1045.41ZM575.07 1043.93C577.25 1043.37 578.305 1040.41 577.531 1037.39C576.688 1034.3 574.227 1032.33 572.047 1032.89C569.867 1033.45 568.812 1036.41 569.586 1039.43C570.43 1042.52 572.891 1044.49 575.07 1043.93ZM594.828 1041.89C592.789 1041.4 590.539 1042.95 589.836 1045.41C589.062 1047.87 590.188 1050.19 592.227 1050.68C594.266 1051.17 596.516 1049.62 597.219 1047.16C597.992 1044.7 596.867 1042.38 594.828 1041.89ZM583.859 1043.93C586.039 1044.49 588.5 1042.52 589.344 1039.43C590.117 1036.41 589.062 1033.45 586.883 1032.89C584.703 1032.33 582.242 1034.3 581.398 1037.39C580.625 1040.41 581.68 1043.37 583.859 1043.93Z" fill="#EFE7EF"/>
<path d="M1204.5 1255.25C1198.88 1255.25 1191 1263.9 1191 1269.38C1191 1271.84 1192.83 1273.25 1195.99 1273.25C1199.44 1273.25 1201.69 1271.49 1204.5 1271.49C1207.24 1271.49 1209.49 1273.25 1212.94 1273.25C1216.1 1273.25 1218 1271.84 1218 1269.38C1218 1263.9 1210.05 1255.25 1204.5 1255.25ZM1194.09 1254.41C1193.39 1251.95 1191.14 1250.4 1189.1 1250.89C1187.06 1251.38 1185.94 1253.7 1186.71 1256.16C1187.41 1258.62 1189.66 1260.17 1191.7 1259.68C1193.74 1259.19 1194.87 1256.87 1194.09 1254.41ZM1200.07 1252.93C1202.25 1252.37 1203.3 1249.41 1202.53 1246.39C1201.69 1243.3 1199.23 1241.33 1197.05 1241.89C1194.87 1242.45 1193.81 1245.41 1194.59 1248.43C1195.43 1251.52 1197.89 1253.49 1200.07 1252.93ZM1219.83 1250.89C1217.79 1250.4 1215.54 1251.95 1214.84 1254.41C1214.06 1256.87 1215.19 1259.19 1217.23 1259.68C1219.27 1260.17 1221.52 1258.62 1222.22 1256.16C1222.99 1253.7 1221.87 1251.38 1219.83 1250.89ZM1208.86 1252.93C1211.04 1253.49 1213.5 1251.52 1214.34 1248.43C1215.12 1245.41 1214.06 1242.45 1211.88 1241.89C1209.7 1241.33 1207.24 1243.3 1206.4 1246.39C1205.62 1249.41 1206.68 1252.37 1208.86 1252.93Z" fill="#EFE7EF"/>
<path d="M258.5 1323.25C252.875 1323.25 245 1331.9 245 1337.38C245 1339.84 246.828 1341.25 249.992 1341.25C253.438 1341.25 255.688 1339.49 258.5 1339.49C261.242 1339.49 263.492 1341.25 266.938 1341.25C270.102 1341.25 272 1339.84 272 1337.38C272 1331.9 264.055 1323.25 258.5 1323.25ZM248.094 1322.41C247.391 1319.95 245.141 1318.4 243.102 1318.89C241.062 1319.38 239.938 1321.7 240.711 1324.16C241.414 1326.62 243.664 1328.17 245.703 1327.68C247.742 1327.19 248.867 1324.87 248.094 1322.41ZM254.07 1320.93C256.25 1320.37 257.305 1317.41 256.531 1314.39C255.688 1311.3 253.227 1309.33 251.047 1309.89C248.867 1310.45 247.812 1313.41 248.586 1316.43C249.43 1319.52 251.891 1321.49 254.07 1320.93ZM273.828 1318.89C271.789 1318.4 269.539 1319.95 268.836 1322.41C268.062 1324.87 269.188 1327.19 271.227 1327.68C273.266 1328.17 275.516 1326.62 276.219 1324.16C276.992 1321.7 275.867 1319.38 273.828 1318.89ZM262.859 1320.93C265.039 1321.49 267.5 1319.52 268.344 1316.43C269.117 1313.41 268.062 1310.45 265.883 1309.89C263.703 1309.33 261.242 1311.3 260.398 1314.39C259.625 1317.41 260.68 1320.37 262.859 1320.93Z" fill="#EFE7EF"/>
<path d="M933.5 1067.25C927.875 1067.25 920 1075.9 920 1081.38C920 1083.84 921.828 1085.25 924.992 1085.25C928.438 1085.25 930.688 1083.49 933.5 1083.49C936.242 1083.49 938.492 1085.25 941.938 1085.25C945.102 1085.25 947 1083.84 947 1081.38C947 1075.9 939.055 1067.25 933.5 1067.25ZM923.094 1066.41C922.391 1063.95 920.141 1062.4 918.102 1062.89C916.062 1063.38 914.938 1065.7 915.711 1068.16C916.414 1070.62 918.664 1072.17 920.703 1071.68C922.742 1071.19 923.867 1068.87 923.094 1066.41ZM929.07 1064.93C931.25 1064.37 932.305 1061.41 931.531 1058.39C930.688 1055.3 928.227 1053.33 926.047 1053.89C923.867 1054.45 922.812 1057.41 923.586 1060.43C924.43 1063.52 926.891 1065.49 929.07 1064.93ZM948.828 1062.89C946.789 1062.4 944.539 1063.95 943.836 1066.41C943.062 1068.87 944.188 1071.19 946.227 1071.68C948.266 1072.17 950.516 1070.62 951.219 1068.16C951.992 1065.7 950.867 1063.38 948.828 1062.89ZM937.859 1064.93C940.039 1065.49 942.5 1063.52 943.344 1060.43C944.117 1057.41 943.062 1054.45 940.883 1053.89C938.703 1053.33 936.242 1055.3 935.398 1058.39C934.625 1061.41 935.68 1064.37 937.859 1064.93Z" fill="#EFE7EF"/>
<path d="M1310.5 577.25C1304.88 577.25 1297 585.898 1297 591.383C1297 593.844 1298.83 595.25 1301.99 595.25C1305.44 595.25 1307.69 593.492 1310.5 593.492C1313.24 593.492 1315.49 595.25 1318.94 595.25C1322.1 595.25 1324 593.844 1324 591.383C1324 585.898 1316.05 577.25 1310.5 577.25ZM1300.09 576.406C1299.39 573.945 1297.14 572.398 1295.1 572.891C1293.06 573.383 1291.94 575.703 1292.71 578.164C1293.41 580.625 1295.66 582.172 1297.7 581.68C1299.74 581.188 1300.87 578.867 1300.09 576.406ZM1306.07 574.93C1308.25 574.367 1309.3 571.414 1308.53 568.391C1307.69 565.297 1305.23 563.328 1303.05 563.891C1300.87 564.453 1299.81 567.406 1300.59 570.43C1301.43 573.523 1303.89 575.492 1306.07 574.93ZM1325.83 572.891C1323.79 572.398 1321.54 573.945 1320.84 576.406C1320.06 578.867 1321.19 581.188 1323.23 581.68C1325.27 582.172 1327.52 580.625 1328.22 578.164C1328.99 575.703 1327.87 573.383 1325.83 572.891ZM1314.86 574.93C1317.04 575.492 1319.5 573.523 1320.34 570.43C1321.12 567.406 1320.06 564.453 1317.88 563.891C1315.7 563.328 1313.24 565.297 1312.4 568.391C1311.62 571.414 1312.68 574.367 1314.86 574.93Z" fill="#EFE7EF"/>
<path d="M1007.5 757.25C1001.88 757.25 994 765.898 994 771.383C994 773.844 995.828 775.25 998.992 775.25C1002.44 775.25 1004.69 773.492 1007.5 773.492C1010.24 773.492 1012.49 775.25 1015.94 775.25C1019.1 775.25 1021 773.844 1021 771.383C1021 765.898 1013.05 757.25 1007.5 757.25ZM997.094 756.406C996.391 753.945 994.141 752.398 992.102 752.891C990.062 753.383 988.938 755.703 989.711 758.164C990.414 760.625 992.664 762.172 994.703 761.68C996.742 761.188 997.867 758.867 997.094 756.406ZM1003.07 754.93C1005.25 754.367 1006.3 751.414 1005.53 748.391C1004.69 745.297 1002.23 743.328 1000.05 743.891C997.867 744.453 996.812 747.406 997.586 750.43C998.43 753.523 1000.89 755.492 1003.07 754.93ZM1022.83 752.891C1020.79 752.398 1018.54 753.945 1017.84 756.406C1017.06 758.867 1018.19 761.188 1020.23 761.68C1022.27 762.172 1024.52 760.625 1025.22 758.164C1025.99 755.703 1024.87 753.383 1022.83 752.891ZM1011.86 754.93C1014.04 755.492 1016.5 753.523 1017.34 750.43C1018.12 747.406 1017.06 744.453 1014.88 743.891C1012.7 743.328 1010.24 745.297 1009.4 748.391C1008.62 751.414 1009.68 754.367 1011.86 754.93Z" fill="#EFE7EF"/>
<path d="M806.5 317.25C800.875 317.25 793 325.898 793 331.383C793 333.844 794.828 335.25 797.992 335.25C801.438 335.25 803.688 333.492 806.5 333.492C809.242 333.492 811.492 335.25 814.938 335.25C818.102 335.25 820 333.844 820 331.383C820 325.898 812.055 317.25 806.5 317.25ZM796.094 316.406C795.391 313.945 793.141 312.398 791.102 312.891C789.062 313.383 787.938 315.703 788.711 318.164C789.414 320.625 791.664 322.172 793.703 321.68C795.742 321.188 796.867 318.867 796.094 316.406ZM802.07 314.93C804.25 314.367 805.305 311.414 804.531 308.391C803.688 305.297 801.227 303.328 799.047 303.891C796.867 304.453 795.812 307.406 796.586 310.43C797.43 313.523 799.891 315.492 802.07 314.93ZM821.828 312.891C819.789 312.398 817.539 313.945 816.836 316.406C816.062 318.867 817.188 321.188 819.227 321.68C821.266 322.172 823.516 320.625 824.219 318.164C824.992 315.703 823.867 313.383 821.828 312.891ZM810.859 314.93C813.039 315.492 815.5 313.523 816.344 310.43C817.117 307.406 816.062 304.453 813.883 303.891C811.703 303.328 809.242 305.297 808.398 308.391C807.625 311.414 808.68 314.367 810.859 314.93Z" fill="#EFE7EF"/>
<path d="M1287.5 1019.25C1281.88 1019.25 1274 1027.9 1274 1033.38C1274 1035.84 1275.83 1037.25 1278.99 1037.25C1282.44 1037.25 1284.69 1035.49 1287.5 1035.49C1290.24 1035.49 1292.49 1037.25 1295.94 1037.25C1299.1 1037.25 1301 1035.84 1301 1033.38C1301 1027.9 1293.05 1019.25 1287.5 1019.25ZM1277.09 1018.41C1276.39 1015.95 1274.14 1014.4 1272.1 1014.89C1270.06 1015.38 1268.94 1017.7 1269.71 1020.16C1270.41 1022.62 1272.66 1024.17 1274.7 1023.68C1276.74 1023.19 1277.87 1020.87 1277.09 1018.41ZM1283.07 1016.93C1285.25 1016.37 1286.3 1013.41 1285.53 1010.39C1284.69 1007.3 1282.23 1005.33 1280.05 1005.89C1277.87 1006.45 1276.81 1009.41 1277.59 1012.43C1278.43 1015.52 1280.89 1017.49 1283.07 1016.93ZM1302.83 1014.89C1300.79 1014.4 1298.54 1015.95 1297.84 1018.41C1297.06 1020.87 1298.19 1023.19 1300.23 1023.68C1302.27 1024.17 1304.52 1022.62 1305.22 1020.16C1305.99 1017.7 1304.87 1015.38 1302.83 1014.89ZM1291.86 1016.93C1294.04 1017.49 1296.5 1015.52 1297.34 1012.43C1298.12 1009.41 1297.06 1006.45 1294.88 1005.89C1292.7 1005.33 1290.24 1007.3 1289.4 1010.39C1288.62 1013.41 1289.68 1016.37 1291.86 1016.93Z" fill="#EFE7EF"/>
</svg>
