<svg xmlns="http://www.w3.org/2000/svg" xmlns:xlink="http://www.w3.org/1999/xlink" viewBox="0 0 8618.26 1750.56"><defs><style>.cls-1{fill:none;}.cls-2{isolation:isolate;}.cls-3{clip-path:url(#clip-path);}.cls-10,.cls-11,.cls-12,.cls-13,.cls-14,.cls-15,.cls-16,.cls-17,.cls-18,.cls-4,.cls-5,.cls-6,.cls-7,.cls-9{fill-rule:evenodd;}.cls-4{fill:url(#Áåçûìÿííûé_ãðàäèåíò_60);}.cls-5,.cls-7{opacity:0.5;mix-blend-mode:multiply;}.cls-5{fill:url(#Áåçûìÿííûé_ãðàäèåíò_149);}.cls-6{fill:#ff9ca7;opacity:0.2;}.cls-7{fill:url(#Áåçûìÿííûé_ãðàäèåíò_149-2);}.cls-8{clip-path:url(#clip-path-2);}.cls-9{fill:url(#Áåçûìÿííûé_ãðàäèåíò_53);}.cls-10{fill:url(#Áåçûìÿííûé_ãðàäèåíò_92);}.cls-11{fill:url(#Áåçûìÿííûé_ãðàäèåíò_59);}.cls-12{fill:url(#Áåçûìÿííûé_ãðàäèåíò_92-2);}.cls-13{fill:url(#Áåçûìÿííûé_ãðàäèåíò_59-2);}.cls-14{fill:url(#Áåçûìÿííûé_ãðàäèåíò_92-3);}.cls-15{fill:url(#Áåçûìÿííûé_ãðàäèåíò_59-3);}.cls-16{fill:url(#Áåçûìÿííûé_ãðàäèåíò_92-4);}.cls-17{fill:url(#Áåçûìÿííûé_ãðàäèåíò_59-4);}.cls-18{fill:url(#Áåçûìÿííûé_ãðàäèåíò_59-5);}</style><clipPath id="clip-path" transform="translate(3053.79 -211.13)"><line class="cls-1" x1="-850" y1="1903" x2="-852"/></clipPath><linearGradient id="Áåçûìÿííûé_ãðàäèåíò_60" x1="486.18" y1="1750.56" x2="486.18" y2="1435.47" gradientUnits="userSpaceOnUse"><stop offset="0" stop-color="#db3d61"/><stop offset="0.61" stop-color="#a31955"/><stop offset="1" stop-color="#7d004d"/></linearGradient><linearGradient id="Áåçûìÿííûé_ãðàäèåíò_149" x1="486.18" y1="1750.56" x2="486.18" y2="1492.29" gradientUnits="userSpaceOnUse"><stop offset="0" stop-color="#c77cbd"/><stop offset="1" stop-color="#974577"/></linearGradient><linearGradient id="Áåçûìÿííûé_ãðàäèåíò_149-2" x1="385.16" y1="1621.43" x2="972.37" y2="1621.43" xlink:href="#Áåçûìÿííûé_ãðàäèåíò_149"/><clipPath id="clip-path-2" transform="translate(3053.79 -211.13)"><rect class="cls-1" x="10.12" y="7.06" width="6993.88" height="3496.94"/></clipPath><linearGradient id="Áåçûìÿííûé_ãðàäèåíò_53" x1="2792.77" y1="761.13" x2="2792.77" y2="571.96" gradientTransform="matrix(0.99, 0.1, -0.1, 0.99, 105.28, -358.22)" gradientUnits="userSpaceOnUse"><stop offset="0" stop-color="#d0d7fa"/><stop offset="1" stop-color="#b3d9ff"/></linearGradient><linearGradient id="Áåçûìÿííûé_ãðàäèåíò_92" x1="2801.99" y1="706.84" x2="2801.99" y2="609.89" gradientTransform="matrix(1, 0.05, -0.05, 1, 49.93, -187.47)" gradientUnits="userSpaceOnUse"><stop offset="0" stop-color="#8ca4e0"/><stop offset="1" stop-color="#8695e1"/></linearGradient><linearGradient id="Áåçûìÿííûé_ãðàäèåíò_59" x1="3485.03" y1="669.28" x2="3485.03" y2="214.69" gradientTransform="translate(102.63 -373.34) rotate(5.83)" gradientUnits="userSpaceOnUse"><stop offset="0" stop-color="#dfe9ff"/><stop offset="1" stop-color="#b3d9ff"/></linearGradient><linearGradient id="Áåçûìÿííûé_ãðàäèåíò_92-2" x1="3485.03" y1="669.28" x2="3485.03" y2="271.6" gradientTransform="translate(102.63 -373.34) rotate(5.83)" xlink:href="#Áåçûìÿííûé_ãðàäèåíò_92"/><linearGradient id="Áåçûìÿííûé_ãðàäèåíò_59-2" x1="4830.06" y1="814.1" x2="4830.06" y2="359.5" gradientTransform="matrix(0.97, 0.25, -0.25, 0.97, 306.91, -1076.59)" xlink:href="#Áåçûìÿííûé_ãðàäèåíò_59"/><linearGradient id="Áåçûìÿííûé_ãðàäèåíò_92-3" x1="4830.06" y1="814.1" x2="4830.06" y2="416.41" gradientTransform="matrix(0.97, 0.25, -0.25, 0.97, 306.91, -1076.59)" xlink:href="#Áåçûìÿííûé_ãðàäèåíò_92"/><linearGradient id="Áåçûìÿííûé_ãðàäèåíò_59-3" x1="982.15" y1="772.78" x2="982.15" y2="198.07" gradientTransform="translate(-31.59 135.22) rotate(-2.33)" xlink:href="#Áåçûìÿííûé_ãðàäèåíò_59"/><linearGradient id="Áåçûìÿííûé_ãðàäèåíò_92-4" x1="968.55" y1="795.16" x2="981.22" y2="554.98" gradientTransform="matrix(1, 0, 0, 1, 0, 0)" xlink:href="#Áåçûìÿííûé_ãðàäèåíò_92"/><linearGradient id="Áåçûìÿííûé_ãðàäèåíò_59-4" x1="1869.39" y1="877.26" x2="1869.39" y2="812.85" gradientTransform="matrix(1, 0, 0, 1, 0, 0)" xlink:href="#Áåçûìÿííûé_ãðàäèåíò_59"/><linearGradient id="Áåçûìÿííûé_ãðàäèåíò_59-5" x1="3243.57" y1="784.22" x2="3243.57" y2="706.14" gradientTransform="matrix(1, 0, 0, 1, 0, 0)" xlink:href="#Áåçûìÿííûé_ãðàäèåíò_59"/></defs><g class="cls-2"><g id="Capa_1" data-name="Capa 1"><g class="cls-3"><polygon class="cls-4" points="23.09 1750.57 49.61 1696.88 24.71 1645.53 0 1584.81 938.33 1435.47 972.37 1492.29 865.36 1673.54 837.45 1701.55 638.44 1719.93 639.12 1750.57 23.09 1750.57"/><polygon class="cls-5" points="972.37 1492.29 783.8 1645.53 142.94 1645.53 0 1584.81 49.61 1696.88 162.39 1677.04 560.04 1664.79 385.16 1696.88 227.27 1750.57 639.12 1750.57 638.44 1719.93 837.45 1701.55 865.36 1673.54 972.37 1492.29"/><polygon class="cls-6" points="0 1584.81 142.94 1645.53 783.8 1645.53 972.37 1492.29 938.33 1435.47 0 1584.81"/><polygon class="cls-7" points="783.8 1645.53 529.32 1645.53 465.5 1667.7 560.04 1664.79 385.16 1696.88 420.5 1750.57 639.12 1750.57 638.44 1719.93 837.45 1701.55 865.36 1673.54 972.37 1492.29 783.8 1645.53"/></g><g class="cls-8"><path class="cls-9" d="M2770.78,585.37s3.32-100.28,78-90.11,129.72,84.87,129.72,84.87l164.73,5.74s-234.63,61.44-659.55,62.42c0,0,97.67-36.85,202.53-36.85,0,0,7.55-19.49,18.48-27.32C2728.61,567,2770.78,585.37,2770.78,585.37Z" transform="translate(3053.79 -211.13)"/><path class="cls-10" d="M3143.21,585.87s-427.44,16.49-659.55,62.42C2483.66,648.29,2842.65,654.59,3143.21,585.87Z" transform="translate(3053.79 -211.13)"/><path class="cls-11" d="M2963.68,555.44S3710.35,443.84,4246,322.83l-211.37-8.21s-215.64-111.78-354-103-219.31,127.76-219.31,127.76-62.21-26.64-98.45-8.38-67.29,135.32-67.29,135.32S3242.88,441,3210,481.52c0,0-36.19-188-132.58-197.8s-141.7,244.66-141.7,244.66l-138.2,46.26Z" transform="translate(3053.79 -211.13)"/><path class="cls-12" d="M4246,322.83s-367.68-8.45-582.27,31S3301.87,489,3301.87,489l.77-7.56s-59.74.59-103.79,20.44l16.54,1.69-417.92,71.09S3629.63,485.78,4246,322.83Z" transform="translate(3053.79 -211.13)"/><path class="cls-13" d="M4261.75,748.53s755,2,1302.72-37.08l-207.73-39.92s-196.37-142.94-334.52-155.07-236,93.32-236,93.32-57.5-35.69-96.07-23.09-86.88,123.66-86.88,123.66-48.25-33-86.9,2.14c0,0-7.51-191.26-101.32-215.49s-176.88,220.56-176.88,220.56l-143.59,25Z" transform="translate(3053.79 -211.13)"/><path class="cls-14" d="M5564.47,711.45s-362.23-63.66-580.3-57-378.08,79.2-378.08,79.2l1.9-7.36s-59.15-8.41-105.68,4.59l16.1,4.16-423.86,7.42S4930.61,779.83,5564.47,711.45Z" transform="translate(3053.79 -211.13)"/><path class="cls-15" d="M460,493.58s36-182.79,167.06-186.88S851.26,552,851.26,552s8-48.08,22.35-45.81S932,573.35,932,573.35s70.49-155.24,156.12-158.78c131-5.42,151.41,286.38,151.41,286.38s139-18.21,207.71,57.83c0,0,177.19,73.15,301.77,77.53,0,0-775-77.83-1550-289.17C199,547.14,376.65,500.68,460,493.58Z" transform="translate(3053.79 -211.13)"/><path class="cls-16" d="M199,547.14s206.9-45.83,423.5,0L578.32,560.2s453.23,68.3,657,142.8l-111.24.63L1749,836.31S815.73,745,199,547.14Z" transform="translate(3053.79 -211.13)"/><path class="cls-17" d="M1787.25,831.74s76.92-32.91,118-11.86,46.31,57.38,46.31,57.38Z" transform="translate(3053.79 -211.13)"/><path class="cls-18" d="M3079.73,784.22s163.84-128,327.68-56.2Z" transform="translate(3053.79 -211.13)"/></g></g></g></svg>