<svg width="44" height="71" viewBox="0 0 44 71" fill="none" xmlns="http://www.w3.org/2000/svg">
<path d="M28.979 70.5952C36.9701 70.5952 43.448 54.7919 43.448 35.2976C43.448 15.8033 36.9701 0 28.979 0C20.988 0 14.51 15.8033 14.51 35.2976C14.51 54.7919 20.988 70.5952 28.979 70.5952Z" fill="url(#paint0_linear)"/>
<path d="M28.9381 0H14.4691V70.5952H28.9381V0Z" fill="url(#paint1_linear)"/>
<path fill-rule="evenodd" clip-rule="evenodd" d="M28.9381 35.2976C28.9381 54.7806 22.4576 70.5952 14.4691 70.5952C6.48057 70.5952 0 54.7806 0 35.2976C0 15.8146 6.48057 0 14.4691 0C22.4576 0 28.9381 15.8146 28.9381 35.2976Z" fill="url(#paint2_radial)"/>
<path fill-rule="evenodd" clip-rule="evenodd" d="M23.6804 8.02966H38.2717C40.7075 13.0536 42.2653 18.4576 42.8773 24.0073H28.3267C27.4613 18.506 25.9001 13.1371 23.6804 8.02966V8.02966Z" fill="#FFB302"/>
<g style="mix-blend-mode:soft-light">
<path fill-rule="evenodd" clip-rule="evenodd" d="M0 39.1698L23.6804 8.02966C25.9401 13.1135 27.4634 18.4935 28.2045 24.0073L1.18201 49.4004C0.551889 46.0216 0.156914 42.6032 0 39.1698V39.1698Z" fill="#FFE802"/>
</g>
<path fill-rule="evenodd" clip-rule="evenodd" d="M21.2754 35.2977C21.2754 46.7103 18.1778 56.248 14.0205 58.5305C13.4354 58.8625 12.7773 59.0445 12.1049 59.0603C7.01013 59.0603 2.89368 48.4222 2.89368 35.2977C2.89368 22.1732 6.96937 11.535 12.1049 11.535C12.7773 11.5508 13.4354 11.7328 14.0205 12.0648C18.1778 14.3473 21.2754 23.8851 21.2754 35.2977Z" fill="url(#paint3_linear)"/>
<path fill-rule="evenodd" clip-rule="evenodd" d="M21.2755 35.2977C21.2755 46.7103 18.178 56.248 14.0207 58.5305C9.94487 56.2888 6.7251 46.7103 6.7251 35.2977C6.7251 23.8851 9.8226 14.3066 14.0207 12.0648C18.178 14.3473 21.2755 23.8851 21.2755 35.2977Z" fill="url(#paint4_linear)"/>
<path fill-rule="evenodd" clip-rule="evenodd" d="M20.2564 67.6605H34.7255C33.7789 68.6828 32.6442 69.5132 31.3833 70.106H16.629C16.629 70.106 19.482 69.1686 20.2564 67.6605Z" fill="#FFB302"/>
<defs>
<linearGradient id="paint0_linear" x1="28.979" y1="70.5952" x2="28.979" y2="0" gradientUnits="userSpaceOnUse">
<stop offset="0.06" stop-color="#F66D33"/>
<stop offset="0.37" stop-color="#F87327"/>
<stop offset="0.94" stop-color="#FE8406"/>
<stop offset="1" stop-color="#FF8602"/>
</linearGradient>
<linearGradient id="paint1_linear" x1="91.589" y1="1222.71" x2="91.589" y2="0" gradientUnits="userSpaceOnUse">
<stop offset="0.06" stop-color="#F66D33"/>
<stop offset="0.37" stop-color="#F87327"/>
<stop offset="0.94" stop-color="#FE8406"/>
<stop offset="1" stop-color="#FF8602"/>
</linearGradient>
<radialGradient id="paint2_radial" cx="0" cy="0" r="1" gradientUnits="userSpaceOnUse" gradientTransform="translate(25.3921 51.5198) scale(26.9817 26.9827)">
<stop offset="0.06" stop-color="#F68633"/>
<stop offset="0.37" stop-color="#F8923A"/>
<stop offset="0.93" stop-color="#FEB34C"/>
<stop offset="1" stop-color="#FFB84F"/>
</radialGradient>
<linearGradient id="paint3_linear" x1="12.1049" y1="59.0603" x2="12.1049" y2="11.535" gradientUnits="userSpaceOnUse">
<stop offset="0.06" stop-color="#DD5733"/>
<stop offset="0.37" stop-color="#E66027"/>
<stop offset="0.94" stop-color="#FC7606"/>
<stop offset="1" stop-color="#FF7902"/>
</linearGradient>
<linearGradient id="paint4_linear" x1="4648.9" y1="11642.4" x2="4648.9" y2="11112.7" gradientUnits="userSpaceOnUse">
<stop offset="0.06" stop-color="#F66D33"/>
<stop offset="0.37" stop-color="#F87327"/>
<stop offset="0.94" stop-color="#FE8406"/>
<stop offset="1" stop-color="#FF8602"/>
</linearGradient>
</defs>
</svg>
