<svg width="109" height="96" viewBox="0 0 109 96" fill="none" xmlns="http://www.w3.org/2000/svg">
<path style="mix-blend-mode:screen" fill-rule="evenodd" clip-rule="evenodd" d="M57.7799 87.8895C33.8916 97.1998 7.875 74.8526 8.76501 42.4602C9.65502 10.0678 62.9393 6.35402 82.584 19.3522C102.229 32.3505 94.8249 73.46 57.7799 87.8895Z" fill="url(#paint0_radial)"/>
<path opacity="0.61" fill-rule="evenodd" clip-rule="evenodd" d="M57.7799 87.8895C33.8916 97.1998 7.875 74.8526 8.76501 42.4602C9.65502 10.0678 62.9393 6.35402 82.584 19.3522C102.229 32.3505 94.8249 73.46 57.7799 87.8895Z" fill="#5BAEFF"/>
<path fill-rule="evenodd" clip-rule="evenodd" d="M85.3056 50.7905C85.2989 56.46 83.8619 62.0362 81.1275 67.0032C78.3931 71.9701 74.4497 76.1674 69.6622 79.2065C64.8747 82.2455 59.3978 84.0283 53.7382 84.3898C48.0787 84.7512 42.4194 83.6797 37.2839 81.2744C36.424 80.8704 35.5641 80.4405 34.7042 79.9849C31.444 78.0985 28.5229 75.6794 26.0621 72.8281C25.1635 71.7994 24.332 70.714 23.5727 69.5786C22.5239 68.0301 21.6091 66.3951 20.8382 64.6914C17.8866 58.1433 17.1069 50.8232 18.613 43.8006C20.1191 36.7779 23.8321 30.4208 29.2094 25.658V25.658C33.2858 22.0305 38.1816 19.4456 43.4767 18.1249C48.7719 16.8043 54.3084 16.7874 59.6115 18.0757C63.1297 18.9251 66.4848 20.3451 69.5435 22.2795V22.2795C70.1368 22.6405 70.7172 23.0274 71.2719 23.44C71.8265 23.8527 72.2006 24.1234 72.652 24.4845C76.1117 27.2445 78.993 30.6594 81.131 34.5338C83.2691 38.4082 84.622 42.6661 85.1122 47.0638C85.2416 48.3018 85.3061 49.5457 85.3056 50.7905Z" fill="url(#paint1_radial)"/>
<g opacity="0.61">
<path opacity="0.61" d="M53.7168 12.6984C65.1192 12.6984 75.8638 15.2774 82.4421 19.6231C90.0265 24.6135 93.8445 34.2848 92.6578 45.4132C91.2003 59.1207 81.1651 78.373 57.6509 87.5414C54.1286 88.9221 50.38 89.6349 46.5967 89.6433C37.7869 89.6433 29.1449 85.7748 22.2957 78.6954C13.5117 69.6688 8.71336 56.4385 9.12611 42.4216C9.71945 21.7894 31.9567 12.6468 53.7168 12.6468V12.6984ZM53.7168 12.376C32.3953 12.376 9.40989 21.2736 8.80365 42.4602C8.00393 69.8236 26.449 90.0172 46.5967 90.0172C50.4202 90.0102 54.2088 89.2886 57.767 87.8896C94.8119 73.46 102.28 32.3118 82.6226 19.3523C75.8122 14.8648 64.9902 12.376 53.7168 12.376V12.376Z" fill="#90CCFF"/>
</g>
<path d="M33.2725 14.2329C28.6334 17.7486 24.1937 21.5198 19.974 25.5289C15.7577 29.4888 12.1462 34.0465 9.25518 39.0559C6.56503 44.023 5.62882 49.7518 6.59798 55.3166C7.83135 60.8786 9.94779 66.2072 12.8668 71.1001C18.7011 81.1355 28.0264 88.6725 39.064 92.2738C44.5606 94.1062 50.3587 94.8636 56.1418 94.5047C61.8984 94.2014 67.4886 92.4685 72.407 89.4627C77.2523 86.425 81.3239 82.3016 84.2996 77.4187C87.2358 72.5333 89.243 67.1471 90.22 61.532C91.2043 55.8929 91.4687 50.1517 91.0068 44.446C90.5845 38.7111 89.661 33.0242 88.2465 27.4503C87.1221 21.9429 84.4717 16.8624 80.5976 12.7886C76.5675 8.83935 71.4041 6.24711 65.8287 5.37396C60.1286 4.51731 54.3104 4.9089 48.7766 6.52163C43.1744 8.10736 37.9168 10.7224 33.2725 14.2329V14.2329ZM33.1177 14.0265C37.7933 10.4642 43.0223 7.69356 48.5961 5.82528C54.2091 3.86353 60.1789 3.13347 66.0995 3.68471C72.1866 4.24896 77.9132 6.82111 82.3776 10.9962C86.6854 15.3257 89.6621 20.7986 90.9552 26.7669C93.8187 38.179 94.9151 50.2617 92.6449 61.9704C91.5388 67.8534 89.3051 73.467 86.0667 78.5019C82.804 83.53 78.3802 87.7005 73.168 90.6619C67.9725 93.5483 62.1713 95.1738 56.2321 95.4074C50.343 95.6404 44.4584 94.8417 38.8446 93.0475C33.1983 91.3061 27.8805 88.6392 23.1083 85.1558C18.3064 81.6289 14.2181 77.2224 11.0609 72.1704C10.2606 70.9238 9.53276 69.6322 8.88107 68.3019C8.17826 66.9928 7.54959 65.6453 6.99791 64.2657C5.80571 61.5135 4.9399 58.6312 4.41818 55.6776C3.43119 49.6364 4.66846 43.4423 7.90076 38.2435C11.1132 33.3092 15.0234 28.8659 19.5095 25.0518C23.908 21.1833 28.4999 17.5856 33.079 14.0265H33.1177Z" fill="#4ACCFF"/>
<path d="M84.5962 77.7411C85.7441 71.977 87.1759 66.2774 88.7882 60.6165C89.575 57.7796 90.3748 54.9555 91.0713 52.0928C91.8192 49.2625 92.3453 46.3781 92.6449 43.466C92.7932 42.017 92.7932 40.5566 92.6449 39.1075C92.3655 37.6816 91.9597 36.2835 91.4324 34.9295C90.9104 33.5775 90.2535 32.2815 89.4718 31.061C88.6979 29.7715 87.8337 28.6367 87.0727 27.3601C86.3036 26.1155 85.6143 24.8234 85.0089 23.4916C84.4027 22.2021 83.9254 20.732 83.3192 19.4296C82.0697 16.792 80.4734 14.3331 78.5725 12.1181C74.8808 7.54684 70.0809 3.99559 64.6291 1.80207C61.9056 0.728179 58.9483 0.385849 56.0514 0.809148C55.342 0.938099 54.6455 1.17021 53.9489 1.33785C53.2524 1.50549 52.5817 1.86656 51.8852 2.11156C51.1887 2.35657 50.5953 2.74342 49.9116 3.0529C49.2685 3.39995 48.6481 3.78758 48.0542 4.21345C45.6422 5.9027 44.1846 8.5204 42.3143 10.8028C40.4761 13.1135 38.372 15.1997 36.0456 17.0183C34.9234 17.9725 33.698 18.7849 32.5114 19.6618L28.8224 22.0989C26.3662 23.6893 24.0684 25.5116 21.9603 27.5406C17.721 31.6016 14.186 36.3384 11.4995 41.5576C8.75637 46.7483 7.14719 52.4622 6.77853 58.3212C6.46193 64.1725 7.95241 69.9797 11.048 74.9558C14.2874 79.8365 18.6255 83.8907 23.7145 86.7935C28.6238 89.9802 34.0354 92.3169 39.7218 93.7052C45.4431 95.0009 51.375 95.0624 57.122 93.8857C62.8543 92.6145 68.4111 90.653 73.671 88.0443C76.3281 86.7548 79.1013 85.7748 81.7584 84.5368C82.4182 84.2203 83.0598 83.8673 83.6803 83.4794C84.3161 83.1255 84.863 82.6316 85.2797 82.0352C85.475 81.734 85.5488 81.3699 85.4862 81.0165C85.4023 80.6633 85.2768 80.3213 85.1121 79.9978C84.6711 79.3334 84.4877 78.5311 84.5962 77.7411V77.7411ZM84.5962 77.7411C84.5042 78.4702 84.6683 79.2086 85.0605 79.8301C85.228 80.1597 85.362 80.5054 85.4603 80.8617C85.5264 81.2417 85.4482 81.6325 85.2411 81.9578C84.8222 82.5707 84.2713 83.0818 83.6288 83.4536C83.0026 83.8473 82.3568 84.2088 81.694 84.5368C79.0368 85.8263 76.2894 86.845 73.6452 88.1217C68.3813 90.7849 62.8165 92.8068 57.0704 94.1437C51.2682 95.3944 45.266 95.3944 39.4638 94.1437C33.6974 92.7765 28.2116 90.4205 23.2501 87.1803C18.0675 84.2239 13.6499 80.0945 10.3515 75.1234C7.1933 70.0432 5.67984 64.1125 6.01756 58.1406C6.38552 52.2102 8.0451 46.4317 10.8803 41.2094C13.6306 35.9755 17.2309 31.2344 21.5346 27.1796C23.668 25.1384 25.9967 23.3115 28.487 21.725L32.176 19.3136C33.3627 18.4496 34.588 17.6501 35.7102 16.7346C38.0717 14.9753 40.2189 12.9455 42.108 10.6868C43.9396 8.44303 45.3972 5.76085 47.8608 4.03292C48.4605 3.5973 49.0849 3.19689 49.731 2.83368C50.4018 2.51131 51.021 2.13735 51.7304 1.86655C52.4398 1.59576 53.0202 1.27338 53.7942 1.07995C54.5681 0.886527 55.2259 0.654406 55.9482 0.525455C58.8997 0.0663653 61.92 0.391007 64.7064 1.46681C70.239 3.63871 75.1235 7.19008 78.895 11.7829C80.8391 14.0221 82.4745 16.5115 83.7577 19.1846C84.4026 20.5386 84.867 21.9184 85.4862 23.2466C86.0807 24.572 86.7481 25.8635 87.4854 27.1151C88.2207 28.4046 89.072 29.578 89.8459 30.8289C90.6324 32.0919 91.2893 33.4312 91.8065 34.8263C92.3369 36.218 92.7385 37.6554 93.0061 39.1204C93.1609 40.595 93.1609 42.0817 93.0061 43.5563C92.6733 46.4872 92.117 49.3885 91.3421 52.2347C90.6198 55.0845 89.7943 57.9085 88.9946 60.7325C87.3822 66.3677 85.8473 72.0544 84.6735 77.8056L84.5962 77.7411Z" fill="url(#paint2_radial)"/>
<path opacity="0.61" fill-rule="evenodd" clip-rule="evenodd" d="M58.3991 88.2248C34.4978 97.535 8.49415 75.2008 9.38416 42.8084C10.2742 10.416 63.5585 6.70217 83.1902 19.6875C102.822 32.6728 95.4311 73.8726 58.3991 88.2248Z" fill="#5BAEFF"/>
<path fill-rule="evenodd" clip-rule="evenodd" d="M74.4965 61.4675C73.6109 62.438 72.8721 63.5327 72.3037 64.7171C71.9425 65.5037 71.2847 66.6255 72.0329 67.2961C72.781 67.9666 74.8576 66.819 75.5671 66.1097C75.9153 65.7745 76.2894 65.4134 76.6248 65.0395C76.9917 64.6436 77.2844 64.185 77.489 63.6855C77.8707 62.4781 78.011 61.2074 77.9017 59.9459C77.9857 59.1271 77.9857 58.3018 77.9017 57.4829C77.6125 56.643 77.1757 55.8613 76.6119 55.1747C75.5542 53.8852 75.0511 55.2521 74.8577 56.2579C74.7464 57.4438 74.5306 58.6175 74.2127 59.7654C74.1095 60.0233 74.1095 60.3199 74.0063 60.5778C73.9031 60.8357 73.7225 60.9001 73.6709 61.0291C73.5867 61.5847 73.5867 62.1498 73.6709 62.7054L74.4965 61.4675Z" fill="#5BAEFF"/>
<path fill-rule="evenodd" clip-rule="evenodd" d="M79.398 50.1844C79.2561 49.9136 78.5983 49.0625 79.1658 48.8949C79.3146 48.8814 79.4646 48.8984 79.6066 48.945C79.7486 48.9916 79.8794 49.0667 79.9913 49.1656C80.5073 49.6943 80.4428 50.7646 80.4557 51.4223C80.4686 52.0799 80.3525 52.3378 79.8753 51.8349C79.537 51.4967 79.2963 51.0735 79.1787 50.6099L79.398 50.1844Z" fill="#5BAEFF"/>
<path fill-rule="evenodd" clip-rule="evenodd" d="M68.7437 66.5869C68.3181 66.0582 68.1117 65.6713 67.4539 65.5166C67.1185 65.4263 66.6928 65.4134 66.3317 65.3489C64.9866 65.3021 63.6592 65.6665 62.5266 66.3934C61.4431 66.8576 60.2821 67.2058 59.1729 67.6829C57.8424 68.2528 56.7142 69.2099 55.9353 70.4296C54.978 71.9116 54.1865 73.4943 53.5749 75.1492C53.058 76.223 52.8567 77.4214 52.9944 78.605C53.1579 79.0933 53.4719 79.5173 53.8913 79.8161C54.3107 80.115 54.8141 80.2734 55.3291 80.2685C56.3996 80.3373 57.474 80.3157 58.5408 80.204C59.1084 80.1267 59.6373 79.9075 60.2048 79.843C60.7724 79.7785 61.1206 79.843 61.5849 79.843C62.0493 79.843 62.5007 79.6624 62.9651 79.6238C63.8336 79.5367 64.669 79.2451 65.4029 78.7727C66.1347 78.2615 66.817 77.683 67.4409 77.0448C68.354 76.3825 69.1112 75.5287 69.6595 74.5431C69.957 73.7179 70.0715 72.8379 69.9949 71.9641C70.0594 71.2133 70.0594 70.4583 69.9949 69.7075C69.9077 69.398 69.8388 69.0837 69.7885 68.7661C69.7885 68.4566 69.7885 68.1342 69.7885 67.8248C69.7444 67.5426 69.6236 67.2779 69.4394 67.0597C69.2551 66.8414 69.0145 66.6778 68.7437 66.5869V66.5869Z" fill="#5BAEFF"/>
<path fill-rule="evenodd" clip-rule="evenodd" d="M67.9053 61.6868C68.318 61.171 68.9759 60.3973 69.6724 60.9775C69.8486 61.1783 69.9581 61.4287 69.9859 61.6944C70.0136 61.96 69.9582 62.2277 69.8272 62.4605C69.3499 63.0794 68.0472 62.396 67.9053 61.6868Z" fill="#5BAEFF"/>
<path fill-rule="evenodd" clip-rule="evenodd" d="M35.4007 39.4815C36.752 38.4002 38.0438 37.2465 39.2702 36.0256C40.2505 35.0842 41.334 34.2461 42.3272 33.3176C43.2669 32.452 43.9346 31.332 44.2491 30.0938C44.5007 28.9991 44.5007 27.8616 44.2491 26.7669C44.1539 25.9186 43.7663 25.1298 43.1528 24.5361C42.8075 24.2838 42.4144 24.1045 41.9974 24.0091C41.5805 23.9138 41.1485 23.9044 40.7278 23.9816C39.5893 24.0495 38.4855 24.3996 37.516 25.0003C35.8263 25.9416 34.4591 27.1925 32.8726 28.2627C31.286 29.333 30.7185 30.5839 31.3376 31.4478C30.5459 32.085 29.9068 32.8913 29.4673 33.8076C28.7765 35.2655 28.3944 36.8503 28.3451 38.4627C28.2647 38.9861 28.2895 39.5202 28.4179 40.0338C28.5464 40.5475 28.7759 41.0304 29.0932 41.4544C30.2154 42.6794 32.7177 41.261 33.8528 40.5646C34.3042 40.2809 34.7428 39.9457 35.1427 39.6233C35.5425 39.3009 36.4325 38.5917 37.2581 38.798C37.4885 38.8424 37.7065 38.937 37.8963 39.075C38.0861 39.213 38.2432 39.3911 38.3565 39.5966C38.4697 39.8021 38.5364 40.0301 38.5516 40.2642C38.5669 40.4984 38.5303 40.733 38.4447 40.9515C37.7869 42.241 36.4196 41.4286 35.7876 40.6033L35.4007 39.4815Z" fill="#5BAEFF"/>
<path fill-rule="evenodd" clip-rule="evenodd" d="M49.357 21.6604C49.0603 22.2794 48.7765 22.576 49.1764 23.1305C49.6029 23.7473 50.1685 24.2553 50.8275 24.6134C51.5118 24.8564 52.2298 24.9912 52.9557 25.0132C54.1028 25.0776 55.2526 25.0776 56.3997 25.0132C57.4058 25.0132 58.4119 25.0132 59.4308 25.0132C60.1751 25.1074 60.9311 25.0234 61.6365 24.7682C62.9264 24.1879 63.5584 23.3497 63.0038 22.0473C61.7139 18.9783 57.8443 18.1788 54.8518 18.1788C53.6442 18.0722 52.4276 18.2171 51.2789 18.6043C49.989 19.2362 48.2348 20.2549 49.357 21.6604Z" fill="#5BAEFF"/>
<path fill-rule="evenodd" clip-rule="evenodd" d="M66.3961 27.8243C66.8476 27.0248 67.5054 26.4445 68.4212 26.9732C68.7499 27.1401 69.0191 27.4042 69.1922 27.7295C69.3653 28.0549 69.4339 28.4257 69.3886 28.7914C69.3182 29.0314 69.1795 29.2457 68.9894 29.4082C68.7993 29.5708 68.566 29.6746 68.318 29.707C67.4796 29.8617 66.7443 29.0106 66.1897 28.4175L66.3961 27.8243Z" fill="#5BAEFF"/>
<path fill-rule="evenodd" clip-rule="evenodd" d="M70.8719 56.3611C70.6372 56.6422 70.4606 56.9669 70.3521 57.3166C70.2436 57.6663 70.2055 58.034 70.2399 58.3985C70.2399 58.9014 70.0722 59.8944 70.6527 60.178C71.0396 60.3715 71.3234 60.178 71.5556 59.9846C71.9615 59.7771 72.2879 59.4418 72.4842 59.0304C72.7797 58.3581 72.8867 57.6182 72.7938 56.8898C72.6003 55.7035 71.5813 56.1419 70.8719 56.7866V56.3611Z" fill="#5BAEFF"/>
<path fill-rule="evenodd" clip-rule="evenodd" d="M43.6172 75.5232C42.869 75.5877 41.1922 75.3556 40.6376 76.1422C40.3894 76.4345 40.2325 76.7931 40.1862 77.1738C40.1867 77.7819 40.3465 78.3792 40.6498 78.9063C40.953 79.4335 41.3891 79.872 41.9145 80.1783C43.3721 81.2486 45.7842 81.8805 47.3449 80.7328C47.6284 80.5315 47.8628 80.2688 48.0306 79.9643C48.1984 79.6598 48.2952 79.3213 48.3138 78.9742C48.3324 78.627 48.2723 78.2802 48.1381 77.9595C48.0038 77.6388 47.7988 77.3526 47.5384 77.1222C46.6742 76.4259 44.5072 74.9945 43.3979 75.7424L43.6172 75.5232Z" fill="#5BAEFF"/>
<path fill-rule="evenodd" clip-rule="evenodd" d="M48.9314 73.6147C49.6537 74.5045 49.7827 74.6592 50.634 74.195C50.9565 74.0145 51.2016 74.0145 51.2919 73.6147C51.3373 73.3718 51.3373 73.1226 51.2919 72.8797C51.0855 72.5702 50.4921 72.5186 50.131 72.5444C50.012 72.5357 49.8925 72.5509 49.7795 72.5893C49.6665 72.6277 49.5624 72.6884 49.4734 72.7678C49.3843 72.8472 49.3122 72.9436 49.2612 73.0515C49.2102 73.1593 49.1813 73.2763 49.1765 73.3955L48.9314 73.6147Z" fill="#5BAEFF"/>
<path d="M56.0901 10.0162C50.5824 10.7254 45.0489 11.3057 39.5411 12.0794C34.0439 12.7813 28.6158 13.946 23.3146 15.5611C20.699 16.388 18.2049 17.5588 15.8979 19.0427C14.78 19.7727 13.7574 20.639 12.8538 21.6218C11.9815 22.6269 11.28 23.7682 10.7771 25.0003C10.2921 26.2372 10.0048 27.5426 9.92579 28.8688L9.77101 30.9191C9.77101 31.6025 9.77101 32.286 9.77101 32.9694C9.80404 35.7003 10.2386 38.4115 11.0609 41.016C12.6603 46.2642 16.0139 50.7904 19.1741 55.3295C20.7864 57.599 22.373 59.8943 23.908 62.2154C24.669 63.3631 25.3913 64.5752 26.2297 65.6584L27.4422 67.3348C27.8936 67.8506 28.3838 68.3277 28.861 68.8435C32.7782 72.779 37.6081 75.6849 42.9206 77.3027C48.2025 78.9831 53.7207 79.8017 59.2632 79.7269C70.3525 79.4672 81.2274 76.6189 91.0197 71.4096C93.4801 70.1969 95.8283 68.7685 98.0365 67.1414C100.152 65.5037 102.125 63.4792 102.577 60.9517C103.028 58.4243 102.125 55.7937 101.197 53.2147C100.268 50.6357 99.2104 48.0567 98.4106 45.31C97.6305 42.6109 97.0569 39.8563 96.6951 37.0701C96.2823 34.3105 95.8825 31.5768 95.4052 28.8688C94.9189 26.1727 94.1225 23.5418 93.0318 21.0286C91.9435 18.5427 90.3025 16.3376 88.2336 14.5811C86.1049 12.8541 83.6474 11.5774 81.0103 10.8286C78.3561 10.0581 75.6279 9.5697 72.8712 9.37144C70.1032 9.15434 67.3237 9.12419 64.5517 9.28118C61.6237 9.39724 58.8762 9.7196 56.0901 10.0162ZM56.0901 9.88725C61.6092 9.11405 67.187 8.84214 72.7552 9.07486C75.5543 9.20105 78.3312 9.63347 81.0361 10.3644C83.7875 11.0554 86.3686 12.3016 88.6205 14.0266C90.8729 15.8028 92.672 18.0875 93.8703 20.6933C95.0322 23.2692 95.8977 25.9686 96.45 28.7398C97.0563 31.4736 97.4561 34.2331 97.8817 36.9798C98.2378 39.7108 98.8071 42.4098 99.5844 45.0521C100.371 47.6311 101.39 50.2101 102.358 52.8665C102.88 54.1894 103.311 55.5466 103.647 56.9285C104.01 58.3711 104.062 59.8741 103.802 61.3386C103.497 62.8101 102.832 64.1834 101.867 65.3361C100.938 66.4404 99.8816 67.4316 98.7202 68.289C96.4339 69.9403 94.0084 71.39 91.4712 72.6218C81.5023 77.783 70.4507 80.5054 59.2245 80.5651C53.6246 80.5098 48.0658 79.601 42.74 77.8701C37.4039 76.1557 32.5443 73.2142 28.5515 69.2819C28.0742 68.7661 27.5712 68.2761 27.1068 67.7603L25.8169 66.0711C24.9398 64.9621 24.2434 63.7757 23.4436 62.641C21.87 60.3585 20.2318 58.1148 18.5808 55.884C15.3304 51.4094 11.7961 46.9219 10.029 41.4673C9.1892 38.7608 8.75454 35.945 8.73914 33.1113C8.73914 32.402 8.73914 31.6928 8.73914 30.9965L8.89391 28.8817C8.98669 27.4373 9.31341 26.0176 9.86131 24.6779C10.3877 23.3419 11.1284 22.1006 12.0541 21.0028C13.0339 19.9523 14.1384 19.0256 15.3432 18.2433C17.7446 16.7401 20.3515 15.5934 23.0824 14.839C28.4675 13.3467 33.969 12.3114 39.5282 11.7441L56.0901 9.88725Z" fill="url(#paint3_radial)"/>
<path fill-rule="evenodd" clip-rule="evenodd" d="M103.893 67.3348C103.493 67.5024 103.196 67.554 102.977 67.8764C102.803 68.112 102.709 68.3962 102.706 68.6888C102.681 68.8343 102.686 68.9833 102.719 69.1271C102.752 69.271 102.814 69.4068 102.899 69.527C103.199 69.7299 103.545 69.8541 103.905 69.888C104.74 70.0625 105.608 69.9709 106.388 69.6263C107.168 69.2816 107.82 68.7012 108.252 67.9666C108.43 67.6172 108.556 67.2436 108.626 66.8577C108.666 66.7322 108.673 66.5986 108.646 66.4697C108.619 66.3409 108.559 66.2213 108.472 66.1227C108.198 65.8059 108.012 65.4239 107.93 65.0137C107.84 63.8531 108.859 62.6281 108.472 61.4675C108.252 60.8228 108.007 60.178 107.182 60.3586C106.386 60.6758 105.725 61.2592 105.311 62.0091C104.964 62.4943 104.703 63.035 104.538 63.6081C104.423 64.1099 104.281 64.6049 104.112 65.091C103.944 65.5424 103.764 65.955 103.583 66.3806C103.26 67.1156 103.067 67.6958 103.893 67.3348Z" fill="#5BAEFF"/>
<path fill-rule="evenodd" clip-rule="evenodd" d="M106.343 57.9601C106.24 57.6635 106.021 56.8511 106.575 56.8769C107.13 56.9027 107.298 57.5861 107.375 57.9601C107.543 58.6435 106.408 58.6435 106.446 58.1793L106.343 57.9601Z" fill="#5BAEFF"/>
<path fill-rule="evenodd" clip-rule="evenodd" d="M106.601 74.9042C107.106 74.8778 107.611 74.9037 108.11 74.9815C108.111 75.1226 108.137 75.2624 108.188 75.3942C108.234 75.7858 108.19 76.1828 108.059 76.5547C107.822 77.2015 107.365 77.7446 106.769 78.0893C106.312 78.2983 105.801 78.3609 105.307 78.2686C104.813 78.1762 104.359 77.9334 104.009 77.5734C103.389 77.0705 102.809 76.1163 103.57 75.4329C104.125 74.9884 104.766 74.6635 105.453 74.4786C105.776 74.3755 106.563 74.066 106.859 74.3755L106.601 74.9042Z" fill="#5BAEFF"/>
<path fill-rule="evenodd" clip-rule="evenodd" d="M4.53421 26.9733C4.03116 27.2054 3.7345 27.2183 3.57972 27.7083C3.34808 28.4336 3.23057 29.1906 3.23143 29.952C3.19799 31.2261 3.52912 32.4832 4.18592 33.5755C4.28911 33.7432 4.50844 34.0655 4.72772 34.1042C4.947 34.1429 5.39843 33.7561 5.59191 33.5884C6.24898 33.0047 6.81041 32.3215 7.25581 31.5639C7.66476 30.8073 7.80143 29.9333 7.64283 29.0881C7.56544 28.5207 7.41065 27.9791 7.32036 27.4246C7.27882 27.0517 7.18318 26.6868 7.03655 26.3414C6.83017 25.903 6.55932 25.3872 6.00467 25.4903C5.53216 25.6637 5.0951 25.9215 4.71481 26.2511C4.12147 26.638 3.87638 27.2183 4.53421 26.9733Z" fill="#5BAEFF"/>
<path fill-rule="evenodd" clip-rule="evenodd" d="M4.21166 38.0501C4.13091 37.8864 4.09953 37.7027 4.12136 37.5214C4.2673 37.4145 4.44352 37.3569 4.62442 37.3569C4.80533 37.3569 4.98155 37.4145 5.12749 37.5214C5.44996 37.7019 5.75953 38.1017 5.54026 38.4756C5.45989 38.637 5.32571 38.7652 5.16087 38.8382C4.99603 38.9112 4.81085 38.9243 4.63734 38.8754C4.23748 38.7207 3.8118 38.3596 3.88919 37.8954L4.21166 38.0501Z" fill="#5BAEFF"/>
<path fill-rule="evenodd" clip-rule="evenodd" d="M1.23213 48.7014C1.06445 49.0367 0.793581 49.6685 1.23213 49.9909C1.36162 50.0758 1.51695 50.1124 1.67072 50.0941C1.85131 50.0941 1.87709 49.9265 1.98028 49.7846C2.39848 49.4059 2.66437 48.8879 2.72834 48.3275C2.72834 47.9664 2.5736 47.038 2.04476 47.2056C1.51591 47.3732 1.27084 48.7014 1.24505 49.1269L1.23213 48.7014Z" fill="#5BAEFF"/>
<path fill-rule="evenodd" clip-rule="evenodd" d="M7.08813 75.8456C7.43868 76.3849 7.87427 76.8639 8.378 77.264C8.61018 77.4832 9.06165 77.9475 9.44861 77.754C9.83557 77.5606 9.80977 76.9674 9.77108 76.7095C9.66602 76.238 9.45424 75.7969 9.15197 75.42C8.98241 75.1924 8.75202 75.0172 8.48735 74.9146C8.22268 74.8119 7.93443 74.786 7.65568 74.8398C7.30742 74.9687 7.11397 75.1363 7.12687 75.5232L7.08813 75.8456Z" fill="#5BAEFF"/>
<path fill-rule="evenodd" clip-rule="evenodd" d="M13.8986 71.3709C14.6019 72.7333 15.6241 73.9056 16.8782 74.7881C17.1103 74.9429 17.4715 75.1492 17.7166 74.9042C17.9617 74.6592 17.7166 74.0273 17.5231 73.7178C16.9939 72.6331 16.3905 71.5861 15.7173 70.5843C15.36 70.0687 15.0369 69.5302 14.7499 68.9724C14.4919 68.3793 14.1179 67.8119 13.8212 67.2187C13.5245 66.6255 13.2665 66.2 12.9957 65.6842C12.8925 65.4908 12.6474 65.0781 12.4023 65.0008C12.1572 64.9234 11.8735 65.2458 11.7961 65.4521C11.6541 65.923 11.6541 66.4254 11.7961 66.8963C11.9054 67.446 12.0741 67.9821 12.2992 68.4953C12.4769 69.0589 12.7012 69.6067 12.9698 70.133C13.2551 70.6835 13.5783 71.2135 13.9372 71.7191C14.1952 72.0415 14.4274 72.4154 14.7112 72.712C14.995 73.0086 15.4206 73.3052 15.756 73.6147L13.8986 71.3709Z" fill="#5BAEFF"/>
<path fill-rule="evenodd" clip-rule="evenodd" d="M80.8039 87.0256C81.3069 86.9224 82.0938 86.5226 82.4549 87.1287C82.5558 87.3287 82.6084 87.5495 82.6084 87.7735C82.6084 87.9974 82.5558 88.2183 82.4549 88.4182C82.1325 89.2693 81.5778 90.1204 80.5588 90.1204C79.8622 90.1204 78.8174 89.8109 78.8303 88.9727C78.8428 88.7407 78.9176 88.5164 79.0471 88.3235C79.1765 88.1306 79.3556 87.9762 79.5656 87.8766C80.0493 87.525 80.597 87.271 81.1779 87.1287L80.8039 87.0256Z" fill="#5BAEFF"/>
<defs>
<radialGradient id="paint0_radial" cx="0" cy="0" r="1" gradientUnits="userSpaceOnUse" gradientTransform="translate(33.1048 30.326) scale(40.5534 40.5421)">
<stop stop-color="#2C6AFF"/>
<stop offset="0.11" stop-color="#2B68FA"/>
<stop offset="0.23" stop-color="#2962EC"/>
<stop offset="0.36" stop-color="#2558D4"/>
<stop offset="0.5" stop-color="#1F4AB3"/>
<stop offset="0.65" stop-color="#183989"/>
<stop offset="0.79" stop-color="#0F2355"/>
<stop offset="0.94" stop-color="#040A18"/>
<stop offset="1"/>
</radialGradient>
<radialGradient id="paint1_radial" cx="0" cy="0" r="1" gradientUnits="userSpaceOnUse" gradientTransform="translate(44.4169 39.7652) scale(46.3191 46.3062)">
<stop stop-color="#5EA4EA"/>
<stop offset="0.77" stop-color="#75FFF6"/>
<stop offset="1" stop-color="#F2F4FF"/>
</radialGradient>
<radialGradient id="paint2_radial" cx="0" cy="0" r="1" gradientUnits="userSpaceOnUse" gradientTransform="translate(49055.4 21483.1) scale(3084.27 3353.51)">
<stop stop-color="#5EA4EA"/>
<stop offset="0.77" stop-color="#75FFF6"/>
<stop offset="1" stop-color="#F2F4FF"/>
</radialGradient>
<radialGradient id="paint3_radial" cx="0" cy="0" r="1" gradientUnits="userSpaceOnUse" gradientTransform="translate(54095.9 16063.8) scale(3123.4 2347.52)">
<stop stop-color="#5EA4EA"/>
<stop offset="0.77" stop-color="#75FFF6"/>
<stop offset="1" stop-color="#F2F4FF"/>
</radialGradient>
</defs>
</svg>
