<svg xmlns="http://www.w3.org/2000/svg" xmlns:xlink="http://www.w3.org/1999/xlink" viewBox="0 0 10057.79 315.1"><defs><style>.cls-1{fill:none;}.cls-2{isolation:isolate;}.cls-3{clip-path:url(#clip-path);}.cls-10,.cls-11,.cls-12,.cls-13,.cls-14,.cls-15,.cls-16,.cls-4,.cls-5,.cls-6,.cls-7,.cls-9{fill-rule:evenodd;}.cls-4{fill:url(#Áåçûìÿííûé_ãðàäèåíò_60);}.cls-5,.cls-7{opacity:0.5;}.cls-10,.cls-12,.cls-5,.cls-7{mix-blend-mode:multiply;}.cls-5{fill:url(#Áåçûìÿííûé_ãðàäèåíò_149);}.cls-6{fill:#ff9ca7;opacity:0.2;}.cls-7{fill:url(#Áåçûìÿííûé_ãðàäèåíò_149-2);}.cls-8{clip-path:url(#clip-path-2);}.cls-9{fill:url(#Áåçûìÿííûé_ãðàäèåíò_29);}.cls-10{fill:#bc93a0;}.cls-10,.cls-11,.cls-12,.cls-13{opacity:0.3;}.cls-11{fill:#e0cdd3;}.cls-11,.cls-13{mix-blend-mode:soft-light;}.cls-12{fill:#cab7c3;}.cls-13{fill:#b59f9c;}.cls-14{fill:#502f4c;}.cls-15{fill:#50374c;}.cls-16{fill:#382f4c;}</style><clipPath id="clip-path" transform="translate(3053.79 -1646.6)"><line class="cls-1" x1="-850" y1="1903" x2="-852"/></clipPath><linearGradient id="Áåçûìÿííûé_ãðàäèåíò_60" x1="486.18" y1="315.1" x2="486.18" gradientUnits="userSpaceOnUse"><stop offset="0" stop-color="#db3d61"/><stop offset="0.61" stop-color="#a31955"/><stop offset="1" stop-color="#7d004d"/></linearGradient><linearGradient id="Áåçûìÿííûé_ãðàäèåíò_149" x1="486.18" y1="315.1" x2="486.18" y2="56.83" gradientUnits="userSpaceOnUse"><stop offset="0" stop-color="#c77cbd"/><stop offset="1" stop-color="#974577"/></linearGradient><linearGradient id="Áåçûìÿííûé_ãðàäèåíò_149-2" x1="385.16" y1="185.96" x2="972.37" y2="185.96" xlink:href="#Áåçûìÿííûé_ãðàäèåíò_149"/><clipPath id="clip-path-2" transform="translate(3053.79 -1646.6)"><rect class="cls-1" x="10.12" y="7.06" width="6993.88" height="3496.94"/></clipPath><radialGradient id="Áåçûìÿííûé_ãðàäèåíò_29" cx="3553.69" cy="25020.58" r="2746.26" gradientTransform="translate(3053.79 -1275.89) scale(1 0.06)" gradientUnits="userSpaceOnUse"><stop offset="0.01" stop-color="#937e91"/><stop offset="1" stop-color="#5b5566"/></radialGradient></defs><g class="cls-2"><g id="Capa_1" data-name="Capa 1"><g class="cls-3"><polygon class="cls-4" points="23.09 315.1 49.61 261.42 24.71 210.07 0 149.34 938.33 0 972.37 56.83 865.36 238.07 837.45 266.08 638.44 284.46 639.12 315.1 23.09 315.1"/><polygon class="cls-5" points="972.37 56.83 783.8 210.07 142.94 210.07 0 149.34 49.61 261.42 162.39 241.58 560.04 229.32 385.16 261.42 227.27 315.1 639.12 315.1 638.44 284.46 837.45 266.08 865.36 238.07 972.37 56.83"/><polygon class="cls-6" points="0 149.34 142.94 210.07 783.8 210.07 972.37 56.83 938.33 0 0 149.34"/><polygon class="cls-7" points="783.8 210.07 529.32 210.07 465.5 232.24 560.04 229.32 385.16 261.42 420.5 315.1 639.12 315.1 638.44 284.46 837.45 266.08 865.36 238.07 972.37 56.83 783.8 210.07"/></g><g class="cls-8"><polygon class="cls-9" points="3063.91 256.4 3063.91 109.4 10057.79 114.22 10057.79 256.4 3063.91 256.4"/><polygon class="cls-10" points="5070.27 110.78 3409.23 154.65 4440.83 154.65 5070.27 124.13 5205.79 125.05 3890.06 214.78 5232.01 214.78 5959.7 111.36 5070.27 110.78"/><polygon class="cls-11" points="3247.5 256.4 3890.06 214.78 5232.01 214.78 4923.11 256.4 3247.5 256.4"/><polygon class="cls-11" points="6682.8 112.02 6777.77 145.4 7611.2 145.4 6955.71 112.54 6682.8 112.02"/><polygon class="cls-11" points="6793.98 151.26 6837.11 164.83 7904.26 162.78 7668.21 151.26 6793.98 151.26"/><polygon class="cls-12" points="6591.66 256.4 6591.66 172.23 6638.1 172.23 6697.81 235.13 6729.33 235.13 6699.27 204.29 7279.32 205.83 7505.02 256.4 7636.89 256.4 7114.27 167.6 7611.2 162.78 8373.43 256.4 6591.66 256.4"/><polygon class="cls-10" points="7139.76 151.26 7108.98 145.4 7611.2 145.4 7059.52 117.74 7349.12 117.74 8825.12 192.27 8312.23 192.27 7904.26 162.78 7700.81 151.26 7139.76 151.26"/><polygon class="cls-11" points="10057.79 164.83 8208.78 128.71 9059.77 128.71 10057.79 136.15 10057.79 164.83"/><polygon class="cls-10" points="9314.43 150.31 8591.99 151.26 10057.79 214.78 10057.79 164.83 9314.43 150.31"/><polygon class="cls-11" points="3063.91 162.78 3409.23 154.65 4440.83 154.65 3063.91 214.78 3063.91 162.78"/><polygon class="cls-12" points="5419.97 209.59 5785.83 151.26 6090.88 151.26 5959.7 192.27 6023.54 192.27 6182.01 131.84 6186.02 131.84 5941.6 256.4 5905.05 256.4 6012.99 203.06 5675.7 200.59 5395.2 256.4 5119.82 256.4 5419.97 209.59"/><polygon class="cls-13" points="7775.02 182.9 8136.01 179.53 8339.92 194.12 8645.9 192.27 9557.05 256.4 8373.43 256.4 7775.02 182.9"/><polygon class="cls-11" points="5456.3 182.9 5587.38 182.9 5785.83 151.26 5933.49 151.26 6062 110.78 5959.7 111.36 5456.3 182.9"/><polygon class="cls-14" points="5395.2 256.4 5675.7 200.59 5675.7 200.59 5410.14 256.4 5395.2 256.4"/><polygon class="cls-14" points="7636.89 256.4 7114.27 167.6 7440.18 226.8 7621.04 256.4 7636.89 256.4"/><polygon class="cls-15" points="8825.12 192.27 8816.37 196.89 8339.92 194.12 7700.81 151.26 8342.83 191.96 8825.12 192.27"/><polygon class="cls-16" points="9118.54 174.08 10057.79 179.53 10057.79 182.54 9118.54 174.08"/><polygon class="cls-15" points="3063.91 214.78 4440.83 154.65 3063.91 217.09 3063.91 214.78"/><polygon class="cls-11" points="7332.48 204.68 8053.36 217.09 8203.98 235.59 7541.27 240.15 7332.48 204.68"/><polygon class="cls-13" points="6135.91 157.37 6573.54 158.04 6587.08 200.59 6072.4 189.74 6135.91 157.37"/><polygon class="cls-10" points="5043.68 240.15 3639.01 231.04 3247.5 256.4 4923.11 256.4 5043.68 240.15"/><polygon class="cls-11" points="4974.11 162.78 5170.82 162.78 5578.79 117.74 5626.88 117.74 5511.77 131.84 5592.29 131.84 5754.39 111.38 5567.14 110.78 4974.11 162.78"/><polygon class="cls-11" points="7687.5 134.83 7830.68 134.83 9305.95 204.68 8816.37 196.89 8825.12 192.27 7687.5 134.83"/><polygon class="cls-10" points="9833.4 256.4 9384.63 222.41 9498.28 222.41 10057.79 256.4 9833.4 256.4"/></g></g></g></svg>