<svg xmlns="http://www.w3.org/2000/svg" xmlns:xlink="http://www.w3.org/1999/xlink" viewBox="0 0 8502.61 632.15"><defs><style>.cls-1{fill:none;}.cls-2{isolation:isolate;}.cls-3{clip-path:url(#clip-path);}.cls-10,.cls-11,.cls-12,.cls-13,.cls-14,.cls-15,.cls-16,.cls-17,.cls-18,.cls-19,.cls-4,.cls-5,.cls-6,.cls-7,.cls-8,.cls-9{fill-rule:evenodd;}.cls-4{fill:url(#Áåçûìÿííûé_ãðàäèåíò_60);}.cls-10,.cls-12,.cls-13,.cls-15,.cls-16,.cls-18,.cls-19,.cls-5,.cls-7,.cls-9{opacity:0.5;mix-blend-mode:multiply;}.cls-5{fill:url(#Áåçûìÿííûé_ãðàäèåíò_149);}.cls-6{fill:#ff9ca7;opacity:0.2;}.cls-7{fill:url(#Áåçûìÿííûé_ãðàäèåíò_149-2);}.cls-8{fill:url(#Áåçûìÿííûé_ãðàäèåíò_60-2);}.cls-9{fill:url(#Áåçûìÿííûé_ãðàäèåíò_149-3);}.cls-10{fill:url(#Áåçûìÿííûé_ãðàäèåíò_149-4);}.cls-11{fill:url(#Áåçûìÿííûé_ãðàäèåíò_60-3);}.cls-12{fill:url(#Áåçûìÿííûé_ãðàäèåíò_149-5);}.cls-13{fill:url(#Áåçûìÿííûé_ãðàäèåíò_149-6);}.cls-14{fill:url(#Áåçûìÿííûé_ãðàäèåíò_60-4);}.cls-15{fill:url(#Áåçûìÿííûé_ãðàäèåíò_149-7);}.cls-16{fill:url(#Áåçûìÿííûé_ãðàäèåíò_149-8);}.cls-17{fill:url(#Áåçûìÿííûé_ãðàäèåíò_60-5);}.cls-18{fill:url(#Áåçûìÿííûé_ãðàäèåíò_149-9);}.cls-19{fill:url(#Áåçûìÿííûé_ãðàäèåíò_149-10);}</style><clipPath id="clip-path" transform="translate(3053.79 -1329.55)"><polygon class="cls-1" points="6150 1903 -850 1903 -852 0 6150 0 6150 1903"/></clipPath><linearGradient id="Áåçûìÿííûé_ãðàäèåíò_60" x1="6541.32" y1="580.15" x2="6541.32" y2="170.9" gradientUnits="userSpaceOnUse"><stop offset="0" stop-color="#db3d61"/><stop offset="0.61" stop-color="#a31955"/><stop offset="1" stop-color="#7d004d"/></linearGradient><linearGradient id="Áåçûìÿííûé_ãðàäèåíò_149" x1="6302.42" y1="580.15" x2="6302.42" y2="209.03" gradientUnits="userSpaceOnUse"><stop offset="0" stop-color="#c77cbd"/><stop offset="1" stop-color="#974577"/></linearGradient><linearGradient id="Áåçûìÿííûé_ãðàäèåíò_149-2" x1="5935.73" y1="497" x2="6667.44" y2="497" xlink:href="#Áåçûìÿííûé_ãðàäèåíò_149"/><linearGradient id="Áåçûìÿííûé_ãðàäèåíò_60-2" x1="7959.52" y1="580.15" x2="7959.52" y2="0" xlink:href="#Áåçûìÿííûé_ãðàäèåíò_60"/><linearGradient id="Áåçûìÿííûé_ãðàäèåíò_149-3" x1="7959.52" y1="580.15" x2="7959.52" y2="19.24" xlink:href="#Áåçûìÿííûé_ãðàäèåíò_149"/><linearGradient id="Áåçûìÿííûé_ãðàäèåíò_149-4" x1="8165.27" y1="580.15" x2="8165.27" y2="413.85" xlink:href="#Áåçûìÿííûé_ãðàäèåíò_149"/><linearGradient id="Áåçûìÿííûé_ãðàäèåíò_60-3" x1="4756.18" y1="580.15" x2="4756.18" y2="265.05" xlink:href="#Áåçûìÿííûé_ãðàäèåíò_60"/><linearGradient id="Áåçûìÿííûé_ãðàäèåíò_149-5" x1="4756.18" y1="580.15" x2="4756.18" y2="321.87" xlink:href="#Áåçûìÿííûé_ãðàäèåíò_149"/><linearGradient id="Áåçûìÿííûé_ãðàäèåíò_149-6" x1="4655.16" y1="451.01" x2="5242.37" y2="451.01" xlink:href="#Áåçûìÿííûé_ãðàäèåíò_149"/><linearGradient id="Áåçûìÿííûé_ãðàäèåíò_60-4" x1="3689.52" y1="632.15" x2="3689.52" y2="52" xlink:href="#Áåçûìÿííûé_ãðàäèåíò_60"/><linearGradient id="Áåçûìÿííûé_ãðàäèåíò_149-7" x1="3689.52" y1="632.15" x2="3689.52" y2="71.24" xlink:href="#Áåçûìÿííûé_ãðàäèåíò_149"/><linearGradient id="Áåçûìÿííûé_ãðàäèåíò_149-8" x1="3895.27" y1="632.15" x2="3895.27" y2="465.85" xlink:href="#Áåçûìÿííûé_ãðàäèåíò_149"/><linearGradient id="Áåçûìÿííûé_ãðàäèåíò_60-5" x1="486.18" y1="632.15" x2="486.18" y2="317.05" xlink:href="#Áåçûìÿííûé_ãðàäèåíò_60"/><linearGradient id="Áåçûìÿííûé_ãðàäèåíò_149-9" x1="486.18" y1="632.15" x2="486.18" y2="373.87" xlink:href="#Áåçûìÿííûé_ãðàäèåíò_149"/><linearGradient id="Áåçûìÿííûé_ãðàäèåíò_149-10" x1="385.16" y1="503.01" x2="972.37" y2="503.01" xlink:href="#Áåçûìÿííûé_ãðàäèåíò_149"/></defs><g class="cls-2"><g id="Capa_1" data-name="Capa 1"><g class="cls-3"><polygon class="cls-4" points="7304.28 580.15 6826.48 413.85 6774.73 422.6 5998.22 179.86 5842.62 170.9 5778.36 209.03 5899.46 421.43 5875.43 444.77 5916.77 580.15 7304.28 580.15"/><polygon class="cls-5" points="5778.36 209.03 5951.61 413.85 6667.44 475.12 6774.73 422.6 6826.48 413.85 6615.63 519.46 6654.14 580.15 6541.32 580.15 6041.15 454.11 5899.46 421.43 5778.36 209.03"/><polygon class="cls-6" points="5778.36 209.03 5951.61 413.85 6667.44 475.12 6774.73 422.6 5998.22 179.86 5842.62 170.9 5778.36 209.03"/><polygon class="cls-7" points="6667.44 475.12 6666.76 493.85 6615.63 519.46 6654.14 580.15 6541.32 580.15 5935.73 429.8 5951.61 413.85 6667.44 475.12"/><polygon class="cls-8" points="7620.8 580.15 7611.58 541.63 7633.62 510.13 7548.39 475.34 7416.43 381.75 7416.43 337.11 8354.56 0 8431.87 19.24 8502.61 413.85 8318.46 496.12 8287.62 532.86 8279.43 580.15 7620.8 580.15"/><polygon class="cls-9" points="8431.87 19.24 8420.92 173.98 8276.14 290.07 7769.73 413.85 8088.13 375.52 8276.14 375.52 8407.92 413.85 8293.31 472.78 7734.54 456.44 7416.43 381.75 7548.39 475.34 7633.62 510.13 7902.91 486.54 8073.13 510.13 7611.58 541.63 7620.8 580.15 8279.43 580.15 8287.62 532.86 8318.46 496.12 8502.61 413.85 8431.87 19.24"/><polygon class="cls-6" points="7416.43 381.75 7672.29 441.83 7786.81 411.79 8276.14 290.07 8420.92 173.98 8431.87 19.24 8354.56 0 7416.43 337.11 7416.43 381.75"/><polygon class="cls-10" points="8073.13 510.13 8056.89 580.15 8279.43 580.15 8287.62 532.86 8318.46 496.12 8427.63 447.35 8407.92 413.85 8293.31 472.78 7906.08 461.46 7902.91 486.54 8073.13 510.13"/><polygon class="cls-11" points="4293.09 580.15 4319.61 526.46 4294.71 475.12 4270 414.39 5208.33 265.05 5242.37 321.87 5135.36 503.12 5107.44 531.13 4908.44 549.51 4909.12 580.15 4293.09 580.15"/><polygon class="cls-12" points="5242.37 321.87 5053.8 475.12 4412.94 475.12 4270 414.39 4319.61 526.46 4432.39 506.63 4830.04 494.37 4655.16 526.46 4497.27 580.15 4909.12 580.15 4908.44 549.51 5107.44 531.13 5135.36 503.12 5242.37 321.87"/><polygon class="cls-6" points="4270 414.39 4412.94 475.12 5053.8 475.12 5242.37 321.87 5208.33 265.05 4270 414.39"/><polygon class="cls-13" points="5053.8 475.12 4799.32 475.12 4735.49 497.28 4830.04 494.37 4655.16 526.46 4690.5 580.15 4909.12 580.15 4908.44 549.51 5107.44 531.13 5135.36 503.12 5242.37 321.87 5053.8 475.12"/><polygon class="cls-14" points="3350.8 632.15 3341.58 593.63 3363.62 562.13 3278.39 527.34 3146.43 433.75 3146.43 389.11 4084.56 52 4161.87 71.24 4232.61 465.85 4048.46 548.12 4017.62 584.86 4009.43 632.15 3350.8 632.15"/><polygon class="cls-15" points="4161.87 71.24 4150.92 225.98 4006.14 342.07 3499.73 465.85 3818.13 427.52 4006.14 427.52 4137.92 465.85 4023.3 524.78 3464.54 508.44 3146.43 433.75 3278.39 527.34 3363.62 562.13 3632.91 538.54 3803.13 562.13 3341.58 593.63 3350.8 632.15 4009.43 632.15 4017.62 584.86 4048.46 548.12 4232.61 465.85 4161.87 71.24"/><polygon class="cls-6" points="3146.43 433.75 3402.29 493.83 3516.81 463.79 4006.14 342.07 4150.92 225.98 4161.87 71.24 4084.56 52 3146.43 389.11 3146.43 433.75"/><polygon class="cls-16" points="3803.13 562.13 3786.89 632.15 4009.43 632.15 4017.62 584.86 4048.46 548.12 4157.63 499.35 4137.92 465.85 4023.3 524.78 3636.08 513.46 3632.91 538.54 3803.13 562.13"/><polygon class="cls-17" points="23.09 632.15 49.61 578.46 24.71 527.12 0 466.39 938.33 317.05 972.37 373.87 865.36 555.12 837.45 583.13 638.44 601.51 639.12 632.15 23.09 632.15"/><polygon class="cls-18" points="972.37 373.87 783.8 527.12 142.94 527.12 0 466.39 49.61 578.46 162.39 558.63 560.04 546.37 385.16 578.46 227.27 632.15 639.12 632.15 638.44 601.51 837.45 583.13 865.36 555.12 972.37 373.87"/><polygon class="cls-6" points="0 466.39 142.94 527.12 783.8 527.12 972.37 373.87 938.33 317.05 0 466.39"/><polygon class="cls-19" points="783.8 527.12 529.32 527.12 465.5 549.28 560.04 546.37 385.16 578.46 420.5 632.15 639.12 632.15 638.44 601.51 837.45 583.13 865.36 555.12 972.37 373.87 783.8 527.12"/></g></g></g></svg>