<?xml version="1.0" encoding="utf-8"?>
<!-- Generator: Adobe Illustrator 25.1.0, SVG Export Plug-In . SVG Version: 6.00 Build 0)  -->
<svg version="1.1" id="Capa_1" xmlns="http://www.w3.org/2000/svg" xmlns:xlink="http://www.w3.org/1999/xlink" x="0px" y="0px"
	 viewBox="0 0 8192 632.2" style="enable-background:new 0 0 8192 632.2;" xml:space="preserve">
<style type="text/css">
	.st0{clip-path:url(#SVGID_2_);}
	.st1{fill-rule:evenodd;clip-rule:evenodd;fill:url(#SVGID_3_);}
	.st2{opacity:0.5;fill-rule:evenodd;clip-rule:evenodd;fill:url(#SVGID_4_);enable-background:new    ;}
	.st3{opacity:0.2;fill-rule:evenodd;clip-rule:evenodd;fill:#FF9CA7;enable-background:new    ;}
	.st4{opacity:0.5;fill-rule:evenodd;clip-rule:evenodd;fill:url(#SVGID_5_);enable-background:new    ;}
	.st5{fill-rule:evenodd;clip-rule:evenodd;fill:url(#SVGID_6_);}
	.st6{opacity:0.5;fill-rule:evenodd;clip-rule:evenodd;fill:url(#SVGID_7_);enable-background:new    ;}
	.st7{opacity:0.5;fill-rule:evenodd;clip-rule:evenodd;fill:url(#SVGID_8_);enable-background:new    ;}
	.st8{fill-rule:evenodd;clip-rule:evenodd;fill:url(#SVGID_9_);}
	.st9{opacity:0.5;fill-rule:evenodd;clip-rule:evenodd;fill:url(#SVGID_10_);enable-background:new    ;}
	.st10{opacity:0.5;fill-rule:evenodd;clip-rule:evenodd;fill:url(#SVGID_11_);enable-background:new    ;}
	.st11{fill-rule:evenodd;clip-rule:evenodd;fill:url(#SVGID_12_);}
	.st12{opacity:0.5;fill-rule:evenodd;clip-rule:evenodd;fill:url(#SVGID_13_);enable-background:new    ;}
	.st13{opacity:0.5;fill-rule:evenodd;clip-rule:evenodd;fill:url(#SVGID_14_);enable-background:new    ;}
	.st14{fill-rule:evenodd;clip-rule:evenodd;fill:url(#SVGID_15_);}
	.st15{opacity:0.5;fill-rule:evenodd;clip-rule:evenodd;fill:url(#SVGID_16_);enable-background:new    ;}
	.st16{opacity:0.5;fill-rule:evenodd;clip-rule:evenodd;fill:url(#SVGID_17_);enable-background:new    ;}
</style>
<g>
	<g id="Capa_1_1_">
		<g>
			<defs>
				<polygon id="SVGID_1_" points="8513.6,629 1769.3,629 1767.4,-1204.4 8513.6,-1204.4 				"/>
			</defs>
			<clipPath id="SVGID_2_">
				<use xlink:href="#SVGID_1_"  style="overflow:visible;"/>
			</clipPath>
			<g class="st0">
				
					<linearGradient id="SVGID_3_" gradientUnits="userSpaceOnUse" x1="6024.2798" y1="-7.4247" x2="6024.2798" y2="401.8254" gradientTransform="matrix(0.9635 0 0 -0.9635 144.1519 628.3496)">
					<stop  offset="0" style="stop-color:#DB3D61"/>
					<stop  offset="0.61" style="stop-color:#A31955"/>
					<stop  offset="1" style="stop-color:#7D004D"/>
				</linearGradient>
				<polygon class="st1" points="6683.4,635.5 6223.1,475.3 6173.2,483.7 5425.1,249.8 5275.2,241.2 5213.3,277.9 5329.9,482.6 
					5306.8,505.1 5346.6,635.5 				"/>
				
					<linearGradient id="SVGID_4_" gradientUnits="userSpaceOnUse" x1="5785.3799" y1="-7.4247" x2="5785.3799" y2="363.6954" gradientTransform="matrix(0.9635 0 0 -0.9635 144.1519 628.3496)">
					<stop  offset="0" style="stop-color:#C77CBD"/>
					<stop  offset="1" style="stop-color:#974577"/>
				</linearGradient>
				<polygon class="st2" points="5213.3,277.9 5380.2,475.3 6069.9,534.3 6173.2,483.7 6223.1,475.3 6020,577 6057.1,635.5 
					5948.4,635.5 5466.5,514.1 5329.9,482.6 				"/>
				<polygon class="st3" points="5213.3,277.9 5380.2,475.3 6069.9,534.3 6173.2,483.7 5425.1,249.8 5275.2,241.2 				"/>
				
					<linearGradient id="SVGID_5_" gradientUnits="userSpaceOnUse" x1="5418.6899" y1="75.7253" x2="6150.3999" y2="75.7253" gradientTransform="matrix(0.9635 0 0 -0.9635 144.1519 628.3496)">
					<stop  offset="0" style="stop-color:#C77CBD"/>
					<stop  offset="1" style="stop-color:#974577"/>
				</linearGradient>
				<polygon class="st4" points="6069.9,534.3 6069.2,552.4 6020,577 6057.1,635.5 5948.4,635.5 5364.9,490.6 5380.2,475.3 				"/>
				
					<linearGradient id="SVGID_6_" gradientUnits="userSpaceOnUse" x1="7442.4805" y1="-7.4247" x2="7442.4805" y2="572.7253" gradientTransform="matrix(0.9635 0 0 -0.9635 144.1519 628.3496)">
					<stop  offset="0" style="stop-color:#DB3D61"/>
					<stop  offset="0.61" style="stop-color:#A31955"/>
					<stop  offset="1" style="stop-color:#7D004D"/>
				</linearGradient>
				<polygon class="st5" points="6988.4,635.5 6979.5,598.4 7000.8,568 6918.6,534.5 6791.5,444.4 6791.5,401.3 7695.4,76.5 
					7769.8,95.1 7838,475.3 7660.6,554.5 7630.9,589.9 7623,635.5 				"/>
				
					<linearGradient id="SVGID_7_" gradientUnits="userSpaceOnUse" x1="7442.4805" y1="-7.4247" x2="7442.4805" y2="553.4854" gradientTransform="matrix(0.9635 0 0 -0.9635 144.1519 628.3496)">
					<stop  offset="0" style="stop-color:#C77CBD"/>
					<stop  offset="1" style="stop-color:#974577"/>
				</linearGradient>
				<polygon class="st6" points="7769.8,95.1 7759.3,244.2 7619.8,356 7131.9,475.3 7438.7,438.3 7619.8,438.3 7746.8,475.3 
					7636.3,532.1 7098,516.3 6791.5,444.4 6918.6,534.5 7000.8,568 7260.2,545.3 7424.2,568 6979.5,598.4 6988.4,635.5 7623,635.5 
					7630.9,589.9 7660.6,554.5 7838,475.3 				"/>
				<polygon class="st3" points="6791.5,444.4 7038,502.2 7148.3,473.3 7619.8,356 7759.3,244.2 7769.8,95.1 7695.4,76.5 
					6791.5,401.3 				"/>
				
					<linearGradient id="SVGID_8_" gradientUnits="userSpaceOnUse" x1="7648.23" y1="-7.4247" x2="7648.23" y2="158.8754" gradientTransform="matrix(0.9635 0 0 -0.9635 144.1519 628.3496)">
					<stop  offset="0" style="stop-color:#C77CBD"/>
					<stop  offset="1" style="stop-color:#974577"/>
				</linearGradient>
				<polygon class="st7" points="7424.2,568 7408.6,635.5 7623,635.5 7630.9,589.9 7660.6,554.5 7765.8,507.6 7746.8,475.3 
					7636.3,532.1 7263.3,521.1 7260.2,545.3 				"/>
				
					<linearGradient id="SVGID_9_" gradientUnits="userSpaceOnUse" x1="4239.145" y1="-7.4247" x2="4239.145" y2="307.6754" gradientTransform="matrix(0.9635 0 0 -0.9635 144.1519 628.3496)">
					<stop  offset="0" style="stop-color:#DB3D61"/>
					<stop  offset="0.61" style="stop-color:#A31955"/>
					<stop  offset="1" style="stop-color:#7D004D"/>
				</linearGradient>
				<polygon class="st8" points="3782.3,635.5 3807.8,583.8 3783.8,534.3 3760,475.8 4664.1,331.9 4696.9,386.7 4593.8,561.3 
					4566.9,588.3 4375.1,606 4375.8,635.5 				"/>
				
					<linearGradient id="SVGID_10_" gradientUnits="userSpaceOnUse" x1="4239.145" y1="-7.4247" x2="4239.145" y2="250.8554" gradientTransform="matrix(0.9635 0 0 -0.9635 144.1519 628.3496)">
					<stop  offset="0" style="stop-color:#C77CBD"/>
					<stop  offset="1" style="stop-color:#974577"/>
				</linearGradient>
				<polygon class="st9" points="4696.9,386.7 4515.2,534.3 3897.7,534.3 3760,475.8 3807.8,583.8 3916.5,564.7 4299.6,552.9 
					4131.1,583.8 3979,635.5 4375.8,635.5 4375.1,606 4566.9,588.3 4593.8,561.3 				"/>
				<polygon class="st3" points="3760,475.8 3897.7,534.3 4515.2,534.3 4696.9,386.7 4664.1,331.9 				"/>
				
					<linearGradient id="SVGID_11_" gradientUnits="userSpaceOnUse" x1="4138.1201" y1="121.7153" x2="4725.3301" y2="121.7153" gradientTransform="matrix(0.9635 0 0 -0.9635 144.1519 628.3496)">
					<stop  offset="0" style="stop-color:#C77CBD"/>
					<stop  offset="1" style="stop-color:#974577"/>
				</linearGradient>
				<polygon class="st10" points="4515.2,534.3 4270,534.3 4208.5,555.7 4299.6,552.9 4131.1,583.8 4165.2,635.5 4375.8,635.5 
					4375.1,606 4566.9,588.3 4593.8,561.3 4696.9,386.7 				"/>
				
					<linearGradient id="SVGID_12_" gradientUnits="userSpaceOnUse" x1="3172.48" y1="-59.4247" x2="3172.48" y2="520.7253" gradientTransform="matrix(0.9635 0 0 -0.9635 144.1519 628.3496)">
					<stop  offset="0" style="stop-color:#DB3D61"/>
					<stop  offset="0.61" style="stop-color:#A31955"/>
					<stop  offset="1" style="stop-color:#7D004D"/>
				</linearGradient>
				<polygon class="st11" points="2874.4,685.6 2865.5,648.5 2886.7,618.1 2804.6,584.6 2677.5,494.5 2677.5,451.4 3581.3,126.6 
					3655.8,145.2 3724,525.4 3546.6,604.6 3516.9,640 3509,685.6 				"/>
				
					<linearGradient id="SVGID_13_" gradientUnits="userSpaceOnUse" x1="3172.48" y1="-59.4247" x2="3172.48" y2="501.4854" gradientTransform="matrix(0.9635 0 0 -0.9635 144.1519 628.3496)">
					<stop  offset="0" style="stop-color:#C77CBD"/>
					<stop  offset="1" style="stop-color:#974577"/>
				</linearGradient>
				<polygon class="st12" points="3655.8,145.2 3645.3,294.3 3505.8,406.1 3017.9,525.4 3324.6,488.4 3505.8,488.4 3632.8,525.4 
					3522.3,582.2 2984,566.4 2677.5,494.5 2804.6,584.6 2886.7,618.1 3146.2,595.4 3310.2,618.1 2865.5,648.5 2874.4,685.6 
					3509,685.6 3516.9,640 3546.6,604.6 3724,525.4 				"/>
				<polygon class="st3" points="2677.5,494.5 2924,552.3 3034.3,523.4 3505.8,406.1 3645.3,294.3 3655.8,145.2 3581.3,126.6 
					2677.5,451.4 				"/>
				
					<linearGradient id="SVGID_14_" gradientUnits="userSpaceOnUse" x1="3378.23" y1="-59.4247" x2="3378.23" y2="106.8754" gradientTransform="matrix(0.9635 0 0 -0.9635 144.1519 628.3496)">
					<stop  offset="0" style="stop-color:#C77CBD"/>
					<stop  offset="1" style="stop-color:#974577"/>
				</linearGradient>
				<polygon class="st13" points="3310.2,618.1 3294.6,685.6 3509,685.6 3516.9,640 3546.6,604.6 3651.7,557.7 3632.8,525.4 
					3522.3,582.2 3149.2,571.2 3146.2,595.4 				"/>
				
					<linearGradient id="SVGID_15_" gradientUnits="userSpaceOnUse" x1="-30.855" y1="-59.4247" x2="-30.855" y2="255.6754" gradientTransform="matrix(0.9635 0 0 -0.9635 144.1519 628.3496)">
					<stop  offset="0" style="stop-color:#DB3D61"/>
					<stop  offset="0.61" style="stop-color:#A31955"/>
					<stop  offset="1" style="stop-color:#7D004D"/>
				</linearGradient>
				<polygon class="st14" points="-331.8,685.6 -306.2,633.9 -330.2,584.4 -354,525.9 550.1,382 582.8,436.8 479.7,611.4 
					452.9,638.4 261.1,656.1 261.8,685.6 				"/>
				
					<linearGradient id="SVGID_16_" gradientUnits="userSpaceOnUse" x1="-30.855" y1="-59.4247" x2="-30.855" y2="198.8554" gradientTransform="matrix(0.9635 0 0 -0.9635 144.1519 628.3496)">
					<stop  offset="0" style="stop-color:#C77CBD"/>
					<stop  offset="1" style="stop-color:#974577"/>
				</linearGradient>
				<polygon class="st15" points="582.8,436.8 401.2,584.4 -216.3,584.4 -354,525.9 -306.2,633.9 -197.5,614.8 185.6,603 
					17.1,633.9 -135,685.6 261.8,685.6 261.1,656.1 452.9,638.4 479.7,611.4 				"/>
				<polygon class="st3" points="-354,525.9 -216.3,584.4 401.2,584.4 582.8,436.8 550.1,382 				"/>
				
					<linearGradient id="SVGID_17_" gradientUnits="userSpaceOnUse" x1="-131.88" y1="69.7153" x2="455.33" y2="69.7153" gradientTransform="matrix(0.9635 0 0 -0.9635 144.1519 628.3496)">
					<stop  offset="0" style="stop-color:#C77CBD"/>
					<stop  offset="1" style="stop-color:#974577"/>
				</linearGradient>
				<polygon class="st16" points="401.2,584.4 156,584.4 94.5,605.8 185.6,603 17.1,633.9 51.1,685.6 261.8,685.6 261.1,656.1 
					452.9,638.4 479.7,611.4 582.8,436.8 				"/>
			</g>
		</g>
	</g>
</g>
</svg>
