<svg width="145" height="158" viewBox="0 0 145 158" fill="none" xmlns="http://www.w3.org/2000/svg">
<path fill-rule="evenodd" clip-rule="evenodd" d="M12.1322 84.1735L0 64.8912L22.2246 38.5379L60.1145 38.8442L74.7665 75.0783H79.3127L87.9119 62.1746L107.617 61.3623L122.762 90.9782L83.3657 128.224L38.3965 129.157L6.57273 100.779L12.1322 84.1735Z" fill="url(#paint0_linear)"/>
<path fill-rule="evenodd" clip-rule="evenodd" d="M0 64.8912L21.9713 86.677L40.4229 84.533L60.1145 38.8442L22.2246 38.5379L0 64.8912Z" fill="#FF7C25"/>
<path fill-rule="evenodd" clip-rule="evenodd" d="M87.9119 62.1746L65.8473 98.1291L72.2467 100.779L103.564 89.6998L107.617 61.3623L87.9119 62.1746Z" fill="#FF7C25"/>
<path fill-rule="evenodd" clip-rule="evenodd" d="M56.0748 113.443L67.8737 105.453L77.1262 103.269V111.459L58.6079 118.743L56.0748 113.443Z" fill="#FF7C25"/>
<path fill-rule="evenodd" clip-rule="evenodd" d="M6.57275 100.779L32.6637 106.985L47.8223 100.779L12.1322 84.1735L6.57275 100.779Z" fill="#FF7C25"/>
<path fill-rule="evenodd" clip-rule="evenodd" d="M47.8223 90.9782L51.022 77.3421L53.8884 80.618L54.7283 88.2882L47.8223 90.9782Z" fill="#FF7C25"/>
<path fill-rule="evenodd" clip-rule="evenodd" d="M31.6638 110.407L33.3436 108.636H43.116L41.7695 111.992L27.1975 113.443L31.6638 110.407Z" fill="#FF7C25"/>
<g style="mix-blend-mode:multiply" opacity="0.5">
<path fill-rule="evenodd" clip-rule="evenodd" d="M21.9713 86.677L22.9179 89.1938L47.8223 100.779L32.6637 106.985L33.3436 108.636H43.116L41.7695 111.992L49.5154 126.893L45.4625 114.282L49.5154 106.785L63.1675 108.636L67.8738 105.453L77.1262 103.269V111.459L83.739 126.893L123.655 90.9782L100.031 110.407L79.9526 98.8882L72.2467 100.779L65.8473 98.1291L79.3127 75.0783H74.7665L60.1145 38.8442L56.0748 55.4898L61.381 65.9565L50.0221 76.0504L51.022 77.3421L53.8884 80.618L54.7283 88.2883L47.8223 90.9782L48.8355 86.677L40.4229 84.533L21.9713 86.677Z" fill="#A67C4C"/>
</g>
<g style="mix-blend-mode:multiply" opacity="0.5">
<path fill-rule="evenodd" clip-rule="evenodd" d="M103.564 89.6998L116.203 91.8437L114.963 98.1291L123.655 90.9781L107.617 61.3623L103.564 89.6998Z" fill="#A67C4C"/>
</g>
<path fill-rule="evenodd" clip-rule="evenodd" d="M56.0749 55.4897L44.9692 81.0707L61.3811 65.9565L56.0749 55.4897Z" fill="#FF7C25"/>
<g style="mix-blend-mode:multiply" opacity="0.5">
<path fill-rule="evenodd" clip-rule="evenodd" d="M74.7665 75.0783L68.2071 90.9782L54.7284 88.2883L53.8884 80.618L64.3275 84.1735L61.3811 65.9565L56.0749 55.4898L60.1145 38.8442L74.7665 75.0783Z" fill="#A67C4C"/>
</g>
<path fill-rule="evenodd" clip-rule="evenodd" d="M99.1775 91.2579L104.257 84.9059L106.204 90.1526L99.1775 91.2579Z" fill="#E05F25"/>
<path fill-rule="evenodd" clip-rule="evenodd" d="M33.8635 85.2921L43.116 78.2743L43.4093 85.2921H33.8635Z" fill="#E05F25"/>
<path fill-rule="evenodd" clip-rule="evenodd" d="M29.2506 106.172L37.5832 104.974L33.3436 108.636L29.2506 106.172Z" fill="#E05F25"/>
<path fill-rule="evenodd" clip-rule="evenodd" d="M88.9119 94.8932L91.7783 91.2578L95.9112 92.4164L88.9119 94.8932Z" fill="#E05F25"/>
<path fill-rule="evenodd" clip-rule="evenodd" d="M9.22579 79.5659L7.70593 72.5348L37.5832 48.8848L57.8747 44.0642L64.6207 49.9634L57.4214 44.6368L44.9692 48.8848L21.9713 62.0548L8.17256 72.6946L9.22579 79.5659Z" fill="url(#paint1_linear)"/>
<path fill-rule="evenodd" clip-rule="evenodd" d="M29.0507 56.8214L37.4499 49.5639L38.6231 48.9247L44.1159 48.0192L44.7159 48.3921L37.7299 52.4137L29.0507 56.8214Z" fill="#FF7C25"/>
<path fill-rule="evenodd" clip-rule="evenodd" d="M4.33289 69.1791L13.612 67.8608L7.70591 72.5349L8.45251 76.0105L4.33289 69.1791Z" fill="#E05F25"/>
<path fill-rule="evenodd" clip-rule="evenodd" d="M8.53259 11.2258L14.2121 2.64998L29.424 0L35.4235 24.0762L29.424 28.444L8.53259 11.2258Z" fill="url(#paint2_linear)"/>
<path fill-rule="evenodd" clip-rule="evenodd" d="M123.269 150.25L127.562 140.342L135.908 138.651L145 150.25L134.134 158L123.269 150.25Z" fill="url(#paint3_linear)"/>
<path fill-rule="evenodd" clip-rule="evenodd" d="M106.204 38.5379L107.617 24.1161L115.696 20.6139L119.229 26.8726L112.723 38.5379H106.204Z" fill="url(#paint4_linear)"/>
<path fill-rule="evenodd" clip-rule="evenodd" d="M8.53259 11.2258L20.9848 14.222L26.5576 9.22832L29.424 0L14.2121 1.46481L8.53259 11.2258Z" fill="#FF7C25"/>
<path fill-rule="evenodd" clip-rule="evenodd" d="M123.269 150.25L131.615 153.685L139.521 146.748L135.908 138.651L127.562 140.342L123.269 150.25Z" fill="#FF7C25"/>
<path fill-rule="evenodd" clip-rule="evenodd" d="M115.696 20.6139L116.963 27.605L111.15 36.314L106.204 38.5379L107.617 24.1161L115.696 20.6139Z" fill="#FF7C25"/>
<g style="mix-blend-mode:multiply" opacity="0.5">
<path fill-rule="evenodd" clip-rule="evenodd" d="M139.52 146.748L145 150.25L135.907 138.651L139.52 146.748Z" fill="#A67C4C"/>
</g>
<g style="mix-blend-mode:multiply" opacity="0.5">
<path fill-rule="evenodd" clip-rule="evenodd" d="M116.963 27.605L111.15 36.314L112.723 38.5379L119.229 26.8726L116.963 27.605Z" fill="#A67C4C"/>
</g>
<g style="mix-blend-mode:multiply" opacity="0.5">
<path fill-rule="evenodd" clip-rule="evenodd" d="M20.9848 14.222L29.424 28.444L8.53259 11.2258L20.9848 14.222Z" fill="#A67C4C"/>
</g>
<defs>
<linearGradient id="paint0_linear" x1="61.381" y1="129.157" x2="61.381" y2="38.5379" gradientUnits="userSpaceOnUse">
<stop stop-color="#A43440"/>
<stop offset="1" stop-color="#C75225"/>
</linearGradient>
<linearGradient id="paint1_linear" x1="7.70593" y1="61.8151" x2="64.6207" y2="61.8151" gradientUnits="userSpaceOnUse">
<stop stop-color="#C75225"/>
<stop offset="1" stop-color="#A43440"/>
</linearGradient>
<linearGradient id="paint2_linear" x1="451.694" y1="607.564" x2="451.694" y2="0" gradientUnits="userSpaceOnUse">
<stop stop-color="#A43440"/>
<stop offset="1" stop-color="#C75225"/>
</linearGradient>
<linearGradient id="paint3_linear" x1="2309.66" y1="2434.39" x2="2309.66" y2="2153.25" gradientUnits="userSpaceOnUse">
<stop stop-color="#A43440"/>
<stop offset="1" stop-color="#C75225"/>
</linearGradient>
<linearGradient id="paint4_linear" x1="1207.51" y1="539.334" x2="1207.51" y2="298.077" gradientUnits="userSpaceOnUse">
<stop stop-color="#A43440"/>
<stop offset="1" stop-color="#C75225"/>
</linearGradient>
</defs>
</svg>
