<svg id="game" xmlns="http://www.w3.org/2000/svg" xmlns:xlink="http://www.w3.org/1999/xlink" viewBox="0 0 1064.25 303"><defs><style>.cls-1{fill:none;}.cls-2{clip-path:url(#clip-path);}.cls-3,.cls-8{fill:#b5eaff;}.cls-3,.cls-4,.cls-5,.cls-9{fill-rule:evenodd;}.cls-4,.cls-7{fill:#61d3ff;}.cls-5,.cls-6{fill:#36a9ff;}.cls-9{fill:#fff;}</style><clipPath id="clip-path" transform="translate(35.52 22.22)"><rect class="cls-1" width="1000" height="400"/></clipPath></defs><g class="cls-2"><path class="cls-3" d="M399.07,140.33a1.66,1.66,0,1,1-1.66-1.66A1.66,1.66,0,0,1,399.07,140.33Z" transform="translate(35.52 22.22)"/><path class="cls-4" d="M356.47,36.44a1.66,1.66,0,1,1-1.66-1.66A1.66,1.66,0,0,1,356.47,36.44Z" transform="translate(35.52 22.22)"/><path class="cls-4" d="M342.61,51.69A1.66,1.66,0,1,1,341,50,1.66,1.66,0,0,1,342.61,51.69Z" transform="translate(35.52 22.22)"/><path class="cls-4" d="M278,109a1.66,1.66,0,1,1-1.66-1.66A1.67,1.67,0,0,1,278,109Z" transform="translate(35.52 22.22)"/><path class="cls-4" d="M204.23,47.05a1.66,1.66,0,1,1-1.66-1.66A1.66,1.66,0,0,1,204.23,47.05Z" transform="translate(35.52 22.22)"/><path class="cls-4" d="M210.54,99.21a1.66,1.66,0,1,1-1.65-1.66A1.65,1.65,0,0,1,210.54,99.21Z" transform="translate(35.52 22.22)"/><path class="cls-3" d="M397.41,109a1.66,1.66,0,1,1-1.66-1.66A1.66,1.66,0,0,1,397.41,109Z" transform="translate(35.52 22.22)"/><path class="cls-4" d="M276.29,79.68A1.66,1.66,0,1,1,274.63,78,1.67,1.67,0,0,1,276.29,79.68Z" transform="translate(35.52 22.22)"/><path class="cls-4" d="M420.69,147.15a1.18,1.18,0,1,1-1.17-1.17A1.17,1.17,0,0,1,420.69,147.15Z" transform="translate(35.52 22.22)"/><path class="cls-4" d="M259.05,109a1.18,1.18,0,1,1-1.17-1.18A1.18,1.18,0,0,1,259.05,109Z" transform="translate(35.52 22.22)"/><path class="cls-5" d="M373,129.57a1.17,1.17,0,1,1-1.17-1.17A1.17,1.17,0,0,1,373,129.57Z" transform="translate(35.52 22.22)"/><path class="cls-4" d="M431,62.92a1.18,1.18,0,1,1-1.18-1.18A1.18,1.18,0,0,1,431,62.92Z" transform="translate(35.52 22.22)"/><path class="cls-4" d="M431.86,112.66a1.18,1.18,0,1,1-2.35,0,1.18,1.18,0,0,1,2.35,0Z" transform="translate(35.52 22.22)"/><path class="cls-5" d="M364.14,115.8a.87.87,0,1,1-.86-.86A.86.86,0,0,1,364.14,115.8Z" transform="translate(35.52 22.22)"/><path class="cls-4" d="M306.36,103.1a.87.87,0,1,1-.87-.86A.86.86,0,0,1,306.36,103.1Z" transform="translate(35.52 22.22)"/><path class="cls-4" d="M229.41,128.19a.87.87,0,1,1-.87-.87A.87.87,0,0,1,229.41,128.19Z" transform="translate(35.52 22.22)"/><path class="cls-4" d="M229.41,108.44a.87.87,0,1,1-.87-.86A.86.86,0,0,1,229.41,108.44Z" transform="translate(35.52 22.22)"/><path class="cls-4" d="M245.46,57.85a.87.87,0,1,1-.86-.86A.87.87,0,0,1,245.46,57.85Z" transform="translate(35.52 22.22)"/><path class="cls-4" d="M401.07,133.8a.56.56,0,1,1-.55-.55A.56.56,0,0,1,401.07,133.8Z" transform="translate(35.52 22.22)"/><path class="cls-5" d="M369.3,129a.55.55,0,0,1-.55.55.56.56,0,1,1,.55-.55Z" transform="translate(35.52 22.22)"/><path class="cls-5" d="M369.86,142a.56.56,0,1,1-.56-.55A.56.56,0,0,1,369.86,142Z" transform="translate(35.52 22.22)"/><circle class="cls-6" cx="411.92" cy="160.89" r="0.55"/><path class="cls-5" d="M362.17,141.1a.56.56,0,1,1-.55-.55A.56.56,0,0,1,362.17,141.1Z" transform="translate(35.52 22.22)"/><path class="cls-4" d="M200.53,159.81a.55.55,0,1,1-.55-.56A.55.55,0,0,1,200.53,159.81Z" transform="translate(35.52 22.22)"/><path class="cls-4" d="M406,98.1a.56.56,0,1,1-.56-.55A.56.56,0,0,1,406,98.1Z" transform="translate(35.52 22.22)"/><circle class="cls-7" cx="414.25" cy="152.06" r="0.28"/><path class="cls-4" d="M307.07,191.76a.35.35,0,0,1-.35.34.35.35,0,1,1,0-.69A.35.35,0,0,1,307.07,191.76Z" transform="translate(35.52 22.22)"/><path class="cls-4" d="M312.75,130.12a.28.28,0,0,1-.56,0,.28.28,0,0,1,.56,0Z" transform="translate(35.52 22.22)"/><circle class="cls-7" cx="285.26" cy="148.44" r="0.28"/><path class="cls-4" d="M344.57,125.94a.28.28,0,0,1-.28.28.28.28,0,0,1,0-.55A.28.28,0,0,1,344.57,125.94Z" transform="translate(35.52 22.22)"/><path class="cls-4" d="M305.77,128.46a.28.28,0,1,1-.55,0,.28.28,0,0,1,.55,0Z" transform="translate(35.52 22.22)"/><path class="cls-4" d="M210.82,129.93a.28.28,0,1,1-.28-.28A.28.28,0,0,1,210.82,129.93Z" transform="translate(35.52 22.22)"/><path class="cls-4" d="M200.81,129a.28.28,0,1,1-.28-.28A.27.27,0,0,1,200.81,129Z" transform="translate(35.52 22.22)"/><circle class="cls-6" cx="410.09" cy="156.57" r="0.28"/><circle class="cls-7" cx="357.71" cy="156.85" r="0.28"/><path class="cls-4" d="M249.74,135.44a.28.28,0,0,1-.56,0,.28.28,0,0,1,.56,0Z" transform="translate(35.52 22.22)"/><circle class="cls-6" cx="411.92" cy="147.61" r="0.55"/><path class="cls-5" d="M351.56,124.84a.56.56,0,1,1-.55-.55A.55.55,0,0,1,351.56,124.84Z" transform="translate(35.52 22.22)"/><path class="cls-4" d="M246.56,101.42a.55.55,0,1,1-.55-.55A.55.55,0,0,1,246.56,101.42Z" transform="translate(35.52 22.22)"/><path class="cls-4" d="M362.17,58.72a.56.56,0,1,1-.55-.56A.55.55,0,0,1,362.17,58.72Z" transform="translate(35.52 22.22)"/><path class="cls-4" d="M341.37,22.6a.56.56,0,1,1-.56-.55A.56.56,0,0,1,341.37,22.6Z" transform="translate(35.52 22.22)"/><path class="cls-4" d="M333.26,143.49a.56.56,0,1,1-.55-.55A.56.56,0,0,1,333.26,143.49Z" transform="translate(35.52 22.22)"/><path class="cls-4" d="M243.73,100.87a.55.55,0,1,1-1.1,0,.55.55,0,0,1,1.1,0Z" transform="translate(35.52 22.22)"/><path class="cls-4" d="M234.57,68.74a.54.54,0,0,1-.55.55.55.55,0,1,1,0-1.1A.54.54,0,0,1,234.57,68.74Z" transform="translate(35.52 22.22)"/><path class="cls-4" d="M213.45,69.29a.56.56,0,1,1-.56-.55A.56.56,0,0,1,213.45,69.29Z" transform="translate(35.52 22.22)"/><path class="cls-4" d="M282.18,38.1a.56.56,0,1,1-.56-.55A.56.56,0,0,1,282.18,38.1Z" transform="translate(35.52 22.22)"/><path class="cls-4" d="M328.44,23.71a.56.56,0,1,1-.56-.55A.56.56,0,0,1,328.44,23.71Z" transform="translate(35.52 22.22)"/><circle class="cls-7" cx="262.65" cy="127.78" r="0.55"/><path class="cls-4" d="M212.89,67.63a.55.55,0,0,1-.55.56.56.56,0,0,1,0-1.11A.55.55,0,0,1,212.89,67.63Z" transform="translate(35.52 22.22)"/><path class="cls-4" d="M243.18,67.63a.56.56,0,1,1-.55-.55A.56.56,0,0,1,243.18,67.63Z" transform="translate(35.52 22.22)"/><path class="cls-4" d="M292.18,45.39a.55.55,0,0,1-.55.56.56.56,0,0,1,0-1.11A.55.55,0,0,1,292.18,45.39Z" transform="translate(35.52 22.22)"/><path class="cls-4" d="M344.29,98.66a.55.55,0,0,1-.55.55.56.56,0,0,1,0-1.11A.56.56,0,0,1,344.29,98.66Z" transform="translate(35.52 22.22)"/><path class="cls-4" d="M252.38,60.4a.56.56,0,1,1-.56-.55A.56.56,0,0,1,252.38,60.4Z" transform="translate(35.52 22.22)"/><path class="cls-4" d="M199.43,50a.56.56,0,1,1-.56-.55A.55.55,0,0,1,199.43,50Z" transform="translate(35.52 22.22)"/><path class="cls-4" d="M334.43,73.22a.56.56,0,1,1-.55-.55A.56.56,0,0,1,334.43,73.22Z" transform="translate(35.52 22.22)"/><path class="cls-4" d="M251.12,31.86a.56.56,0,1,1-.55-.55A.55.55,0,0,1,251.12,31.86Z" transform="translate(35.52 22.22)"/><path class="cls-4" d="M372.38,95.47a.56.56,0,1,1-.55-.56A.55.55,0,0,1,372.38,95.47Z" transform="translate(35.52 22.22)"/><path class="cls-4" d="M770.6,122.25a1,1,0,1,1,0,1.38A1,1,0,0,1,770.6,122.25Z" transform="translate(35.52 22.22)"/><path class="cls-4" d="M430.68,55.33A1.66,1.66,0,1,1,433,57.68a1.68,1.68,0,0,1-2.35,0A1.66,1.66,0,0,1,430.68,55.33Z" transform="translate(35.52 22.22)"/><path class="cls-4" d="M478.64,74.14A1.66,1.66,0,1,1,481,76.49a1.66,1.66,0,0,1-2.35-2.35Z" transform="translate(35.52 22.22)"/><path class="cls-4" d="M489.2,30.66a1.17,1.17,0,0,1,1.66,1.66,1.17,1.17,0,1,1-1.66-1.66Z" transform="translate(35.52 22.22)"/><path class="cls-4" d="M777,137.56a.69.69,0,1,1,0,1A.68.68,0,0,1,777,137.56Z" transform="translate(35.52 22.22)"/><path class="cls-4" d="M456.92,47.16a1.17,1.17,0,0,1,1.66,0,1.17,1.17,0,0,1-1.66,1.66A1.17,1.17,0,0,1,456.92,47.16Z" transform="translate(35.52 22.22)"/><path class="cls-4" d="M774.92,147a.51.51,0,0,1,.72.72.51.51,0,1,1-.72-.72Z" transform="translate(35.52 22.22)"/><path class="cls-4" d="M767.06,124.13a.33.33,0,1,1,.46.46.33.33,0,0,1-.46-.46Z" transform="translate(35.52 22.22)"/><path class="cls-4" d="M778.26,139.32a.33.33,0,1,1,0,.46A.34.34,0,0,1,778.26,139.32Z" transform="translate(35.52 22.22)"/><path class="cls-4" d="M783.43,133.7a.31.31,0,0,1,.45,0,.32.32,0,0,1,0,.46.33.33,0,0,1-.45,0A.32.32,0,0,1,783.43,133.7Z" transform="translate(35.52 22.22)"/><path class="cls-4" d="M779.1,132.13a.33.33,0,1,1,0,.46A.32.32,0,0,1,779.1,132.13Z" transform="translate(35.52 22.22)"/><path class="cls-4" d="M464.92,75.75a.55.55,0,1,1,0,.78A.54.54,0,0,1,464.92,75.75Z" transform="translate(35.52 22.22)"/><circle class="cls-7" cx="810.22" cy="157.28" r="0.16"/><path class="cls-4" d="M787.26,150.87a.17.17,0,0,1,.23,0,.15.15,0,0,1,0,.23.16.16,0,1,1-.23-.23Z" transform="translate(35.52 22.22)"/><path class="cls-4" d="M435.12,26.09a.28.28,0,1,1,0,.39A.27.27,0,0,1,435.12,26.09Z" transform="translate(35.52 22.22)"/><path class="cls-4" d="M778.18,134.8a.15.15,0,0,1,.23,0,.16.16,0,1,1-.23,0Z" transform="translate(35.52 22.22)"/><path class="cls-4" d="M773.58,137.65a.33.33,0,1,1,0,.46A.34.34,0,0,1,773.58,137.65Z" transform="translate(35.52 22.22)"/><path class="cls-4" d="M783.9,148.43a.33.33,0,0,1,.46.46.34.34,0,0,1-.46,0A.32.32,0,0,1,783.9,148.43Z" transform="translate(35.52 22.22)"/><path class="cls-4" d="M412.46,26.45a.54.54,0,0,1,.78,0,.55.55,0,1,1-.78.78A.54.54,0,0,1,412.46,26.45Z" transform="translate(35.52 22.22)"/><path class="cls-4" d="M776,162.32a.33.33,0,1,1,0,.46A.34.34,0,0,1,776,162.32Z" transform="translate(35.52 22.22)"/><path class="cls-4" d="M486.81,101.37a.56.56,0,0,1,.78,0,.55.55,0,0,1-.78.78A.56.56,0,0,1,486.81,101.37Z" transform="translate(35.52 22.22)"/><path class="cls-4" d="M809.26,140a1,1,0,1,1,0,1.38A1,1,0,0,1,809.26,140Z" transform="translate(35.52 22.22)"/><path class="cls-4" d="M856.82,120.35a1,1,0,1,1,0,1.38A1,1,0,0,1,856.82,120.35Z" transform="translate(35.52 22.22)"/><path class="cls-4" d="M829,125.9a1,1,0,1,1,0,1.38A1,1,0,0,1,829,125.9Z" transform="translate(35.52 22.22)"/><path class="cls-4" d="M796.91,153.75a1,1,0,1,1,0,1.38A1,1,0,0,1,796.91,153.75Z" transform="translate(35.52 22.22)"/><path class="cls-4" d="M799.94,163.89a1,1,0,0,1,1.37,0,1,1,0,0,1,0,1.38,1,1,0,0,1-1.37,0A1,1,0,0,1,799.94,163.89Z" transform="translate(35.52 22.22)"/><path class="cls-4" d="M803.11,128.21a.69.69,0,0,1,1,0,.68.68,0,0,1,0,1,.69.69,0,0,1-1-1Z" transform="translate(35.52 22.22)"/><path class="cls-4" d="M841.51,110.33a.69.69,0,0,1,1,0,.68.68,0,0,1,0,1,.69.69,0,0,1-1,0A.68.68,0,0,1,841.51,110.33Z" transform="translate(35.52 22.22)"/><path class="cls-4" d="M836,115.69a.69.69,0,0,1,1,0,.68.68,0,0,1,0,1,.69.69,0,0,1-1,0A.68.68,0,0,1,836,115.69Z" transform="translate(35.52 22.22)"/><path class="cls-4" d="M815.63,155.33a.69.69,0,1,1,0,1A.68.68,0,0,1,815.63,155.33Z" transform="translate(35.52 22.22)"/><path class="cls-4" d="M784.15,137.9a.69.69,0,1,1,0,1A.68.68,0,0,1,784.15,137.9Z" transform="translate(35.52 22.22)"/><path class="cls-4" d="M813.58,164.72a.53.53,0,0,1,.72,0,.51.51,0,1,1-.72.72A.53.53,0,0,1,813.58,164.72Z" transform="translate(35.52 22.22)"/><path class="cls-4" d="M817.64,174.64a.5.5,0,1,1,0,.71A.5.5,0,0,1,817.64,174.64Z" transform="translate(35.52 22.22)"/><path class="cls-4" d="M798.22,161.69a.51.51,0,0,1,.72.72.51.51,0,1,1-.72-.72Z" transform="translate(35.52 22.22)"/><path class="cls-4" d="M768.83,180.29a.5.5,0,1,1,0,.71A.5.5,0,0,1,768.83,180.29Z" transform="translate(35.52 22.22)"/><path class="cls-4" d="M805.72,141.9a.34.34,0,0,1,.46,0,.33.33,0,1,1-.46,0Z" transform="translate(35.52 22.22)"/><path class="cls-4" d="M816.93,157.09a.32.32,0,0,1,.46,0,.34.34,0,0,1,0,.46.33.33,0,0,1-.46-.46Z" transform="translate(35.52 22.22)"/><path class="cls-4" d="M800.69,161.3a.32.32,0,0,1,.46,0,.33.33,0,1,1-.46.46A.32.32,0,0,1,800.69,161.3Z" transform="translate(35.52 22.22)"/><circle class="cls-7" cx="872.69" cy="176.65" r="0.32"/><path class="cls-4" d="M846.82,151.79a.34.34,0,0,1,.46,0,.33.33,0,0,1-.46.46A.34.34,0,0,1,846.82,151.79Z" transform="translate(35.52 22.22)"/><path class="cls-4" d="M822.09,151.47a.33.33,0,1,1,0,.46A.32.32,0,0,1,822.09,151.47Z" transform="translate(35.52 22.22)"/><path class="cls-4" d="M469.42,60a.55.55,0,1,1,0,.78A.56.56,0,0,1,469.42,60Z" transform="translate(35.52 22.22)"/><path class="cls-4" d="M864.87,111.24a.32.32,0,0,1,.46,0,.31.31,0,0,1,0,.45.32.32,0,0,1-.46,0A.31.31,0,0,1,864.87,111.24Z" transform="translate(35.52 22.22)"/><path class="cls-4" d="M817.77,149.9a.31.31,0,0,1,.45,0,.32.32,0,0,1,0,.46.31.31,0,0,1-.45,0A.32.32,0,0,1,817.77,149.9Z" transform="translate(35.52 22.22)"/><path class="cls-4" d="M788.85,154.7a.33.33,0,0,1,.46.46.33.33,0,1,1-.46-.46Z" transform="translate(35.52 22.22)"/><path class="cls-4" d="M405,56.11a.56.56,0,0,1,.78,0,.55.55,0,0,1-.78.78A.56.56,0,0,1,405,56.11Z" transform="translate(35.52 22.22)"/><path class="cls-4" d="M813.25,152.72a.14.14,0,0,1,.22,0,.15.15,0,0,1,0,.23.16.16,0,0,1-.22,0A.15.15,0,0,1,813.25,152.72Z" transform="translate(35.52 22.22)"/><circle class="cls-7" cx="823.23" cy="180.32" r="0.16"/><path class="cls-4" d="M792,155a.17.17,0,0,1,.23,0,.15.15,0,0,1,0,.23A.16.16,0,0,1,792,155Z" transform="translate(35.52 22.22)"/><path class="cls-4" d="M486.18,57.66a.28.28,0,1,1,0,.39A.27.27,0,0,1,486.18,57.66Z" transform="translate(35.52 22.22)"/><circle class="cls-7" cx="861.56" cy="190.97" r="0.16"/><path class="cls-4" d="M826.09,180a.16.16,0,0,1,.23.23.15.15,0,0,1-.23,0A.17.17,0,0,1,826.09,180Z" transform="translate(35.52 22.22)"/><circle class="cls-7" cx="459.12" cy="146.69" r="0.28"/><path class="cls-4" d="M819.89,180.21a.16.16,0,1,1,.23.23.16.16,0,0,1-.23-.23Z" transform="translate(35.52 22.22)"/><path class="cls-4" d="M819.73,178.07a.15.15,0,0,1,.23,0,.16.16,0,1,1-.23,0Z" transform="translate(35.52 22.22)"/><path class="cls-4" d="M799.54,163.34a.16.16,0,1,1,.23.23.16.16,0,0,1-.23-.23Z" transform="translate(35.52 22.22)"/><path class="cls-4" d="M816.84,152.57a.16.16,0,0,1,.23.23.16.16,0,0,1-.23-.23Z" transform="translate(35.52 22.22)"/><path class="cls-4" d="M798.46,160.93a.16.16,0,0,1,.23.23.16.16,0,1,1-.23-.23Z" transform="translate(35.52 22.22)"/><path class="cls-4" d="M812.25,155.42a.32.32,0,0,1,.46,0,.34.34,0,0,1,0,.46.33.33,0,0,1-.46-.46Z" transform="translate(35.52 22.22)"/><path class="cls-4" d="M792.42,160.65a.32.32,0,0,1,.46,0,.33.33,0,0,1-.46.46A.32.32,0,0,1,792.42,160.65Z" transform="translate(35.52 22.22)"/><path class="cls-4" d="M796.72,161a.34.34,0,0,1,.46,0,.33.33,0,1,1-.46.46A.34.34,0,0,1,796.72,161Z" transform="translate(35.52 22.22)"/><path class="cls-4" d="M418,70.81a.56.56,0,0,1,.79,0,.56.56,0,0,1,0,.78.56.56,0,0,1-.79,0A.56.56,0,0,1,418,70.81Z" transform="translate(35.52 22.22)"/><path class="cls-4" d="M427.18,52.41a1.17,1.17,0,1,1,0,1.66A1.17,1.17,0,0,1,427.18,52.41Z" transform="translate(35.52 22.22)"/><path class="cls-4" d="M438.18,45.84a.56.56,0,0,1,.78,0,.55.55,0,1,1-.78.78A.56.56,0,0,1,438.18,45.84Z" transform="translate(35.52 22.22)"/><path class="cls-4" d="M430.82,43.17a.56.56,0,0,1,.78,0,.56.56,0,0,1,0,.79.56.56,0,0,1-.78,0A.56.56,0,0,1,430.82,43.17Z" transform="translate(35.52 22.22)"/><path class="cls-4" d="M423.13,48a.28.28,0,1,1,0,.39A.27.27,0,0,1,423.13,48Z" transform="translate(35.52 22.22)"/><path class="cls-4" d="M429.25,47.71a.28.28,0,1,1,0,.39A.27.27,0,0,1,429.25,47.71Z" transform="translate(35.52 22.22)"/><path class="cls-4" d="M421.43,52.57a.55.55,0,1,1,0,.78A.54.54,0,0,1,421.43,52.57Z" transform="translate(35.52 22.22)"/><path class="cls-4" d="M822.56,166.2a.33.33,0,0,1,.46.46.33.33,0,1,1-.46-.46Z" transform="translate(35.52 22.22)"/><path class="cls-4" d="M861.12,136.6a.32.32,0,0,1,.46,0,.34.34,0,0,1,0,.46.33.33,0,0,1-.46-.46Z" transform="translate(35.52 22.22)"/><path class="cls-4" d="M853,166.52a.33.33,0,1,1,0,.46A.32.32,0,0,1,853,166.52Z" transform="translate(35.52 22.22)"/><path class="cls-4" d="M808.75,177.79a.33.33,0,1,1,0,.46A.32.32,0,0,1,808.75,177.79Z" transform="translate(35.52 22.22)"/><path class="cls-4" d="M865.61,133.7a.33.33,0,0,1,.46.46.34.34,0,0,1-.46,0A.32.32,0,0,1,865.61,133.7Z" transform="translate(35.52 22.22)"/><path class="cls-4" d="M456.5,118a1.17,1.17,0,1,1,0,1.66A1.19,1.19,0,0,1,456.5,118Z" transform="translate(35.52 22.22)"/><path class="cls-4" d="M458.09,82.22a1.17,1.17,0,1,1,0,1.66A1.17,1.17,0,0,1,458.09,82.22Z" transform="translate(35.52 22.22)"/><circle class="cls-7" cx="293.4" cy="143.4" r="1.17"/><path class="cls-4" d="M453,134a.86.86,0,1,1,1.22,1.22.88.88,0,0,1-1.22,0A.86.86,0,0,1,453,134Z" transform="translate(35.52 22.22)"/><path class="cls-4" d="M458.72,121a.55.55,0,1,1,0,.78A.56.56,0,0,1,458.72,121Z" transform="translate(35.52 22.22)"/><path class="cls-4" d="M467.51,111.4a.56.56,0,0,1,.78,0,.56.56,0,0,1,0,.79.56.56,0,0,1-.78,0A.56.56,0,0,1,467.51,111.4Z" transform="translate(35.52 22.22)"/><path class="cls-4" d="M477.77,78.43a.56.56,0,0,1,.78,0,.57.57,0,0,1,0,.79.56.56,0,0,1-.78,0A.56.56,0,0,1,477.77,78.43Z" transform="translate(35.52 22.22)"/><path class="cls-4" d="M460.15,108.74a.54.54,0,0,1,.78,0,.55.55,0,0,1-.78.78A.54.54,0,0,1,460.15,108.74Z" transform="translate(35.52 22.22)"/><path class="cls-4" d="M452.45,113.53a.28.28,0,1,1,0,.39A.27.27,0,0,1,452.45,113.53Z" transform="translate(35.52 22.22)"/><path class="cls-4" d="M441.87,136.28a.29.29,0,0,1,.39,0,.28.28,0,1,1-.39,0Z" transform="translate(35.52 22.22)"/><circle class="cls-7" cx="509.76" cy="163.04" r="0.28"/><path class="cls-4" d="M458.58,113.27a.28.28,0,1,1,0,.39A.27.27,0,0,1,458.58,113.27Z" transform="translate(35.52 22.22)"/><path class="cls-4" d="M450.75,118.13a.56.56,0,0,1,.79,0,.56.56,0,0,1,0,.78.56.56,0,0,1-.79,0A.56.56,0,0,1,450.75,118.13Z" transform="translate(35.52 22.22)"/><path class="cls-4" d="M413,117.79a.55.55,0,1,1,0,.78A.54.54,0,0,1,413,117.79Z" transform="translate(35.52 22.22)"/><path class="cls-4" d="M468.32,136.47a.54.54,0,0,1,.78,0,.56.56,0,0,1,0,.78.55.55,0,0,1-.78-.78Z" transform="translate(35.52 22.22)"/><path class="cls-4" d="M814.71,180.09a.32.32,0,0,1,.46,0,.34.34,0,0,1,0,.46.33.33,0,0,1-.46-.46Z" transform="translate(35.52 22.22)"/><path class="cls-4" d="M819.29,194.75a.34.34,0,0,1,.46,0,.33.33,0,1,1-.46,0Z" transform="translate(35.52 22.22)"/><path class="cls-4" d="M801.71,169.75a.33.33,0,1,1,0,.46A.34.34,0,0,1,801.71,169.75Z" transform="translate(35.52 22.22)"/><path class="cls-4" d="M288.89,206.67a1.73,1.73,0,1,1-1.72-1.73A1.72,1.72,0,0,1,288.89,206.67Z" transform="translate(35.52 22.22)"/><circle class="cls-7" cx="368.92" cy="115.36" r="1.73"/><path class="cls-4" d="M320.71,109a1.73,1.73,0,1,1-1.73-1.73A1.73,1.73,0,0,1,320.71,109Z" transform="translate(35.52 22.22)"/><circle class="cls-8" cx="287.21" cy="190.81" r="1.73"/><path class="cls-4" d="M176.7,104.18a1.73,1.73,0,1,1-1.72-1.72A1.72,1.72,0,0,1,176.7,104.18Z" transform="translate(35.52 22.22)"/><path class="cls-4" d="M183.28,158.46a1.73,1.73,0,1,1-1.73-1.73A1.73,1.73,0,0,1,183.28,158.46Z" transform="translate(35.52 22.22)"/><circle class="cls-7" cx="411.53" cy="190.81" r="1.73"/><path class="cls-4" d="M251.69,138.13A1.73,1.73,0,1,1,250,136.4,1.73,1.73,0,0,1,251.69,138.13Z" transform="translate(35.52 22.22)"/><path class="cls-4" d="M431.07,219.23a1.22,1.22,0,1,1-1.22-1.22A1.22,1.22,0,0,1,431.07,219.23Z" transform="translate(35.52 22.22)"/><path class="cls-4" d="M233.75,168.59a1.22,1.22,0,1,1-1.22-1.22A1.22,1.22,0,0,1,233.75,168.59Z" transform="translate(35.52 22.22)"/><path class="cls-4" d="M352.32,190.05a1.22,1.22,0,1,1-1.22-1.22A1.22,1.22,0,0,1,352.32,190.05Z" transform="translate(35.52 22.22)"/><path class="cls-4" d="M412.65,120.69a1.22,1.22,0,1,1-1.22-1.22A1.22,1.22,0,0,1,412.65,120.69Z" transform="translate(35.52 22.22)"/><path class="cls-4" d="M413.57,172.46a1.22,1.22,0,1,1-1.22-1.22A1.22,1.22,0,0,1,413.57,172.46Z" transform="translate(35.52 22.22)"/><path class="cls-4" d="M343.11,175.72a.9.9,0,1,1-.9-.89A.9.9,0,0,1,343.11,175.72Z" transform="translate(35.52 22.22)"/><path class="cls-4" d="M283,162.51a.9.9,0,1,1-.9-.9A.89.89,0,0,1,283,162.51Z" transform="translate(35.52 22.22)"/><path class="cls-4" d="M202.9,188.61a.9.9,0,1,1-.89-.9A.89.89,0,0,1,202.9,188.61Z" transform="translate(35.52 22.22)"/><path class="cls-4" d="M202.9,168.07a.9.9,0,1,1-.89-.9A.89.89,0,0,1,202.9,168.07Z" transform="translate(35.52 22.22)"/><path class="cls-4" d="M219.61,115.42a.9.9,0,1,1-.9-.89A.9.9,0,0,1,219.61,115.42Z" transform="translate(35.52 22.22)"/><path class="cls-4" d="M383.08,170.17a.58.58,0,1,1-.57-.58A.58.58,0,0,1,383.08,170.17Z" transform="translate(35.52 22.22)"/><path class="cls-4" d="M348.48,189.47a.57.57,0,0,1-.57.58.58.58,0,1,1,0-1.15A.57.57,0,0,1,348.48,189.47Z" transform="translate(35.52 22.22)"/><path class="cls-4" d="M258.49,208.39a.58.58,0,1,1-.57-.57A.58.58,0,0,1,258.49,208.39Z" transform="translate(35.52 22.22)"/><circle class="cls-7" cx="300.82" cy="227.16" r="0.58"/><path class="cls-4" d="M250.49,207.47a.56.56,0,0,1-.57.57.57.57,0,0,1-.58-.57.58.58,0,0,1,.58-.58A.57.57,0,0,1,250.49,207.47Z" transform="translate(35.52 22.22)"/><path class="cls-4" d="M172.86,221.52a.58.58,0,1,1-.58-.58A.58.58,0,0,1,172.86,221.52Z" transform="translate(35.52 22.22)"/><path class="cls-4" d="M386.65,157.31a.58.58,0,1,1-.58-.58A.58.58,0,0,1,386.65,157.31Z" transform="translate(35.52 22.22)"/><path class="cls-4" d="M361.29,182.29A.29.29,0,1,1,361,182,.29.29,0,0,1,361.29,182.29Z" transform="translate(35.52 22.22)"/><path class="cls-4" d="M231.6,230.38a.29.29,0,1,1-.29-.29A.29.29,0,0,1,231.6,230.38Z" transform="translate(35.52 22.22)"/><path class="cls-4" d="M289.63,190.63a.29.29,0,1,1-.29-.29A.29.29,0,0,1,289.63,190.63Z" transform="translate(35.52 22.22)"/><path class="cls-4" d="M224.35,186.57a.29.29,0,0,1-.58,0,.29.29,0,0,1,.58,0Z" transform="translate(35.52 22.22)"/><circle class="cls-7" cx="357.98" cy="208.49" r="0.29"/><path class="cls-4" d="M282.37,188.9a.29.29,0,1,1-.29-.29A.29.29,0,0,1,282.37,188.9Z" transform="translate(35.52 22.22)"/><path class="cls-4" d="M183.56,190.42a.28.28,0,0,1-.28.29.29.29,0,1,1,0-.57A.28.28,0,0,1,183.56,190.42Z" transform="translate(35.52 22.22)"/><path class="cls-4" d="M173.15,189.47a.29.29,0,1,1-.29-.28A.29.29,0,0,1,173.15,189.47Z" transform="translate(35.52 22.22)"/><path class="cls-4" d="M346.54,194.12a.29.29,0,1,1-.29-.28A.29.29,0,0,1,346.54,194.12Z" transform="translate(35.52 22.22)"/><path class="cls-4" d="M299.74,195.32a.29.29,0,1,1-.29-.29A.29.29,0,0,1,299.74,195.32Z" transform="translate(35.52 22.22)"/><path class="cls-4" d="M224.06,196.16a.29.29,0,1,1-.29-.29A.29.29,0,0,1,224.06,196.16Z" transform="translate(35.52 22.22)"/><path class="cls-4" d="M356.44,185.7a.58.58,0,0,1-.58.58.58.58,0,0,1,0-1.15A.58.58,0,0,1,356.44,185.7Z" transform="translate(35.52 22.22)"/><path class="cls-4" d="M330,185.13a.58.58,0,0,1-1.15,0,.58.58,0,1,1,1.15,0Z" transform="translate(35.52 22.22)"/><circle class="cls-7" cx="255.71" cy="182.98" r="0.58"/><path class="cls-4" d="M341.06,116.32a.58.58,0,0,1-1.15,0,.58.58,0,1,1,1.15,0Z" transform="translate(35.52 22.22)"/><path class="cls-4" d="M319.41,78.74a.58.58,0,1,1-1.15,0,.58.58,0,0,1,1.15,0Z" transform="translate(35.52 22.22)"/><path class="cls-4" d="M311,204.54a.57.57,0,0,1-.58.57.56.56,0,0,1-.57-.57.57.57,0,0,1,.57-.58A.58.58,0,0,1,311,204.54Z" transform="translate(35.52 22.22)"/><path class="cls-4" d="M217.81,160.18a.57.57,0,0,1-.57.58.58.58,0,1,1,0-1.15A.57.57,0,0,1,217.81,160.18Z" transform="translate(35.52 22.22)"/><path class="cls-4" d="M208.28,126.75a.58.58,0,1,1-.57-.58A.58.58,0,0,1,208.28,126.75Z" transform="translate(35.52 22.22)"/><path class="cls-4" d="M186.3,127.33a.58.58,0,0,1-.58.57.58.58,0,0,1,0-1.15A.58.58,0,0,1,186.3,127.33Z" transform="translate(35.52 22.22)"/><path class="cls-4" d="M257.82,94.87a.58.58,0,0,1-.58.58.58.58,0,0,1,0-1.16A.58.58,0,0,1,257.82,94.87Z" transform="translate(35.52 22.22)"/><path class="cls-4" d="M306,79.89a.58.58,0,0,1-.58.58.58.58,0,0,1,0-1.15A.58.58,0,0,1,306,79.89Z" transform="translate(35.52 22.22)"/><path class="cls-4" d="M201.11,165.07a.58.58,0,1,1-.58-.58A.58.58,0,0,1,201.11,165.07Z" transform="translate(35.52 22.22)"/><path class="cls-4" d="M185.72,125.6a.58.58,0,0,1-1.15,0,.58.58,0,1,1,1.15,0Z" transform="translate(35.52 22.22)"/><path class="cls-4" d="M217.24,125.6a.57.57,0,0,1-.58.57.56.56,0,0,1-.57-.57.57.57,0,0,1,.57-.58A.58.58,0,0,1,217.24,125.6Z" transform="translate(35.52 22.22)"/><path class="cls-4" d="M268.23,102.46a.58.58,0,1,1-.57-.58A.58.58,0,0,1,268.23,102.46Z" transform="translate(35.52 22.22)"/><path class="cls-4" d="M322.46,157.88a.58.58,0,1,1-1.16,0,.58.58,0,0,1,1.16,0Z" transform="translate(35.52 22.22)"/><path class="cls-4" d="M226.81,118.07a.58.58,0,0,1-.58.58.58.58,0,0,1,0-1.15A.58.58,0,0,1,226.81,118.07Z" transform="translate(35.52 22.22)"/><path class="cls-4" d="M171.71,107.28a.58.58,0,0,1-.58.58.57.57,0,0,1-.57-.58.56.56,0,0,1,.57-.57A.57.57,0,0,1,171.71,107.28Z" transform="translate(35.52 22.22)"/><path class="cls-4" d="M312.19,131.42a.56.56,0,0,1-.57.57.57.57,0,0,1-.58-.57.58.58,0,0,1,.58-.58A.57.57,0,0,1,312.19,131.42Z" transform="translate(35.52 22.22)"/><circle class="cls-7" cx="260.45" cy="110.59" r="0.58"/><path class="cls-4" d="M351.68,154.56a.57.57,0,0,1-.57.58.58.58,0,0,1-.58-.58.57.57,0,0,1,.58-.57A.56.56,0,0,1,351.68,154.56Z" transform="translate(35.52 22.22)"/><path class="cls-4" d="M484.14,108.05a1.73,1.73,0,1,1,2.44,2.44,1.73,1.73,0,0,1-2.44-2.44Z" transform="translate(35.52 22.22)"/><path class="cls-4" d="M412.35,112.8a1.73,1.73,0,1,1,2.45,2.44,1.73,1.73,0,0,1-2.45-2.44Z" transform="translate(35.52 22.22)"/><path class="cls-4" d="M462.26,132.37a1.73,1.73,0,1,1,0,2.44A1.73,1.73,0,0,1,462.26,132.37Z" transform="translate(35.52 22.22)"/><circle class="cls-7" cx="509.63" cy="110.21" r="1.22"/><circle class="cls-7" cx="531.79" cy="158.24" r="1.22"/><circle class="cls-7" cx="476.04" cy="127.37" r="1.22"/><path class="cls-4" d="M491.79,151.81a.9.9,0,1,1,0,1.27A.9.9,0,0,1,491.79,151.81Z" transform="translate(35.52 22.22)"/><path class="cls-4" d="M477.86,111.39a.57.57,0,0,1,.82,0,.58.58,0,0,1,0,.81.57.57,0,0,1-.82,0A.58.58,0,0,1,477.86,111.39Z" transform="translate(35.52 22.22)"/><path class="cls-4" d="M497.71,138.28a.58.58,0,1,1,0,.82A.59.59,0,0,1,497.71,138.28Z" transform="translate(35.52 22.22)"/><path class="cls-4" d="M506.86,128.33a.56.56,0,0,1,.81,0,.58.58,0,0,1,0,.81.57.57,0,1,1-.81-.81Z" transform="translate(35.52 22.22)"/><circle class="cls-7" cx="535.12" cy="148.17" r="0.58"/><circle class="cls-7" cx="483.91" cy="156.67" r="0.58"/><circle class="cls-7" cx="526.91" cy="152.96" r="0.29"/><circle class="cls-7" cx="549.38" cy="181.16" r="0.29"/><path class="cls-4" d="M417,82.37a.28.28,0,0,1,.41,0,.28.28,0,0,1,0,.4.28.28,0,0,1-.41,0A.28.28,0,0,1,417,82.37Z" transform="translate(35.52 22.22)"/><path class="cls-4" d="M497.56,130.27a.29.29,0,1,1,0,.41A.3.3,0,0,1,497.56,130.27Z" transform="translate(35.52 22.22)"/><circle class="cls-7" cx="525.35" cy="157.95" r="0.58"/><path class="cls-4" d="M507.7,154.41a.58.58,0,0,1,.81,0,.59.59,0,0,1,0,.82.58.58,0,0,1-.81,0A.57.57,0,0,1,507.7,154.41Z" transform="translate(35.52 22.22)"/><path class="cls-4" d="M393.39,82.74a.57.57,0,1,1,0,.81A.56.56,0,0,1,393.39,82.74Z" transform="translate(35.52 22.22)"/><path class="cls-4" d="M493.78,179a.57.57,0,1,1,0,.81A.56.56,0,0,1,493.78,179Z" transform="translate(35.52 22.22)"/><circle class="cls-7" cx="506.69" cy="183.33" r="0.58"/><path class="cls-3" d="M552.62,139.53a1.73,1.73,0,0,1,2.44,2.44,1.73,1.73,0,1,1-2.44-2.44Z" transform="translate(35.52 22.22)"/><path class="cls-4" d="M636.86,104.69a1.73,1.73,0,0,1,2.44,0,1.73,1.73,0,0,1-2.44,2.44A1.73,1.73,0,0,1,636.86,104.69Z" transform="translate(35.52 22.22)"/><circle class="cls-8" cx="624.35" cy="137.96" r="1.73"/><path class="cls-4" d="M530.75,163.85a1.71,1.71,0,0,1,2.44,0,1.73,1.73,0,0,1-2.44,2.44A1.71,1.71,0,0,1,530.75,163.85Z" transform="translate(35.52 22.22)"/><path class="cls-4" d="M536.1,181.8a1.73,1.73,0,0,1,2.44,0,1.73,1.73,0,0,1-2.44,2.44A1.73,1.73,0,0,1,536.1,181.8Z" transform="translate(35.52 22.22)"/><path class="cls-4" d="M541.73,118.61a1.22,1.22,0,1,1,0,1.72A1.22,1.22,0,0,1,541.73,118.61Z" transform="translate(35.52 22.22)"/><path class="cls-4" d="M609.74,86.93a1.24,1.24,0,0,1,1.73,0,1.22,1.22,0,1,1-1.73,0Z" transform="translate(35.52 22.22)"/><circle class="cls-7" cx="636.35" cy="119.5" r="1.22"/><circle class="cls-7" cx="600.28" cy="189.72" r="1.22"/><circle class="cls-7" cx="544.52" cy="158.85" r="1.22"/><path class="cls-4" d="M560.28,183.28a.9.9,0,1,1,0,1.27A.9.9,0,0,1,560.28,183.28Z" transform="translate(35.52 22.22)"/><path class="cls-4" d="M567.45,200.84a.9.9,0,1,1,0,1.27A.9.9,0,0,1,567.45,200.84Z" transform="translate(35.52 22.22)"/><circle class="cls-7" cx="569.22" cy="200.77" r="0.9"/><path class="cls-4" d="M481,210.85a.9.9,0,1,1,0,1.27A.9.9,0,0,1,481,210.85Z" transform="translate(35.52 22.22)"/><circle class="cls-7" cx="582.28" cy="165.49" r="0.58"/><path class="cls-4" d="M566.2,169.76a.58.58,0,0,1,.81,0,.57.57,0,1,1-.81,0Z" transform="translate(35.52 22.22)"/><circle class="cls-7" cx="573.36" cy="199.84" r="0.58"/><circle class="cls-7" cx="637.57" cy="187.28" r="0.58"/><circle class="cls-7" cx="655.08" cy="183" r="0.58"/><path class="cls-4" d="M575.34,159.8a.58.58,0,0,1,.81,0,.57.57,0,0,1,0,.82.58.58,0,0,1-.81,0A.59.59,0,0,1,575.34,159.8Z" transform="translate(35.52 22.22)"/><circle class="cls-7" cx="488.6" cy="140.29" r="0.58"/><path class="cls-4" d="M651.12,88.54a.57.57,0,1,1,.81.81.57.57,0,0,1-.81-.81Z" transform="translate(35.52 22.22)"/><circle class="cls-7" cx="603.61" cy="179.65" r="0.58"/><path class="cls-4" d="M516.47,165.52a.58.58,0,0,1,.81,0,.57.57,0,0,1,0,.82.58.58,0,0,1-.81,0A.57.57,0,0,1,516.47,165.52Z" transform="translate(35.52 22.22)"/><path class="cls-4" d="M385.66,113.61a.59.59,0,0,1,.82,0,.58.58,0,0,1,0,.81.57.57,0,0,1-.82,0A.58.58,0,0,1,385.66,113.61Z" transform="translate(35.52 22.22)"/><circle class="cls-7" cx="595.4" cy="184.43" r="0.29"/><circle class="cls-7" cx="549.96" cy="193.77" r="0.29"/><path class="cls-4" d="M522.12,166.08a.28.28,0,0,1,.41,0,.28.28,0,0,1,0,.4.28.28,0,0,1-.41,0A.28.28,0,0,1,522.12,166.08Z" transform="translate(35.52 22.22)"/><circle class="cls-7" cx="505.83" cy="137.64" r="0.29"/><circle class="cls-7" cx="617.86" cy="212.64" r="0.29"/><circle class="cls-7" cx="618.15" cy="232.84" r="0.29"/><path class="cls-4" d="M401.15,169a.29.29,0,1,1,0,.41A.3.3,0,0,1,401.15,169Z" transform="translate(35.52 22.22)"/><circle class="cls-7" cx="607.18" cy="233.13" r="0.29"/><circle class="cls-7" cx="606.89" cy="229.34" r="0.29"/><circle class="cls-7" cx="571.12" cy="203.26" r="0.29"/><path class="cls-4" d="M566.05,161.75a.28.28,0,0,1,.4,0,.28.28,0,0,1,0,.41.28.28,0,0,1-.4,0A.3.3,0,0,1,566.05,161.75Z" transform="translate(35.52 22.22)"/><circle class="cls-7" cx="569.22" cy="198.97" r="0.29"/><path class="cls-4" d="M557.91,166.8a.58.58,0,0,1,.81,0,.57.57,0,0,1,0,.82.58.58,0,0,1-.81,0A.57.57,0,0,1,557.91,166.8Z" transform="translate(35.52 22.22)"/><circle class="cls-7" cx="558.71" cy="198.69" r="0.58"/><path class="cls-4" d="M530.41,176.64a.57.57,0,1,1,0,.81A.58.58,0,0,1,530.41,176.64Z" transform="translate(35.52 22.22)"/><circle class="cls-7" cx="435.04" cy="151.53" r="0.58"/><circle class="cls-7" cx="445.09" cy="132.84" r="1.22"/><path class="cls-4" d="M420.16,102.92a.58.58,0,0,1,.81,0,.57.57,0,0,1,0,.82.58.58,0,0,1-.81,0A.57.57,0,0,1,420.16,102.92Z" transform="translate(35.52 22.22)"/><circle class="cls-7" cx="448.43" cy="122.77" r="0.58"/><circle class="cls-7" cx="440.22" cy="127.55" r="0.29"/><circle class="cls-7" cx="446.59" cy="127.29" r="0.29"/><circle class="cls-7" cx="438.65" cy="132.54" r="0.58"/><path class="cls-4" d="M576.18,185.89a.58.58,0,0,1,.81,0,.57.57,0,1,1-.81.81A.58.58,0,0,1,576.18,185.89Z" transform="translate(35.52 22.22)"/><path class="cls-5" d="M644.47,133.47a.58.58,0,0,1,.81,0,.57.57,0,1,1-.81,0Z" transform="translate(35.52 22.22)"/><circle class="cls-7" cx="666.01" cy="209.09" r="0.58"/><path class="cls-4" d="M551.71,206.43a.57.57,0,1,1,0,.81A.58.58,0,0,1,551.71,206.43Z" transform="translate(35.52 22.22)"/><path class="cls-5" d="M652.43,128.33a.57.57,0,1,1,0,.81A.58.58,0,0,1,652.43,128.33Z" transform="translate(35.52 22.22)"/><circle class="cls-7" cx="475.61" cy="201.06" r="1.22"/><circle class="cls-7" cx="477.26" cy="163.86" r="1.22"/><path class="cls-4" d="M231.67,180.46a1.22,1.22,0,0,1,1.72,1.73,1.22,1.22,0,0,1-1.72-1.73Z" transform="translate(35.52 22.22)"/><path class="cls-4" d="M435.61,194.63a.9.9,0,1,1,0,1.27A.9.9,0,0,1,435.61,194.63Z" transform="translate(35.52 22.22)"/><circle class="cls-7" cx="477.46" cy="203.72" r="0.58"/><path class="cls-4" d="M450.67,171.15a.57.57,0,0,1,.82,0,.58.58,0,0,1,0,.81.59.59,0,0,1-.82,0A.58.58,0,0,1,450.67,171.15Z" transform="translate(35.52 22.22)"/><path class="cls-4" d="M461.35,136.84a.57.57,0,1,1,0,.81A.58.58,0,0,1,461.35,136.84Z" transform="translate(35.52 22.22)"/><path class="cls-4" d="M443,168.37a.59.59,0,0,1,.82,0,.58.58,0,0,1,0,.81.57.57,0,0,1-.82,0A.58.58,0,0,1,443,168.37Z" transform="translate(35.52 22.22)"/><circle class="cls-7" cx="470.73" cy="195.78" r="0.29"/><path class="cls-4" d="M424,197a.28.28,0,1,1,0,.4A.27.27,0,0,1,424,197Z" transform="translate(35.52 22.22)"/><circle class="cls-7" cx="493.2" cy="223.98" r="0.29"/><path class="cls-4" d="M441.38,173.09a.29.29,0,1,1,0,.41A.3.3,0,0,1,441.38,173.09Z" transform="translate(35.52 22.22)"/><path class="cls-4" d="M433.24,178.14a.58.58,0,0,1,.81,0,.57.57,0,0,1,0,.82.58.58,0,0,1-.81,0A.59.59,0,0,1,433.24,178.14Z" transform="translate(35.52 22.22)"/><path class="cls-4" d="M394,177.79a.59.59,0,0,1,.82,0,.58.58,0,0,1,0,.81.57.57,0,0,1-.82,0A.58.58,0,0,1,394,177.79Z" transform="translate(35.52 22.22)"/><path class="cls-4" d="M190.9,177.28a1.66,1.66,0,1,1-.2-2.34A1.66,1.66,0,0,1,190.9,177.28Z" transform="translate(35.52 22.22)"/><path class="cls-4" d="M225.13,70.34a1.66,1.66,0,1,1-.21-2.34A1.66,1.66,0,0,1,225.13,70.34Z" transform="translate(35.52 22.22)"/><path class="cls-4" d="M204.71,73.09a1.66,1.66,0,1,1-.2-2.33A1.65,1.65,0,0,1,204.71,73.09Z" transform="translate(35.52 22.22)"/><path class="cls-3" d="M118.37,75.32a1.66,1.66,0,1,1-.2-2.33A1.65,1.65,0,0,1,118.37,75.32Z" transform="translate(35.52 22.22)"/><path class="cls-4" d="M101.75-19.49a1.66,1.66,0,0,1-2.34.2,1.65,1.65,0,0,1-.2-2.33,1.65,1.65,0,0,1,2.34-.21A1.66,1.66,0,0,1,101.75-19.49Z" transform="translate(35.52 22.22)"/><path class="cls-4" d="M73,24.5a1.66,1.66,0,1,1-.2-2.33A1.65,1.65,0,0,1,73,24.5Z" transform="translate(35.52 22.22)"/><path class="cls-4" d="M209.83,152.18a1.66,1.66,0,1,1-.21-2.33A1.65,1.65,0,0,1,209.83,152.18Z" transform="translate(35.52 22.22)"/><path class="cls-3" d="M135.93,51.85a1.66,1.66,0,1,1-.2-2.34A1.66,1.66,0,0,1,135.93,51.85Z" transform="translate(35.52 22.22)"/><path class="cls-4" d="M103.9,63.16a1.17,1.17,0,0,1-1.8-1.5,1.18,1.18,0,0,1,1.66-.15A1.17,1.17,0,0,1,103.9,63.16Z" transform="translate(35.52 22.22)"/><path class="cls-4" d="M177.86,152.26a1.17,1.17,0,0,1-1.65.15,1.18,1.18,0,0,1-.14-1.66,1.17,1.17,0,0,1,1.79,1.51Z" transform="translate(35.52 22.22)"/><path class="cls-4" d="M179.94,136a.86.86,0,1,1-.1-1.22A.87.87,0,0,1,179.94,136Z" transform="translate(35.52 22.22)"/><path class="cls-4" d="M143.88,89.13a.87.87,0,0,1-1.22.1.86.86,0,0,1,1.11-1.32A.87.87,0,0,1,143.88,89.13Z" transform="translate(35.52 22.22)"/><path class="cls-4" d="M68.83,58.82a.86.86,0,1,1-1.32-1.11.86.86,0,0,1,1.32,1.11Z" transform="translate(35.52 22.22)"/><path class="cls-4" d="M81.53,43.71a.86.86,0,0,1-1.32-1.11.86.86,0,1,1,1.32,1.11Z" transform="translate(35.52 22.22)"/><path class="cls-4" d="M126.37,15.31a.87.87,0,0,1-1.22.1.86.86,0,0,1,1.11-1.32A.87.87,0,0,1,126.37,15.31Z" transform="translate(35.52 22.22)"/><path class="cls-4" d="M196.63,173.57a.56.56,0,0,1-.78.07.55.55,0,0,1-.06-.78.54.54,0,0,1,.78-.07A.55.55,0,0,1,196.63,173.57Z" transform="translate(35.52 22.22)"/><path class="cls-4" d="M175.39,149.46a.53.53,0,0,1-.77.07.54.54,0,0,1-.07-.78.55.55,0,0,1,.78-.06A.54.54,0,0,1,175.39,149.46Z" transform="translate(35.52 22.22)"/><path class="cls-4" d="M167.47,159.76a.55.55,0,0,1-.78.06.56.56,0,0,1-.07-.78.55.55,0,0,1,.78-.06A.54.54,0,0,1,167.47,159.76Z" transform="translate(35.52 22.22)"/><path class="cls-4" d="M175,161.78a.55.55,0,0,1-.78.06A.55.55,0,0,1,175,161,.55.55,0,0,1,175,161.78Z" transform="translate(35.52 22.22)"/><path class="cls-4" d="M162.16,154.13a.56.56,0,0,1-.78.07.55.55,0,1,1,.71-.85A.56.56,0,0,1,162.16,154.13Z" transform="translate(35.52 22.22)"/><path class="cls-4" d="M26.38,64.45a.54.54,0,0,1-.78.07.55.55,0,0,1,.71-.85A.55.55,0,0,1,26.38,64.45Z" transform="translate(35.52 22.22)"/><path class="cls-4" d="M223.36,149.39a.55.55,0,0,1-.78.07.55.55,0,0,1-.07-.78.55.55,0,0,1,.85.71Z" transform="translate(35.52 22.22)"/><path class="cls-4" d="M182.28,156.34a.27.27,0,0,1-.39,0,.28.28,0,1,1,.36-.42A.27.27,0,0,1,182.28,156.34Z" transform="translate(35.52 22.22)"/><path class="cls-4" d="M87.38,157.45a.34.34,0,1,1,0-.49A.34.34,0,0,1,87.38,157.45Z" transform="translate(35.52 22.22)"/><path class="cls-4" d="M131.39,113.92a.28.28,0,0,1-.43-.35.28.28,0,1,1,.43.35Z" transform="translate(35.52 22.22)"/><path class="cls-4" d="M85.87,70.58a.28.28,0,0,1-.39,0,.27.27,0,0,1,0-.39.26.26,0,0,1,.38,0A.27.27,0,0,1,85.87,70.58Z" transform="translate(35.52 22.22)"/><path class="cls-4" d="M158.43,131.2a.27.27,0,0,1-.39,0,.28.28,0,1,1,.36-.42A.27.27,0,0,1,158.43,131.2Z" transform="translate(35.52 22.22)"/><path class="cls-4" d="M127.11,108.17a.28.28,0,1,1-.42-.36.28.28,0,0,1,.42.36Z" transform="translate(35.52 22.22)"/><path class="cls-4" d="M53.48,48.2a.28.28,0,1,1-.42-.36.28.28,0,0,1,.42.36Z" transform="translate(35.52 22.22)"/><path class="cls-4" d="M46.4,41.06a.27.27,0,0,1-.39,0,.28.28,0,1,1,.36-.42A.27.27,0,0,1,46.4,41.06Z" transform="translate(35.52 22.22)"/><path class="cls-3" d="M176.2,157.12a.27.27,0,1,1-.42-.35.27.27,0,1,1,.42.35Z" transform="translate(35.52 22.22)"/><path class="cls-4" d="M135.92,123.63a.28.28,0,0,1-.39,0,.27.27,0,0,1,0-.39.28.28,0,0,1,.42.36Z" transform="translate(35.52 22.22)"/><path class="cls-4" d="M79.73,77.45a.27.27,0,0,1-.39,0,.28.28,0,0,1,.35-.43A.27.27,0,0,1,79.73,77.45Z" transform="translate(35.52 22.22)"/><path class="cls-4" d="M183.58,151.61a.55.55,0,0,1-.85-.71.55.55,0,1,1,.85.71Z" transform="translate(35.52 22.22)"/><path class="cls-4" d="M164.5,134.85a.56.56,0,0,1-.78.07.55.55,0,1,1,.71-.85A.56.56,0,0,1,164.5,134.85Z" transform="translate(35.52 22.22)"/><path class="cls-4" d="M99.18,49.37a.54.54,0,0,1-.78.07.55.55,0,0,1-.06-.78.56.56,0,0,1,.78-.07A.55.55,0,0,1,99.18,49.37Z" transform="translate(35.52 22.22)"/><path class="cls-4" d="M215.16,91.06a.55.55,0,1,1-.06-.78A.55.55,0,0,1,215.16,91.06Z" transform="translate(35.52 22.22)"/><path class="cls-4" d="M138.49,137.36a.55.55,0,0,1-.85-.71.55.55,0,1,1,.85.71Z" transform="translate(35.52 22.22)"/><path class="cls-4" d="M97.37,47.13a.56.56,0,0,1-.78.07.55.55,0,0,1-.06-.78.54.54,0,0,1,.78-.07A.55.55,0,0,1,97.37,47.13Z" transform="translate(35.52 22.22)"/><path class="cls-4" d="M111,16.64a.56.56,0,0,1-.78.07.55.55,0,0,1-.06-.78.53.53,0,0,1,.77-.07A.55.55,0,0,1,111,16.64Z" transform="translate(35.52 22.22)"/><path class="cls-4" d="M94.5,3.47a.56.56,0,0,1-.78.07.55.55,0,0,1-.06-.78.53.53,0,0,1,.77-.07A.55.55,0,0,1,94.5,3.47Z" transform="translate(35.52 22.22)"/><path class="cls-4" d="M167.18,23.81a.56.56,0,0,1-.78.07.55.55,0,0,1-.06-.78.54.54,0,0,1,.78-.07A.55.55,0,0,1,167.18,23.81Z" transform="translate(35.52 22.22)"/><path class="cls-4" d="M82.07,40.39a.55.55,0,0,1-.85-.71.55.55,0,1,1,.85.71Z" transform="translate(35.52 22.22)"/><path class="cls-4" d="M95.15,1.84a.55.55,0,0,1-.85-.71.55.55,0,1,1,.85.71Z" transform="translate(35.52 22.22)"/><path class="cls-4" d="M118.33,21.33a.56.56,0,0,1-.78.07.55.55,0,0,1-.06-.78.53.53,0,0,1,.77-.07A.55.55,0,0,1,118.33,21.33Z" transform="translate(35.52 22.22)"/><path class="cls-4" d="M170.16,35.83a.56.56,0,0,1-.78.07.55.55,0,0,1-.07-.78.55.55,0,0,1,.78-.07A.56.56,0,0,1,170.16,35.83Z" transform="translate(35.52 22.22)"/><path class="cls-4" d="M175.78,110.13a.56.56,0,0,1-.78.07.55.55,0,0,1,.71-.85A.55.55,0,0,1,175.78,110.13Z" transform="translate(35.52 22.22)"/><path class="cls-4" d="M130,21.71a.54.54,0,0,1-.77.06.53.53,0,0,1-.07-.77.54.54,0,0,1,.78-.07A.55.55,0,0,1,130,21.71Z" transform="translate(35.52 22.22)"/><path class="cls-4" d="M96.16-20.3a.54.54,0,0,1-.78.07.56.56,0,0,1-.07-.78.56.56,0,0,1,.78-.07A.55.55,0,0,1,96.16-20.3Z" transform="translate(35.52 22.22)"/><path class="cls-4" d="M184.59,84.32a.55.55,0,0,1-.78.06.56.56,0,0,1-.07-.78.55.55,0,0,1,.78-.06A.54.54,0,0,1,184.59,84.32Z" transform="translate(35.52 22.22)"/><path class="cls-4" d="M199.34,125.76a.56.56,0,0,1-.78.07.55.55,0,1,1,.71-.85A.56.56,0,0,1,199.34,125.76Z" transform="translate(35.52 22.22)"/><path class="cls-4" d="M249.65,116.64a.55.55,0,0,1,.6.5.55.55,0,1,1-1.1.1A.55.55,0,0,1,249.65,116.64Z" transform="translate(35.52 22.22)"/><path class="cls-4" d="M95,70.61a1.17,1.17,0,0,1,.2,2.34,1.17,1.17,0,0,1-.2-2.34Z" transform="translate(35.52 22.22)"/><path class="cls-3" d="M136.7,211.3a1.73,1.73,0,0,1-2.65-2.22,1.73,1.73,0,0,1,2.65,2.22Z" transform="translate(35.52 22.22)"/><path class="cls-4" d="M172.31,100a1.72,1.72,0,1,1-.21-2.43A1.72,1.72,0,0,1,172.31,100Z" transform="translate(35.52 22.22)"/><path class="cls-4" d="M151.06,102.88a1.72,1.72,0,1,1-.21-2.43A1.72,1.72,0,0,1,151.06,102.88Z" transform="translate(35.52 22.22)"/><path class="cls-4" d="M61.22,105.2a1.73,1.73,0,1,1-.22-2.43A1.73,1.73,0,0,1,61.22,105.2Z" transform="translate(35.52 22.22)"/><path class="cls-4" d="M43.92,6.54a1.72,1.72,0,1,1-.21-2.43A1.73,1.73,0,0,1,43.92,6.54Z" transform="translate(35.52 22.22)"/><path class="cls-4" d="M14,52.32a1.72,1.72,0,1,1-.21-2.43A1.73,1.73,0,0,1,14,52.32Z" transform="translate(35.52 22.22)"/><path class="cls-5" d="M156.39,185.18a1.73,1.73,0,1,1-.21-2.43A1.74,1.74,0,0,1,156.39,185.18Z" transform="translate(35.52 22.22)"/><path class="cls-4" d="M79.49,80.77a1.72,1.72,0,1,1-.21-2.43A1.72,1.72,0,0,1,79.49,80.77Z" transform="translate(35.52 22.22)"/><path class="cls-4" d="M149.36,231.2a1.22,1.22,0,1,1-1.87-1.57,1.22,1.22,0,1,1,1.87,1.57Z" transform="translate(35.52 22.22)"/><path class="cls-4" d="M46.16,92.55A1.22,1.22,0,1,1,46,90.83,1.22,1.22,0,0,1,46.16,92.55Z" transform="translate(35.52 22.22)"/><path class="cls-5" d="M123.13,185.27a1.22,1.22,0,1,1-.15-1.73A1.24,1.24,0,0,1,123.13,185.27Z" transform="translate(35.52 22.22)"/><path class="cls-4" d="M213.94,171a1.22,1.22,0,1,1-.15-1.72A1.22,1.22,0,0,1,213.94,171Z" transform="translate(35.52 22.22)"/><path class="cls-4" d="M125.29,168.37a.89.89,0,0,1-1.26.11.9.9,0,1,1,1.26-.11Z" transform="translate(35.52 22.22)"/><path class="cls-4" d="M87.76,119.56a.89.89,0,1,1-.11-1.26A.89.89,0,0,1,87.76,119.56Z" transform="translate(35.52 22.22)"/><path class="cls-4" d="M9.67,88a.9.9,0,0,1-1.27.11.89.89,0,0,1-.11-1.26A.9.9,0,0,1,9.67,88Z" transform="translate(35.52 22.22)"/><path class="cls-4" d="M22.88,72.3A.89.89,0,1,1,22.77,71,.89.89,0,0,1,22.88,72.3Z" transform="translate(35.52 22.22)"/><path class="cls-4" d="M69.54,42.75a.89.89,0,0,1-1.26.11.9.9,0,0,1-.11-1.27.89.89,0,0,1,1.26-.11A.9.9,0,0,1,69.54,42.75Z" transform="translate(35.52 22.22)"/><path class="cls-4" d="M142.66,207.44a.58.58,0,0,1-.81.07.58.58,0,0,1-.07-.82.58.58,0,0,1,.81-.07A.59.59,0,0,1,142.66,207.44Z" transform="translate(35.52 22.22)"/><path class="cls-5" d="M120.56,182.35a.57.57,0,1,1-.88-.74.57.57,0,1,1,.88.74Z" transform="translate(35.52 22.22)"/><path class="cls-5" d="M112.31,193.06a.56.56,0,0,1-.81.07.57.57,0,0,1-.07-.81.58.58,0,0,1,.81-.07A.57.57,0,0,1,112.31,193.06Z" transform="translate(35.52 22.22)"/><path class="cls-4" d="M120.18,195.17a.57.57,0,0,1-.88-.74.56.56,0,0,1,.81-.07A.57.57,0,0,1,120.18,195.17Z" transform="translate(35.52 22.22)"/><path class="cls-5" d="M106.78,187.21a.57.57,0,1,1-.88-.74.56.56,0,0,1,.81-.07A.57.57,0,0,1,106.78,187.21Z" transform="translate(35.52 22.22)"/><path class="cls-9" d="M-34.51,93.89a.57.57,0,0,1-.81.07.58.58,0,0,1-.07-.81.58.58,0,0,1,.81-.07A.56.56,0,0,1-34.51,93.89Z" transform="translate(35.52 22.22)"/><path class="cls-4" d="M170.47,182.28a.58.58,0,0,1-.81.07.56.56,0,0,1-.07-.81.57.57,0,0,1,.81-.07A.58.58,0,0,1,170.47,182.28Z" transform="translate(35.52 22.22)"/><path class="cls-5" d="M127.73,189.51a.3.3,0,0,1-.41,0,.29.29,0,0,1,.37-.44A.3.3,0,0,1,127.73,189.51Z" transform="translate(35.52 22.22)"/><path class="cls-4" d="M4.76,138.47a.29.29,0,0,1-.41,0,.28.28,0,0,1,0-.4.29.29,0,0,1,.4,0A.3.3,0,0,1,4.76,138.47Z" transform="translate(35.52 22.22)"/><path class="cls-4" d="M74.76,145.37a.29.29,0,0,1-.44-.37.29.29,0,1,1,.44.37Z" transform="translate(35.52 22.22)"/><path class="cls-4" d="M27.4,100.26a.3.3,0,0,1-.41,0,.29.29,0,0,1,0-.41.28.28,0,0,1,.4,0A.29.29,0,0,1,27.4,100.26Z" transform="translate(35.52 22.22)"/><path class="cls-4" d="M102.91,163.35a.3.3,0,0,1-.41,0,.28.28,0,0,1,0-.4.28.28,0,0,1,.4,0A.29.29,0,0,1,102.91,163.35Z" transform="translate(35.52 22.22)"/><path class="cls-4" d="M70.32,139.38a.29.29,0,0,1-.45-.37.29.29,0,0,1,.45.37Z" transform="translate(35.52 22.22)"/><path class="cls-9" d="M-6.31,77a.28.28,0,0,1-.4,0,.29.29,0,0,1,0-.4.29.29,0,0,1,.41,0A.29.29,0,0,1-6.31,77Z" transform="translate(35.52 22.22)"/><path class="cls-9" d="M-13.67,69.55a.3.3,0,0,1-.41,0,.28.28,0,0,1,0-.4.29.29,0,0,1,.4,0A.3.3,0,0,1-13.67,69.55Z" transform="translate(35.52 22.22)"/><path class="cls-4" d="M121.4,190.32A.29.29,0,1,1,121,190a.29.29,0,0,1,.44.37Z" transform="translate(35.52 22.22)"/><path class="cls-4" d="M79.48,155.47a.3.3,0,0,1-.41,0,.29.29,0,0,1,.37-.44A.29.29,0,0,1,79.48,155.47Z" transform="translate(35.52 22.22)"/><path class="cls-4" d="M21,107.42a.29.29,0,0,1-.45-.37.29.29,0,1,1,.45.37Z" transform="translate(35.52 22.22)"/><path class="cls-5" d="M129.07,184.58a.56.56,0,0,1-.81.07.57.57,0,0,1,.74-.88A.56.56,0,0,1,129.07,184.58Z" transform="translate(35.52 22.22)"/><path class="cls-4" d="M109.22,167.15a.58.58,0,0,1-.81.07.57.57,0,0,1-.07-.81.56.56,0,0,1,.81-.07A.58.58,0,0,1,109.22,167.15Z" transform="translate(35.52 22.22)"/><path class="cls-4" d="M41.25,78.2a.57.57,0,1,1-.88-.74.57.57,0,0,1,.88.74Z" transform="translate(35.52 22.22)"/><path class="cls-4" d="M161.94,121.57a.56.56,0,0,1-.81.07.57.57,0,0,1,.74-.88A.57.57,0,0,1,161.94,121.57Z" transform="translate(35.52 22.22)"/><path class="cls-4" d="M169.54,78.88a.57.57,0,0,1-.88-.74.57.57,0,1,1,.88.74Z" transform="translate(35.52 22.22)"/><path class="cls-4" d="M82.15,169.76a.58.58,0,0,1-.81.07.59.59,0,0,1-.07-.82.58.58,0,0,1,.81-.07A.58.58,0,0,1,82.15,169.76Z" transform="translate(35.52 22.22)"/><path class="cls-4" d="M39.37,75.86a.57.57,0,0,1-.81.07.56.56,0,0,1-.07-.81.57.57,0,0,1,.88.74Z" transform="translate(35.52 22.22)"/><path class="cls-4" d="M53.58,44.13a.56.56,0,0,1-.81.07.57.57,0,0,1,.74-.88A.56.56,0,0,1,53.58,44.13Z" transform="translate(35.52 22.22)"/><path class="cls-4" d="M36.38,30.43a.57.57,0,1,1-.88-.74.57.57,0,0,1,.88.74Z" transform="translate(35.52 22.22)"/><path class="cls-4" d="M112,51.6a.57.57,0,1,1-.88-.74.57.57,0,1,1,.88.74Z" transform="translate(35.52 22.22)"/><path class="cls-4" d="M158.5,71.1a.56.56,0,0,1-.81.07.57.57,0,1,1,.74-.88A.56.56,0,0,1,158.5,71.1Z" transform="translate(35.52 22.22)"/><path class="cls-4" d="M23.44,68.85a.56.56,0,0,1-.81.07.57.57,0,0,1-.07-.81.57.57,0,0,1,.88.74Z" transform="translate(35.52 22.22)"/><path class="cls-4" d="M37.05,28.74a.57.57,0,0,1-.88-.74.56.56,0,0,1,.81-.07A.57.57,0,0,1,37.05,28.74Z" transform="translate(35.52 22.22)"/><path class="cls-4" d="M61.18,49a.57.57,0,1,1-.88-.74.57.57,0,0,1,.88.74Z" transform="translate(35.52 22.22)"/><path class="cls-4" d="M115.11,64.11a.58.58,0,0,1-.89-.75.58.58,0,1,1,.89.75Z" transform="translate(35.52 22.22)"/><path class="cls-4" d="M121,141.42a.57.57,0,0,1-.88-.74.57.57,0,0,1,.88.74Z" transform="translate(35.52 22.22)"/><path class="cls-4" d="M73.35,49.41a.59.59,0,0,1-.82.07.58.58,0,0,1-.07-.81.58.58,0,0,1,.89.74Z" transform="translate(35.52 22.22)"/><path class="cls-4" d="M38.11,5.7a.58.58,0,0,1-.81.07A.57.57,0,1,1,38,4.89.58.58,0,0,1,38.11,5.7Z" transform="translate(35.52 22.22)"/><path class="cls-4" d="M130.13,114.56a.58.58,0,0,1-.81.07.56.56,0,0,1-.07-.81.57.57,0,0,1,.81-.07A.58.58,0,0,1,130.13,114.56Z" transform="translate(35.52 22.22)"/><path class="cls-4" d="M91.45,25.83a.57.57,0,0,1-.88-.74.57.57,0,0,1,.81-.07A.56.56,0,0,1,91.45,25.83Z" transform="translate(35.52 22.22)"/><path class="cls-4" d="M145.47,157.69a.57.57,0,1,1-.88-.74.56.56,0,0,1,.81-.07A.57.57,0,0,1,145.47,157.69Z" transform="translate(35.52 22.22)"/><path class="cls-4" d="M223.61,129.53a.58.58,0,1,1-.53.62A.58.58,0,0,1,223.61,129.53Z" transform="translate(35.52 22.22)"/><path class="cls-4" d="M197.83,148.2a.57.57,0,1,1-.52.62A.56.56,0,0,1,197.83,148.2Z" transform="translate(35.52 22.22)"/><path class="cls-4" d="M166.83,214.8a.29.29,0,1,1,0,.57.29.29,0,0,1,0-.57Z" transform="translate(35.52 22.22)"/><path class="cls-4" d="M198.28,168.55a.58.58,0,1,1,.1,1.15.58.58,0,0,1-.1-1.15Z" transform="translate(35.52 22.22)"/><path class="cls-4" d="M218,160.07a1.22,1.22,0,1,1-1.11,1.32A1.22,1.22,0,0,1,218,160.07Z" transform="translate(35.52 22.22)"/><path class="cls-4" d="M217.7,153.82a.29.29,0,0,1,.05.57.28.28,0,0,1-.31-.26A.28.28,0,0,1,217.7,153.82Z" transform="translate(35.52 22.22)"/><path class="cls-4" d="M222.75,157.72a.29.29,0,1,1,.05.57.29.29,0,0,1-.05-.57Z" transform="translate(35.52 22.22)"/><path class="cls-4" d="M213.27,156.35a.58.58,0,1,1,.09,1.15.59.59,0,0,1-.62-.53A.58.58,0,0,1,213.27,156.35Z" transform="translate(35.52 22.22)"/><path class="cls-4" d="M36.93,100.3a1.22,1.22,0,1,1-1.12,1.32A1.22,1.22,0,0,1,36.93,100.3Z" transform="translate(35.52 22.22)"/><path class="cls-4" d="M162.89,202.67a.58.58,0,0,1,.63.52.58.58,0,1,1-1.15.1A.58.58,0,0,1,162.89,202.67Z" transform="translate(35.52 22.22)"/><path class="cls-4" d="M105.59,187.34a.86.86,0,1,1-.31-1.17A.86.86,0,0,1,105.59,187.34Z" transform="translate(35.52 22.22)"/><path class="cls-4" d="M64.78,200.3a.54.54,0,0,1-.76.2.55.55,0,0,1-.2-.75.54.54,0,0,1,.76-.2A.55.55,0,0,1,64.78,200.3Z" transform="translate(35.52 22.22)"/><path class="cls-4" d="M124.42,195.94a.28.28,0,0,1-.38.1.28.28,0,0,1-.1-.38.29.29,0,0,1,.38-.1A.28.28,0,0,1,124.42,195.94Z" transform="translate(35.52 22.22)"/><path class="cls-4" d="M88.62,179.57a.28.28,0,0,1-.38.1.29.29,0,0,1-.1-.38.28.28,0,0,1,.38-.1A.27.27,0,0,1,88.62,179.57Z" transform="translate(35.52 22.22)"/><path class="cls-4" d="M80.41,173.77a.28.28,0,0,1-.38.1.27.27,0,0,1-.1-.38.28.28,0,0,1,.38-.1A.29.29,0,0,1,80.41,173.77Z" transform="translate(35.52 22.22)"/><path class="cls-4" d="M119.58,203.79a.29.29,0,0,1-.38.1.28.28,0,0,1-.1-.38.27.27,0,0,1,.37-.1A.28.28,0,0,1,119.58,203.79Z" transform="translate(35.52 22.22)"/><path class="cls-3" d="M106.19,234.34a1.71,1.71,0,0,1-2.35.63,1.72,1.72,0,1,1,2.35-.63Z" transform="translate(35.52 22.22)"/><path class="cls-4" d="M50.51,190.51a1.73,1.73,0,1,1-.64-2.36A1.72,1.72,0,0,1,50.51,190.51Z" transform="translate(35.52 22.22)"/><path class="cls-4" d="M119.92,207.09a1.72,1.72,0,1,1-.63-2.35A1.71,1.71,0,0,1,119.92,207.09Z" transform="translate(35.52 22.22)"/><path class="cls-4" d="M89.16,224.51a1.22,1.22,0,1,1-.45-1.67A1.22,1.22,0,0,1,89.16,224.51Z" transform="translate(35.52 22.22)"/><path class="cls-4" d="M134.84,243.85a.9.9,0,1,1-.33-1.23A.9.9,0,0,1,134.84,243.85Z" transform="translate(35.52 22.22)"/><path class="cls-4" d="M52.44,226.44a.9.9,0,1,1-.33-1.23A.91.91,0,0,1,52.44,226.44Z" transform="translate(35.52 22.22)"/><path class="cls-4" d="M62.71,208.64a.9.9,0,1,1-.33-1.22A.9.9,0,0,1,62.71,208.64Z" transform="translate(35.52 22.22)"/><path class="cls-4" d="M10,239.92a.58.58,0,1,1-.21-.79A.58.58,0,0,1,10,239.92Z" transform="translate(35.52 22.22)"/><path class="cls-4" d="M56.41,277a.29.29,0,0,1-.39.1.28.28,0,0,1-.11-.39.29.29,0,0,1,.4-.11A.3.3,0,0,1,56.41,277Z" transform="translate(35.52 22.22)"/><path class="cls-4" d="M126.55,271.52a.29.29,0,0,1-.4.11.29.29,0,0,1-.1-.39.29.29,0,0,1,.5.28Z" transform="translate(35.52 22.22)"/><path class="cls-4" d="M72,235.38a.28.28,0,0,1-.39.11.29.29,0,0,1-.11-.4.3.3,0,0,1,.4-.1A.29.29,0,0,1,72,235.38Z" transform="translate(35.52 22.22)"/><path class="cls-4" d="M121.12,266.4a.28.28,0,0,1-.39.11.29.29,0,0,1-.11-.4.3.3,0,0,1,.4-.1A.29.29,0,0,1,121.12,266.4Z" transform="translate(35.52 22.22)"/><path class="cls-4" d="M34.78,218.34a.29.29,0,0,1-.39.11.29.29,0,0,1-.11-.4.29.29,0,0,1,.39-.1A.28.28,0,0,1,34.78,218.34Z" transform="translate(35.52 22.22)"/><path class="cls-4" d="M26.23,212.31a.28.28,0,0,1-.39.11.29.29,0,0,1-.11-.4.3.3,0,0,1,.4-.1A.29.29,0,0,1,26.23,212.31Z" transform="translate(35.52 22.22)"/><path class="cls-4" d="M133,280.64a.29.29,0,0,1-.4.11.29.29,0,0,1-.1-.39.29.29,0,0,1,.5.28Z" transform="translate(35.52 22.22)"/><path class="cls-4" d="M67,243.55a.29.29,0,0,1-.39.1.29.29,0,1,1,.28-.5A.29.29,0,0,1,67,243.55Z" transform="translate(35.52 22.22)"/><path class="cls-4" d="M81.82,211.24a.57.57,0,0,1-.78.21.58.58,0,1,1,.57-1A.57.57,0,0,1,81.82,211.24Z" transform="translate(35.52 22.22)"/><path class="cls-4" d="M79.56,209.27a.58.58,0,1,1-.21-.79A.58.58,0,0,1,79.56,209.27Z" transform="translate(35.52 22.22)"/><path class="cls-4" d="M88,175.54a.57.57,0,1,1-.21-.78A.56.56,0,0,1,88,175.54Z" transform="translate(35.52 22.22)"/><path class="cls-4" d="M68.68,165.05a.57.57,0,1,1-1-.57.57.57,0,0,1,1,.57Z" transform="translate(35.52 22.22)"/><path class="cls-4" d="M62.65,205.15a.58.58,0,1,1-.21-.79A.57.57,0,0,1,62.65,205.15Z" transform="translate(35.52 22.22)"/><path class="cls-4" d="M69.05,163.27a.58.58,0,0,1-1-.57.58.58,0,1,1,1,.57Z" transform="translate(35.52 22.22)"/><path class="cls-4" d="M96.34,179a.57.57,0,1,1-.21-.78A.56.56,0,0,1,96.34,179Z" transform="translate(35.52 22.22)"/><path class="cls-4" d="M81.42,233.75a1.24,1.24,0,0,1,1.5.87,1.22,1.22,0,0,1-.87,1.49,1.21,1.21,0,0,1-1.49-.86A1.22,1.22,0,0,1,81.42,233.75Z" transform="translate(35.52 22.22)"/><path class="cls-4" d="M47.7,210.62a1.66,1.66,0,0,1-1.13-3.12,1.67,1.67,0,0,1,2.13,1A1.65,1.65,0,0,1,47.7,210.62Z" transform="translate(35.52 22.22)"/><path class="cls-4" d="M76.64,198.34a1.66,1.66,0,1,1,1-2.12A1.66,1.66,0,0,1,76.64,198.34Z" transform="translate(35.52 22.22)"/><path class="cls-4" d="M48.92,182.44a1.18,1.18,0,1,1,.7-1.51A1.18,1.18,0,0,1,48.92,182.44Z" transform="translate(35.52 22.22)"/><path class="cls-4" d="M58.83,169.41a.86.86,0,0,1-.59-1.62.87.87,0,0,1,1.11.52A.86.86,0,0,1,58.83,169.41Z" transform="translate(35.52 22.22)"/><path class="cls-4" d="M54.52,210.27a.54.54,0,0,1-.7-.33.55.55,0,0,1,.33-.71.55.55,0,0,1,.7.33A.54.54,0,0,1,54.52,210.27Z" transform="translate(35.52 22.22)"/><path class="cls-4" d="M48.17,178.78a.54.54,0,0,1-.7-.33.55.55,0,0,1,.33-.71.55.55,0,1,1,.37,1Z" transform="translate(35.52 22.22)"/><path class="cls-4" d="M36.17,183.73a.55.55,0,1,1-.38-1,.55.55,0,1,1,.38,1Z" transform="translate(35.52 22.22)"/><path class="cls-4" d="M41.71,189.26a.54.54,0,0,1-.71-.33.55.55,0,0,1,.33-.71.56.56,0,0,1,.71.34A.55.55,0,0,1,41.71,189.26Z" transform="translate(35.52 22.22)"/><path class="cls-4" d="M34.38,176.2a.54.54,0,0,1-.71-.33.55.55,0,0,1,.33-.71.56.56,0,0,1,.71.34A.55.55,0,0,1,34.38,176.2Z" transform="translate(35.52 22.22)"/><path class="cls-4" d="M89.75,202.69a.55.55,0,0,1-.71-.33.56.56,0,0,1,.34-.71.55.55,0,0,1,.37,1Z" transform="translate(35.52 22.22)"/><path class="cls-4" d="M50.71,188.18a.28.28,0,0,1-.36-.17.27.27,0,0,1,.17-.35.27.27,0,0,1,.35.16A.28.28,0,0,1,50.71,188.18Z" transform="translate(35.52 22.22)"/><path class="cls-4" d="M42.61,154.48a.27.27,0,0,1-.35-.16.28.28,0,1,1,.52-.19A.27.27,0,0,1,42.61,154.48Z" transform="translate(35.52 22.22)"/><path class="cls-3" d="M45.05,185.82a.29.29,0,0,1-.36-.17.28.28,0,0,1,.17-.35.27.27,0,0,1,.35.16A.28.28,0,0,1,45.05,185.82Z" transform="translate(35.52 22.22)"/><path class="cls-4" d="M26.9,136.67a.27.27,0,0,1-.36-.16.28.28,0,1,1,.52-.19A.27.27,0,0,1,26.9,136.67Z" transform="translate(35.52 22.22)"/><path class="cls-4" d="M54.19,184.73a.55.55,0,0,1-.38-1,.55.55,0,0,1,.38,1Z" transform="translate(35.52 22.22)"/><path class="cls-4" d="M46,160.68a.55.55,0,1,1-.38-1,.55.55,0,0,1,.38,1Z" transform="translate(35.52 22.22)"/><path class="cls-4" d="M22.26,149.85a.55.55,0,1,1,.33-.71A.56.56,0,0,1,22.26,149.85Z" transform="translate(35.52 22.22)"/><path class="cls-4" d="M80.76,170.21a.54.54,0,0,1-.71-.33.55.55,0,0,1,1-.38A.55.55,0,0,1,80.76,170.21Z" transform="translate(35.52 22.22)"/><path class="cls-3" d="M-16.25,213a1.73,1.73,0,0,1-2.21-1,1.73,1.73,0,0,1,1-2.21,1.73,1.73,0,0,1,2.21,1A1.73,1.73,0,0,1-16.25,213Z" transform="translate(35.52 22.22)"/><path class="cls-5" d="M13.86,200.22a1.73,1.73,0,1,1,1-2.21A1.73,1.73,0,0,1,13.86,200.22Z" transform="translate(35.52 22.22)"/><path class="cls-4" d="M-15.23,236.56a1.22,1.22,0,0,1-1.57-.73,1.22,1.22,0,0,1,.73-1.56,1.23,1.23,0,0,1,1.57.73A1.22,1.22,0,0,1-15.23,236.56Z" transform="translate(35.52 22.22)"/><path class="cls-5" d="M-15,183.67a1.22,1.22,0,0,1-1.56-.73,1.22,1.22,0,0,1,.73-1.57,1.22,1.22,0,0,1,1.56.73A1.22,1.22,0,0,1-15,183.67Z" transform="translate(35.52 22.22)"/><path class="cls-4" d="M70.8,216.68a1.22,1.22,0,0,1-.83-2.3,1.22,1.22,0,1,1,.83,2.3Z" transform="translate(35.52 22.22)"/><path class="cls-4" d="M-4.67,170.11a.9.9,0,0,1-1.15-.53.89.89,0,0,1,.54-1.15.9.9,0,0,1,1.15.53A.91.91,0,0,1-4.67,170.11Z" transform="translate(35.52 22.22)"/><path class="cls-4" d="M-9.15,212.63a.57.57,0,0,1-.74-.34.58.58,0,0,1,.34-.74.57.57,0,0,1,.74.34A.57.57,0,0,1-9.15,212.63Z" transform="translate(35.52 22.22)"/><path class="cls-5" d="M-15.76,179.86a.57.57,0,0,1-.74-.34.58.58,0,0,1,.35-.74.57.57,0,0,1,.74.34A.59.59,0,0,1-15.76,179.86Z" transform="translate(35.52 22.22)"/><path class="cls-5" d="M-28.26,185a.57.57,0,0,1-.73-.34.57.57,0,0,1,.34-.74.58.58,0,0,1,.74.35A.56.56,0,0,1-28.26,185Z" transform="translate(35.52 22.22)"/><path class="cls-4" d="M-22.49,190.77a.58.58,0,0,1-.74-.34.58.58,0,0,1,.35-.74.57.57,0,0,1,.74.34A.59.59,0,0,1-22.49,190.77Z" transform="translate(35.52 22.22)"/><path class="cls-4" d="M27.51,204.74a.57.57,0,0,1-.74-.34.58.58,0,1,1,1.08-.4A.57.57,0,0,1,27.51,204.74Z" transform="translate(35.52 22.22)"/><path class="cls-5" d="M-13.12,189.64a.29.29,0,0,1-.37-.17.28.28,0,0,1,.17-.37.28.28,0,0,1,.37.17A.3.3,0,0,1-13.12,189.64Z" transform="translate(35.52 22.22)"/><path class="cls-4" d="M-19,187.18a.28.28,0,0,1-.37-.17.28.28,0,0,1,.17-.37.29.29,0,0,1,.37.17A.29.29,0,0,1-19,187.18Z" transform="translate(35.52 22.22)"/><path class="cls-5" d="M-9.5,186.05a.58.58,0,0,1-.74-.35.58.58,0,0,1,.35-.73.57.57,0,0,1,.74.34A.59.59,0,0,1-9.5,186.05Z" transform="translate(35.52 22.22)"/><path class="cls-4" d="M-18,161a.57.57,0,0,1-.74-.34.58.58,0,0,1,.35-.74.57.57,0,0,1,.73.34A.57.57,0,0,1-18,161Z" transform="translate(35.52 22.22)"/><path class="cls-4" d="M5,144.61a.57.57,0,0,1-.39-1.08A.57.57,0,1,1,5,144.61Z" transform="translate(35.52 22.22)"/><path class="cls-4" d="M18.15,171a.58.58,0,1,1,.34-.74A.57.57,0,0,1,18.15,171Z" transform="translate(35.52 22.22)"/><path class="cls-4" d="M99.89,185.61a.58.58,0,0,1,.28.77.57.57,0,0,1-1-.49A.57.57,0,0,1,99.89,185.61Z" transform="translate(35.52 22.22)"/><path class="cls-4" d="M68.24,188.89a.58.58,0,1,1-.76.28A.57.57,0,0,1,68.24,188.89Z" transform="translate(35.52 22.22)"/><path class="cls-4" d="M8.1,231.09a.28.28,0,0,1,.14.38.29.29,0,0,1-.38.14.29.29,0,1,1,.24-.52Z" transform="translate(35.52 22.22)"/><path class="cls-4" d="M58.46,206.75a.58.58,0,1,1-.77.28A.59.59,0,0,1,58.46,206.75Z" transform="translate(35.52 22.22)"/><path class="cls-4" d="M79.73,209.24a1.22,1.22,0,1,1-1.62.59A1.21,1.21,0,0,1,79.73,209.24Z" transform="translate(35.52 22.22)"/><path class="cls-4" d="M82.64,203.7a.29.29,0,0,1,.14.38.3.3,0,0,1-.39.14.28.28,0,0,1-.13-.38A.27.27,0,0,1,82.64,203.7Z" transform="translate(35.52 22.22)"/><path class="cls-4" d="M85.06,209.6a.27.27,0,0,1,.14.38.28.28,0,0,1-.38.14.29.29,0,0,1-.14-.38A.28.28,0,0,1,85.06,209.6Z" transform="translate(35.52 22.22)"/><path class="cls-4" d="M77.54,203.67a.58.58,0,0,1,.27.77.57.57,0,0,1-1-.49A.58.58,0,0,1,77.54,203.67Z" transform="translate(35.52 22.22)"/><path class="cls-4" d="M937,214.51a.57.57,0,0,1-.58.57.56.56,0,0,1-.57-.57.57.57,0,0,1,.57-.58A.58.58,0,0,1,937,214.51Z" transform="translate(35.52 22.22)"/><path class="cls-3" d="M900.82,204.29a1.72,1.72,0,1,1-.21-2.43A1.72,1.72,0,0,1,900.82,204.29Z" transform="translate(35.52 22.22)"/><path class="cls-4" d="M913.48,224.2a1.22,1.22,0,1,1-.15-1.72A1.22,1.22,0,0,1,913.48,224.2Z" transform="translate(35.52 22.22)"/><path class="cls-4" d="M906.79,200.43a.58.58,0,0,1-.81.07.57.57,0,1,1,.74-.88A.58.58,0,0,1,906.79,200.43Z" transform="translate(35.52 22.22)"/><path class="cls-4" d="M931,207.79a.3.3,0,0,1,.31.26.29.29,0,1,1-.31-.26Z" transform="translate(35.52 22.22)"/><path class="cls-4" d="M927,195.66a.58.58,0,1,1-.52.62A.57.57,0,0,1,927,195.66Z" transform="translate(35.52 22.22)"/><path class="cls-4" d="M883.7,196.78a.27.27,0,0,1-.37.1.28.28,0,0,1-.11-.38.28.28,0,0,1,.48.28Z" transform="translate(35.52 22.22)"/><path class="cls-3" d="M870.32,227.33a1.72,1.72,0,1,1-.63-2.36A1.73,1.73,0,0,1,870.32,227.33Z" transform="translate(35.52 22.22)"/><path class="cls-4" d="M884.05,200.09a1.73,1.73,0,1,1-.63-2.36A1.73,1.73,0,0,1,884.05,200.09Z" transform="translate(35.52 22.22)"/><path class="cls-4" d="M853.29,217.5a1.22,1.22,0,0,1-1.67.45,1.22,1.22,0,1,1,1.22-2.11A1.2,1.2,0,0,1,853.29,217.5Z" transform="translate(35.52 22.22)"/><path class="cls-4" d="M899,236.84a.9.9,0,1,1-.33-1.23A.9.9,0,0,1,899,236.84Z" transform="translate(35.52 22.22)"/><path class="cls-4" d="M890.67,264.52a.28.28,0,1,1-.49-.29.28.28,0,1,1,.49.29Z" transform="translate(35.52 22.22)"/><path class="cls-4" d="M836.16,228.38a.29.29,0,0,1-.39.1.29.29,0,1,1,.28-.5A.29.29,0,0,1,836.16,228.38Z" transform="translate(35.52 22.22)"/><path class="cls-4" d="M885.25,259.39a.29.29,0,1,1-.11-.39A.29.29,0,0,1,885.25,259.39Z" transform="translate(35.52 22.22)"/><path class="cls-4" d="M897.08,273.64a.29.29,0,0,1-.39.1.28.28,0,0,1-.1-.39.28.28,0,0,1,.39-.11A.29.29,0,0,1,897.08,273.64Z" transform="translate(35.52 22.22)"/><path class="cls-4" d="M831.12,236.54a.29.29,0,0,1-.5-.29.29.29,0,0,1,.5.29Z" transform="translate(35.52 22.22)"/><path class="cls-4" d="M846,204.23a.58.58,0,1,1-.21-.79A.58.58,0,0,1,846,204.23Z" transform="translate(35.52 22.22)"/><path class="cls-4" d="M843.69,202.26a.59.59,0,0,1-.79.21.58.58,0,0,1,.57-1A.59.59,0,0,1,843.69,202.26Z" transform="translate(35.52 22.22)"/><path class="cls-4" d="M845.55,226.75a1.21,1.21,0,0,1,1.49.86,1.22,1.22,0,1,1-2.35.63A1.21,1.21,0,0,1,845.55,226.75Z" transform="translate(35.52 22.22)"/><path class="cls-4" d="M853.88,195.68a.55.55,0,0,1-.71-.33.57.57,0,0,1,.33-.71.56.56,0,0,1,.71.33A.54.54,0,0,1,853.88,195.68Z" transform="translate(35.52 22.22)"/><path class="cls-4" d="M834.93,209.67a1.22,1.22,0,1,1-.83-2.29,1.22,1.22,0,1,1,.83,2.29Z" transform="translate(35.52 22.22)"/><path class="cls-4" d="M843.86,202.23a1.22,1.22,0,1,1-1.62.59A1.22,1.22,0,0,1,843.86,202.23Z" transform="translate(35.52 22.22)"/><path class="cls-4" d="M846.77,196.69a.3.3,0,0,1,.14.38.29.29,0,0,1-.39.14.3.3,0,0,1-.14-.38A.29.29,0,0,1,846.77,196.69Z" transform="translate(35.52 22.22)"/><path class="cls-4" d="M849.19,202.59a.29.29,0,1,1-.38.14A.28.28,0,0,1,849.19,202.59Z" transform="translate(35.52 22.22)"/><path class="cls-4" d="M841.66,196.66a.58.58,0,1,1-.76.28A.58.58,0,0,1,841.66,196.66Z" transform="translate(35.52 22.22)"/><path class="cls-4" d="M10.75,218.61a.58.58,0,0,1,.28.77.57.57,0,0,1-.76.28.59.59,0,0,1-.28-.77A.57.57,0,0,1,10.75,218.61Z" transform="translate(35.52 22.22)"/><path class="cls-4" d="M451.52,197.23a.58.58,0,0,1,.81,0,.59.59,0,0,1,0,.82.58.58,0,0,1-.81,0A.57.57,0,0,1,451.52,197.23Z" transform="translate(35.52 22.22)"/><path class="cls-4" d="M562.26,210.5a.58.58,0,1,1,0,.82A.59.59,0,0,1,562.26,210.5Z" transform="translate(35.52 22.22)"/><path class="cls-4" d="M570.38,236.47a.58.58,0,1,1,0,.82A.59.59,0,0,1,570.38,236.47Z" transform="translate(35.52 22.22)"/><circle class="cls-7" cx="575.18" cy="214.81" r="0.58"/><path class="cls-5" d="M666.86,148.61a1.73,1.73,0,1,1-1.72-1.72A1.72,1.72,0,0,1,666.86,148.61Z" transform="translate(35.52 22.22)"/><path class="cls-5" d="M665.14,116a1.73,1.73,0,1,1-1.73-1.72A1.73,1.73,0,0,1,665.14,116Z" transform="translate(35.52 22.22)"/><path class="cls-5" d="M689.36,155.71a1.22,1.22,0,1,1-1.22-1.22A1.22,1.22,0,0,1,689.36,155.71Z" transform="translate(35.52 22.22)"/><path class="cls-4" d="M639.73,137.41a1.22,1.22,0,1,1-1.22-1.22A1.22,1.22,0,0,1,639.73,137.41Z" transform="translate(35.52 22.22)"/><path class="cls-4" d="M700.05,68.05a1.22,1.22,0,0,1-2.44,0,1.22,1.22,0,0,1,2.44,0Z" transform="translate(35.52 22.22)"/><path class="cls-5" d="M701,119.82a1.22,1.22,0,1,1-2.44,0,1.22,1.22,0,0,1,2.44,0Z" transform="translate(35.52 22.22)"/><path class="cls-4" d="M630.51,123.09a.9.9,0,1,1-.9-.9A.89.89,0,0,1,630.51,123.09Z" transform="translate(35.52 22.22)"/><path class="cls-5" d="M668.94,141.82a.56.56,0,0,1-.57.57.57.57,0,0,1-.58-.57.58.58,0,0,1,.58-.58A.57.57,0,0,1,668.94,141.82Z" transform="translate(35.52 22.22)"/><path class="cls-4" d="M635.89,136.84a.58.58,0,0,1-.58.57.58.58,0,0,1,0-1.15A.58.58,0,0,1,635.89,136.84Z" transform="translate(35.52 22.22)"/><path class="cls-5" d="M636.46,150.34a.57.57,0,0,1-.57.58.58.58,0,0,1-.58-.58.57.57,0,0,1,.58-.57A.56.56,0,0,1,636.46,150.34Z" transform="translate(35.52 22.22)"/><path class="cls-4" d="M643.84,146.89a.58.58,0,0,1-1.15,0,.58.58,0,1,1,1.15,0Z" transform="translate(35.52 22.22)"/><path class="cls-4" d="M628.46,149.42a.57.57,0,0,1-.57.57.58.58,0,1,1,0-1.15A.57.57,0,0,1,628.46,149.42Z" transform="translate(35.52 22.22)"/><path class="cls-5" d="M674.05,104.67a.58.58,0,0,1-1.15,0,.58.58,0,1,1,1.15,0Z" transform="translate(35.52 22.22)"/><path class="cls-5" d="M646,137.7a.29.29,0,1,1-.29-.29A.29.29,0,0,1,646,137.7Z" transform="translate(35.52 22.22)"/><path class="cls-4" d="M641.66,142.39a.29.29,0,1,1-.29-.28A.29.29,0,0,1,641.66,142.39Z" transform="translate(35.52 22.22)"/><path class="cls-4" d="M643.84,133.06a.58.58,0,1,1-.57-.57A.58.58,0,0,1,643.84,133.06Z" transform="translate(35.52 22.22)"/><path class="cls-4" d="M628.46,63.68a.57.57,0,0,1-.57.58.58.58,0,0,1-.58-.58.57.57,0,0,1,.58-.57A.56.56,0,0,1,628.46,63.68Z" transform="translate(35.52 22.22)"/><path class="cls-4" d="M639.09,101.92a.58.58,0,1,1-.58-.57A.58.58,0,0,1,639.09,101.92Z" transform="translate(35.52 22.22)"/><path class="cls-4" d="M771.54,55.41a1.73,1.73,0,1,1,0,2.45A1.73,1.73,0,0,1,771.54,55.41Z" transform="translate(35.52 22.22)"/><path class="cls-4" d="M699.76,60.16a1.71,1.71,0,0,1,2.44,0,1.73,1.73,0,0,1-2.44,2.44A1.71,1.71,0,0,1,699.76,60.16Z" transform="translate(35.52 22.22)"/><path class="cls-3" d="M749.67,79.73a1.73,1.73,0,0,1,2.44,2.44,1.73,1.73,0,0,1-2.44-2.44Z" transform="translate(35.52 22.22)"/><path class="cls-4" d="M760.65,34.49a1.22,1.22,0,0,1,1.73,0,1.22,1.22,0,1,1-1.73,1.73A1.22,1.22,0,0,1,760.65,34.49Z" transform="translate(35.52 22.22)"/><circle class="cls-7" cx="819.19" cy="105.6" r="1.22"/><path class="cls-4" d="M727.06,51.65a1.22,1.22,0,0,1,1.72,1.73,1.22,1.22,0,0,1-1.72-1.73Z" transform="translate(35.52 22.22)"/><path class="cls-4" d="M779.2,99.17a.89.89,0,0,1,1.26,0,.9.9,0,0,1,0,1.27.89.89,0,1,1-1.26-1.27Z" transform="translate(35.52 22.22)"/><circle class="cls-7" cx="801.2" cy="81.37" r="0.58"/><circle class="cls-7" cx="821.05" cy="108.27" r="0.58"/><circle class="cls-7" cx="830.19" cy="98.31" r="0.58"/><circle class="cls-7" cx="822.53" cy="95.54" r="0.58"/><circle class="cls-7" cx="771.32" cy="104.03" r="0.58"/><path class="cls-4" d="M778.59,77.9a.29.29,0,1,1,0,.41A.3.3,0,0,1,778.59,77.9Z" transform="translate(35.52 22.22)"/><path class="cls-4" d="M801.06,106.11a.28.28,0,0,1,.41,0,.28.28,0,0,1,0,.4.28.28,0,0,1-.41,0A.28.28,0,0,1,801.06,106.11Z" transform="translate(35.52 22.22)"/><circle class="cls-7" cx="740.1" cy="52.15" r="0.29"/><circle class="cls-7" cx="820.69" cy="100.05" r="0.29"/><path class="cls-4" d="M776.83,82.69a.56.56,0,0,1,.81,0,.58.58,0,0,1,0,.81.57.57,0,0,1-.81-.81Z" transform="translate(35.52 22.22)"/><path class="cls-4" d="M795.1,101.78a.57.57,0,0,1,.81.81.57.57,0,0,1-.81-.81Z" transform="translate(35.52 22.22)"/><path class="cls-4" d="M680.79,30.1a.59.59,0,0,1,.82,0,.58.58,0,0,1,0,.81.57.57,0,0,1-.82,0A.58.58,0,0,1,680.79,30.1Z" transform="translate(35.52 22.22)"/><path class="cls-4" d="M781.18,126.39a.57.57,0,0,1,.82,0,.58.58,0,0,1,0,.81.57.57,0,0,1-.82,0A.58.58,0,0,1,781.18,126.39Z" transform="translate(35.52 22.22)"/><circle class="cls-7" cx="794.1" cy="130.69" r="0.58"/><path class="cls-4" d="M840,86.89a1.73,1.73,0,0,1,2.44,2.44A1.73,1.73,0,0,1,840,86.89Z" transform="translate(35.52 22.22)"/><path class="cls-3" d="M924.26,52.05a1.73,1.73,0,1,1,2.45,2.44,1.73,1.73,0,0,1-2.45-2.44Z" transform="translate(35.52 22.22)"/><path class="cls-4" d="M875,61.88a1.73,1.73,0,1,1,0,2.45A1.73,1.73,0,0,1,875,61.88Z" transform="translate(35.52 22.22)"/><path class="cls-4" d="M818.15,111.21a1.73,1.73,0,0,1,2.44,2.44,1.73,1.73,0,1,1-2.44-2.44Z" transform="translate(35.52 22.22)"/><path class="cls-4" d="M823.5,129.16A1.73,1.73,0,0,1,826,131.6a1.73,1.73,0,0,1-2.45-2.44Z" transform="translate(35.52 22.22)"/><circle class="cls-7" cx="865.52" cy="89.05" r="1.22"/><circle class="cls-7" cx="933.53" cy="57.37" r="1.22"/><path class="cls-4" d="M887.37,43.79a1.22,1.22,0,1,1,0,1.72A1.22,1.22,0,0,1,887.37,43.79Z" transform="translate(35.52 22.22)"/><circle class="cls-7" cx="887.68" cy="137.08" r="1.22"/><circle class="cls-7" cx="831.93" cy="106.21" r="1.22"/><path class="cls-4" d="M847.68,130.65a.9.9,0,0,1,1.27,0,.89.89,0,1,1-1.27,0Z" transform="translate(35.52 22.22)"/><path class="cls-4" d="M854.86,148.21a.9.9,0,0,1,1.27,0,.89.89,0,0,1,0,1.26.9.9,0,0,1-1.27,0A.89.89,0,0,1,854.86,148.21Z" transform="translate(35.52 22.22)"/><path class="cls-4" d="M820.47,125.28a.89.89,0,0,1,1.26,0,.9.9,0,0,1,0,1.27.89.89,0,0,1-1.26-1.27Z" transform="translate(35.52 22.22)"/><circle class="cls-7" cx="804.56" cy="181.06" r="0.9"/><path class="cls-4" d="M833.75,90.22a.58.58,0,1,1,0,.82A.59.59,0,0,1,833.75,90.22Z" transform="translate(35.52 22.22)"/><path class="cls-4" d="M853.6,117.12a.58.58,0,1,1,0,.82A.59.59,0,0,1,853.6,117.12Z" transform="translate(35.52 22.22)"/><path class="cls-4" d="M824.84,124.58a.56.56,0,0,1,.81,0,.58.58,0,0,1,0,.81.57.57,0,0,1-.81-.81Z" transform="translate(35.52 22.22)"/><path class="cls-4" d="M889.05,112a.58.58,0,0,1,.81,0,.57.57,0,1,1-.81,0Z" transform="translate(35.52 22.22)"/><path class="cls-4" d="M906.55,107.74a.58.58,0,1,1,0,.82A.59.59,0,0,1,906.55,107.74Z" transform="translate(35.52 22.22)"/><path class="cls-4" d="M862.74,107.17a.57.57,0,0,1,.82,0,.58.58,0,0,1,0,.81.59.59,0,0,1-.82,0A.58.58,0,0,1,862.74,107.17Z" transform="translate(35.52 22.22)"/><circle class="cls-7" cx="776" cy="87.65" r="0.58"/><path class="cls-4" d="M938.52,35.9a.58.58,0,0,1,.81,0,.57.57,0,0,1,0,.82.58.58,0,0,1-.81,0A.57.57,0,0,1,938.52,35.9Z" transform="translate(35.52 22.22)"/><path class="cls-4" d="M855.08,104.39a.59.59,0,0,1,.82,0,.58.58,0,0,1,0,.81.57.57,0,0,1-.82,0A.58.58,0,0,1,855.08,104.39Z" transform="translate(35.52 22.22)"/><path class="cls-4" d="M803.87,112.88a.58.58,0,1,1,0,.82A.59.59,0,0,1,803.87,112.88Z" transform="translate(35.52 22.22)"/><circle class="cls-7" cx="709" cy="83.59" r="0.58"/><circle class="cls-7" cx="882.8" cy="131.8" r="0.29"/><path class="cls-4" d="M801.63,118.71a.29.29,0,1,1,0,.41A.3.3,0,0,1,801.63,118.71Z" transform="translate(35.52 22.22)"/><path class="cls-4" d="M809.53,113.44a.28.28,0,0,1,.4,0,.3.3,0,0,1,0,.41.28.28,0,0,1-.4,0A.28.28,0,0,1,809.53,113.44Z" transform="translate(35.52 22.22)"/><path class="cls-4" d="M757.51,62.58a.28.28,0,0,1,.4,0,.28.28,0,0,1,0,.41.28.28,0,0,1-.4,0A.28.28,0,0,1,757.51,62.58Z" transform="translate(35.52 22.22)"/><circle class="cls-7" cx="905.27" cy="160" r="0.29"/><circle class="cls-7" cx="905.56" cy="180.2" r="0.29"/><path class="cls-5" d="M692.18,131.91a.28.28,0,0,1,.41,0,.28.28,0,0,1,0,.4.28.28,0,0,1-.41,0A.28.28,0,0,1,692.18,131.91Z" transform="translate(35.52 22.22)"/><circle class="cls-7" cx="894.58" cy="180.49" r="0.29"/><circle class="cls-7" cx="894.29" cy="176.7" r="0.29"/><path class="cls-4" d="M822.79,128.2a.29.29,0,1,1,0,.41A.3.3,0,0,1,822.79,128.2Z" transform="translate(35.52 22.22)"/><circle class="cls-7" cx="889.18" cy="131.53" r="0.29"/><path class="cls-4" d="M820.9,123.92a.28.28,0,1,1,0,.4A.27.27,0,0,1,820.9,123.92Z" transform="translate(35.52 22.22)"/><path class="cls-4" d="M845.31,114.16a.58.58,0,0,1,.81,0,.57.57,0,0,1,0,.82.58.58,0,0,1-.81,0A.59.59,0,0,1,845.31,114.16Z" transform="translate(35.52 22.22)"/><circle class="cls-7" cx="846.11" cy="146.05" r="0.58"/><path class="cls-4" d="M817.81,124a.58.58,0,1,1,0,.82A.59.59,0,0,1,817.81,124Z" transform="translate(35.52 22.22)"/><path class="cls-4" d="M686.51,76.27a.57.57,0,0,1,.82,0,.58.58,0,0,1,0,.81.59.59,0,0,1-.82,0A.58.58,0,0,1,686.51,76.27Z" transform="translate(35.52 22.22)"/><path class="cls-4" d="M696.11,57.12a1.22,1.22,0,1,1,1.73,1.73,1.22,1.22,0,0,1-1.73-1.73Z" transform="translate(35.52 22.22)"/><path class="cls-4" d="M707.56,50.29a.57.57,0,0,1,.82,0,.58.58,0,0,1,0,.81.59.59,0,0,1-.82,0A.58.58,0,0,1,707.56,50.29Z" transform="translate(35.52 22.22)"/><path class="cls-4" d="M699.9,47.51a.57.57,0,0,1,.82,0,.58.58,0,0,1,0,.81.57.57,0,0,1-.82,0A.58.58,0,0,1,699.9,47.51Z" transform="translate(35.52 22.22)"/><circle class="cls-7" cx="727.62" cy="74.92" r="0.29"/><path class="cls-4" d="M698.27,52.23a.29.29,0,1,1,0,.41A.3.3,0,0,1,698.27,52.23Z" transform="translate(35.52 22.22)"/><path class="cls-4" d="M690.13,57.28a.58.58,0,0,1,.81,0,.57.57,0,0,1,0,.82.58.58,0,0,1-.81,0A.57.57,0,0,1,690.13,57.28Z" transform="translate(35.52 22.22)"/><path class="cls-3" d="M569.75,65.87a1.22,1.22,0,1,1-1.22-1.22A1.22,1.22,0,0,1,569.75,65.87Z" transform="translate(35.52 22.22)"/><path class="cls-4" d="M569.45,58a1.73,1.73,0,0,1,2.44,0,1.73,1.73,0,1,1-2.44,2.44A1.73,1.73,0,0,1,569.45,58Z" transform="translate(35.52 22.22)"/><path class="cls-4" d="M596.75,49.47a1.22,1.22,0,1,1,1.73,1.73,1.22,1.22,0,0,1-1.73-1.73Z" transform="translate(35.52 22.22)"/><circle class="cls-7" cx="609.8" cy="49.97" r="0.29"/><path class="cls-4" d="M550.49,27.92a.58.58,0,0,1,.81,0,.59.59,0,0,1,0,.82.58.58,0,0,1-.81,0A.57.57,0,0,1,550.49,27.92Z" transform="translate(35.52 22.22)"/><path class="cls-4" d="M542.76,58.79a.58.58,0,1,1,0,.82A.59.59,0,0,1,542.76,58.79Z" transform="translate(35.52 22.22)"/><path class="cls-4" d="M556.21,74.09a.57.57,0,1,1,0,.81A.56.56,0,0,1,556.21,74.09Z" transform="translate(35.52 22.22)"/><path class="cls-4" d="M565.81,54.94a1.22,1.22,0,0,1,1.72,1.73,1.22,1.22,0,0,1-1.72-1.73Z" transform="translate(35.52 22.22)"/><circle class="cls-7" cx="613.19" cy="70.73" r="0.58"/><circle class="cls-7" cx="605.53" cy="67.95" r="0.58"/><path class="cls-4" d="M561.59,50.32a.3.3,0,0,1,.41,0,.28.28,0,0,1,0,.4.28.28,0,0,1-.41,0A.28.28,0,0,1,561.59,50.32Z" transform="translate(35.52 22.22)"/><circle class="cls-7" cx="603.69" cy="72.47" r="0.29"/><path class="cls-4" d="M559.82,55.1a.58.58,0,1,1,0,.82A.59.59,0,0,1,559.82,55.1Z" transform="translate(35.52 22.22)"/><path class="cls-4" d="M863.58,133.25a.58.58,0,1,1,0,.82A.59.59,0,0,1,863.58,133.25Z" transform="translate(35.52 22.22)"/><path class="cls-4" d="M931.87,80.83a.58.58,0,1,1,0,.82A.59.59,0,0,1,931.87,80.83Z" transform="translate(35.52 22.22)"/><path class="cls-4" d="M917.48,133.83a.57.57,0,1,1,0,.81A.58.58,0,0,1,917.48,133.83Z" transform="translate(35.52 22.22)"/><path class="cls-4" d="M839.11,153.79a.59.59,0,0,1,.82,0,.58.58,0,0,1,0,.81.57.57,0,0,1-.82,0A.58.58,0,0,1,839.11,153.79Z" transform="translate(35.52 22.22)"/><path class="cls-4" d="M939.83,75.69a.59.59,0,0,1,.82,0,.58.58,0,0,1,0,.81.57.57,0,0,1-.82,0A.58.58,0,0,1,939.83,75.69Z" transform="translate(35.52 22.22)"/><circle class="cls-7" cx="763.01" cy="148.42" r="1.22"/><path class="cls-4" d="M728.28,88.14A1.22,1.22,0,1,1,730,89.87a1.22,1.22,0,0,1-1.72-1.73Z" transform="translate(35.52 22.22)"/><path class="cls-4" d="M723,142a.9.9,0,1,1,0,1.27A.9.9,0,0,1,723,142Z" transform="translate(35.52 22.22)"/><circle class="cls-7" cx="764.87" cy="151.09" r="0.58"/><path class="cls-4" d="M738.08,118.51a.57.57,0,1,1,0,.81A.56.56,0,0,1,738.08,118.51Z" transform="translate(35.52 22.22)"/><path class="cls-4" d="M748.75,84.2a.59.59,0,0,1,.82,0,.58.58,0,0,1,0,.81.57.57,0,0,1-.82,0A.58.58,0,0,1,748.75,84.2Z" transform="translate(35.52 22.22)"/><path class="cls-4" d="M730.42,115.73a.58.58,0,0,1,.81,0,.57.57,0,0,1,0,.82.58.58,0,0,1-.81,0A.57.57,0,0,1,730.42,115.73Z" transform="translate(35.52 22.22)"/><circle class="cls-7" cx="758.14" cy="143.14" r="0.29"/><path class="cls-5" d="M711.4,144.4a.29.29,0,1,1,0,.41A.3.3,0,0,1,711.4,144.4Z" transform="translate(35.52 22.22)"/><path class="cls-4" d="M744.88,148.92a.28.28,0,0,1,.4,0,.28.28,0,0,1,0,.41.28.28,0,0,1-.4,0A.3.3,0,0,1,744.88,148.92Z" transform="translate(35.52 22.22)"/><path class="cls-4" d="M728.79,120.45a.28.28,0,0,1,.4,0,.28.28,0,0,1,0,.41.28.28,0,0,1-.4,0A.28.28,0,0,1,728.79,120.45Z" transform="translate(35.52 22.22)"/><circle class="cls-7" cx="756.57" cy="148.13" r="0.58"/><circle class="cls-6" cx="717.3" cy="147.77" r="0.58"/><path class="cls-4" d="M738.92,144.59a.58.58,0,0,1,.81,0,.57.57,0,0,1,0,.82.58.58,0,0,1-.81,0A.57.57,0,0,1,738.92,144.59Z" transform="translate(35.52 22.22)"/><circle class="cls-7" cx="885.6" cy="180.49" r="0.58"/><path class="cls-4" d="M857.79,183.83a.58.58,0,0,1,.81,0,.57.57,0,0,1,0,.82.58.58,0,0,1-.81,0A.57.57,0,0,1,857.79,183.83Z" transform="translate(35.52 22.22)"/><path class="cls-4" d="M826.65,139.55a.57.57,0,0,1,.82,0,.58.58,0,0,1,0,.81.59.59,0,0,1-.82,0A.58.58,0,0,1,826.65,139.55Z" transform="translate(35.52 22.22)"/><path class="cls-4" d="M944.73,134.6a1,1,0,1,1,0,1.38A1,1,0,0,1,944.73,134.6Z" transform="translate(35.52 22.22)"/><path class="cls-4" d="M916.92,140.15a1,1,0,1,1,0,1.38A1,1,0,0,1,916.92,140.15Z" transform="translate(35.52 22.22)"/><path class="cls-4" d="M929.42,124.58a.69.69,0,0,1,1,0,.68.68,0,0,1,0,1,.69.69,0,0,1-1,0A.68.68,0,0,1,929.42,124.58Z" transform="translate(35.52 22.22)"/><path class="cls-4" d="M923.9,129.94a.69.69,0,0,1,1,0,.68.68,0,0,1,0,1,.69.69,0,0,1-1,0A.68.68,0,0,1,923.9,129.94Z" transform="translate(35.52 22.22)"/><path class="cls-4" d="M905.55,188.89a.5.5,0,1,1,0,.71A.5.5,0,0,1,905.55,188.89Z" transform="translate(35.52 22.22)"/><path class="cls-4" d="M904.84,171.34a.33.33,0,0,1,.46.46.34.34,0,0,1-.46,0A.32.32,0,0,1,904.84,171.34Z" transform="translate(35.52 22.22)"/><path class="cls-4" d="M924.85,168.46a.33.33,0,0,1,.46.46.34.34,0,0,1-.46,0A.32.32,0,0,1,924.85,168.46Z" transform="translate(35.52 22.22)"/><path class="cls-4" d="M934.73,166a.34.34,0,0,1,.46,0,.33.33,0,0,1-.46.46A.34.34,0,0,1,934.73,166Z" transform="translate(35.52 22.22)"/><path class="cls-4" d="M910,165.72a.33.33,0,1,1,.46.46.34.34,0,0,1-.46,0A.32.32,0,0,1,910,165.72Z" transform="translate(35.52 22.22)"/><path class="cls-4" d="M952.78,125.48a.34.34,0,0,1,.46,0,.33.33,0,1,1-.46,0Z" transform="translate(35.52 22.22)"/><path class="cls-4" d="M905.68,164.15a.32.32,0,0,1,.46,0,.34.34,0,0,1,0,.46.33.33,0,0,1-.46-.46Z" transform="translate(35.52 22.22)"/><circle class="cls-7" cx="949.48" cy="205.22" r="0.16"/><circle class="cls-7" cx="949.64" cy="216.62" r="0.16"/><path class="cls-4" d="M907.8,194.46a.15.15,0,0,1,.23,0,.14.14,0,0,1,0,.22.15.15,0,0,1-.23,0A.16.16,0,0,1,907.8,194.46Z" transform="translate(35.52 22.22)"/><path class="cls-4" d="M907.64,192.32a.16.16,0,0,1,.23.23.16.16,0,0,1-.23-.23Z" transform="translate(35.52 22.22)"/><path class="cls-4" d="M904.75,166.82a.16.16,0,0,1,.23.23.16.16,0,0,1-.23-.23Z" transform="translate(35.52 22.22)"/><path class="cls-4" d="M910.48,180.44a.33.33,0,0,1,.45,0,.32.32,0,0,1,0,.46.31.31,0,0,1-.45,0A.32.32,0,0,1,910.48,180.44Z" transform="translate(35.52 22.22)"/><path class="cls-4" d="M949,150.85a.32.32,0,0,1,.46,0,.34.34,0,0,1,0,.46.33.33,0,0,1-.46-.46Z" transform="translate(35.52 22.22)"/><path class="cls-4" d="M940.9,180.77a.33.33,0,1,1,0,.46A.34.34,0,0,1,940.9,180.77Z" transform="translate(35.52 22.22)"/><path class="cls-4" d="M953.52,148a.33.33,0,0,1,.46.46.33.33,0,1,1-.46-.46Z" transform="translate(35.52 22.22)"/><path class="cls-4" d="M907.2,209a.33.33,0,1,1,0,.46A.34.34,0,0,1,907.2,209Z" transform="translate(35.52 22.22)"/><path class="cls-4" d="M927.94,101.14a1.71,1.71,0,0,1,2.44,0,1.73,1.73,0,0,1,0,2.44,1.73,1.73,0,0,1-2.44-2.44Z" transform="translate(35.52 22.22)"/><path class="cls-3" d="M1012.18,66.3a1.73,1.73,0,0,1,2.44,2.44,1.73,1.73,0,0,1-2.44-2.44Z" transform="translate(35.52 22.22)"/><path class="cls-3" d="M962.92,76.13a1.73,1.73,0,0,1,2.44,2.44,1.73,1.73,0,0,1-2.44-2.44Z" transform="translate(35.52 22.22)"/><circle class="cls-7" cx="942.81" cy="148.89" r="1.73"/><path class="cls-4" d="M911.41,143.41a1.73,1.73,0,0,1,2.45,2.44,1.73,1.73,0,0,1-2.45-2.44Z" transform="translate(35.52 22.22)"/><circle class="cls-7" cx="953.43" cy="103.29" r="1.22"/><path class="cls-4" d="M985.06,48.54a1.22,1.22,0,0,1,1.72,1.73,1.22,1.22,0,0,1-1.72-1.73Z" transform="translate(35.52 22.22)"/><circle class="cls-7" cx="1011.67" cy="81.11" r="1.22"/><path class="cls-4" d="M939.2,128.25a1.22,1.22,0,1,1,0,1.72A1.22,1.22,0,0,1,939.2,128.25Z" transform="translate(35.52 22.22)"/><path class="cls-4" d="M935.59,144.89a.9.9,0,1,1,0,1.27A.9.9,0,0,1,935.59,144.89Z" transform="translate(35.52 22.22)"/><path class="cls-4" d="M942.77,162.45a.9.9,0,1,1,0,1.27A.9.9,0,0,1,942.77,162.45Z" transform="translate(35.52 22.22)"/><path class="cls-4" d="M908.38,139.53a.89.89,0,1,1,0,1.27A.9.9,0,0,1,908.38,139.53Z" transform="translate(35.52 22.22)"/><path class="cls-4" d="M921.66,104.47a.58.58,0,1,1,0,.82A.59.59,0,0,1,921.66,104.47Z" transform="translate(35.52 22.22)"/><path class="cls-4" d="M941.51,131.37a.59.59,0,0,1,.82,0,.58.58,0,0,1,0,.81.57.57,0,0,1-.82,0A.58.58,0,0,1,941.51,131.37Z" transform="translate(35.52 22.22)"/><path class="cls-4" d="M912.75,138.83a.57.57,0,0,1,.81.81.58.58,0,0,1-.81,0A.56.56,0,0,1,912.75,138.83Z" transform="translate(35.52 22.22)"/><circle class="cls-7" cx="1012.89" cy="148.89" r="0.58"/><path class="cls-4" d="M994.46,122a.59.59,0,0,1,.82,0,.58.58,0,0,1,0,.81.57.57,0,0,1-.82,0A.58.58,0,0,1,994.46,122Z" transform="translate(35.52 22.22)"/><path class="cls-4" d="M950.66,121.41a.58.58,0,0,1,.81,0,.59.59,0,0,1,0,.82.58.58,0,0,1-.81,0A.57.57,0,0,1,950.66,121.41Z" transform="translate(35.52 22.22)"/><circle class="cls-7" cx="1062.36" cy="72.77" r="0.58"/><circle class="cls-7" cx="978.92" cy="141.26" r="0.58"/><circle class="cls-7" cx="970.71" cy="146.04" r="0.29"/><circle class="cls-7" cx="993.18" cy="174.25" r="0.29"/><path class="cls-4" d="M957.74,172a.29.29,0,1,1,0,.41A.3.3,0,0,1,957.74,172Z" transform="translate(35.52 22.22)"/><path class="cls-4" d="M946.77,172.32a.28.28,0,0,1,.4,0,.28.28,0,1,1-.4,0Z" transform="translate(35.52 22.22)"/><circle class="cls-7" cx="982.2" cy="190.95" r="0.29"/><circle class="cls-7" cx="946.43" cy="164.87" r="0.29"/><path class="cls-4" d="M941.36,123.36a.29.29,0,1,1,0,.41A.3.3,0,0,1,941.36,123.36Z" transform="translate(35.52 22.22)"/><path class="cls-4" d="M908.81,138.17a.28.28,0,1,1,0,.4A.27.27,0,0,1,908.81,138.17Z" transform="translate(35.52 22.22)"/><circle class="cls-7" cx="969.15" cy="151.03" r="0.58"/><path class="cls-4" d="M905.73,138.25a.57.57,0,0,1,.81.81.57.57,0,0,1-.81-.81Z" transform="translate(35.52 22.22)"/><path class="cls-4" d="M951.5,147.5a.57.57,0,0,1,.81.81.57.57,0,0,1-.81-.81Z" transform="translate(35.52 22.22)"/><circle class="cls-7" cx="1055.71" cy="117.7" r="0.58"/><circle class="cls-7" cx="1041.32" cy="170.7" r="0.58"/><circle class="cls-7" cx="962.95" cy="190.66" r="0.58"/><path class="cls-4" d="M1027.75,89.94a.56.56,0,0,1,.81,0,.58.58,0,0,1,0,.81.57.57,0,0,1-.81-.81Z" transform="translate(35.52 22.22)"/><circle class="cls-7" cx="973.51" cy="194.74" r="0.58"/><path class="cls-4" d="M945.7,198.08a.58.58,0,0,1,.81,0,.57.57,0,0,1,0,.82.58.58,0,0,1-.81,0A.57.57,0,0,1,945.7,198.08Z" transform="translate(35.52 22.22)"/><circle class="cls-7" cx="950.49" cy="176.42" r="0.58"/></g></svg>