<svg xmlns="http://www.w3.org/2000/svg" xmlns:xlink="http://www.w3.org/1999/xlink" viewBox="0 0 7002.2 1616.46"><defs><style>.cls-1{fill:none;}.cls-2{isolation:isolate;}.cls-3{clip-path:url(#clip-path);}.cls-10,.cls-11,.cls-12,.cls-13,.cls-14,.cls-15,.cls-16,.cls-17,.cls-18,.cls-19,.cls-20,.cls-21,.cls-22,.cls-23,.cls-24,.cls-25,.cls-4,.cls-5,.cls-6,.cls-7,.cls-8,.cls-9{fill-rule:evenodd;}.cls-4{fill:url(#Áåçûìÿííûé_ãðàäèåíò_153);}.cls-10,.cls-11,.cls-12,.cls-13,.cls-14,.cls-15,.cls-16,.cls-17,.cls-18,.cls-19,.cls-20,.cls-21,.cls-22,.cls-23,.cls-24,.cls-25,.cls-5,.cls-6,.cls-7,.cls-8,.cls-9{opacity:0.2;mix-blend-mode:multiply;}.cls-5{fill:url(#Áåçûìÿííûé_ãðàäèåíò_4);}.cls-6{fill:url(#Áåçûìÿííûé_ãðàäèåíò_4-2);}.cls-7{fill:url(#Áåçûìÿííûé_ãðàäèåíò_4-3);}.cls-8{fill:url(#Áåçûìÿííûé_ãðàäèåíò_4-4);}.cls-9{fill:url(#Áåçûìÿííûé_ãðàäèåíò_4-5);}.cls-10{fill:url(#Áåçûìÿííûé_ãðàäèåíò_4-6);}.cls-11{fill:url(#Áåçûìÿííûé_ãðàäèåíò_4-7);}.cls-12{fill:url(#Áåçûìÿííûé_ãðàäèåíò_4-8);}.cls-13{fill:url(#Áåçûìÿííûé_ãðàäèåíò_4-9);}.cls-14{fill:url(#Áåçûìÿííûé_ãðàäèåíò_4-10);}.cls-15{fill:url(#Áåçûìÿííûé_ãðàäèåíò_4-11);}.cls-16{fill:url(#Áåçûìÿííûé_ãðàäèåíò_4-12);}.cls-17{fill:url(#Áåçûìÿííûé_ãðàäèåíò_4-13);}.cls-18{fill:url(#Áåçûìÿííûé_ãðàäèåíò_4-14);}.cls-19{fill:url(#Áåçûìÿííûé_ãðàäèåíò_4-15);}.cls-20{fill:url(#Áåçûìÿííûé_ãðàäèåíò_4-16);}.cls-21{fill:url(#Áåçûìÿííûé_ãðàäèåíò_4-17);}.cls-22{fill:url(#Áåçûìÿííûé_ãðàäèåíò_4-18);}.cls-23{fill:url(#Áåçûìÿííûé_ãðàäèåíò_4-19);}.cls-24{fill:url(#Áåçûìÿííûé_ãðàäèåíò_4-20);}.cls-25{fill:url(#Áåçûìÿííûé_ãðàäèåíò_4-21);}</style><clipPath id="clip-path" transform="translate(2.2 -566.23)"><polygon class="cls-1" points="7000 1903 0 1903 -2 0 7000 0 7000 1903"/></clipPath><linearGradient id="Áåçûìÿííûé_ãðàäèåíò_153" x1="3501.1" y1="1616.46" x2="3501.1" gradientUnits="userSpaceOnUse"><stop offset="0" stop-color="#ff774d"/><stop offset="0.1" stop-color="#ef6656"/><stop offset="0.3" stop-color="#c73b6d"/><stop offset="0.46" stop-color="#a41581"/><stop offset="0.78" stop-color="#6c0967"/><stop offset="1" stop-color="#450054"/></linearGradient><linearGradient id="Áåçûìÿííûé_ãðàäèåíò_4" x1="4201.32" y1="1616.46" x2="4201.32" y2="38.64" gradientUnits="userSpaceOnUse"><stop offset="0" stop-color="#fff"/><stop offset="1" stop-color="#974577"/></linearGradient><linearGradient id="Áåçûìÿííûé_ãðàäèåíò_4-2" x1="6572.53" y1="1616.46" x2="6572.53" y2="688.36" xlink:href="#Áåçûìÿííûé_ãðàäèåíò_4"/><linearGradient id="Áåçûìÿííûé_ãðàäèåíò_4-3" x1="6405.24" y1="1616.46" x2="6405.24" y2="410.34" xlink:href="#Áåçûìÿííûé_ãðàäèåíò_4"/><linearGradient id="Áåçûìÿííûé_ãðàäèåíò_4-4" x1="6138.51" y1="1577.95" x2="6138.51" y2="724.84" xlink:href="#Áåçûìÿííûé_ãðàäèåíò_4"/><linearGradient id="Áåçûìÿííûé_ãðàäèåíò_4-5" x1="5788.12" y1="1055.55" x2="5788.12" y2="797.02" xlink:href="#Áåçûìÿííûé_ãðàäèåíò_4"/><linearGradient id="Áåçûìÿííûé_ãðàäèåíò_4-6" x1="5905.59" y1="1616.46" x2="5905.59" y2="1120.27" xlink:href="#Áåçûìÿííûé_ãðàäèåíò_4"/><linearGradient id="Áåçûìÿííûé_ãðàäèåíò_4-7" x1="5083.87" y1="1616.46" x2="5083.87" y2="1148.52" xlink:href="#Áåçûìÿííûé_ãðàäèåíò_4"/><linearGradient id="Áåçûìÿííûé_ãðàäèåíò_4-8" x1="4881.71" y1="1616.46" x2="4881.71" y2="1060.99" xlink:href="#Áåçûìÿííûé_ãðàäèåíò_4"/><linearGradient id="Áåçûìÿííûé_ãðàäèåíò_4-9" x1="5531.16" y1="1616.46" x2="5531.16" y2="1074.67" xlink:href="#Áåçûìÿííûé_ãðàäèåíò_4"/><linearGradient id="Áåçûìÿííûé_ãðàäèåíò_4-10" x1="3725.72" y1="1450.16" x2="3725.72" y2="697.52" xlink:href="#Áåçûìÿííûé_ãðàäèåíò_4"/><linearGradient id="Áåçûìÿííûé_ãðàäèåíò_4-11" x1="3982.65" y1="1616.46" x2="3982.65" y2="278.94" xlink:href="#Áåçûìÿííûé_ãðàäèåíò_4"/><linearGradient id="Áåçûìÿííûé_ãðàäèåíò_4-12" x1="2596.27" y1="1616.46" x2="2596.27" y2="797.96" xlink:href="#Áåçûìÿííûé_ãðàäèåíò_4"/><linearGradient id="Áåçûìÿííûé_ãðàäèåíò_4-13" x1="1789.72" y1="1616.46" x2="1789.72" y2="1301.36" xlink:href="#Áåçûìÿííûé_ãðàäèåíò_4"/><linearGradient id="Áåçûìÿííûé_ãðàäèåíò_4-14" x1="2195.55" y1="1616.46" x2="2195.55" y2="852.13" xlink:href="#Áåçûìÿííûé_ãðàäèåíò_4"/><linearGradient id="Áåçûìÿííûé_ãðàäèåíò_4-15" x1="3167.2" y1="1457.75" x2="3167.2" y2="974.61" xlink:href="#Áåçûìÿííûé_ãðàäèåíò_4"/><linearGradient id="Áåçûìÿííûé_ãðàäèåíò_4-16" x1="3436.91" y1="1450.71" x2="3436.91" y2="1132.48" xlink:href="#Áåçûìÿííûé_ãðàäèåíò_4"/><linearGradient id="Áåçûìÿííûé_ãðàäèåíò_4-17" x1="845.52" y1="1616.46" x2="845.52" y2="414.8" xlink:href="#Áåçûìÿííûé_ãðàäèåíò_4"/><linearGradient id="Áåçûìÿííûé_ãðàäèåíò_4-18" x1="717.95" y1="1162.33" x2="717.95" y2="627.35" xlink:href="#Áåçûìÿííûé_ãðàäèåíò_4"/><linearGradient id="Áåçûìÿííûé_ãðàäèåíò_4-19" x1="1141.36" y1="1616.46" x2="1141.36" y2="769.42" xlink:href="#Áåçûìÿííûé_ãðàäèåíò_4"/><linearGradient id="Áåçûìÿííûé_ãðàäèåíò_4-20" x1="1429.63" y1="1616.46" x2="1429.63" y2="671.24" xlink:href="#Áåçûìÿííûé_ãðàäèåíò_4"/><linearGradient id="Áåçûìÿííûé_ãðàäèåíò_4-21" x1="277.52" y1="875.4" x2="277.52" y2="414.8" xlink:href="#Áåçûìÿííûé_ãðàäèåíò_4"/></defs><g class="cls-2"><g id="Capa_1" data-name="Capa 1"><g class="cls-3"><polygon class="cls-4" points="1400.44 1616.46 7002.2 1616.46 7002.2 539.27 6800.89 665.09 6788.63 696.9 6763.31 715.24 6646.93 1319.43 6641.91 1371.53 6653.84 842.01 6608.32 410.33 6508.63 379.76 6237.62 1007.35 6226.27 1306.03 6105.48 724.84 5915.78 652.59 5887.47 659.03 5860.04 928.51 5844.56 950.21 5860.04 815.68 5850.92 797.02 5708.75 810.15 5467.66 1053.32 5481.55 1092.12 5297.66 1392.39 5148.88 1338.35 5157.11 1148.52 5124.33 1102.08 5115.46 973.43 5122.37 881.25 5115.46 782.03 5115.46 750.86 5091.86 806.66 5086.54 898.72 5022.91 966.02 5011.01 1071.07 4949.39 1259.35 4927.93 1264.02 4960.34 1060.99 4949.39 1044.62 4885.41 966.02 4858.91 859.69 4800.51 893.98 4724.65 1242.63 4714.72 1248.76 4623.02 1574.45 4542 1464.75 4542 1259.6 4430.05 1010.2 4386.79 885.81 4404.99 467.11 4386.79 382.56 4335.78 331.79 4306.35 121.15 4238.87 38.63 4175.91 0 4118.98 278.94 4118.98 170.65 4097.98 108.66 4068.28 126.8 3915.97 278.94 3892.56 353.26 3767.18 1127.78 3743.62 1148.52 3784.87 697.52 3725.17 544.15 3709.74 526.7 3709.74 394.1 3666.82 301.63 3645.81 300.44 3571.12 598.41 3592.13 629.04 3538.39 1083.59 3517.44 1449.58 3508.1 1450.71 3450.92 890.6 3355.45 762.1 3294.85 878.69 3104.18 993.91 2988.19 1289.11 3004.82 1306.62 2964.23 1422.74 2887.34 1434.41 2931.02 815.43 2853.44 675.58 2838.71 684.83 2713.5 414.26 2554.42 362.66 2507.23 394.1 2372.52 1127.78 2367.84 1162.96 2312.92 1170.44 2261.78 896.94 2191.07 822.86 2153.76 754.92 2128.24 691.62 2024.85 672.69 1983.38 691.62 1994.37 1244.14 1994.37 1275.69 1954.14 1544.11 1908.26 1574.45 1885.67 1352.71 1680.53 920.41 1642.86 931.88 1549.82 1144.59 1549.82 1189.56 1580.16 1244.14 1465.79 1131.94 1400.44 671.24 1337.59 678.35 1316.41 717.39 1244.06 988.31 1211.45 1001.77 1255.73 784.67 1211.45 729.95 1150.69 715.54 940.63 912.06 842.6 1249.37 819.26 1268.69 896.28 924.39 870.61 715.54 781.91 637.56 763.24 769.42 739.9 784.67 763.24 627.35 749.24 612.82 672.65 696.27 555.51 1358.19 546.17 1432.07 546.17 844.71 396.79 734.84 231.87 414.8 2.91 135.58 0 1616.46 1400.44 1616.46 1400.44 1616.46"/><polygon class="cls-5" points="7002.2 539.27 6942.68 1360.88 6883.16 1570.95 6792.13 1616.46 6792.13 1036.32 6800.89 665.09 6788.63 696.9 6772.88 1091.93 6718.61 1467.67 6638.09 1565.7 6641.91 1371.53 6652.26 827.07 6608.32 410.33 6624.08 688.36 6492.79 1056.29 6438.52 1091.93 6343.86 1091.93 6452.53 656.55 6522.55 410.33 6326.44 1013.4 6237.62 1007.35 6226.27 1306.03 6105.48 724.84 6050.75 742.23 6061.13 1068.81 6038.34 1071.98 5995.58 1490.42 5953.62 1542.94 5940.41 1091.93 5860.04 928.51 5844.56 950.21 5860.04 815.68 5850.92 797.02 5791.12 906.08 5716.19 1052.79 5467.66 1053.32 5481.55 1092.12 5648.78 1074.67 5416.2 1336.38 5297.66 1392.39 5148.88 1338.35 5157.11 1148.52 5124.33 1102.08 5116.79 992.72 5122.37 881.25 5116.79 810.92 5116.79 906.08 5099.35 1113.18 5058.88 1227.84 5044.09 1242.72 5058.88 1027.11 5048.13 1047.18 5021.89 1306.62 4965.69 1464.17 4949.39 1259.35 4927.93 1264.02 4960.34 1060.99 4924.78 1074.67 4884.03 1331.71 4808.22 1526.6 4763.51 1573.28 4836.19 1177.66 4890.45 1062.71 4949.45 1043.72 4885.41 966.02 4901.62 998.41 4857.48 1055.55 4814.89 1241.85 4751.77 1483.42 4696.59 1523.68 4688.56 1522.81 4724.65 1242.63 4714.72 1248.76 4678.97 1540.32 4653.84 1564.82 4623.02 1574.45 4542 1464.75 4542 1259.6 4467.45 1091.32 4455.59 1156.75 4467.45 1280.49 4428.21 1539.44 4292.35 1588.45 4270.57 1303.12 4323.92 967.69 4384.01 1002.61 4404.99 467.11 4386.79 382.56 4370.32 604.53 4270.57 929.04 4235.2 958.5 4307.92 430.32 4335.78 331.79 4306.35 121.15 4238.87 38.63 4235.2 140.75 4250.34 126.75 4235.2 455.84 4177.68 1132.48 4053.22 1507.93 4004.08 1537.69 4022.28 1074.67 4118.98 278.94 4118.98 170.65 4082.28 288.07 4053.22 331.27 4084.03 312.68 4013.93 777.28 3846.32 1091.93 3767.18 1127.78 3743.62 1148.52 3784.87 697.52 3725.17 544.15 3695.41 615.46 3667.4 701.25 3709.74 526.7 3709.74 394.1 3667.4 458.68 3630.64 567.75 3571.12 598.41 3592.13 629.04 3661.96 642.25 3681.41 1210.3 3674.4 1450.16 3820.45 1525.43 3517.44 1449.58 3508.1 1450.71 3450.92 890.6 3436.69 871.45 3436.69 1132.48 3365.72 1436.74 3311.37 1457.75 3324.13 1144.57 3346.21 1104.21 3294.85 878.69 3279.45 888 3287.74 974.61 3193.51 1280.49 2988.19 1289.11 3004.82 1306.62 3108.03 1320.04 3137.44 1455.41 2964.23 1422.74 2887.34 1434.41 2931.02 815.43 2853.44 675.58 2837.82 797.96 2691.22 1229.01 2826.81 659.12 2720.59 403.35 2668.22 1088.12 2558.22 1231.34 2367.84 1162.96 2312.92 1170.44 2261.78 896.94 2192.24 852.13 2139.66 698.05 2094.87 701.25 2137.6 963.01 2169.99 1336.38 2094.87 1574.45 2094.87 1490.42 2006.72 1581.45 1954.14 1544.11 1908.26 1574.45 1885.67 1352.71 1680.53 920.41 1738.88 1098.52 1715.54 1299.03 1549.82 1189.56 1580.16 1244.14 1671.19 1301.37 1703.87 1555.78 1678.19 1572.12 1400.44 1530.1 1400.44 1616.46 2133.86 1616.46 2188.83 1450.74 2368.25 1280.49 2537.13 1280.49 2423.87 1513.77 2228.32 1616.46 2621.5 1616.46 2668.22 1558.11 3186.59 1481.09 3223.62 1481.09 3673.82 1616.46 3978.72 1616.46 4059.97 1569.78 4199.92 1175.33 4253.75 1088.12 4235.2 1336.38 4232.22 1616.46 5453.28 1616.46 5524.6 1402.9 5875.49 1120.27 5900.94 1208.55 5890.15 1448.41 5716.19 1616.46 7002.2 1616.46 7002.2 539.27"/><polygon class="cls-6" points="6492.79 1056.29 6541.36 1464.75 6541.36 1616.46 6598.4 1616.46 6645.3 1336.38 6652.26 827.07 6624.08 688.36 6492.79 1056.29"/><polygon class="cls-7" points="6343.86 1091.93 6318.99 1616.46 6287.92 1616.46 6326.44 1013.4 6522.55 410.33 6343.86 1091.93"/><polygon class="cls-8" points="6061.13 1068.81 6128.8 1208.55 6186.18 1577.95 6226.27 1306.03 6105.48 724.84 6050.75 742.23 6061.13 1068.81"/><polygon class="cls-9" points="5860.04 815.68 5850.92 797.02 5716.19 1052.79 5741.25 1055.55 5844.56 950.21 5860.04 815.68"/><polygon class="cls-10" points="5875.49 1120.27 5940.41 1152.41 5950.12 1616.46 5861.07 1616.46 5890.15 1448.41 5900.94 1194.43 5875.49 1120.27"/><polygon class="cls-11" points="5157.11 1148.52 5106 1175.33 5010.64 1616.46 5118.61 1616.46 5148.88 1338.35 5157.11 1148.52"/><polygon class="cls-12" points="4927.93 1264.02 4949.39 1259.35 4965.69 1464.17 4955.53 1616.46 4797.73 1616.46 4808.22 1526.6 4884.03 1331.71 4924.78 1074.67 4960.34 1060.99 4927.93 1264.02"/><polygon class="cls-13" points="5648.78 1074.67 5682.27 1275.9 5524.6 1402.9 5453.28 1616.46 5380.06 1616.46 5416.2 1336.38 5648.78 1074.67"/><polygon class="cls-14" points="3784.87 697.52 3666.58 777.28 3681.41 1210.3 3674.4 1450.16 3743.62 1148.52 3784.87 697.52"/><polygon class="cls-15" points="4118.98 278.94 4084.03 312.68 4013.93 762.42 3846.32 1091.93 3855.2 1359.72 3978.72 1616.46 4004.08 1601.89 4004.08 1537.69 4022.28 1074.67 4118.98 278.94"/><polygon class="cls-16" points="2837.82 797.96 2931.02 815.43 2887.34 1434.41 2964.23 1422.74 2668.22 1558.11 2621.5 1616.46 2228.32 1616.46 2423.87 1513.77 2537.13 1280.49 2451.47 1280.49 2449.74 1192.38 2558.22 1231.34 2691.22 1252.35 2837.82 797.96"/><polygon class="cls-17" points="1885.67 1352.71 1726.04 1311.87 1671.19 1301.37 1703.87 1555.78 1691.03 1616.46 1904.45 1616.46 1908.26 1574.45 1885.67 1352.71"/><polygon class="cls-18" points="2078.18 1616.46 2169.99 1336.38 2133.86 929.2 2192.24 852.13 2261.78 896.94 2312.92 1170.44 2251.63 1391.16 2188.83 1450.74 2133.86 1616.46 2078.18 1616.46"/><polygon class="cls-19" points="3193.51 1280.49 2988.19 1289.11 3004.82 1306.62 3108.03 1320.04 3137.44 1455.41 3311.37 1457.75 3324.13 1144.57 3346.21 1104.21 3287.74 974.61 3193.51 1280.49"/><polygon class="cls-20" points="3436.69 1132.48 3508.1 1450.71 3365.72 1436.74 3436.69 1132.48"/><polygon class="cls-21" points="1400.44 671.24 1395.54 1071.3 1349.25 1358.19 1329.8 1147.55 1337.59 1001.77 1337.59 942.94 1305.91 1104.94 1321.66 1179.62 1272.65 1511.43 1132.61 1556.94 1211.45 1001.77 1255.73 784.67 1211.45 729.95 1228.89 769.42 1174.62 1026.89 1055.58 1273.36 1010.07 1294.21 1083.59 1021.09 1129.11 915.65 1060.83 1021.09 1071.34 1024.19 982.06 1301.37 859.52 1331.12 842.6 1249.37 819.26 1268.69 896.28 924.39 870.61 715.54 835.01 924.39 708.97 1358.19 554.59 1365.44 546.17 1432.07 546.17 844.71 444.64 784.67 414.88 805.91 313.35 1190.5 365.87 844.78 334.36 815.21 236.32 1207.21 120.79 1358.19 225.82 875.4 396.79 734.84 231.87 414.8 173.3 689.67 124.91 1037.64 0 1348.29 0 1616.46 1691.03 1616.46 1580.16 1244.14 1465.79 1131.94 1400.44 671.24"/><polygon class="cls-22" points="763.24 627.35 739.9 784.67 728.13 820.55 672.65 1162.33 728.13 689.67 763.24 627.35"/><polygon class="cls-23" points="1228.89 769.42 1255.73 784.67 1211.45 1001.77 1132.61 1556.94 1132.61 1616.46 1026.99 1616.46 1055.58 1273.36 1174.62 1026.89 1228.89 769.42"/><polygon class="cls-24" points="1400.44 671.24 1395.54 1071.3 1349.25 1616.46 1510 1616.46 1465.79 1131.94 1400.44 671.24"/><polygon class="cls-25" points="396.79 734.84 225.82 875.4 158.24 797.96 231.87 414.8 396.79 734.84"/></g></g></g></svg>