<svg width="8000" height="305" viewBox="0 0 8000 305" fill="none" xmlns="http://www.w3.org/2000/svg">
<path fill-rule="evenodd" clip-rule="evenodd" d="M181.256 304.36H1756.11L1754.08 129.643L1749.53 108.285H1738.5L1722.25 126.807V198.234L1716.37 196.641L1700.16 126.807L1687.17 60.8242L1649.49 52.6486L1633.24 69.6301V152.454H1626.75V126.859H1609.87L1592.98 160.682L1588.44 181.41L1578.5 190.409L1559.24 252.032H1441.52L1430.26 224.95L1368.99 191.529L1345.96 91.3909L1328.93 85.1235L1312.66 12.5583C1312.66 12.5583 1297.08 -17.7984 1245.91 18.458L1247.24 39.256L1241.08 44.508L1241.85 106.587L1198.08 118.579L1171.92 161.348L1106.27 179.082L1056.81 187.433L1044.03 232.285L1028.67 234.036L1021.29 261.854L1014.46 270.905L1007.65 295.939H994.009L981.071 232.582L970.846 229.781L956.648 149.811L919.129 119.209L907.819 140.077V163.028L902.427 164.061L892.395 236.084L888.403 238.85L849.186 257.635L593.384 235.349L514.862 156.043L515.51 56.9728L493.328 44.438L478.411 66.3563L474.577 100.267L469.885 101.3V81.4821L440.122 90.3405L390.961 191.529L332.976 189.446L306.54 184.194V170.189L291.203 149.846L277.197 145.662L267.813 187.398L260.145 190.006L252.196 257.092L248.695 258.387L244.44 295.607L187.593 287.764L191.48 185.595L183.199 180.64L181.921 166.635L168.58 147.675H139.343L130.589 156.551L101.351 174.25L94.5233 287.501H91.8446L93.7179 190.339L88.6057 186.837L81.6027 197.867L77.2258 199.88L68.9447 293.856L45.7998 276.174L40.2674 278.362L37.2736 294.661H21.1841L18.2604 269.031L10.7146 266.826L0 252.207V304.36H181.256Z" fill="url(#paint0_linear_13:3605)"/>
<path fill-rule="evenodd" clip-rule="evenodd" d="M3329.62 304H1727.96L1730.02 129.687L1734.65 108.378H1745.87L1762.39 126.857V198.12L1768.37 196.53L1784.86 126.857L1798.07 61.027L1836.39 52.8703L1852.91 69.8125V152.445H1859.52V126.91H1876.69L1893.87 160.654L1898.48 181.335L1908.59 190.312L1928.18 251.793H2047.9L2059.35 224.773L2121.67 191.43L2145.09 91.5231L2162.41 85.2701L2178.95 12.8726C2178.95 12.8726 2194.8 -17.4139 2246.84 18.7587L2245.49 39.5086L2251.76 44.7485L2250.97 106.684L2295.49 118.648L2322.09 161.318L2388.86 179.012L2439.16 187.343L2452.16 232.091L2467.77 233.838L2475.29 261.592L2482.23 270.622L2489.16 295.599H2503.03L2516.19 232.388L2526.59 229.594L2541.03 149.808L2579.18 119.277L2590.69 140.097V162.995L2596.17 164.025L2606.37 235.882L2610.43 238.641L2650.32 257.383L2910.47 235.148L2990.33 156.026L2989.67 57.1844L3012.23 44.6786L3027.4 66.5463L3031.3 100.378L3036.07 101.409V81.6372L3066.34 90.4751L3116.34 191.43L3175.31 189.352L3202.2 184.112V170.139L3217.8 149.843L3232.04 145.668L3241.58 187.308L3249.38 189.91L3257.47 256.841L3261.03 258.134L3265.35 295.267L3323.17 287.442L3319.22 185.509L3327.64 180.566L3328.94 166.593L3342.51 147.677H3372.24L3381.14 156.532L3410.88 174.191L3417.82 287.18H3420.55L3418.64 190.242L3423.84 186.749L3430.96 197.753L3435.42 199.761L3443.84 293.52L3467.38 275.879L3473 278.063L3476.05 294.324H3492.41L3495.38 268.753L3503.06 266.552L3513.96 251.968V304H3329.62Z" fill="url(#paint1_linear_13:3605)"/>
<path fill-rule="evenodd" clip-rule="evenodd" d="M5116.62 304H3514.96L3517.02 129.687L3521.65 108.378H3532.87L3549.39 126.857V198.12L3555.37 196.53L3571.86 126.857L3585.07 61.027L3623.39 52.8703L3639.91 69.8125V152.445H3646.52V126.91H3663.69L3680.87 160.654L3685.48 181.335L3695.59 190.312L3715.18 251.793H3834.9L3846.35 224.773L3908.67 191.43L3932.09 91.5231L3949.41 85.2701L3965.95 12.8726C3965.95 12.8726 3981.8 -17.4139 4033.84 18.7587L4032.49 39.5086L4038.76 44.7485L4037.97 106.684L4082.49 118.648L4109.09 161.318L4175.86 179.012L4226.16 187.343L4239.16 232.091L4254.77 233.838L4262.29 261.592L4269.23 270.622L4276.16 295.599H4290.03L4303.19 232.388L4313.59 229.594L4328.03 149.808L4366.18 119.277L4377.69 140.097V162.995L4383.17 164.025L4393.37 235.882L4397.43 238.641L4437.32 257.383L4697.47 235.148L4777.33 156.026L4776.67 57.1844L4799.23 44.6786L4814.4 66.5463L4818.3 100.378L4823.07 101.409V81.6372L4853.34 90.4751L4903.34 191.43L4962.31 189.352L4989.2 184.112V170.139L5004.8 149.843L5019.04 145.668L5028.58 187.308L5036.38 189.91L5044.47 256.841L5048.03 258.134L5052.35 295.267L5110.17 287.442L5106.22 185.509L5114.64 180.566L5115.94 166.593L5129.51 147.677H5159.24L5168.14 156.532L5197.88 174.191L5204.82 287.18H5207.55L5205.64 190.242L5210.84 186.749L5217.96 197.753L5222.42 199.761L5230.84 293.52L5254.38 275.879L5260 278.063L5263.05 294.324H5279.41L5282.38 268.753L5290.06 266.552L5300.96 251.968V304H5116.62Z" fill="url(#paint2_linear_13:3605)"/>
<path fill-rule="evenodd" clip-rule="evenodd" d="M5252.26 304.36H6827.11L6825.08 129.643L6820.53 108.285H6809.5L6793.25 126.807V198.234L6787.37 196.641L6771.16 126.807L6758.17 60.8242L6720.49 52.6486L6704.24 69.6301V152.454H6697.75V126.859H6680.87L6663.98 160.682L6659.44 181.41L6649.5 190.409L6630.24 252.032H6512.52L6501.26 224.95L6439.99 191.529L6416.96 91.3909L6399.93 85.1235L6383.66 12.5583C6383.66 12.5583 6368.08 -17.7984 6316.91 18.458L6318.24 39.256L6312.08 44.508L6312.85 106.587L6269.08 118.579L6242.92 161.348L6177.27 179.082L6127.81 187.433L6115.03 232.285L6099.67 234.036L6092.29 261.854L6085.46 270.905L6078.65 295.939H6065.01L6052.07 232.582L6041.85 229.781L6027.65 149.811L5990.13 119.209L5978.82 140.077V163.028L5973.43 164.061L5963.4 236.084L5959.4 238.85L5920.19 257.635L5664.38 235.349L5585.86 156.043L5586.51 56.9728L5564.33 44.438L5549.41 66.3563L5545.58 100.267L5540.89 101.3V81.4821L5511.12 90.3405L5461.96 191.529L5403.98 189.446L5377.54 184.194V170.189L5362.2 149.846L5348.2 145.662L5338.81 187.398L5331.14 190.006L5323.2 257.092L5319.69 258.387L5315.44 295.607L5258.59 287.764L5262.48 185.595L5254.2 180.64L5252.92 166.635L5239.58 147.675H5210.34L5201.59 156.551L5172.35 174.25L5165.52 287.501H5162.84L5164.72 190.339L5159.61 186.837L5152.6 197.867L5148.23 199.88L5139.94 293.856L5116.8 276.174L5111.27 278.362L5108.27 294.661H5092.18L5089.26 269.031L5081.71 266.826L5071 252.207V304.36H5252.26Z" fill="url(#paint3_linear_13:3605)"/>
<path fill-rule="evenodd" clip-rule="evenodd" d="M7875.32 304H6792L6793.4 129.687L6796.53 108.378H6804.12L6815.29 126.857V198.12L6819.34 196.53L6830.49 126.857L6839.43 61.027L6865.34 52.8703L6876.52 69.8125V152.445H6880.99V126.91H6892.6L6904.22 160.654L6907.34 181.335L6914.18 190.312L6927.43 251.793H7008.4L7016.15 224.773L7058.3 191.43L7074.13 91.5231L7085.85 85.2701L7097.04 12.8726C7097.04 12.8726 7107.76 -17.4139 7142.96 18.7587L7142.05 39.5086L7146.29 44.7485L7145.76 106.684L7175.86 118.648L7193.86 161.318L7239.02 179.012L7273.04 187.343L7281.83 232.091L7292.39 233.838L7297.48 261.592L7302.17 270.622L7306.86 295.599H7316.24L7325.14 232.388L7332.17 229.594L7341.94 149.808L7367.75 119.277L7375.53 140.097V162.995L7379.24 164.025L7386.14 235.882L7388.88 238.641L7415.86 257.383L7591.82 235.148L7645.84 156.026L7645.39 57.1844L7660.65 44.6786L7670.91 66.5463L7673.55 100.378L7676.77 101.409V81.6372L7697.25 90.4751L7731.06 191.43L7770.95 189.352L7789.14 184.112V170.139L7799.69 149.843L7809.32 145.668L7815.78 187.308L7821.05 189.91L7826.52 256.841L7828.93 258.134L7831.85 295.267L7870.96 287.442L7868.28 185.509L7873.98 180.566L7874.86 166.593L7884.04 147.677H7904.15L7910.17 156.532L7930.28 174.191L7934.98 287.18H7936.82L7935.53 190.242L7939.05 186.749L7943.87 197.753L7946.88 199.761L7952.57 293.52L7968.5 275.879L7972.3 278.063L7974.36 294.324H7985.43L7987.44 268.753L7992.63 266.552L8000 251.968V304H7875.32Z" fill="url(#paint4_linear_13:3605)"/>
<defs>
<linearGradient id="paint0_linear_13:3605" x1="878.057" y1="304.36" x2="878.057" y2="0.653696" gradientUnits="userSpaceOnUse">
<stop stop-color="#4A9BDF"/>
<stop offset="1" stop-color="#2432AD"/>
</linearGradient>
<linearGradient id="paint1_linear_13:3605" x1="2620.96" y1="304" x2="2620.96" y2="0.995503" gradientUnits="userSpaceOnUse">
<stop stop-color="#4A9BDF"/>
<stop offset="1" stop-color="#2432AD"/>
</linearGradient>
<linearGradient id="paint2_linear_13:3605" x1="4407.96" y1="304" x2="4407.96" y2="0.995503" gradientUnits="userSpaceOnUse">
<stop stop-color="#4A9BDF"/>
<stop offset="1" stop-color="#2432AD"/>
</linearGradient>
<linearGradient id="paint3_linear_13:3605" x1="5949.06" y1="304.36" x2="5949.06" y2="0.653696" gradientUnits="userSpaceOnUse">
<stop stop-color="#4A9BDF"/>
<stop offset="1" stop-color="#2432AD"/>
</linearGradient>
<linearGradient id="paint4_linear_13:3605" x1="7396" y1="304" x2="7396" y2="0.995503" gradientUnits="userSpaceOnUse">
<stop stop-color="#4A9BDF"/>
<stop offset="1" stop-color="#2432AD"/>
</linearGradient>
</defs>
</svg>
