<?xml version="1.0" encoding="utf-8"?>
<!-- Generator: Adobe Illustrator 25.1.0, SVG Export Plug-In . SVG Version: 6.00 Build 0)  -->
<svg version="1.1" id="Capa_1" xmlns="http://www.w3.org/2000/svg" xmlns:xlink="http://www.w3.org/1999/xlink" x="0px" y="0px"
	 viewBox="0 0 7002.2 1616.5" style="enable-background:new 0 0 7002.2 1616.5;" xml:space="preserve">
<style type="text/css">
	.st0{clip-path:url(#SVGID_2_);}
	.st1{fill-rule:evenodd;clip-rule:evenodd;fill:url(#SVGID_3_);}
	.st2{opacity:0.2;fill-rule:evenodd;clip-rule:evenodd;fill:url(#SVGID_4_);enable-background:new    ;}
	.st3{opacity:0.2;fill-rule:evenodd;clip-rule:evenodd;fill:url(#SVGID_5_);enable-background:new    ;}
	.st4{opacity:0.2;fill-rule:evenodd;clip-rule:evenodd;fill:url(#SVGID_6_);enable-background:new    ;}
	.st5{opacity:0.2;fill-rule:evenodd;clip-rule:evenodd;fill:url(#SVGID_7_);enable-background:new    ;}
	.st6{opacity:0.2;fill-rule:evenodd;clip-rule:evenodd;fill:url(#SVGID_8_);enable-background:new    ;}
	.st7{opacity:0.2;fill-rule:evenodd;clip-rule:evenodd;fill:url(#SVGID_9_);enable-background:new    ;}
	.st8{opacity:0.2;fill-rule:evenodd;clip-rule:evenodd;fill:url(#SVGID_10_);enable-background:new    ;}
	.st9{opacity:0.2;fill-rule:evenodd;clip-rule:evenodd;fill:url(#SVGID_11_);enable-background:new    ;}
	.st10{opacity:0.2;fill-rule:evenodd;clip-rule:evenodd;fill:url(#SVGID_12_);enable-background:new    ;}
	.st11{opacity:0.2;fill-rule:evenodd;clip-rule:evenodd;fill:url(#SVGID_13_);enable-background:new    ;}
	.st12{opacity:0.2;fill-rule:evenodd;clip-rule:evenodd;fill:url(#SVGID_14_);enable-background:new    ;}
	.st13{opacity:0.2;fill-rule:evenodd;clip-rule:evenodd;fill:url(#SVGID_15_);enable-background:new    ;}
	.st14{opacity:0.2;fill-rule:evenodd;clip-rule:evenodd;fill:url(#SVGID_16_);enable-background:new    ;}
	.st15{opacity:0.2;fill-rule:evenodd;clip-rule:evenodd;fill:url(#SVGID_17_);enable-background:new    ;}
	.st16{opacity:0.2;fill-rule:evenodd;clip-rule:evenodd;fill:url(#SVGID_18_);enable-background:new    ;}
	.st17{opacity:0.2;fill-rule:evenodd;clip-rule:evenodd;fill:url(#SVGID_19_);enable-background:new    ;}
	.st18{opacity:0.2;fill-rule:evenodd;clip-rule:evenodd;fill:url(#SVGID_20_);enable-background:new    ;}
	.st19{opacity:0.2;fill-rule:evenodd;clip-rule:evenodd;fill:url(#SVGID_21_);enable-background:new    ;}
	.st20{opacity:0.2;fill-rule:evenodd;clip-rule:evenodd;fill:url(#SVGID_22_);enable-background:new    ;}
	.st21{opacity:0.2;fill-rule:evenodd;clip-rule:evenodd;fill:url(#SVGID_23_);enable-background:new    ;}
	.st22{opacity:0.2;fill-rule:evenodd;clip-rule:evenodd;fill:url(#SVGID_24_);enable-background:new    ;}
</style>
<g>
	<g id="Capa_1_1_">
		<g>
			<defs>
				<polygon id="SVGID_1_" points="6645.3,1336.4 555.5,1358.2 772.4,0 6646.5,0 				"/>
			</defs>
			<clipPath id="SVGID_2_">
				<use xlink:href="#SVGID_1_"  style="overflow:visible;"/>
			</clipPath>
			<g class="st0">
				
					<linearGradient id="SVGID_3_" gradientUnits="userSpaceOnUse" x1="3501.1001" y1="-0.46" x2="3501.1001" y2="1616" gradientTransform="matrix(1 0 0 -1 0 1616)">
					<stop  offset="0" style="stop-color:#FF774D"/>
					<stop  offset="0.1" style="stop-color:#EF6656"/>
					<stop  offset="0.3" style="stop-color:#C73B6D"/>
					<stop  offset="0.46" style="stop-color:#A41581"/>
					<stop  offset="0.78" style="stop-color:#6C0967"/>
					<stop  offset="1" style="stop-color:#450054"/>
				</linearGradient>
				<polygon class="st1" points="1400.4,1616.5 7002.2,1616.5 7002.2,539.3 6800.9,665.1 6788.6,696.9 6763.3,715.2 6646.9,1319.4 
					6641.9,1371.5 6653.8,842 6608.3,410.3 6508.6,379.8 6237.6,1007.3 6226.3,1306 6105.5,724.8 5915.8,652.6 5887.5,659 
					5860,928.5 5844.6,950.2 5860,815.7 5850.9,797 5708.8,810.2 5467.7,1053.3 5481.5,1092.1 5297.7,1392.4 5148.9,1338.3 
					5157.1,1148.5 5124.3,1102.1 5115.5,973.4 5122.4,881.2 5115.5,782 5115.5,750.9 5091.9,806.7 5086.5,898.7 5022.9,966 
					5011,1071.1 4949.4,1259.3 4927.9,1264 4960.3,1061 4949.4,1044.6 4885.4,966 4858.9,859.7 4800.5,894 4724.6,1242.6 
					4714.7,1248.8 4623,1574.4 4542,1464.8 4542,1259.6 4430,1010.2 4386.8,885.8 4405,467.1 4386.8,382.6 4335.8,331.8 
					4306.4,121.2 4238.9,38.6 4175.9,0 4119,278.9 4119,170.6 4098,108.7 4068.3,126.8 3916,278.9 3892.6,353.3 3767.2,1127.8 
					3743.6,1148.5 3784.9,697.5 3725.2,544.2 3709.7,526.7 3709.7,394.1 3666.8,301.6 3645.8,300.4 3571.1,598.4 3592.1,629 
					3538.4,1083.6 3517.4,1449.6 3508.1,1450.7 3450.9,890.6 3355.4,762.1 3294.9,878.7 3104.2,993.9 2988.2,1289.1 3004.8,1306.6 
					2964.2,1422.7 2887.3,1434.4 2931,815.4 2853.4,675.6 2838.7,684.8 2713.5,414.3 2554.4,362.7 2507.2,394.1 2372.5,1127.8 
					2367.8,1163 2312.9,1170.4 2261.8,896.9 2191.1,822.9 2153.8,754.9 2128.2,691.6 2024.8,672.7 1983.4,691.6 1994.4,1244.1 
					1994.4,1275.7 1954.1,1544.1 1908.3,1574.4 1885.7,1352.7 1680.5,920.4 1642.9,931.9 1549.8,1144.6 1549.8,1189.6 
					1580.2,1244.1 1465.8,1131.9 1400.4,671.2 1337.6,678.3 1316.4,717.4 1244.1,988.3 1211.4,1001.8 1255.7,784.7 1211.4,730 
					1150.7,715.5 940.6,912.1 842.6,1249.4 819.3,1268.7 896.3,924.4 870.6,715.5 781.9,637.6 763.2,769.4 739.9,784.7 763.2,627.3 
					749.2,612.8 672.7,696.3 555.5,1358.2 546.2,1432.1 546.2,844.7 396.8,734.8 231.9,414.8 2.9,135.6 0,1616.5 1400.4,1616.5 				
					"/>
				
					<linearGradient id="SVGID_4_" gradientUnits="userSpaceOnUse" x1="4201.3203" y1="-0.46" x2="4201.3203" y2="1577.37" gradientTransform="matrix(1 0 0 -1 0 1616)">
					<stop  offset="0" style="stop-color:#FFFFFF"/>
					<stop  offset="1" style="stop-color:#974577"/>
				</linearGradient>
				<polygon class="st2" points="7002.2,539.3 6942.7,1360.9 6883.2,1570.9 6792.1,1616.5 6792.1,1036.3 6800.9,665.1 6788.6,696.9 
					6772.9,1091.9 6718.6,1467.7 6638.1,1565.7 6641.9,1371.5 6652.3,827.1 6608.3,410.3 6624.1,688.4 6492.8,1056.3 6438.5,1091.9 
					6343.9,1091.9 6452.5,656.5 6522.5,410.3 6326.4,1013.4 6237.6,1007.3 6226.3,1306 6105.5,724.8 6050.8,742.2 6061.1,1068.8 
					6038.3,1072 5995.6,1490.4 5953.6,1542.9 5940.4,1091.9 5860,928.5 5844.6,950.2 5860,815.7 5850.9,797 5791.1,906.1 
					5716.2,1052.8 5467.7,1053.3 5481.5,1092.1 5648.8,1074.7 5416.2,1336.4 5297.7,1392.4 5148.9,1338.3 5157.1,1148.5 
					5124.3,1102.1 5116.8,992.7 5122.4,881.2 5116.8,810.9 5116.8,906.1 5099.4,1113.2 5058.9,1227.8 5044.1,1242.7 5058.9,1027.1 
					5048.1,1047.2 5021.9,1306.6 4965.7,1464.2 4949.4,1259.3 4927.9,1264 4960.3,1061 4924.8,1074.7 4884,1331.7 4808.2,1526.6 
					4763.5,1573.3 4836.2,1177.7 4890.5,1062.7 4949.5,1043.7 4885.4,966 4901.6,998.4 4857.5,1055.6 4814.9,1241.8 4751.8,1483.4 
					4696.6,1523.7 4688.6,1522.8 4724.6,1242.6 4714.7,1248.8 4679,1540.3 4653.8,1564.8 4623,1574.4 4542,1464.8 4542,1259.6 
					4467.5,1091.3 4455.6,1156.8 4467.5,1280.5 4428.2,1539.4 4292.4,1588.4 4270.6,1303.1 4323.9,967.7 4384,1002.6 4405,467.1 
					4386.8,382.6 4370.3,604.5 4270.6,929 4235.2,958.5 4307.9,430.3 4335.8,331.8 4306.4,121.2 4238.9,38.6 4235.2,140.8 
					4250.3,126.8 4235.2,455.8 4177.7,1132.5 4053.2,1507.9 4004.1,1537.7 4022.3,1074.7 4119,278.9 4119,170.6 4082.3,288.1 
					4053.2,331.3 4084,312.7 4013.9,777.3 3846.3,1091.9 3767.2,1127.8 3743.6,1148.5 3784.9,697.5 3725.2,544.2 3695.4,615.5 
					3667.4,701.2 3709.7,526.7 3709.7,394.1 3667.4,458.7 3630.6,567.8 3571.1,598.4 3592.1,629 3662,642.2 3681.4,1210.3 
					3674.4,1450.2 3820.4,1525.4 3517.4,1449.6 3508.1,1450.7 3450.9,890.6 3436.7,871.5 3436.7,1132.5 3365.7,1436.7 
					3311.4,1457.8 3324.1,1144.6 3346.2,1104.2 3294.9,878.7 3279.4,888 3287.7,974.6 3193.5,1280.5 2988.2,1289.1 3004.8,1306.6 
					3108,1320 3137.4,1455.4 2964.2,1422.7 2887.3,1434.4 2931,815.4 2853.4,675.6 2837.8,798 2691.2,1229 2826.8,659.1 
					2720.6,403.4 2668.2,1088.1 2558.2,1231.3 2367.8,1163 2312.9,1170.4 2261.8,896.9 2192.2,852.1 2139.7,698 2094.9,701.2 
					2137.6,963 2170,1336.4 2094.9,1574.4 2094.9,1490.4 2006.7,1581.4 1954.1,1544.1 1908.3,1574.4 1885.7,1352.7 1680.5,920.4 
					1738.9,1098.5 1715.5,1299 1549.8,1189.6 1580.2,1244.1 1671.2,1301.4 1703.9,1555.8 1678.2,1572.1 1400.4,1530.1 
					1400.4,1616.5 2133.9,1616.5 2188.8,1450.7 2368.2,1280.5 2537.1,1280.5 2423.9,1513.8 2228.3,1616.5 2621.5,1616.5 
					2668.2,1558.1 3186.6,1481.1 3223.6,1481.1 3673.8,1616.5 3978.7,1616.5 4060,1569.8 4199.9,1175.3 4253.8,1088.1 
					4235.2,1336.4 4232.2,1616.5 5453.3,1616.5 5524.6,1402.9 5875.5,1120.3 5900.9,1208.6 5890.1,1448.4 5716.2,1616.5 
					7002.2,1616.5 				"/>
				
					<linearGradient id="SVGID_5_" gradientUnits="userSpaceOnUse" x1="6572.5249" y1="-0.46" x2="6572.5249" y2="927.64" gradientTransform="matrix(1 0 0 -1 0 1616)">
					<stop  offset="0" style="stop-color:#FFFFFF"/>
					<stop  offset="1" style="stop-color:#974577"/>
				</linearGradient>
				<polygon class="st3" points="6492.8,1056.3 6541.4,1464.8 6541.4,1616.5 6598.4,1616.5 6645.3,1336.4 6652.3,827.1 
					6624.1,688.4 				"/>
				
					<linearGradient id="SVGID_6_" gradientUnits="userSpaceOnUse" x1="6405.2349" y1="-0.46" x2="6405.2349" y2="1205.67" gradientTransform="matrix(1 0 0 -1 0 1616)">
					<stop  offset="0" style="stop-color:#FFFFFF"/>
					<stop  offset="1" style="stop-color:#974577"/>
				</linearGradient>
				<polygon class="st4" points="6343.9,1091.9 6319,1616.5 6287.9,1616.5 6326.4,1013.4 6522.5,410.3 				"/>
				
					<linearGradient id="SVGID_7_" gradientUnits="userSpaceOnUse" x1="6138.5098" y1="38.05" x2="6138.5098" y2="891.16" gradientTransform="matrix(1 0 0 -1 0 1616)">
					<stop  offset="0" style="stop-color:#FFFFFF"/>
					<stop  offset="1" style="stop-color:#974577"/>
				</linearGradient>
				<polygon class="st5" points="6061.1,1068.8 6128.8,1208.6 6186.2,1577.9 6226.3,1306 6105.5,724.8 6050.8,742.2 				"/>
				
					<linearGradient id="SVGID_8_" gradientUnits="userSpaceOnUse" x1="5788.1147" y1="560.45" x2="5788.1147" y2="818.98" gradientTransform="matrix(1 0 0 -1 0 1616)">
					<stop  offset="0" style="stop-color:#FFFFFF"/>
					<stop  offset="1" style="stop-color:#974577"/>
				</linearGradient>
				<polygon class="st6" points="5860,815.7 5850.9,797 5716.2,1052.8 5741.2,1055.6 5844.6,950.2 				"/>
				
					<linearGradient id="SVGID_9_" gradientUnits="userSpaceOnUse" x1="5905.5947" y1="-0.46" x2="5905.5947" y2="495.73" gradientTransform="matrix(1 0 0 -1 0 1616)">
					<stop  offset="0" style="stop-color:#FFFFFF"/>
					<stop  offset="1" style="stop-color:#974577"/>
				</linearGradient>
				<polygon class="st7" points="5875.5,1120.3 5940.4,1152.4 5950.1,1616.5 5861.1,1616.5 5890.1,1448.4 5900.9,1194.4 				"/>
				
					<linearGradient id="SVGID_10_" gradientUnits="userSpaceOnUse" x1="5083.875" y1="-0.46" x2="5083.875" y2="467.48" gradientTransform="matrix(1 0 0 -1 0 1616)">
					<stop  offset="0" style="stop-color:#FFFFFF"/>
					<stop  offset="1" style="stop-color:#974577"/>
				</linearGradient>
				<polygon class="st8" points="5157.1,1148.5 5106,1175.3 5010.6,1616.5 5118.6,1616.5 5148.9,1338.3 				"/>
				
					<linearGradient id="SVGID_11_" gradientUnits="userSpaceOnUse" x1="4881.71" y1="-0.46" x2="4881.71" y2="555.01" gradientTransform="matrix(1 0 0 -1 0 1616)">
					<stop  offset="0" style="stop-color:#FFFFFF"/>
					<stop  offset="1" style="stop-color:#974577"/>
				</linearGradient>
				<polygon class="st9" points="4927.9,1264 4949.4,1259.3 4965.7,1464.2 4955.5,1616.5 4797.7,1616.5 4808.2,1526.6 4884,1331.7 
					4924.8,1074.7 4960.3,1061 				"/>
				
					<linearGradient id="SVGID_12_" gradientUnits="userSpaceOnUse" x1="5531.165" y1="-0.46" x2="5531.165" y2="541.33" gradientTransform="matrix(1 0 0 -1 0 1616)">
					<stop  offset="0" style="stop-color:#FFFFFF"/>
					<stop  offset="1" style="stop-color:#974577"/>
				</linearGradient>
				<polygon class="st10" points="5648.8,1074.7 5682.3,1275.9 5524.6,1402.9 5453.3,1616.5 5380.1,1616.5 5416.2,1336.4 				"/>
				
					<linearGradient id="SVGID_13_" gradientUnits="userSpaceOnUse" x1="3725.7251" y1="165.84" x2="3725.7251" y2="918.48" gradientTransform="matrix(1 0 0 -1 0 1616)">
					<stop  offset="0" style="stop-color:#FFFFFF"/>
					<stop  offset="1" style="stop-color:#974577"/>
				</linearGradient>
				<polygon class="st11" points="3784.9,697.5 3666.6,777.3 3681.4,1210.3 3674.4,1450.2 3743.6,1148.5 				"/>
				
					<linearGradient id="SVGID_14_" gradientUnits="userSpaceOnUse" x1="3982.6499" y1="-0.46" x2="3982.6499" y2="1337.0599" gradientTransform="matrix(1 0 0 -1 0 1616)">
					<stop  offset="0" style="stop-color:#FFFFFF"/>
					<stop  offset="1" style="stop-color:#974577"/>
				</linearGradient>
				<polygon class="st12" points="4119,278.9 4084,312.7 4013.9,762.4 3846.3,1091.9 3855.2,1359.7 3978.7,1616.5 4004.1,1601.9 
					4004.1,1537.7 4022.3,1074.7 				"/>
				
					<linearGradient id="SVGID_15_" gradientUnits="userSpaceOnUse" x1="2596.2749" y1="-0.46" x2="2596.2749" y2="818.04" gradientTransform="matrix(1 0 0 -1 0 1616)">
					<stop  offset="0" style="stop-color:#FFFFFF"/>
					<stop  offset="1" style="stop-color:#974577"/>
				</linearGradient>
				<polygon class="st13" points="2837.8,798 2931,815.4 2887.3,1434.4 2964.2,1422.7 2668.2,1558.1 2621.5,1616.5 2228.3,1616.5 
					2423.9,1513.8 2537.1,1280.5 2451.5,1280.5 2449.7,1192.4 2558.2,1231.3 2691.2,1252.3 				"/>
				
					<linearGradient id="SVGID_16_" gradientUnits="userSpaceOnUse" x1="1789.725" y1="-0.46" x2="1789.725" y2="314.63" gradientTransform="matrix(1 0 0 -1 0 1616)">
					<stop  offset="0" style="stop-color:#FFFFFF"/>
					<stop  offset="1" style="stop-color:#974577"/>
				</linearGradient>
				<polygon class="st14" points="1885.7,1352.7 1726,1311.9 1671.2,1301.4 1703.9,1555.8 1691,1616.5 1904.4,1616.5 1908.3,1574.4 
									"/>
				
					<linearGradient id="SVGID_17_" gradientUnits="userSpaceOnUse" x1="2195.5498" y1="-0.46" x2="2195.5498" y2="763.87" gradientTransform="matrix(1 0 0 -1 0 1616)">
					<stop  offset="0" style="stop-color:#FFFFFF"/>
					<stop  offset="1" style="stop-color:#974577"/>
				</linearGradient>
				<polygon class="st15" points="2078.2,1616.5 2170,1336.4 2133.9,929.2 2192.2,852.1 2261.8,896.9 2312.9,1170.4 2251.6,1391.2 
					2188.8,1450.7 2133.9,1616.5 				"/>
				
					<linearGradient id="SVGID_18_" gradientUnits="userSpaceOnUse" x1="3167.2" y1="158.25" x2="3167.2" y2="641.39" gradientTransform="matrix(1 0 0 -1 0 1616)">
					<stop  offset="0" style="stop-color:#FFFFFF"/>
					<stop  offset="1" style="stop-color:#974577"/>
				</linearGradient>
				<polygon class="st16" points="3193.5,1280.5 2988.2,1289.1 3004.8,1306.6 3108,1320 3137.4,1455.4 3311.4,1457.8 3324.1,1144.6 
					3346.2,1104.2 3287.7,974.6 				"/>
				
					<linearGradient id="SVGID_19_" gradientUnits="userSpaceOnUse" x1="3436.9102" y1="165.29" x2="3436.9102" y2="483.52" gradientTransform="matrix(1 0 0 -1 0 1616)">
					<stop  offset="0" style="stop-color:#FFFFFF"/>
					<stop  offset="1" style="stop-color:#974577"/>
				</linearGradient>
				<polygon class="st17" points="3436.7,1132.5 3508.1,1450.7 3365.7,1436.7 				"/>
				
					<linearGradient id="SVGID_20_" gradientUnits="userSpaceOnUse" x1="845.515" y1="-0.46" x2="845.515" y2="1201.2" gradientTransform="matrix(1 0 0 -1 0 1616)">
					<stop  offset="0" style="stop-color:#FFFFFF"/>
					<stop  offset="1" style="stop-color:#974577"/>
				</linearGradient>
				<polygon class="st18" points="1400.4,671.2 1395.5,1071.3 1349.2,1358.2 1329.8,1147.6 1337.6,1001.8 1337.6,942.9 
					1305.9,1104.9 1321.7,1179.6 1272.7,1511.4 1132.6,1556.9 1211.4,1001.8 1255.7,784.7 1211.4,730 1228.9,769.4 1174.6,1026.9 
					1055.6,1273.4 1010.1,1294.2 1083.6,1021.1 1129.1,915.7 1060.8,1021.1 1071.3,1024.2 982.1,1301.4 859.5,1331.1 842.6,1249.4 
					819.3,1268.7 896.3,924.4 870.6,715.5 835,924.4 709,1358.2 554.6,1365.4 546.2,1432.1 546.2,844.7 444.6,784.7 414.9,805.9 
					313.4,1190.5 365.9,844.8 334.4,815.2 236.3,1207.2 120.8,1358.2 225.8,875.4 396.8,734.8 231.9,414.8 173.3,689.7 
					124.9,1037.6 0,1348.3 0,1616.5 1691,1616.5 1580.2,1244.1 1465.8,1131.9 				"/>
				
					<linearGradient id="SVGID_21_" gradientUnits="userSpaceOnUse" x1="717.945" y1="453.67" x2="717.945" y2="988.65" gradientTransform="matrix(1 0 0 -1 0 1616)">
					<stop  offset="0" style="stop-color:#FFFFFF"/>
					<stop  offset="1" style="stop-color:#974577"/>
				</linearGradient>
				<polygon class="st19" points="763.2,627.3 739.9,784.7 728.1,820.5 672.7,1162.3 728.1,689.7 				"/>
				
					<linearGradient id="SVGID_22_" gradientUnits="userSpaceOnUse" x1="1141.36" y1="-0.46" x2="1141.36" y2="846.58" gradientTransform="matrix(1 0 0 -1 0 1616)">
					<stop  offset="0" style="stop-color:#FFFFFF"/>
					<stop  offset="1" style="stop-color:#974577"/>
				</linearGradient>
				<polygon class="st20" points="1228.9,769.4 1255.7,784.7 1211.4,1001.8 1132.6,1556.9 1132.6,1616.5 1027,1616.5 1055.6,1273.4 
					1174.6,1026.9 				"/>
				
					<linearGradient id="SVGID_23_" gradientUnits="userSpaceOnUse" x1="1429.625" y1="-0.46" x2="1429.625" y2="944.76" gradientTransform="matrix(1 0 0 -1 0 1616)">
					<stop  offset="0" style="stop-color:#FFFFFF"/>
					<stop  offset="1" style="stop-color:#974577"/>
				</linearGradient>
				<polygon class="st21" points="1400.4,671.2 1395.5,1071.3 1349.2,1616.5 1510,1616.5 1465.8,1131.9 				"/>
				
					<linearGradient id="SVGID_24_" gradientUnits="userSpaceOnUse" x1="311.305" y1="740.6" x2="311.305" y2="1201.2" gradientTransform="matrix(1 0 0 -1 0 1616)">
					<stop  offset="0" style="stop-color:#FFFFFF"/>
					<stop  offset="1" style="stop-color:#974577"/>
				</linearGradient>
				<polyline class="st22" points="231.9,414.8 396.8,734.8 225.8,875.4 				"/>
			</g>
		</g>
	</g>
</g>
</svg>
