<svg xmlns="http://www.w3.org/2000/svg" xmlns:xlink="http://www.w3.org/1999/xlink" viewBox="0 0 11680.07 2134.7"><defs><style>.cls-1{fill:none;}.cls-2{isolation:isolate;}.cls-3{clip-path:url(#clip-path);}.cls-10,.cls-11,.cls-12,.cls-13,.cls-4,.cls-5,.cls-6,.cls-7,.cls-9{fill-rule:evenodd;}.cls-4{fill:url(#Áåçûìÿííûé_ãðàäèåíò_60);}.cls-10,.cls-12,.cls-5,.cls-7{opacity:0.5;}.cls-10,.cls-11,.cls-5,.cls-7{mix-blend-mode:multiply;}.cls-5{fill:url(#Áåçûìÿííûé_ãðàäèåíò_149);}.cls-6{fill:#ff9ca7;opacity:0.2;}.cls-7{fill:url(#Áåçûìÿííûé_ãðàäèåíò_149-2);}.cls-8{clip-path:url(#clip-path-2);}.cls-9{fill:url(#Áåçûìÿííûé_ãðàäèåíò_164);}.cls-10,.cls-11{fill:#8c6ab3;}.cls-11{opacity:0.3;}.cls-12{fill:#dbeaff;mix-blend-mode:soft-light;}.cls-13{fill:url(#Áåçûìÿííûé_ãðàäèåíò_164-2);}</style><clipPath id="clip-path" transform="translate(4619.88 173)"><line class="cls-1" x1="-850" y1="1903" x2="-852"/></clipPath><linearGradient id="Áåçûìÿííûé_ãðàäèåíò_60" x1="2052.27" y1="2134.7" x2="2052.27" y2="1819.6" gradientUnits="userSpaceOnUse"><stop offset="0" stop-color="#db3d61"/><stop offset="0.61" stop-color="#a31955"/><stop offset="1" stop-color="#7d004d"/></linearGradient><linearGradient id="Áåçûìÿííûé_ãðàäèåíò_149" x1="2052.27" y1="2134.7" x2="2052.27" y2="1876.43" gradientUnits="userSpaceOnUse"><stop offset="0" stop-color="#c77cbd"/><stop offset="1" stop-color="#974577"/></linearGradient><linearGradient id="Áåçûìÿííûé_ãðàäèåíò_149-2" x1="1951.25" y1="2005.56" x2="2538.46" y2="2005.56" xlink:href="#Áåçûìÿííûé_ãðàäèåíò_149"/><clipPath id="clip-path-2" transform="translate(4619.88 173)"><rect class="cls-1" x="10.12" y="7.06" width="6993.88" height="3496.94"/></clipPath><linearGradient id="Áåçûìÿííûé_ãðàäèåíò_164" x1="8759.53" y1="2094.11" x2="8759.53" gradientUnits="userSpaceOnUse"><stop offset="0" stop-color="#c0d4ff"/><stop offset="1" stop-color="#6b75c2"/></linearGradient><linearGradient id="Áåçûìÿííûé_ãðàäèåíò_164-2" x1="-389.34" y1="1922.11" x2="-389.34" y2="-172" gradientTransform="matrix(-1, 0, 0, 1, 2531.19, 173)" xlink:href="#Áåçûìÿííûé_ãðàäèåíò_164"/></defs><g class="cls-2"><g id="Capa_1" data-name="Capa 1"><g class="cls-3"><polygon class="cls-4" points="1589.18 2134.7 1615.7 2081.01 1590.8 2029.67 1566.09 1968.94 2504.42 1819.6 2538.46 1876.43 2431.45 2057.68 2403.53 2085.68 2204.53 2104.06 2205.21 2134.7 1589.18 2134.7"/><polygon class="cls-5" points="2538.46 1876.43 2349.89 2029.67 1709.03 2029.67 1566.09 1968.94 1615.7 2081.01 1728.48 2061.18 2126.13 2048.92 1951.25 2081.01 1793.36 2134.7 2205.21 2134.7 2204.53 2104.06 2403.53 2085.68 2431.45 2057.68 2538.46 1876.43"/><polygon class="cls-6" points="1566.09 1968.94 1709.03 2029.67 2349.89 2029.67 2538.46 1876.43 2504.42 1819.6 1566.09 1968.94"/><polygon class="cls-7" points="2349.89 2029.67 2095.41 2029.67 2031.58 2051.84 2126.13 2048.92 1951.25 2081.01 1986.59 2134.7 2205.21 2134.7 2204.53 2104.06 2403.53 2085.68 2431.45 2057.68 2538.46 1876.43 2349.89 2029.67"/></g><g class="cls-8"><polygon class="cls-9" points="5839 1784.55 6039.75 1854.28 6112.31 1862.97 6194.54 1884.37 6299.76 1884.37 6321.52 1854.28 6463.01 1834.46 6829.44 1862.91 6952.79 1884.37 6952.79 1854.28 6887.49 1713.29 6912.89 1525.39 6952.79 1503.48 6989.07 1504.09 6989.07 1411.43 7112.43 1284.92 7250.29 1315.82 7656.62 1735.09 7634.85 1772.09 7877.93 1900.89 7986.77 1900.89 8077.47 1806.74 8159.1 1795.86 8332.03 1691.17 8391.29 1679.76 8379.5 1735.4 8398.83 1735.4 8438.95 1592.91 8556.86 1549.1 9011.3 1784.55 8995.68 1713.29 9078.19 1619.28 9118.81 1604.69 9525.04 1817.62 9477.88 1763.2 9525.04 1705.3 9708.25 1735.09 10007.56 1821.25 10239.75 1150.13 10308.68 1081.21 10530.44 331.27 10569.9 309.74 10569.9 408.58 10609.81 408.58 10664.23 50.79 10729.53 0 10794.83 54.42 10762.18 1066.62 10794.83 1081.21 10838.37 238.7 10881.91 208.61 10972.61 309.74 11317.27 974.72 11346.29 981.44 11466.01 1504.09 11491.41 1411.43 11607.5 1390.55 11680.07 1619.28 11643.78 2094.11 5839 2075.2 5839 1784.55"/><polygon class="cls-10" points="5839 1784.55 5897.05 1897.44 6204.22 1946.35 6299.76 1884.37 6321.52 1854.28 6700.04 1936.93 7004.8 1945.65 6952.79 1884.37 6952.79 1854.28 6887.49 1713.29 6912.89 1525.39 6951.58 1537.97 7120.89 1765.26 7191.03 1815.2 6989.07 1504.09 6989.07 1411.43 7112.43 1284.92 7030.99 1368.44 7228.73 1848.42 7302.29 1921.26 7519.97 1873.52 7519.97 1784.55 7563.51 1784.55 7656.62 1735.09 7634.85 1772.09 7580.44 1817.62 7570.76 1936.93 7604.62 2022.61 7865.84 2019.58 7877.93 1900.89 7986.77 1900.89 8077.47 1806.74 8052.07 1897.44 8077.47 1921.26 8159.1 1795.86 8332.03 1691.17 8239.52 1765.26 8220.17 1824.88 8303.61 1821.25 8379.5 1735.4 8398.83 1735.4 8438.95 1592.91 8364.08 2005.07 8374.97 2029.73 8590.23 1547.8 8625.76 1577.37 8629.83 1800.96 9066.1 1999.02 9229.36 2019.58 9011.3 1784.55 8995.68 1713.29 9078.19 1619.28 9057.03 1691.17 9214.84 1946.35 9463.36 2029.73 9809.84 2051.99 9525.04 1817.62 9477.88 1763.2 9655.65 1880.51 9933.19 2019.58 9994.86 1979.07 10007.56 1821.25 10239.75 1150.13 10297.8 1124.13 10243.38 1448.97 10272.41 1570.21 10312.29 1069.02 10530.44 331.27 10569.9 309.74 10549.95 341.41 10448.97 765.65 10477.99 1066.62 10569.9 408.58 10609.81 408.58 10664.23 50.79 10683.35 92.01 10636.41 311.55 10596.5 689.76 10627.95 729.23 10656.97 660 10601.34 1537.97 10666.65 1873.52 10762.18 1066.62 10794.83 1081.21 10838.37 238.7 10881.91 208.61 10889.16 514.88 10994.38 1142.52 11150.38 1378.64 11150.38 1200.58 11186.66 1146.19 11262.85 1984.51 11466.01 1504.09 11491.41 1411.43 11422.48 1789.71 11655.79 1936.93 11643.78 2094.11 5839 2075.2 5839 1784.55"/><polygon class="cls-11" points="10794.83 1081.21 10929.07 1388.21 10966.67 2091.9 10664.23 2088.07 10666.65 1873.52 10762.18 1066.62 10794.83 1081.21"/><polygon class="cls-11" points="10243.38 1448.97 10007.56 1821.25 9994.86 1979.07 10059 2090.03 10146.64 2089.23 10275.34 1533.34 10243.38 1448.97"/><polygon class="cls-10" points="8629.83 1800.96 8564.26 2085.49 8371.46 2088.07 8374.97 2029.73 8584.4 1560.86 8629.83 1586.9 8629.83 1800.96"/><polygon class="cls-10" points="7004.8 1945.65 7062.87 2082.88 7382.1 2080.23 7139.64 2038.63 6952.79 1854.28 6952.79 1884.37 7004.8 1945.65"/><polygon class="cls-12" points="10683.35 92.01 10731.95 38.62 10794.83 54.42 10762.18 1066.62 10666.65 1873.52 10601.34 1537.97 10656.97 660 10683.35 92.01"/><polygon class="cls-12" points="11317.27 974.72 10994.38 1142.52 10894.35 545.8 10881.91 208.61 10972.61 309.74 11317.27 974.72"/><polygon class="cls-12" points="11346.29 981.44 11186.66 1146.19 11262.85 1984.51 11466.01 1504.09 11346.29 981.44"/><polygon class="cls-11" points="11157.63 2094.11 11150.38 1378.64 11085.08 1704.61 11099.59 1748.11 11099.59 2092.33 11157.63 2094.11"/><polygon class="cls-11" points="10477.99 1066.62 10306.91 2089.75 10391.19 2090.03 10512.65 818.45 10477.99 1066.62"/><polygon class="cls-11" points="9229.36 2019.58 9267.19 2080.63 9454.15 2086.78 9463.36 2029.73 9214.84 1946.35 9057.03 1691.17 8995.68 1713.29 9011.3 1784.55 9229.36 2019.58"/><polygon class="cls-11" points="9933.19 2019.58 9967.65 2082.88 9864.86 2088.31 9809.84 2051.99 9525.04 1817.62 9545.49 1807.82 9641.83 1871.39 9933.19 2019.58"/><polygon class="cls-10" points="6321.52 1854.28 6299.76 1884.37 6390.45 1921.72 6499.9 2079.53 6664.04 2077.89 6700.04 1936.93 6321.52 1854.28"/><polygon class="cls-10" points="6989.07 1411.43 7110.52 1691.17 6989.07 1504.09 6989.07 1411.43"/><polygon class="cls-10" points="7519.97 1873.52 7570.76 1936.93 7580.44 1817.62 7563.51 1784.55 7519.97 1784.55 7519.97 1873.52"/><polygon class="cls-13" points="5841.06 1785.55 5640.32 1855.28 5567.76 1863.97 5485.52 1885.37 5380.31 1885.37 5358.54 1855.28 5217.05 1835.46 4850.62 1863.91 4727.27 1885.37 4727.27 1855.28 4792.58 1714.29 4767.18 1526.39 4727.27 1504.48 4690.99 1505.09 4690.99 1412.43 4567.64 1285.92 4429.78 1316.82 4023.44 1736.09 4045.21 1773.09 3802.13 1901.89 3693.3 1901.89 3602.59 1807.74 3520.97 1796.86 3348.03 1692.17 3288.77 1680.76 3300.57 1736.4 3281.24 1736.4 3241.12 1593.91 3123.2 1550.1 2668.76 1785.55 2684.38 1714.29 2601.87 1620.28 2561.26 1605.69 2155.03 1818.62 2202.19 1764.2 2155.03 1706.3 1971.81 1736.09 1672.5 1822.25 1440.31 1151.13 1371.38 1082.21 1149.63 332.27 1110.16 310.74 1110.16 409.58 1070.26 409.58 1015.84 51.79 950.53 1 885.23 55.42 917.88 1067.62 885.23 1082.21 841.69 239.7 798.16 209.61 707.46 310.74 362.8 975.72 333.77 982.44 214.05 1505.09 188.66 1412.43 72.56 1391.55 0 1620.28 36.28 2095.11 5841.06 2076.2 5841.06 1785.55"/><polygon class="cls-10" points="5841.06 1785.55 5783.02 1898.44 5475.85 1947.35 5380.31 1885.37 5358.54 1855.28 4980.02 1937.93 4675.27 1946.65 4727.27 1885.37 4727.27 1855.28 4792.58 1714.29 4767.18 1526.39 4728.48 1538.97 4559.18 1766.26 4489.03 1816.2 4690.99 1505.09 4690.99 1412.43 4567.64 1285.92 4649.08 1369.44 4451.34 1849.42 4377.77 1922.26 4160.1 1874.52 4160.1 1785.55 4116.56 1785.55 4023.44 1736.09 4045.21 1773.09 4099.63 1818.62 4109.3 1937.93 4075.44 2023.61 3814.23 2020.58 3802.13 1901.89 3693.3 1901.89 3602.59 1807.74 3627.99 1898.44 3602.59 1922.26 3520.97 1796.86 3348.03 1692.17 3440.55 1766.26 3459.89 1825.88 3376.45 1822.25 3300.57 1736.4 3281.24 1736.4 3241.12 1593.91 3315.98 2006.07 3305.1 2030.73 3089.84 1548.8 3054.3 1578.37 3050.23 1801.96 2613.97 2000.02 2450.71 2020.58 2668.76 1785.55 2684.38 1714.29 2601.87 1620.28 2623.04 1692.17 2465.22 1947.35 2216.7 2030.73 1870.23 2052.99 2155.03 1818.62 2202.19 1764.2 2024.42 1881.51 1746.88 2020.58 1685.2 1980.07 1672.5 1822.25 1440.31 1151.13 1382.26 1125.13 1436.68 1449.97 1407.66 1571.21 1367.78 1070.02 1149.63 332.27 1110.16 310.74 1130.12 342.41 1231.1 766.65 1202.08 1067.62 1110.16 409.58 1070.26 409.58 1015.84 51.79 996.72 93.01 1043.65 312.55 1083.56 690.76 1052.12 730.23 1023.09 661 1078.72 1538.97 1013.42 1874.52 917.88 1067.62 885.23 1082.21 841.69 239.7 798.16 209.61 790.9 515.88 685.69 1143.52 529.69 1379.64 529.69 1201.58 493.41 1147.19 417.22 1985.51 214.05 1505.09 188.66 1412.43 257.59 1790.71 24.27 1937.93 36.28 2095.11 5841.06 2076.2 5841.06 1785.55"/><polygon class="cls-11" points="885.23 1082.21 750.99 1389.21 713.39 2092.9 1015.84 2089.07 1013.42 1874.52 917.88 1067.62 885.23 1082.21"/><polygon class="cls-11" points="1436.68 1449.97 1672.5 1822.25 1685.2 1980.07 1621.07 2091.03 1533.43 2090.23 1404.73 1534.34 1436.68 1449.97"/><polygon class="cls-10" points="3050.23 1801.96 3115.81 2086.49 3308.61 2089.07 3305.1 2030.73 3095.67 1561.86 3050.23 1587.9 3050.23 1801.96"/><polygon class="cls-10" points="4675.27 1946.65 4617.2 2083.88 4297.97 2081.23 4540.43 2039.63 4727.27 1855.28 4727.27 1885.37 4675.27 1946.65"/><polygon class="cls-12" points="996.72 93.01 948.12 39.62 885.23 55.42 917.88 1067.62 1013.42 1874.52 1078.72 1538.97 1023.09 661 996.72 93.01"/><polygon class="cls-12" points="362.8 975.72 685.69 1143.52 785.72 546.8 798.16 209.61 707.46 310.74 362.8 975.72"/><polygon class="cls-12" points="333.77 982.44 493.41 1147.19 417.22 1985.51 214.05 1505.09 333.77 982.44"/><polygon class="cls-11" points="522.43 2095.11 529.69 1379.64 594.99 1705.61 580.48 1749.11 580.48 2093.33 522.43 2095.11"/><polygon class="cls-11" points="1202.08 1067.62 1373.16 2090.75 1288.88 2091.03 1167.41 819.45 1202.08 1067.62"/><polygon class="cls-11" points="2450.71 2020.58 2412.88 2081.63 2225.91 2087.78 2216.7 2030.73 2465.22 1947.35 2623.04 1692.17 2684.38 1714.29 2668.76 1785.55 2450.71 2020.58"/><polygon class="cls-11" points="1746.88 2020.58 1712.41 2083.88 1815.2 2089.31 1870.23 2052.99 2155.03 1818.62 2134.58 1808.82 2038.24 1872.39 1746.88 2020.58"/><polygon class="cls-10" points="5358.54 1855.28 5380.31 1885.37 5289.61 1922.72 5180.17 2080.53 5016.03 2078.89 4980.02 1937.93 5358.54 1855.28"/><polygon class="cls-10" points="4690.99 1412.43 4569.55 1692.17 4690.99 1505.09 4690.99 1412.43"/><polygon class="cls-10" points="4160.1 1874.52 4109.3 1937.93 4099.63 1818.62 4116.56 1785.55 4160.1 1785.55 4160.1 1874.52"/></g></g></g></svg>