<?xml version="1.0" encoding="utf-8"?>
<!-- Generator: Adobe Illustrator 25.1.0, SVG Export Plug-In . SVG Version: 6.00 Build 0)  -->
<svg version="1.1" xmlns="http://www.w3.org/2000/svg" xmlns:xlink="http://www.w3.org/1999/xlink" x="0px" y="0px"
	 viewBox="0 0 8192 2134.7" style="enable-background:new 0 0 8192 2134.7;" xml:space="preserve">
<style type="text/css">
	.st0{clip-path:url(#SVGID_2_);}
	.st1{fill-rule:evenodd;clip-rule:evenodd;fill:url(#SVGID_3_);}
	.st2{opacity:0.5;fill-rule:evenodd;clip-rule:evenodd;fill:url(#SVGID_4_);enable-background:new    ;}
	.st3{opacity:0.2;fill-rule:evenodd;clip-rule:evenodd;fill:#FF9CA7;enable-background:new    ;}
	.st4{opacity:0.5;fill-rule:evenodd;clip-rule:evenodd;fill:url(#SVGID_5_);enable-background:new    ;}
	.st5{clip-path:url(#SVGID_7_);}
	.st6{fill-rule:evenodd;clip-rule:evenodd;fill:url(#SVGID_8_);}
	.st7{opacity:0.5;fill-rule:evenodd;clip-rule:evenodd;fill:#8C6AB3;enable-background:new    ;}
	.st8{opacity:0.3;fill-rule:evenodd;clip-rule:evenodd;fill:#8C6AB3;enable-background:new    ;}
	.st9{opacity:0.5;fill-rule:evenodd;clip-rule:evenodd;fill:#DBEAFF;enable-background:new    ;}
	.st10{fill-rule:evenodd;clip-rule:evenodd;fill:url(#SVGID_9_);}
	.st11{clip-path:url(#SVGID_11_);}
	.st12{fill-rule:evenodd;clip-rule:evenodd;fill:url(#SVGID_12_);}
	.st13{opacity:0.5;fill-rule:evenodd;clip-rule:evenodd;fill:url(#SVGID_13_);enable-background:new    ;}
	.st14{opacity:0.5;fill-rule:evenodd;clip-rule:evenodd;fill:url(#SVGID_14_);enable-background:new    ;}
	.st15{clip-path:url(#SVGID_16_);}
	.st16{fill-rule:evenodd;clip-rule:evenodd;fill:url(#SVGID_17_);}
	.st17{fill-rule:evenodd;clip-rule:evenodd;fill:url(#SVGID_18_);}
</style>
<g id="Capa_1">
	<g>
		<g id="Capa_1_1_">
			<g>
				<defs>
					<line id="SVGID_1_" x1="-599.8" y1="2129.5" x2="-601.2" y2="794.8"/>
				</defs>
				<clipPath id="SVGID_2_">
					<use xlink:href="#SVGID_1_"  style="overflow:visible;"/>
				</clipPath>
				<g class="st0">
					
						<linearGradient id="SVGID_3_" gradientUnits="userSpaceOnUse" x1="-4253.0073" y1="-94.7096" x2="-4253.0073" y2="220.3903" gradientTransform="matrix(0.7014 0 0 -0.7014 1178.4111 2104.241)">
						<stop  offset="0" style="stop-color:#DB3D61"/>
						<stop  offset="0.61" style="stop-color:#A31955"/>
						<stop  offset="1" style="stop-color:#7D004D"/>
					</linearGradient>
					<polygon class="st1" points="-2129.3,2170.7 -2110.7,2133 -2128.2,2097 -2145.5,2054.4 -1487.4,1949.7 -1463.5,1989.5 
						-1538.6,2116.6 -1558.1,2136.3 -1697.7,2149.2 -1697.2,2170.7 					"/>
					
						<linearGradient id="SVGID_4_" gradientUnits="userSpaceOnUse" x1="-4253.0073" y1="-94.7096" x2="-4253.0073" y2="163.5602" gradientTransform="matrix(0.7014 0 0 -0.7014 1178.4111 2104.241)">
						<stop  offset="0" style="stop-color:#C77CBD"/>
						<stop  offset="1" style="stop-color:#974577"/>
					</linearGradient>
					<polygon class="st2" points="-1463.5,1989.5 -1595.8,2097 -2045.2,2097 -2145.5,2054.4 -2110.7,2133 -2031.6,2119.1 
						-1752.7,2110.5 -1875.4,2133 -1986.1,2170.7 -1697.2,2170.7 -1697.7,2149.2 -1558.1,2136.3 -1538.6,2116.6 					"/>
					<polygon class="st3" points="-2145.5,2054.4 -2045.2,2097 -1595.8,2097 -1463.5,1989.5 -1487.4,1949.7 					"/>
					
						<linearGradient id="SVGID_5_" gradientUnits="userSpaceOnUse" x1="-4354.0322" y1="34.4253" x2="-3766.8223" y2="34.4253" gradientTransform="matrix(0.7014 0 0 -0.7014 1178.4111 2104.241)">
						<stop  offset="0" style="stop-color:#C77CBD"/>
						<stop  offset="1" style="stop-color:#974577"/>
					</linearGradient>
					<polygon class="st4" points="-1595.8,2097 -1774.2,2097 -1819,2112.6 -1752.7,2110.5 -1875.4,2133 -1850.6,2170.7 
						-1697.2,2170.7 -1697.7,2149.2 -1558.1,2136.3 -1538.6,2116.6 -1463.5,1989.5 					"/>
				</g>
			</g>
			<g>
				<defs>
					<polygon id="SVGID_6_" points="494.9,1942.7 4766.4,368.7 4908.7,3252.4 3.4,3252.4 					"/>
				</defs>
				<clipPath id="SVGID_7_">
					<use xlink:href="#SVGID_6_"  style="overflow:visible;"/>
				</clipPath>
				<g class="st5">
					
						<linearGradient id="SVGID_8_" gradientUnits="userSpaceOnUse" x1="2454.2529" y1="-54.1198" x2="2454.2529" y2="2039.9904" gradientTransform="matrix(0.7014 0 0 -0.7014 1178.4111 2104.241)">
						<stop  offset="0" style="stop-color:#C0D4FF"/>
						<stop  offset="1" style="stop-color:#6B75C2"/>
					</linearGradient>
					<polygon class="st6" points="851.4,1925.1 992.2,1974 1043.1,1980.1 1100.7,1995.1 1174.5,1995.1 1189.8,1974 1289,1960.1 
						1546,1980 1632.6,1995.1 1632.6,1974 1586.8,1875.1 1604.6,1743.3 1632.6,1728 1658,1728.4 1658,1663.4 1744.5,1574.7 
						1841.2,1596.3 2126.2,1890.4 2110.9,1916.3 2281.4,2006.7 2357.7,2006.7 2421.4,1940.6 2478.6,1933 2599.9,1859.6 
						2641.5,1851.6 2633.2,1890.6 2646.8,1890.6 2674.9,1790.7 2757.6,1759.9 3076.3,1925.1 3065.4,1875.1 3123.2,1809.2 
						3151.7,1798.9 3436.6,1948.3 3403.6,1910.1 3436.6,1869.5 3565.1,1890.4 3775.1,1950.8 3937.9,1480.1 3986.3,1431.8 
						4141.8,905.8 4169.5,890.7 4169.5,960 4197.5,960 4235.6,709.1 4281.4,673.5 4327.2,711.6 4304.3,1421.6 4327.2,1431.8 
						4357.8,840.9 4388.3,819.8 4451.9,890.7 4693.6,1357.1 4714,1361.8 4798,1728.4 4815.8,1663.4 4897.2,1648.7 4948.1,1809.2 
						4922.7,2142.2 851.4,2128.9 					"/>
					<polygon class="st7" points="851.4,1925.1 892.1,2004.3 1107.5,2038.6 1174.5,1995.1 1189.8,1974 1455.3,2032 1669,2038.1 
						1632.6,1995.1 1632.6,1974 1586.8,1875.1 1604.6,1743.3 1631.7,1752.1 1750.5,1911.6 1799.6,1946.6 1658,1728.4 1658,1663.4 
						1744.5,1574.7 1687.4,1633.2 1826.1,1969.9 1877.7,2021 2030.4,1987.5 2030.4,1925.1 2060.9,1925.1 2126.2,1890.4 
						2110.9,1916.3 2072.8,1948.3 2066,2032 2089.7,2092.1 2272.9,2089.9 2281.4,2006.7 2357.7,2006.7 2421.4,1940.6 2403.5,2004.3 
						2421.4,2021 2478.6,1933 2599.9,1859.6 2535,1911.6 2521.4,1953.4 2580,1950.8 2633.2,1890.6 2646.8,1890.6 2674.9,1790.7 
						2622.4,2079.7 2630,2097 2781,1759 2805.9,1779.8 2808.8,1936.6 3114.8,2075.5 3229.3,2089.9 3076.3,1925.1 3065.4,1875.1 
						3123.2,1809.2 3108.4,1859.6 3219.1,2038.6 3393.4,2097 3636.4,2112.7 3436.6,1948.3 3403.6,1910.1 3528.2,1992.4 
						3722.9,2089.9 3766.2,2061.5 3775.1,1950.8 3937.9,1480.1 3978.6,1461.9 3940.5,1689.7 3960.8,1774.8 3988.8,1423.2 
						4141.8,905.8 4169.5,890.7 4155.5,912.9 4084.7,1210.5 4105,1421.6 4169.5,960 4197.5,960 4235.6,709.1 4249,738 4216.1,892 
						4188.1,1157.2 4210.2,1184.9 4230.5,1136.4 4191.5,1752.1 4237.3,1987.5 4304.3,1421.6 4327.2,1431.8 4357.8,840.9 
						4388.3,819.8 4393.4,1034.6 4467.2,1474.8 4576.6,1640.4 4576.6,1515.5 4602,1477.4 4655.5,2065.3 4798,1728.4 4815.8,1663.4 
						4767.4,1928.7 4931.1,2032 4922.7,2142.2 851.4,2128.9 					"/>
					<polygon class="st8" points="4327.2,1431.8 4421.4,1647.1 4447.7,2140.6 4235.6,2138 4237.3,1987.5 4304.3,1421.6 					"/>
					<polygon class="st8" points="3940.5,1689.7 3775.1,1950.8 3766.2,2061.5 3811.1,2139.3 3872.6,2138.8 3962.9,1748.9 					"/>
					<polygon class="st7" points="2808.8,1936.6 2762.8,2136.2 2627.6,2138 2630,2097 2776.9,1768.2 2808.8,1786.5 					"/>
					<polygon class="st7" points="1669,2038.1 1709.8,2134.3 1933.7,2132.5 1763.6,2103.3 1632.6,1974 1632.6,1995.1 					"/>
					<polygon class="st9" points="4249,738 4283.1,700.5 4327.2,711.6 4304.3,1421.6 4237.3,1987.5 4191.5,1752.1 4230.5,1136.4 
											"/>
					<polygon class="st9" points="4693.6,1357.1 4467.2,1474.8 4397,1056.3 4388.3,819.8 4451.9,890.7 					"/>
					<polygon class="st9" points="4714,1361.8 4602,1477.4 4655.5,2065.3 4798,1728.4 					"/>
					<polygon class="st8" points="4581.7,2142.2 4576.6,1640.4 4530.8,1869 4541,1899.5 4541,2141 					"/>
					<polygon class="st8" points="4105,1421.6 3985,2139.1 4044.1,2139.3 4129.3,1247.5 					"/>
					<polygon class="st8" points="3229.3,2089.9 3255.8,2132.7 3386.9,2137.1 3393.4,2097 3219.1,2038.6 3108.4,1859.6 
						3065.4,1875.1 3076.3,1925.1 					"/>
					<polygon class="st8" points="3722.9,2089.9 3747.1,2134.3 3675,2138.1 3636.4,2112.7 3436.6,1948.3 3451,1941.4 3518.6,1986 
											"/>
					<polygon class="st7" points="1189.8,1974 1174.5,1995.1 1238.1,2021.3 1314.9,2132 1430,2130.8 1455.3,2032 					"/>
					<polygon class="st7" points="1658,1663.4 1743.2,1859.6 1658,1728.4 					"/>
					<polygon class="st7" points="2030.4,1987.5 2066,2032 2072.8,1948.3 2060.9,1925.1 2030.4,1925.1 					"/>
					
						<linearGradient id="SVGID_9_" gradientUnits="userSpaceOnUse" x1="13807.9424" y1="117.8802" x2="13807.9424" y2="2211.9902" gradientTransform="matrix(-0.7014 0 0 -0.7014 8488.8789 2225.5774)">
						<stop  offset="0" style="stop-color:#C0D4FF"/>
						<stop  offset="1" style="stop-color:#6B75C2"/>
					</linearGradient>
					<polygon class="st10" points="852.8,1925.8 712,1974.7 661.1,1980.8 603.5,1995.8 529.7,1995.8 514.4,1974.7 415.2,1960.8 
						158.2,1980.7 71.6,1995.8 71.6,1974.7 117.5,1875.8 99.6,1744 71.6,1728.7 46.2,1729.1 46.2,1664.1 -40.3,1575.4 -137,1597 
						-422,1891.1 -406.7,1917 -577.2,2007.4 -653.5,2007.4 -717.2,1941.3 -774.4,1933.7 -895.7,1860.3 -937.3,1852.3 -929,1891.3 
						-942.5,1891.3 -970.7,1791.4 -1053.4,1760.6 -1372.1,1925.8 -1361.2,1875.8 -1419,1809.9 -1447.5,1799.6 -1732.4,1949 
						-1699.4,1910.8 -1732.4,1870.2 -1860.9,1891.1 -2070.9,1951.5 -2233.7,1480.8 -2282.1,1432.5 -2437.6,906.5 -2465.3,891.4 
						-2465.3,960.7 -2493.3,960.7 -2531.4,709.8 -2577.2,674.2 -2623,712.3 -2600.1,1422.3 -2623,1432.5 -2653.6,841.6 
						-2684.1,820.5 -2747.7,891.4 -2989.4,1357.8 -3009.8,1362.5 -3093.8,1729.1 -3111.6,1664.1 -3193,1649.4 -3243.9,1809.9 
						-3218.5,2142.9 852.8,2129.6 					"/>
					<polygon class="st7" points="852.8,1925.8 812.1,2005 596.7,2039.3 529.7,1995.8 514.4,1974.7 248.9,2032.7 35.2,2038.8 
						71.6,1995.8 71.6,1974.7 117.5,1875.8 99.6,1744 72.5,1752.8 -46.2,1912.3 -95.4,1947.3 46.2,1729.1 46.2,1664.1 -40.3,1575.4 
						16.8,1633.9 -121.9,1970.6 -173.5,2021.7 -326.1,1988.2 -326.1,1925.8 -356.7,1925.8 -422,1891.1 -406.7,1917 -368.6,1949 
						-361.8,2032.7 -385.5,2092.8 -568.7,2090.6 -577.2,2007.4 -653.5,2007.4 -717.2,1941.3 -699.3,2005 -717.2,2021.7 
						-774.4,1933.7 -895.7,1860.3 -830.8,1912.3 -817.2,1954.1 -875.8,1951.5 -929,1891.3 -942.5,1891.3 -970.7,1791.4 
						-918.2,2080.5 -925.8,2097.7 -1076.8,1759.7 -1101.7,1780.5 -1104.6,1937.3 -1410.5,2076.2 -1525.1,2090.6 -1372.1,1925.8 
						-1361.2,1875.8 -1419,1809.9 -1404.2,1860.3 -1514.9,2039.3 -1689.2,2097.7 -1932.2,2113.4 -1732.4,1949 -1699.4,1910.8 
						-1824,1993.1 -2018.7,2090.6 -2062,2062.2 -2070.9,1951.5 -2233.7,1480.8 -2274.4,1462.6 -2236.3,1690.4 -2256.6,1775.5 
						-2284.6,1423.9 -2437.6,906.5 -2465.3,891.4 -2451.3,913.6 -2380.4,1211.2 -2400.8,1422.3 -2465.3,960.7 -2493.3,960.7 
						-2531.4,709.8 -2544.8,738.7 -2511.9,892.7 -2483.9,1157.9 -2506,1185.6 -2526.3,1137.1 -2487.3,1752.8 -2533.1,1988.2 
						-2600.1,1422.3 -2623,1432.5 -2653.6,841.6 -2684.1,820.5 -2689.2,1035.3 -2763,1475.5 -2872.4,1641.1 -2872.4,1516.2 
						-2897.8,1478.1 -2951.3,2066 -3093.8,1729.1 -3111.6,1664.1 -3063.2,1929.4 -3226.9,2032.7 -3218.5,2142.9 852.8,2129.6 					
						"/>
					<polygon class="st8" points="-2623,1432.5 -2717.2,1647.8 -2743.5,2141.4 -2531.4,2138.7 -2533.1,1988.2 -2600.1,1422.3 					
						"/>
					<polygon class="st8" points="-2236.3,1690.4 -2070.9,1951.5 -2062,2062.2 -2106.9,2140 -2168.4,2139.5 -2258.7,1749.6 					"/>
					<polygon class="st7" points="-1104.6,1937.3 -1058.6,2136.9 -923.4,2138.7 -925.8,2097.7 -1072.7,1768.9 -1104.6,1787.2 					
						"/>
					<polygon class="st7" points="35.2,2038.8 -5.6,2135 -229.4,2133.2 -59.4,2104 71.6,1974.7 71.6,1995.8 					"/>
					<polygon class="st9" points="-2544.8,738.7 -2578.9,701.3 -2623,712.3 -2600.1,1422.3 -2533.1,1988.2 -2487.3,1752.8 
						-2526.3,1137.1 					"/>
					<polygon class="st9" points="-2989.4,1357.8 -2763,1475.5 -2692.8,1057 -2684.1,820.5 -2747.7,891.4 					"/>
					<polygon class="st9" points="-3009.8,1362.5 -2897.8,1478.1 -2951.3,2066 -3093.8,1729.1 					"/>
					<polygon class="st8" points="-2877.5,2142.9 -2872.4,1641.1 -2826.6,1869.7 -2836.8,1900.2 -2836.8,2141.7 					"/>
					<polygon class="st8" points="-2400.8,1422.3 -2280.8,2139.8 -2339.9,2140 -2425.1,1248.2 					"/>
					<polygon class="st8" points="-1525.1,2090.6 -1551.6,2133.4 -1682.7,2137.8 -1689.2,2097.7 -1514.9,2039.3 -1404.2,1860.3 
						-1361.2,1875.8 -1372.1,1925.8 					"/>
					<polygon class="st8" points="-2018.7,2090.6 -2042.9,2135 -1970.8,2138.8 -1932.2,2113.4 -1732.4,1949 -1746.8,1942.1 
						-1814.3,1986.7 					"/>
					<polygon class="st7" points="514.4,1974.7 529.7,1995.8 466.1,2022 389.3,2132.7 274.2,2131.5 248.9,2032.7 					"/>
					<polygon class="st7" points="46.2,1664.1 -39,1860.3 46.2,1729.1 					"/>
					<polygon class="st7" points="-326.1,1988.2 -361.8,2032.7 -368.6,1949 -356.7,1925.8 -326.1,1925.8 					"/>
				</g>
			</g>
		</g>
	</g>
</g>
<g id="Capa_2">
	<g>
		<g id="Capa_1_2_">
			<g>
				<defs>
					<line id="SVGID_10_" x1="3808.8" y1="2139.4" x2="3807.4" y2="804.7"/>
				</defs>
				<clipPath id="SVGID_11_">
					<use xlink:href="#SVGID_10_"  style="overflow:visible;"/>
				</clipPath>
				<g class="st11">
					
						<linearGradient id="SVGID_12_" gradientUnits="userSpaceOnUse" x1="2032.8021" y1="-108.8986" x2="2032.8021" y2="206.2014" gradientTransform="matrix(0.7014 0 0 -0.7014 1178.4111 2104.241)">
						<stop  offset="0" style="stop-color:#DB3D61"/>
						<stop  offset="0.61" style="stop-color:#A31955"/>
						<stop  offset="1" style="stop-color:#7D004D"/>
					</linearGradient>
					<polygon class="st12" points="2279.3,2180.6 2297.9,2143 2280.5,2107 2263.2,2064.4 2921.3,1959.6 2945.1,1999.5 
						2870.1,2126.6 2850.5,2146.2 2710.9,2159.1 2711.4,2180.6 					"/>
					
						<linearGradient id="SVGID_13_" gradientUnits="userSpaceOnUse" x1="2032.8021" y1="-108.8986" x2="2032.8021" y2="149.3713" gradientTransform="matrix(0.7014 0 0 -0.7014 1178.4111 2104.241)">
						<stop  offset="0" style="stop-color:#C77CBD"/>
						<stop  offset="1" style="stop-color:#974577"/>
					</linearGradient>
					<polygon class="st13" points="2945.1,1999.5 2812.9,2107 2363.4,2107 2263.2,2064.4 2297.9,2143 2377.1,2129.1 2655.9,2120.5 
						2533.3,2143 2422.6,2180.6 2711.4,2180.6 2710.9,2159.1 2850.5,2146.2 2870.1,2126.6 					"/>
					<polygon class="st3" points="2263.2,2064.4 2363.4,2107 2812.9,2107 2945.1,1999.5 2921.3,1959.6 					"/>
					
						<linearGradient id="SVGID_14_" gradientUnits="userSpaceOnUse" x1="1931.7771" y1="20.2363" x2="2518.9871" y2="20.2363" gradientTransform="matrix(0.7014 0 0 -0.7014 1178.4111 2104.241)">
						<stop  offset="0" style="stop-color:#C77CBD"/>
						<stop  offset="1" style="stop-color:#974577"/>
					</linearGradient>
					<polygon class="st14" points="2812.9,2107 2634.4,2107 2589.6,2122.5 2655.9,2120.5 2533.3,2143 2558.1,2180.6 2711.4,2180.6 
						2710.9,2159.1 2850.5,2146.2 2870.1,2126.6 2945.1,1999.5 					"/>
				</g>
			</g>
			<g>
				<defs>
					<polygon id="SVGID_15_" points="4412.1,809.7 7859.6,1951.4 7943,2134.7 4447.7,2140.6 					"/>
				</defs>
				<clipPath id="SVGID_16_">
					<use xlink:href="#SVGID_15_"  style="overflow:visible;"/>
				</clipPath>
				<g class="st15">
					
						<linearGradient id="SVGID_17_" gradientUnits="userSpaceOnUse" x1="8740.0625" y1="-68.3088" x2="8740.0625" y2="2025.8014" gradientTransform="matrix(0.7014 0 0 -0.7014 1178.4111 2104.241)">
						<stop  offset="0" style="stop-color:#C0D4FF"/>
						<stop  offset="1" style="stop-color:#6B75C2"/>
					</linearGradient>
					<polygon class="st16" points="5260,1935 5400.8,1983.9 5451.7,1990 5509.4,2005 5583.2,2005 5598.5,1983.9 5697.7,1970 
						5954.7,1990 6041.2,2005 6041.2,1983.9 5995.4,1885.1 6013.2,1753.3 6041.2,1737.9 6066.6,1738.3 6066.6,1673.3 6153.2,1584.6 
						6249.9,1606.3 6534.8,1900.3 6519.6,1926.3 6690.1,2016.6 6766.4,2016.6 6830,1950.6 6887.3,1943 7008.6,1869.5 7050.1,1861.5 
						7041.8,1900.6 7055.4,1900.6 7083.5,1800.6 7166.2,1769.9 7485,1935 7474,1885.1 7531.9,1819.1 7560.4,1808.9 7845.3,1958.2 
						7812.2,1920.1 7845.3,1879.5 7973.8,1900.3 8183.7,1960.8 8346.6,1490.1 8394.9,1441.7 8550.4,915.8 8578.1,900.7 8578.1,970 
						8606.1,970 8644.3,719 8690.1,683.4 8735.9,721.6 8713,1431.5 8735.9,1441.7 8766.4,850.8 8797,829.7 8860.6,900.7 
						9102.3,1367 9122.7,1371.8 9206.6,1738.3 9224.4,1673.3 9305.9,1658.7 9356.8,1819.1 9331.3,2152.2 5260,2138.9 					"/>
					<polygon class="st7" points="5260,1935 5300.7,2014.2 5516.2,2048.5 5583.2,2005 5598.5,1983.9 5863.9,2041.9 6077.7,2048 
						6041.2,2005 6041.2,1983.9 5995.4,1885.1 6013.2,1753.3 6040.4,1762.1 6159.1,1921.5 6208.3,1956.5 6066.6,1738.3 
						6066.6,1673.3 6153.2,1584.6 6096,1643.2 6234.7,1979.8 6286.3,2030.9 6439,1997.4 6439,1935 6469.5,1935 6534.8,1900.3 
						6519.6,1926.3 6481.4,1958.2 6474.6,2041.9 6498.4,2102 6681.6,2099.9 6690.1,2016.6 6766.4,2016.6 6830,1950.6 6812.2,2014.2 
						6830,2030.9 6887.3,1943 7008.6,1869.5 6943.7,1921.5 6930.1,1963.3 6988.6,1960.8 7041.8,1900.6 7055.4,1900.6 7083.5,1800.6 
						7031,2089.7 7038.7,2107 7189.6,1769 7214.6,1789.7 7217.4,1946.5 7523.4,2085.5 7637.9,2099.9 7485,1935 7474,1885.1 
						7531.9,1819.1 7517,1869.5 7627.7,2048.5 7802,2107 8045,2122.6 7845.3,1958.2 7812.2,1920.1 7936.9,2002.3 8131.6,2099.9 
						8174.8,2071.5 8183.7,1960.8 8346.6,1490.1 8387.3,1471.8 8349.1,1699.7 8369.5,1784.7 8397.4,1433.2 8550.4,915.8 
						8578.1,900.7 8564.1,922.9 8493.3,1220.4 8513.7,1431.5 8578.1,970 8606.1,970 8644.3,719 8657.7,747.9 8624.8,901.9 
						8596.8,1167.2 8618.8,1194.9 8639.2,1146.3 8600.2,1762.1 8646,1997.4 8713,1431.5 8735.9,1441.7 8766.4,850.8 8797,829.7 
						8802,1044.5 8875.8,1484.7 8985.2,1650.3 8985.2,1525.5 9010.7,1487.3 9064.1,2075.3 9206.6,1738.3 9224.4,1673.3 
						9176.1,1938.7 9339.7,2041.9 9331.3,2152.2 5260,2138.9 					"/>
					<polygon class="st8" points="8735.9,1441.7 8830,1657.1 8856.4,2150.6 8644.3,2147.9 8646,1997.4 8713,1431.5 					"/>
					<polygon class="st8" points="8349.1,1699.7 8183.7,1960.8 8174.8,2071.5 8219.8,2149.3 8281.3,2148.7 8371.5,1758.8 					"/>
					<polygon class="st7" points="7217.4,1946.5 7171.4,2146.1 7036.2,2147.9 7038.7,2107 7185.6,1778.1 7217.4,1796.4 					"/>
					<polygon class="st7" points="6077.7,2048 6118.4,2144.3 6342.3,2142.4 6172.3,2113.2 6041.2,1983.9 6041.2,2005 					"/>
					<polygon class="st9" points="8657.7,747.9 8691.8,710.5 8735.9,721.6 8713,1431.5 8646,1997.4 8600.2,1762.1 8639.2,1146.3 
											"/>
					<polygon class="st9" points="9102.3,1367 8875.8,1484.7 8805.7,1066.2 8797,829.7 8860.6,900.7 					"/>
					<polygon class="st9" points="9122.7,1371.8 9010.7,1487.3 9064.1,2075.3 9206.6,1738.3 					"/>
					<polygon class="st8" points="8990.3,2152.2 8985.2,1650.3 8939.4,1879 8949.6,1909.5 8949.6,2150.9 					"/>
					<polygon class="st8" points="8513.7,1431.5 8393.7,2149.1 8452.8,2149.3 8538,1257.4 					"/>
					<polygon class="st8" points="7637.9,2099.9 7664.4,2142.7 7795.6,2147 7802,2107 7627.7,2048.5 7517,1869.5 7474,1885.1 
						7485,1935 					"/>
					<polygon class="st8" points="8131.6,2099.9 8155.7,2144.3 8083.6,2148.1 8045,2122.6 7845.3,1958.2 7859.6,1951.4 
						7927.2,1995.9 					"/>
					<polygon class="st7" points="5598.5,1983.9 5583.2,2005 5646.8,2031.2 5723.6,2141.9 5838.7,2140.8 5863.9,2041.9 					"/>
					<polygon class="st7" points="6066.6,1673.3 6151.8,1869.5 6066.6,1738.3 					"/>
					<polygon class="st7" points="6439,1997.4 6474.6,2041.9 6481.4,1958.2 6469.5,1935 6439,1935 					"/>
					
						<linearGradient id="SVGID_18_" gradientUnits="userSpaceOnUse" x1="7522.1328" y1="103.6912" x2="7522.1328" y2="2197.8013" gradientTransform="matrix(-0.7014 0 0 -0.7014 8488.8789 2225.5774)">
						<stop  offset="0" style="stop-color:#C0D4FF"/>
						<stop  offset="1" style="stop-color:#6B75C2"/>
					</linearGradient>
					<polygon class="st17" points="5261.5,1935.7 5120.7,1984.6 5069.8,1990.7 5012.1,2005.7 4938.3,2005.7 4923,1984.6 
						4823.8,1970.7 4566.8,1990.7 4480.3,2005.7 4480.3,1984.6 4526.1,1885.8 4508.3,1754 4480.3,1738.6 4454.9,1739 4454.9,1674 
						4368.3,1585.3 4271.6,1607 3986.7,1901 4001.9,1927 3831.4,2017.3 3755.1,2017.3 3691.5,1951.3 3634.2,1943.7 3512.9,1870.2 
						3471.4,1862.2 3479.7,1901.3 3466.1,1901.3 3438,1801.3 3355.3,1770.6 3036.5,1935.7 3047.5,1885.8 2989.6,1819.8 
						2961.1,1809.6 2676.2,1958.9 2709.3,1920.8 2676.2,1880.2 2547.7,1901 2337.8,1961.5 2174.9,1490.8 2126.6,1442.4 
						1971.1,916.5 1943.4,901.4 1943.4,970.7 1915.4,970.7 1877.2,719.7 1831.4,684.1 1785.6,722.3 1808.5,1432.2 1785.6,1442.4 
						1755.1,851.5 1724.6,830.4 1660.9,901.4 1419.2,1367.8 1398.8,1372.5 1314.9,1739 1297.1,1674 1215.6,1659.4 1164.8,1819.8 
						1190.2,2152.9 5261.5,2139.6 					"/>
					<polygon class="st7" points="5261.5,1935.7 5220.8,2014.9 5005.3,2049.2 4938.3,2005.7 4923,1984.6 4657.6,2042.6 
						4443.8,2048.7 4480.3,2005.7 4480.3,1984.6 4526.1,1885.8 4508.3,1754 4481.1,1762.8 4362.4,1922.2 4313.2,1957.2 4454.9,1739 
						4454.9,1674 4368.3,1585.3 4425.5,1643.9 4286.8,1980.5 4235.2,2031.6 4082.5,1998.1 4082.5,1935.7 4052,1935.7 3986.7,1901 
						4001.9,1927 4040.1,1958.9 4046.9,2042.6 4023.1,2102.7 3839.9,2100.6 3831.4,2017.3 3755.1,2017.3 3691.5,1951.3 
						3709.3,2014.9 3691.5,2031.6 3634.2,1943.7 3512.9,1870.2 3577.8,1922.2 3591.4,1964 3532.9,1961.5 3479.7,1901.3 
						3466.1,1901.3 3438,1801.3 3490.5,2090.4 3482.8,2107.7 3331.9,1769.7 3306.9,1790.4 3304.1,1947.2 2998.1,2086.2 
						2883.6,2100.6 3036.5,1935.7 3047.5,1885.8 2989.6,1819.8 3004.5,1870.2 2893.8,2049.2 2719.5,2107.7 2476.5,2123.3 
						2676.2,1958.9 2709.3,1920.8 2584.6,2003 2390,2100.6 2346.7,2072.2 2337.8,1961.5 2174.9,1490.8 2134.2,1472.5 2172.4,1700.4 
						2152,1785.4 2124.1,1433.9 1971.1,916.5 1943.4,901.4 1957.4,923.6 2028.2,1221.1 2007.9,1432.2 1943.4,970.7 1915.4,970.7 
						1877.2,719.7 1863.8,748.6 1896.7,902.6 1924.7,1167.9 1902.7,1195.6 1882.3,1147 1921.3,1762.8 1875.5,1998.1 1808.5,1432.2 
						1785.6,1442.4 1755.1,851.5 1724.6,830.4 1719.5,1045.2 1645.7,1485.4 1536.3,1651 1536.3,1526.2 1510.8,1488 1457.4,2076 
						1314.9,1739 1297.1,1674 1345.4,1939.4 1181.8,2042.6 1190.2,2152.9 5261.5,2139.6 					"/>
					<polygon class="st8" points="1785.6,1442.4 1691.5,1657.8 1665.1,2151.3 1877.2,2148.6 1875.5,1998.1 1808.5,1432.2 					"/>
					<polygon class="st8" points="2172.4,1700.4 2337.8,1961.5 2346.7,2072.2 2301.7,2150 2240.2,2149.4 2150,1759.5 					"/>
					<polygon class="st7" points="3304.1,1947.2 3350.1,2146.8 3485.3,2148.6 3482.8,2107.7 3336,1778.8 3304.1,1797.1 					"/>
					<polygon class="st7" points="4443.8,2048.7 4403.1,2145 4179.2,2143.1 4349.3,2113.9 4480.3,1984.6 4480.3,2005.7 					"/>
					<polygon class="st9" points="1863.8,748.6 1829.7,711.2 1785.6,722.3 1808.5,1432.2 1875.5,1998.1 1921.3,1762.8 1882.3,1147 
											"/>
					<polygon class="st9" points="1419.2,1367.8 1645.7,1485.4 1715.8,1066.9 1724.6,830.4 1660.9,901.4 					"/>
					<polygon class="st9" points="1398.8,1372.5 1510.8,1488 1457.4,2076 1314.9,1739 					"/>
					<polygon class="st8" points="1531.2,2152.9 1536.3,1651 1582.1,1879.7 1571.9,1910.2 1571.9,2151.6 					"/>
					<polygon class="st8" points="2007.9,1432.2 2127.8,2149.8 2068.7,2150 1983.5,1258.1 					"/>
					<polygon class="st8" points="2883.6,2100.6 2857.1,2143.4 2725.9,2147.7 2719.5,2107.7 2893.8,2049.2 3004.5,1870.2 
						3047.5,1885.8 3036.5,1935.7 					"/>
					<polygon class="st8" points="2390,2100.6 2365.8,2145 2437.9,2148.8 2476.5,2123.3 2676.2,1958.9 2661.9,1952.1 2594.3,1996.6 
											"/>
					<polygon class="st7" points="4923,1984.6 4938.3,2005.7 4874.7,2031.9 4797.9,2142.6 4682.8,2141.5 4657.6,2042.6 					"/>
					<polygon class="st7" points="4454.9,1674 4369.7,1870.2 4454.9,1739 					"/>
					<polygon class="st7" points="4082.5,1998.1 4046.9,2042.6 4040.1,1958.9 4052,1935.7 4082.5,1935.7 					"/>
				</g>
			</g>
		</g>
	</g>
</g>
</svg>
