<?xml version="1.0" encoding="utf-8"?>
<!-- Generator: Adobe Illustrator 25.1.0, SVG Export Plug-In . SVG Version: 6.00 Build 0)  -->
<svg version="1.1" id="Capa_1" xmlns="http://www.w3.org/2000/svg" xmlns:xlink="http://www.w3.org/1999/xlink" x="0px" y="0px"
	 viewBox="0 0 429.5 65.2" style="enable-background:new 0 0 429.5 65.2;" xml:space="preserve">
<style type="text/css">
	.st0{fill:#FFFFFF;stroke:#FFFFFF;stroke-miterlimit:10;}
</style>
<g>
	<g id="Capa_2_1_">
		<g id="space_background">
			<g>
				<path class="st0" d="M79.5,27.4c-0.2,6.1-1.2,12.1-2.7,17.9c-1.1,4.3-3.2,8.2-6,11.6c-2.6,2.9-6,5.1-9.8,6.3
					c-4.6,1.4-9.3,2-14.1,1.9H0.3V54.8h46.1c3.1,0.1,6.2-0.2,9.2-0.8c2.3-0.4,4.4-1.4,6.2-2.7c1.7-1.4,3.1-3.2,4-5.3
					c1.1-2.7,1.9-5.4,2.4-8.3H0c0.2-6,1.2-12,2.9-17.8c1.2-4.3,3.4-8.3,6.4-11.6c2.6-2.9,6-5.1,9.7-6.4c4.2-1.4,8.6-2.1,13-2h47.2
					v10.3H31.5c-2.8-0.1-5.7,0.4-8.4,1.2c-2.2,0.7-4.2,1.9-5.9,3.4c-1.6,1.5-2.9,3.4-3.8,5.4c-1,2.3-1.7,4.7-2.2,7.1H79.5z"/>
				<path class="st0" d="M167.3,37.8H98.7v27.4H88.4V32.4c-0.1-4.6,0.7-9.3,2.2-13.7c1.3-3.8,3.5-7.3,6.3-10.2
					c2.9-2.9,6.3-5,10.1-6.3c4.4-1.5,9.1-2.3,13.8-2.2h46.5V37.8z M157.1,27.4V10.3h-35.3c-3.3,0-6.6,0.2-9.9,0.7
					c-2.4,0.3-4.6,1.2-6.6,2.6c-1.8,1.3-3.2,3.1-4,5.2c-1.1,2.8-1.7,5.7-2,8.7H157.1z"/>
				<path class="st0" d="M253.8,65.2h-10.2V37.8h-58.3v27.4h-10.3V32.4c-0.1-4.6,0.7-9.3,2.2-13.7c1.3-3.8,3.5-7.3,6.3-10.2
					c2.9-2.9,6.4-5,10.2-6.3c4.4-1.5,9.1-2.3,13.8-2.2h46.4V65.2z M243.6,10.3h-35.8c-3.4-0.1-6.8,0.2-10.1,0.7
					c-2.3,0.3-4.5,1.2-6.4,2.6c-1.7,1.3-3,3.2-3.7,5.2c-0.9,2.8-1.6,5.7-1.8,8.7h57.9V10.3z"/>
				<path class="st0" d="M342.6,65.2h-78.9V32.4c-0.1-4.6,0.7-9.3,2.2-13.7c1.3-3.8,3.5-7.3,6.3-10.2c2.9-2.9,6.4-5,10.2-6.3
					c4.4-1.5,9.1-2.3,13.8-2.2h46.4v10.3h-46c-3.5-0.1-7.1,0.3-10.5,1.2c-2.6,0.7-5,2-7,3.9c-1.9,2-3.2,4.4-3.9,7
					c-0.9,3.4-1.3,7-1.2,10.5v22h68.6L342.6,65.2z"/>
				<path class="st0" d="M429.5,65.2h-78.9V32.4c-0.1-4.6,0.7-9.2,2.1-13.6c1.3-3.8,3.4-7.3,6.3-10.2c2.9-2.9,6.4-5.1,10.2-6.4
					c4.5-1.6,9.2-2.3,13.9-2.2h46.4v10.3h-46c-3.2,0-6.4,0.3-9.5,1c-2.4,0.5-4.6,1.5-6.6,3c-1.8,1.4-3.2,3.2-4.1,5.3
					c-1,2.5-1.7,5.2-2,7.9h68.3v10.3h-68.7v17.1h68.6V65.2z"/>
			</g>
		</g>
	</g>
</g>
</svg>
