<svg id="Capa_1" data-name="Capa 1" xmlns="http://www.w3.org/2000/svg" xmlns:xlink="http://www.w3.org/1999/xlink" viewBox="0 0 111.96 254.16"><defs><style>.cls-1,.cls-10,.cls-11,.cls-12,.cls-13,.cls-14,.cls-15,.cls-17,.cls-19,.cls-2,.cls-21,.cls-22,.cls-24,.cls-25,.cls-26,.cls-27,.cls-28,.cls-29,.cls-3,.cls-30,.cls-31,.cls-32,.cls-33,.cls-34,.cls-35,.cls-37,.cls-39,.cls-4,.cls-40,.cls-41,.cls-5,.cls-7,.cls-8,.cls-9{fill-rule:evenodd;}.cls-1{fill:url(#Degradado_sin_nombre);}.cls-2{fill:url(#Degradado_sin_nombre_2);}.cls-3{fill:url(#Degradado_sin_nombre_3);}.cls-15,.cls-23,.cls-4{fill:#31165f;}.cls-5{fill:url(#Degradado_sin_nombre_4);}.cls-6,.cls-7{fill:#53345f;}.cls-8{fill:url(#Degradado_sin_nombre_5);}.cls-10,.cls-15,.cls-17,.cls-36,.cls-9{opacity:0.5;}.cls-10,.cls-15,.cls-17,.cls-9{isolation:isolate;}.cls-9{fill:url(#Degradado_sin_nombre_6);}.cls-10{fill:url(#Degradado_sin_nombre_7);}.cls-11{fill:url(#Degradado_sin_nombre_8);}.cls-12{fill:#a6345f;}.cls-13{fill:url(#Degradado_sin_nombre_9);}.cls-14{fill:url(#Degradado_sin_nombre_10);}.cls-16,.cls-37{fill:#fff;}.cls-17{fill:url(#Degradado_sin_nombre_11);}.cls-18{fill:url(#Degradado_sin_nombre_12);}.cls-19{fill:url(#Degradado_sin_nombre_13);}.cls-20{fill:url(#Degradado_sin_nombre_14);}.cls-21{fill:url(#Degradado_sin_nombre_15);}.cls-22{fill:url(#Degradado_sin_nombre_16);}.cls-24{fill:url(#Degradado_sin_nombre_17);}.cls-25{fill:url(#Degradado_sin_nombre_18);}.cls-26{fill:url(#Degradado_sin_nombre_19);}.cls-27{fill:url(#Degradado_sin_nombre_20);}.cls-28{fill:url(#Degradado_sin_nombre_21);}.cls-29{fill:url(#Degradado_sin_nombre_22);}.cls-30{fill:url(#Degradado_sin_nombre_23);}.cls-31{fill:#6f2561;}.cls-32{fill:url(#Degradado_sin_nombre_24);}.cls-33{fill:#ff4c61;}.cls-34{fill:url(#Degradado_sin_nombre_25);}.cls-35{fill:url(#Degradado_sin_nombre_26);}.cls-38{opacity:0.36;}.cls-39{fill:url(#Degradado_sin_nombre_27);}.cls-40{fill:url(#Degradado_sin_nombre_28);}.cls-41{fill:url(#Degradado_sin_nombre_29);}.cls-42{fill:url(#Degradado_sin_nombre_30);}.cls-43{fill:url(#Degradado_sin_nombre_34);}.cls-44{fill:url(#Degradado_sin_nombre_35);}</style><linearGradient id="Degradado_sin_nombre" x1="101.81" y1="0.43" x2="101.81" y2="67.18" gradientTransform="matrix(1, 0, 0, -1, 0, 258)" gradientUnits="userSpaceOnUse"><stop offset="0" stop-color="#a43440"/><stop offset="1" stop-color="#c73634"/></linearGradient><linearGradient id="Degradado_sin_nombre_2" x1="11.31" y1="-20799.3" x2="11.31" y2="-16640.4" xlink:href="#Degradado_sin_nombre"/><radialGradient id="Degradado_sin_nombre_3" cx="42.42" cy="144.83" r="1" gradientTransform="matrix(74.55, 0, 0, -136.63, -3097.22, 19877.78)" gradientUnits="userSpaceOnUse"><stop offset="0" stop-color="#f4bab3"/><stop offset="0.77" stop-color="#8d6fc7"/><stop offset="0.96" stop-color="#b695e5"/></radialGradient><radialGradient id="Degradado_sin_nombre_4" cx="40.86" cy="150.23" r="1" gradientTransform="matrix(20.12, 0, 0, -18.31, -765.22, 2764.54)" gradientUnits="userSpaceOnUse"><stop offset="0.02" stop-color="#ab5e75"/><stop offset="0.25" stop-color="#9f577b"/><stop offset="0.67" stop-color="#7f458c"/><stop offset="0.99" stop-color="#61349c"/></radialGradient><linearGradient id="Degradado_sin_nombre_5" x1="56.24" y1="246.26" x2="56.24" y2="254.59" gradientTransform="matrix(1, 0, 0, -1, 0, 258)" gradientUnits="userSpaceOnUse"><stop offset="0" stop-color="#ffff18"/><stop offset="1" stop-color="#ff7400"/></linearGradient><radialGradient id="Degradado_sin_nombre_6" cx="41.79" cy="145.74" r="1" gradientTransform="matrix(35.54, 0, 0, -65.42, -1429.08, 9719)" gradientUnits="userSpaceOnUse"><stop offset="0.02" stop-color="#8881bc"/><stop offset="0.29" stop-color="#8375b7"/><stop offset="0.77" stop-color="#7555aa"/><stop offset="0.99" stop-color="#6d43a3"/></radialGradient><radialGradient id="Degradado_sin_nombre_7" cx="42.98" cy="144.04" r="1" gradientTransform="matrix(2561.37, 0, 0, -2768.48, -61419.92, 410749.12)" xlink:href="#Degradado_sin_nombre_6"/><radialGradient id="Degradado_sin_nombre_8" cx="42.09" cy="145.45" r="1" gradientTransform="matrix(47.11, 0, 0, -78.82, -1924.33, 11512.71)" gradientUnits="userSpaceOnUse"><stop offset="0.02" stop-color="#725eb0"/><stop offset="0.38" stop-color="#6d52aa"/><stop offset="0.99" stop-color="#61349c"/></radialGradient><linearGradient id="Degradado_sin_nombre_9" x1="56.68" y1="149" x2="56.68" y2="207.32" gradientTransform="matrix(1, 0, 0, -1, 0, 258)" gradientUnits="userSpaceOnUse"><stop offset="0" stop-color="#ffff29"/><stop offset="1" stop-color="#ff7e59"/></linearGradient><radialGradient id="Degradado_sin_nombre_10" cx="-8.46" cy="-97.47" r="0.03" gradientTransform="matrix(630.23, 0, 0, -286.26, 5386.31, -27660.43)" xlink:href="#Degradado_sin_nombre_8"/><radialGradient id="Degradado_sin_nombre_11" cx="42.97" cy="144.36" r="1" gradientTransform="matrix(1718.96, 0, 0, -316.08, -25869.98, 47058.01)" xlink:href="#Degradado_sin_nombre_6"/><linearGradient id="Degradado_sin_nombre_12" x1="54.7" y1="97.52" x2="54.7" y2="101.03" gradientTransform="matrix(1, 0, 0, -1, 0, 258)" gradientUnits="userSpaceOnUse"><stop offset="0" stop-color="#8dc7ff"/><stop offset="0.32" stop-color="#5c4d86"/></linearGradient><radialGradient id="Degradado_sin_nombre_13" cx="11.88" cy="226.47" r="1" gradientTransform="matrix(1.38, 0, 0, -1.38, 38.53, 471.08)" gradientUnits="userSpaceOnUse"><stop offset="0.02" stop-color="#8881bc"/><stop offset="0.29" stop-color="#8375b7"/><stop offset="0.77" stop-color="#7555aa"/><stop offset="1" stop-color="#6d43a3"/></radialGradient><linearGradient id="Degradado_sin_nombre_14" x1="54.7" y1="-388.2" x2="54.7" y2="-376.67" xlink:href="#Degradado_sin_nombre_12"/><radialGradient id="Degradado_sin_nombre_15" cx="30.94" cy="175.97" r="1" gradientTransform="matrix(3.56, 0, 0, -3.57, 1791.49, 1361.14)" xlink:href="#Degradado_sin_nombre_13"/><radialGradient id="Degradado_sin_nombre_16" cx="11.88" cy="226.47" r="1" gradientTransform="matrix(1.38, 0, 0, -1.38, 9.58, 403.23)" gradientUnits="userSpaceOnUse"><stop offset="0" stop-color="#f4bab3"/><stop offset="1" stop-color="#8d6fc7"/></radialGradient><radialGradient id="Degradado_sin_nombre_17" cx="31.03" cy="175.72" r="1" gradientTransform="matrix(3.59, 0, 0, -3.59, 1711.51, 1067)" xlink:href="#Degradado_sin_nombre_16"/><radialGradient id="Degradado_sin_nombre_18" cx="30.94" cy="175.97" r="1" gradientTransform="matrix(3.57, 0, 0, -3.57, 1746.77, 1219.73)" xlink:href="#Degradado_sin_nombre_16"/><radialGradient id="Degradado_sin_nombre_19" cx="31.03" cy="175.72" r="1" gradientTransform="matrix(3.59, 0, 0, -3.59, 1857.73, 1235.07)" xlink:href="#Degradado_sin_nombre_16"/><radialGradient id="Degradado_sin_nombre_20" cx="30.94" cy="175.97" r="1" gradientTransform="matrix(3.56, 0, 0, -3.57, 1910.29, 1168.51)" xlink:href="#Degradado_sin_nombre_16"/><radialGradient id="Degradado_sin_nombre_21" cx="31.03" cy="175.72" r="1" gradientTransform="matrix(3.59, 0, 0, -3.59, 1913.96, 1063.71)" xlink:href="#Degradado_sin_nombre_16"/><radialGradient id="Degradado_sin_nombre_22" cx="31.03" cy="175.72" r="1" gradientTransform="matrix(3.59, 0, 0, -3.59, 1864.06, 1005.82)" xlink:href="#Degradado_sin_nombre_16"/><radialGradient id="Degradado_sin_nombre_23" cx="31.03" cy="175.72" r="1" gradientTransform="matrix(3.59, 0, 0, -3.59, 1780.03, 996.76)" xlink:href="#Degradado_sin_nombre_16"/><linearGradient id="Degradado_sin_nombre_24" x1="69.69" y1="0.43" x2="69.69" y2="74.61" gradientTransform="matrix(1, 0, 0, -1, 0, 258)" gradientUnits="userSpaceOnUse"><stop offset="0" stop-color="#a43411"/><stop offset="1" stop-color="#c73634"/></linearGradient><linearGradient id="Degradado_sin_nombre_25" x1="3247.71" y1="183.32" x2="3265.73" y2="183.32" xlink:href="#Degradado_sin_nombre_5"/><linearGradient id="Degradado_sin_nombre_26" x1="2561.45" y1="184.53" x2="2577.31" y2="184.53" xlink:href="#Degradado_sin_nombre_5"/><linearGradient id="Degradado_sin_nombre_27" x1="27.21" y1="-918.31" x2="27.21" y2="-902.92" xlink:href="#Degradado_sin_nombre_12"/><linearGradient id="Degradado_sin_nombre_28" x1="85.75" y1="-719.81" x2="85.75" y2="-707.19" xlink:href="#Degradado_sin_nombre_12"/><linearGradient id="Degradado_sin_nombre_29" x1="57.91" y1="-899.13" x2="57.91" y2="-883.65" xlink:href="#Degradado_sin_nombre_12"/><radialGradient id="Degradado_sin_nombre_30" cx="43.05" cy="154.3" r="1" gradientTransform="matrix(11.05, -4.22, -4.22, -11.05, 235.12, 2069.92)" gradientUnits="userSpaceOnUse"><stop offset="0" stop-color="#003cee"/><stop offset="0.06" stop-color="#0036d6"/><stop offset="0.2" stop-color="#00289e"/><stop offset="0.34" stop-color="#001c6d"/><stop offset="0.48" stop-color="#001246"/><stop offset="0.62" stop-color="#000a27"/><stop offset="0.75" stop-color="#000412"/><stop offset="0.88" stop-color="#000104"/><stop offset="1"/></radialGradient><radialGradient id="Degradado_sin_nombre_34" cx="43.03" cy="147.14" r="1" gradientTransform="matrix(36.15, -14.01, -14.02, -36.16, 10406.75, 1603.28)" xlink:href="#Degradado_sin_nombre_30"/><radialGradient id="Degradado_sin_nombre_35" cx="43.03" cy="147.15" r="1" gradientTransform="matrix(36.07, -13.98, -13.98, -36.08, 9807.3, 1674.37)" xlink:href="#Degradado_sin_nombre_30"/></defs><path class="cls-1" d="M95.47,194l17-3.13s2.71,31.53-17.62,66.75H93.19l1.28-47.21-3.38-.13Z" transform="translate(-0.57 -3.41)"/><path class="cls-2" d="M18.1,194,.69,190.82S-2,222.35,18.32,257.57h1.6l-1.25-47.21,3.38-.13Z" transform="translate(-0.57 -3.41)"/><path class="cls-3" d="M56.72,10.79C34.78,10.79.42,63.7,3.16,112.92S28.61,234.45,28.61,234.45l28.11.28,28.09-.28s22.64-72.3,25.41-121.51S78.5,10.79,56.72,10.79Z" transform="translate(-0.57 -3.41)"/><path class="cls-4" d="M28.61,234.45s32-2.84,56.2,0C84.81,234.45,53.43,237.53,28.61,234.45Z" transform="translate(-0.57 -3.41)"/><path class="cls-5" d="M27.24,33.07s31.06-9.85,60.65,2.57c0,0-15.26-24.65-31.17-24.85C42.39,10.66,27.24,33.07,27.24,33.07Z" transform="translate(-0.57 -3.41)"/><path class="cls-6" d="M87.78,35.89C60.28,24,27.65,33.24,27.31,33.32l-.15-.51c.34-.1,33.21-9.37,60.83,2.58Z" transform="translate(-0.57 -3.41)"/><path class="cls-7" d="M49.33,12.54l16.43.82S57.43,7.4,49.33,12.54Z" transform="translate(-0.57 -3.41)"/><path class="cls-8" d="M51.62,11.74a34.44,34.44,0,0,1,9.24-.23s-1.81-7.82-4.63-8.09S51.62,11.74,51.62,11.74Z" transform="translate(-0.57 -3.41)"/><path class="cls-9" d="M15.61,186.65S63,171.09,98.91,182c-4.67,20.56-14.1,52.43-14.1,52.43s-21.42-3-56.2,0C28.61,234.45,19.88,210.69,15.61,186.65Z" transform="translate(-0.57 -3.41)"/><path class="cls-10" d="M54.88,46.36C35.08,47.91,21,71.52,20.08,92.12s17.91,33.22,38,32.6S94.74,110.35,92.44,87.8C90.37,67.41,76.85,44.66,54.88,46.36Z" transform="translate(-0.57 -3.41)"/><path class="cls-4" d="M54.88,43.1C35.08,44.64,21,68.25,20.08,88.84s17.91,33.22,38,32.61,36.68-14.38,34.38-36.93C90.37,64.13,76.85,41.38,54.88,43.1Z" transform="translate(-0.57 -3.41)"/><path class="cls-11" d="M54.88,40.8C35.08,42.35,21,66,20.08,86.56s17.91,33.21,38,32.6,36.66-14.37,34.38-36.93C90.37,61.85,76.85,39.1,54.88,40.8Z" transform="translate(-0.57 -3.41)"/><path class="cls-12" d="M56.16,48.12C38.42,49.19,29.53,67.75,28.81,83.84s14.08,25.89,29.84,25.44,28.83-11.21,27-28.82C84.07,64.55,74.72,47,56.16,48.12Z" transform="translate(-0.57 -3.41)"/><path class="cls-13" d="M75.28,103.52A29.19,29.19,0,0,1,58.63,109c-15,.42-30.43-9.88-29.75-25.18A42.18,42.18,0,0,1,32.4,68.64c4.17-9.43,12.08-16.94,23.86-17.88,17.39-1.4,26.54,15.63,28.09,30.78C85.32,91.3,81.55,98.84,75.28,103.52Z" transform="translate(-0.57 -3.41)"/><path class="cls-6" d="M58.17,121.45h-.53v57.18h.53Z" transform="translate(-0.57 -3.41)"/><path class="cls-6" d="M15.68,186.9l-.14-.51c54.27-15.73,83.18-4.73,83.47-4.62l-.2.51C98.52,182.16,69.75,171.23,15.68,186.9Z" transform="translate(-0.57 -3.41)"/><path class="cls-6" d="M11.45,167.82l-.3-.45c.17-.11,17-11,46.74-12.62v.54C28.31,156.88,11.61,167.71,11.45,167.82Z" transform="translate(-0.57 -3.41)"/><path class="cls-4" d="M64.45,219.78l-.79-24.68,6.73-1.71-.66,26.39Z" transform="translate(-0.57 -3.41)"/><path class="cls-14" d="M33.26,234.93a301.11,301.11,0,0,1,48.33-.22l-1.45,11.06L34.6,244.55Z" transform="translate(-0.57 -3.41)"/><path class="cls-15" d="M33.93,239.81a42.24,42.24,0,0,1,19.22-4.29c11,.24,27.32,7.65,27.32,7.65l1.08-8.5s-26.08-2.54-48.33.23Z" transform="translate(-0.57 -3.41)"/><path class="cls-16" d="M67.12,57.55a41.35,41.35,0,0,1,7.86,11l3.81-2.2s-2.92-7.05-8.38-9.55Z" transform="translate(-0.57 -3.41)"/><path class="cls-16" d="M34.37,88.83l3.15,5.55-3.15,1.86L32.11,91.6Z" transform="translate(-0.57 -3.41)"/><path class="cls-17" d="M20.89,43.06S52,27,92.45,43l-4.56-7.36s-23.38-11-60.65-2.57Z" transform="translate(-0.57 -3.41)"/><path class="cls-18" d="M54.7,160.48A1.76,1.76,0,1,0,53,158.72,1.76,1.76,0,0,0,54.7,160.48Z" transform="translate(-0.57 -3.41)"/><path class="cls-19" d="M56.08,158.72a1.39,1.39,0,0,1-.23.77,1.34,1.34,0,0,1-.62.51,1.37,1.37,0,0,1-.8.08,1.28,1.28,0,0,1-.7-.38,1.3,1.3,0,0,1-.38-.71,1.27,1.27,0,0,1,.08-.79,1.34,1.34,0,0,1,1.27-.86,1.39,1.39,0,0,1,1,.41,1.37,1.37,0,0,1,.4,1Z" transform="translate(-0.57 -3.41)"/><path class="cls-20" d="M54.7,151.8A1.76,1.76,0,1,0,53,150,1.76,1.76,0,0,0,54.7,151.8Z" transform="translate(-0.57 -3.41)"/><path class="cls-21" d="M56.08,150a1.39,1.39,0,0,1-.23.77,1.42,1.42,0,0,1-1.42.58,1.45,1.45,0,0,1-.71-.38,1.39,1.39,0,0,1-.37-.71,1.3,1.3,0,0,1,.08-.8,1.39,1.39,0,0,1,.51-.62,1.39,1.39,0,0,1,2,.63,1.22,1.22,0,0,1,.1.53Z" transform="translate(-0.57 -3.41)"/><path class="cls-4" d="M27.51,90.86a1.75,1.75,0,0,1-.3,1,1.82,1.82,0,0,1-.79.66,1.79,1.79,0,0,1-1.93-.38,1.68,1.68,0,0,1-.48-.91,1.78,1.78,0,0,1,.09-1,1.75,1.75,0,0,1,.66-.79,1.72,1.72,0,0,1,1-.3,1.74,1.74,0,0,1,1.24.51A1.78,1.78,0,0,1,27.51,90.86Z" transform="translate(-0.57 -3.41)"/><path class="cls-22" d="M27.13,90.86a1.4,1.4,0,0,1-.85,1.3,1.33,1.33,0,0,1-.81.08,1.3,1.3,0,0,1-.71-.38,1.39,1.39,0,0,1-.39-.71,1.45,1.45,0,0,1,.08-.8,1.38,1.38,0,0,1,.51-.63,1.36,1.36,0,0,1,.78-.24,1.4,1.4,0,0,1,1.39,1.38Z" transform="translate(-0.57 -3.41)"/><path class="cls-23" d="M28.82,67.73A1.76,1.76,0,1,0,27.07,66,1.76,1.76,0,0,0,28.82,67.73Z" transform="translate(-0.57 -3.41)"/><path class="cls-24" d="M30.22,66a1.42,1.42,0,0,1-.23.78,1.45,1.45,0,0,1-.63.52,1.39,1.39,0,0,1-1.9-1,1.39,1.39,0,0,1,.59-1.43,1.35,1.35,0,0,1,.77-.24A1.42,1.42,0,0,1,30.22,66Z" transform="translate(-0.57 -3.41)"/><path class="cls-4" d="M44,110.55a1.75,1.75,0,0,1-1.09,1.62,1.67,1.67,0,0,1-1,.1,1.75,1.75,0,0,1-1.28-2.39,1.73,1.73,0,0,1,.65-.79,1.66,1.66,0,0,1,1-.3A1.78,1.78,0,0,1,44,110.55Z" transform="translate(-0.57 -3.41)"/><path class="cls-25" d="M43.58,110.55a1.36,1.36,0,0,1-.23.76,1.43,1.43,0,0,1-.63.51,1.34,1.34,0,0,1-.79.07,1.3,1.3,0,0,1-.71-.38,1.36,1.36,0,0,1-.37-.71,1.27,1.27,0,0,1,.08-.79,1.29,1.29,0,0,1,.51-.62,1.36,1.36,0,0,1,.76-.23,1.39,1.39,0,0,1,.53.1,1.37,1.37,0,0,1,.45.3,1.41,1.41,0,0,1,.3.46,1.19,1.19,0,0,1,.1.53Z" transform="translate(-0.57 -3.41)"/><path class="cls-4" d="M71.21,112.66a1.79,1.79,0,0,1-.29,1,1.74,1.74,0,0,1-.79.66,1.82,1.82,0,0,1-1,.11A1.81,1.81,0,0,1,67.71,113a1.7,1.7,0,0,1,.1-1,1.76,1.76,0,0,1,.65-.8,1.79,1.79,0,0,1,1-.3,1.77,1.77,0,0,1,1.25.52A1.75,1.75,0,0,1,71.21,112.66Z" transform="translate(-0.57 -3.41)"/><path class="cls-26" d="M70.83,112.66A1.38,1.38,0,0,1,70,114a1.37,1.37,0,0,1-.8.09,1.44,1.44,0,0,1-.72-.38,1.34,1.34,0,0,1-.38-.71,1.4,1.4,0,0,1,.07-.81,1.51,1.51,0,0,1,.52-.63,1.42,1.42,0,0,1,.77-.23,1.38,1.38,0,0,1,1.39,1.38Z" transform="translate(-0.57 -3.41)"/><path class="cls-4" d="M89.64,96.22a1.79,1.79,0,0,1-.29,1,1.76,1.76,0,0,1-1.81.75,1.79,1.79,0,0,1-1.38-1.38,1.86,1.86,0,0,1,.1-1,1.75,1.75,0,0,1,1.63-1.08,1.74,1.74,0,0,1,1.75,1.75Z" transform="translate(-0.57 -3.41)"/><path class="cls-27" d="M89.27,96.22A1.4,1.4,0,0,1,89,97a1.38,1.38,0,0,1-.62.5,1.45,1.45,0,0,1-.8.08,1.42,1.42,0,0,1-.7-.38,1.34,1.34,0,0,1-.38-.71,1.45,1.45,0,0,1,.08-.8,1.38,1.38,0,0,1,1.81-.74,1.38,1.38,0,0,1,.75.75A1.39,1.39,0,0,1,89.27,96.22Z" transform="translate(-0.57 -3.41)"/><path class="cls-4" d="M86.83,65.06a1.77,1.77,0,0,1-1.09,1.64,1.7,1.7,0,0,1-1,.11,1.77,1.77,0,0,1-.91-.49,1.74,1.74,0,0,1-.49-.9,1.82,1.82,0,0,1,.11-1,1.73,1.73,0,0,1,.65-.79,1.79,1.79,0,0,1,2.23.22,1.81,1.81,0,0,1,.52,1.24Z" transform="translate(-0.57 -3.41)"/><path class="cls-28" d="M86.45,65.06a1.37,1.37,0,0,1-.86,1.29,1.41,1.41,0,0,1-.81.08,1.39,1.39,0,0,1-.71-.39,1.37,1.37,0,0,1-.38-.71,1.41,1.41,0,0,1,.09-.81,1.34,1.34,0,0,1,.51-.62,1.42,1.42,0,0,1,.78-.23,1.4,1.4,0,0,1,.53.11,1.38,1.38,0,0,1,.75.75A1.39,1.39,0,0,1,86.45,65.06Z" transform="translate(-0.57 -3.41)"/><path class="cls-23" d="M71.21,50.74A1.76,1.76,0,1,0,69.45,49,1.76,1.76,0,0,0,71.21,50.74Z" transform="translate(-0.57 -3.41)"/><path class="cls-29" d="M72.59,49a1.42,1.42,0,0,1-.23.78,1.34,1.34,0,0,1-.62.51,1.41,1.41,0,0,1-.81.09,1.41,1.41,0,0,1-1.1-1.1,1.5,1.5,0,0,1,.08-.81,1.43,1.43,0,0,1,.52-.62,1.28,1.28,0,0,1,.78-.23,1.41,1.41,0,0,1,1,.4,1.39,1.39,0,0,1,.41,1Z" transform="translate(-0.57 -3.41)"/><path class="cls-23" d="M47.87,48.22a1.76,1.76,0,1,0-1.76-1.76A1.76,1.76,0,0,0,47.87,48.22Z" transform="translate(-0.57 -3.41)"/><path class="cls-30" d="M49.25,46.46a1.4,1.4,0,0,1-.85,1.3,1.5,1.5,0,0,1-.81.08,1.38,1.38,0,0,1-1.1-1.1,1.5,1.5,0,0,1,.08-.81,1.4,1.4,0,0,1,1.3-.85,1.39,1.39,0,0,1,1,.4A1.42,1.42,0,0,1,49.25,46.46Z" transform="translate(-0.57 -3.41)"/><path class="cls-31" d="M19.92,257.57h1.3l-1.3-47.26-1.28.05Z" transform="translate(-0.57 -3.41)"/><path class="cls-31" d="M94.47,210.36l-1.28-.05-.87,47.26h.87Z" transform="translate(-0.57 -3.41)"/><path class="cls-32" d="M69,183.39h4.63L69,257.57H65.76Z" transform="translate(-0.57 -3.41)"/><path class="cls-33" d="M69,183.39l-3.23,16.42v57.76Z" transform="translate(-0.57 -3.41)"/><path class="cls-15" d="M73.47,185.67l11.34,48.76-11.19-.61-.15,11.77H69.73Z" transform="translate(-0.57 -3.41)"/><path class="cls-16" d="M17.35,57.23s-.45-5.1,2.78-8.25l2.63.13a84.46,84.46,0,0,1-4.09,8.12Z" transform="translate(-0.57 -3.41)"/><path class="cls-16" d="M98.91,169.5l4.84-22.06h1.35l-4.6,22.06Z" transform="translate(-0.57 -3.41)"/><path class="cls-34" d="M104.52,70.78s8.19-1.7,2.22,7.91Z" transform="translate(-0.57 -3.41)"/><path class="cls-35" d="M9.22,69.68s-7.58,2.25-2.14,7.59Z" transform="translate(-0.57 -3.41)"/><g class="cls-36"><path class="cls-37" d="M36.55,233.62S15.42,168.26,7.15,119.49l-2.06,1S15,195.35,29.72,234.33Z" transform="translate(-0.57 -3.41)"/></g><path class="cls-37" d="M104.5,142.43l2.43-13.6h1.29l-2.44,13.6Z" transform="translate(-0.57 -3.41)"/><path class="cls-37" d="M19.27,164.51s14-6.26,27.35-7.5C46.62,157,33.32,159.93,19.27,164.51Z" transform="translate(-0.57 -3.41)"/><path class="cls-37" d="M58.55,126.78l.34,50.13S59.76,158.72,58.55,126.78Z" transform="translate(-0.57 -3.41)"/><path class="cls-37" d="M25.74,184.57s33.36-9.81,65.34-3.52C91.09,181.05,67.37,175.24,25.74,184.57Z" transform="translate(-0.57 -3.41)"/><path class="cls-37" d="M33.19,52.94s4.55,1.84,7.21-6.66a41,41,0,0,0-7.21,6.66Z" transform="translate(-0.57 -3.41)"/><path class="cls-37" d="M62,118.87S73,118.3,85.87,106.46C85.87,106.46,78.12,117.26,62,118.87Z" transform="translate(-0.57 -3.41)"/><path class="cls-37" d="M57.9,109.31S67.44,114.43,74,105C74,105,68.9,109.56,57.9,109.31Z" transform="translate(-0.57 -3.41)"/><g class="cls-38"><g class="cls-38"><path class="cls-37" d="M56.05,130.77c-.57.38-1.65.92-1.48,1.79a10.9,10.9,0,0,0,.45,1.12,5,5,0,0,1,.22,1.07,3.09,3.09,0,0,0,.64,1.6c.26.28.54,0,.71-.28a1.8,1.8,0,0,0,.4-.94,7.78,7.78,0,0,1,.17-1.36c.05-.17.18-.32.22-.51a3.14,3.14,0,0,0,0-.75,1.84,1.84,0,0,0-.38-1.08,1.81,1.81,0,0,0-1-.66Z" transform="translate(-0.57 -3.41)"/></g><g class="cls-38"><path class="cls-37" d="M53.75,138a.58.58,0,0,1,0-.32.5.5,0,0,1,.16-.27c.84,0,1.13,1.69.34,2s-1.07-.88-.74-1.42Z" transform="translate(-0.57 -3.41)"/></g><g class="cls-38"><path class="cls-37" d="M38.19,148.64c.45-.21.81-.51,1.29-.4a2,2,0,0,1,1.07.66,3.43,3.43,0,0,1,.63,1.37,1.32,1.32,0,0,1,.12.73,3.42,3.42,0,0,1-2.3,2,7.59,7.59,0,0,1-1.54.4,4.93,4.93,0,0,0-1.07.15,2,2,0,0,1-.91.09,2.56,2.56,0,0,1-1.68-2.27c.06-1.29,1.6-2.32,2.66-2.85C37.22,148.06,38.59,147.53,38.19,148.64Z" transform="translate(-0.57 -3.41)"/></g><g class="cls-38"><path class="cls-37" d="M42.23,146.87c-.11.38-.22.48.08.69a1.15,1.15,0,0,0,.37.12.82.82,0,0,0,.38-.06c.45-.15,1.07-.83.67-1.29-.16-.24-.56-.66-.84-.69a1.42,1.42,0,0,0-.82.4,1.32,1.32,0,0,0-.37.83Z" transform="translate(-0.57 -3.41)"/></g><g class="cls-38"><path class="cls-37" d="M59.16,159.53a2,2,0,0,0-.07.59v1.47c0,.95-.12,1.89-.14,2.84a14,14,0,0,0,.23,2,5.16,5.16,0,0,0,.2,1.07c.08,0,.1-.19.13-.26.12-.27.19-.56.32-.81.31-.57.62-1.16.89-1.74a2,2,0,0,1,.14-.34c.1-.13.24-.24.33-.35a2.5,2.5,0,0,0,.46-.7,4.44,4.44,0,0,0,.22-1.95c0-.21-.07-.41-.08-.64a4,4,0,0,0,0-.69,3.89,3.89,0,0,0-.55-1.39c-.29-.5-.62-1.38-1.28-1.52-.31-.07-.43.28-.48.54a6.13,6.13,0,0,1-.11,1,6.34,6.34,0,0,1-.21.86Z" transform="translate(-0.57 -3.41)"/></g><g class="cls-38"><path class="cls-37" d="M59.83,155.07c.15-.25.35-.69.7-.61s.36.59.33.87c-.09.65-.94,0-.89-.46Z" transform="translate(-0.57 -3.41)"/></g><g class="cls-38"><path class="cls-37" d="M66.26,159.2a1.22,1.22,0,0,0-.17.77.75.75,0,0,0,.78.59c.61,0,1.07-.14,1.15-.75a1.63,1.63,0,0,0-.1-.66,1.42,1.42,0,0,0-.36-.56.8.8,0,0,0-.51-.21c-.36,0-.53.26-.71.55Z" transform="translate(-0.57 -3.41)"/></g><g class="cls-38"><path class="cls-37" d="M79.8,178.08A12.76,12.76,0,0,1,82.61,177c.86-.17,1.73-.08,2.61-.17a24.42,24.42,0,0,0,3.56-.81,6.26,6.26,0,0,1,3.13-.14,3.14,3.14,0,0,1,1.18.52,3.2,3.2,0,0,1,.87,1,4.76,4.76,0,0,1,.44,1.51,2.48,2.48,0,0,0,.07.72,2.14,2.14,0,0,1,.08.44c0,.23-.11.23-.32.23a1.82,1.82,0,0,1-1.07-.27,6.12,6.12,0,0,0-1.9-.61c-.63-.1-1.24-.25-1.88-.33l-1.88-.23-1.62-.25c-.53-.08-1.07-.08-1.6-.12s-.9,0-1.34,0a5.89,5.89,0,0,0-.84,0,4.6,4.6,0,0,1-.64,0,3.31,3.31,0,0,0-.63,0,5.13,5.13,0,0,1-1-.32Z" transform="translate(-0.57 -3.41)"/></g><g class="cls-38"><path class="cls-37" d="M85.54,174.15c-.13.11-.31.22-.35.39a.66.66,0,0,0,0,.28c.08.39.75.42,1.07.43a3.82,3.82,0,0,0,2.6-.93,2.1,2.1,0,0,0,.54-.81,2.06,2.06,0,0,0,.14-.95,2.22,2.22,0,0,0-.72-1,2.28,2.28,0,0,0-1.14-.48,2.57,2.57,0,0,0-1.2-.1,2.67,2.67,0,0,0-1.11.47,1.23,1.23,0,0,0-.4.75c0,.22.07.43.07.66s-.15.56,0,.85A1,1,0,0,0,85.54,174.15Z" transform="translate(-0.57 -3.41)"/></g><g class="cls-38"><path class="cls-37" d="M91,174.22a.43.43,0,0,1,0-.25.36.36,0,0,1,.13-.22.39.39,0,0,1,.21-.19.42.42,0,0,1,.29,0,.7.7,0,0,1,.23.11.74.74,0,0,1,.16.2.54.54,0,0,1,.06.25.55.55,0,0,1,0,.25.72.72,0,0,1-.25.24.82.82,0,0,1-.34.09.58.58,0,0,1-.36-.1.66.66,0,0,1-.21-.31Z" transform="translate(-0.57 -3.41)"/></g><g class="cls-38"><path class="cls-37" d="M97.93,154.59a1.2,1.2,0,0,0-.69.56.44.44,0,0,0-.1.22.52.52,0,0,0,0,.25,2.43,2.43,0,0,0,1.25,1.07,1.41,1.41,0,0,0,.54.07,1.47,1.47,0,0,0,.53-.16,3,3,0,0,0,.7-.72,5.78,5.78,0,0,0,.53-.67,1.15,1.15,0,0,0,.22-1.34,1.61,1.61,0,0,0-.57-.53,1.64,1.64,0,0,0-.75-.19,2.12,2.12,0,0,0-1,.36C98.3,153.69,98,153.79,97.93,154.59Z" transform="translate(-0.57 -3.41)"/></g><g class="cls-38"><path class="cls-37" d="M96.1,156.62a1.9,1.9,0,0,1,.77.22c0,.12.15.18.1.32s-.41.15-.57.14a.86.86,0,0,1-.54-.24c0-.05-.27-.29-.1-.31Z" transform="translate(-0.57 -3.41)"/></g><g class="cls-38"><path class="cls-37" d="M71.68,172.46c-.17.31-.36.66-.06,1a1,1,0,0,0,.56.21,1,1,0,0,0,.58-.12c.17-.08.39-.17.41-.37s0-.45,0-.67c0-.5.51-.86,0-1.35a1,1,0,0,0-.4-.25,1.24,1.24,0,0,0-.47-.06c-.51.1-.77.64-1,1.07Z" transform="translate(-0.57 -3.41)"/></g><g class="cls-38"><path class="cls-37" d="M30.68,191.2a3.18,3.18,0,0,0-1.51.83v.23a1.37,1.37,0,0,0-.13.59,1.34,1.34,0,0,0,.13.59c.6,1.16,1.8,1.07,2.89,1s2.67.13,2.14-1.49a4.9,4.9,0,0,0-1.27-2.42c-.37-.25-.55-.13-.9,0a4.29,4.29,0,0,0-1.4.66Z" transform="translate(-0.57 -3.41)"/></g><g class="cls-38"><path class="cls-37" d="M44.08,193c.18-.32.44-.93.9-1s.5.18.77.37c.59.42,1.15,1,.57,1.74a1.66,1.66,0,0,1-.61.4,1.6,1.6,0,0,1-.72.08c-.39-.06-1.07-.54-.91-1Z" transform="translate(-0.57 -3.41)"/></g><g class="cls-38"><path class="cls-37" d="M100.08,90.7a1.84,1.84,0,0,0-.22,1.85,4.18,4.18,0,0,0,.83,2c.66.71,1.58.53,2.43.72a1.61,1.61,0,0,0,.84.08,1.63,1.63,0,0,0,.78-.35,6.19,6.19,0,0,0,1.45-1.73,8.23,8.23,0,0,0,.85-3.48,8.34,8.34,0,0,0-.68-3.52c-.61-1.37-1.5-2.91-3-3.34a3.73,3.73,0,0,0-2,0,3.66,3.66,0,0,0-1.71,1,4.23,4.23,0,0,0-.88,3.74c.09.31.17.61.25.93a6,6,0,0,1,0,1.2C99.1,90.09,99.35,90.48,100.08,90.7Z" transform="translate(-0.57 -3.41)"/></g><g class="cls-38"><path class="cls-37" d="M97.66,94.15c.84.68.72.57.85,1.43.06.37.21.46.12.81a1.21,1.21,0,0,1-.47.6,1.23,1.23,0,0,1-.72.23c-.36,0-.92-.71-1.07-1a.92.92,0,0,1-.13-.54,1,1,0,0,1,.18-.53Z" transform="translate(-0.57 -3.41)"/></g><g class="cls-38"><path class="cls-37" d="M12.24,94c-.18.74-.42,1.62.4,2.14a1.88,1.88,0,0,0,1.89-.38A5.06,5.06,0,0,0,16.09,93c.13-.94-1-1.95-1.87-2-1.75-.22-2.69,2.57-2.79,3.88Z" transform="translate(-0.57 -3.41)"/></g><g class="cls-38"><path class="cls-37" d="M11,102.07c-.1-.2-.52-.8-.45-1.07s.18-.15.23-.25a1.47,1.47,0,0,1,.36-.46,1.16,1.16,0,0,1,.52-.26,1.85,1.85,0,0,1,1.16.11,1.88,1.88,0,0,1,.84.81,1.09,1.09,0,0,1-.13,1.42,1.42,1.42,0,0,1-.94.43,1.39,1.39,0,0,1-1-.33Z" transform="translate(-0.57 -3.41)"/></g><g class="cls-38"><path class="cls-37" d="M88.72,196.28a6.45,6.45,0,0,0-.25,4c.17.86.28,2,1.21,2.39,2.14.9,3.84-3.77,4.28-5.24a9.39,9.39,0,0,0,.25-4,4.61,4.61,0,0,0-1.51-2.73,2.21,2.21,0,0,0-2.68.89c-1.38,1.79-1.07,4.08-1.67,6.12Z" transform="translate(-0.57 -3.41)"/></g><g class="cls-38"><path class="cls-37" d="M87.61,196a5.44,5.44,0,0,0-1.55.34c-.24.16-.63.41-.69.7a1.3,1.3,0,0,0,.08.59,1.17,1.17,0,0,0,.37.48.92.92,0,0,0,.77.24c.2-.08.36-.36.48-.53a4.45,4.45,0,0,0,.54-1,2.28,2.28,0,0,0,.21-.51c0-.29-.14-.38-.21-.61Z" transform="translate(-0.57 -3.41)"/></g><g class="cls-38"><path class="cls-37" d="M86.39,207.35l.74.33c0,.29.05.62-.23.82a1.49,1.49,0,0,1-.91.05.7.7,0,0,1-.37-.26.65.65,0,0,1-.14-.44c0-.38.36-.54.7-.61Z" transform="translate(-0.57 -3.41)"/></g><g class="cls-38"><path class="cls-37" d="M52.7,222.66a.83.83,0,0,0-.09.49.79.79,0,0,0,.23.43,1.09,1.09,0,0,0,.71.38,1.13,1.13,0,0,0,.77-.23,2.91,2.91,0,0,0,1.15-2.46c-.1-.55-.8-1.17-1.35-.85a4.32,4.32,0,0,0-.86.61,2.55,2.55,0,0,0-.56,1.54Z" transform="translate(-0.57 -3.41)"/></g><g class="cls-38"><path class="cls-37" d="M79.6,43.41c-.26.23-.39.31-.45.63a1.42,1.42,0,0,0,.1,1.07,3.84,3.84,0,0,0,2.22,1.28,2.08,2.08,0,0,0,.93,0,1.82,1.82,0,0,0,.85-.38,2.6,2.6,0,0,0,.77-.78,2.5,2.5,0,0,0,.37-1,1.64,1.64,0,0,0-.06-1.07,1.76,1.76,0,0,0-.67-.83,5.46,5.46,0,0,0-2-1,1.76,1.76,0,0,0-.85.06,1.64,1.64,0,0,0-.72.44C79.64,42.24,79.07,42.89,79.6,43.41Z" transform="translate(-0.57 -3.41)"/></g><g class="cls-38"><path class="cls-37" d="M85.27,45.94c0-.21,0-.45.21-.52a1.4,1.4,0,0,1,.57.1,1.36,1.36,0,0,1,.5.31,1.23,1.23,0,0,1,.29.8c0,.2-.22.36-.37.47a.66.66,0,0,1-.4.13.67.67,0,0,1-.41-.13c-.18-.1-.63-.34-.56-.61Z" transform="translate(-0.57 -3.41)"/></g><g class="cls-38"><path class="cls-37" d="M67.94,19.07a1.33,1.33,0,0,0,.21.91,3.89,3.89,0,0,0,1.18,1.24,3.64,3.64,0,0,0,2.15.63,1.51,1.51,0,0,0,.7-.41,1.5,1.5,0,0,0,.37-.73,3.06,3.06,0,0,0-.49-1.95,3.89,3.89,0,0,0-1.41-1.2,3.78,3.78,0,0,0-1.81-.4C67.55,17.22,67.49,19.29,67.94,19.07Z" transform="translate(-0.57 -3.41)"/></g><g class="cls-38"><path class="cls-37" d="M73.91,23.92a1,1,0,0,1-.31-.51c.2-.09.27-.32.48-.39a.66.66,0,0,1,.34,0,.75.75,0,0,1,.33.1.83.83,0,0,1,.34.3.87.87,0,0,1,.14.42c0,.36-.12.43-.41.59s-.25.15-.48,0a4.73,4.73,0,0,1-.43-.31Z" transform="translate(-0.57 -3.41)"/></g></g><path class="cls-39" d="M28.68,183.19c0,1.07-.65,2-1.46,2s-1.48-.91-1.48-2,.66-2,1.48-2S28.68,182.06,28.68,183.19Z" transform="translate(-0.57 -3.41)"/><path class="cls-16" d="M27.22,184.78c.64,0,1.15-.71,1.15-1.59s-.51-1.6-1.15-1.6-1.16.71-1.16,1.6S26.58,184.78,27.22,184.78Z" transform="translate(-0.57 -3.41)"/><path class="cls-40" d="M87.38,179a1.66,1.66,0,0,1-2.16,1.2,1.69,1.69,0,0,1-.75-.53,1.6,1.6,0,0,1-.35-.85,1.66,1.66,0,0,1,.76-1.59,1.59,1.59,0,0,1,.88-.26,1.86,1.86,0,0,1,1.62,2Z" transform="translate(-0.57 -3.41)"/><path class="cls-37" d="M87,179a1.27,1.27,0,0,1-.35.64,1.3,1.3,0,0,1-1.35.31,1.29,1.29,0,0,1-.59-.41,1.33,1.33,0,0,1-.17-1.38,1.42,1.42,0,0,1,.48-.55,1.32,1.32,0,0,1,.7-.2A1.48,1.48,0,0,1,87,179Z" transform="translate(-0.57 -3.41)"/><path class="cls-41" d="M59.94,178.63a2,2,0,0,1-.34,1.13,2,2,0,0,1-.92.75A2,2,0,0,1,55.91,179a2,2,0,0,1,2-2.43,2,2,0,0,1,1.43.59A2,2,0,0,1,59.94,178.63Z" transform="translate(-0.57 -3.41)"/><path class="cls-16" d="M57.91,180.23a1.6,1.6,0,1,0-1.6-1.6A1.6,1.6,0,0,0,57.91,180.23Z" transform="translate(-0.57 -3.41)"/><path class="cls-42" d="M62.49,193.77a11.85,11.85,0,1,0-14.43-8.52A11.84,11.84,0,0,0,62.49,193.77Z" transform="translate(-0.57 -3.41)"/><path class="cls-43" d="M89.06,177.3a4.53,4.53,0,0,1-1.1,5,4.57,4.57,0,0,1-7-.85,4.63,4.63,0,0,1-.71-2.56,4.57,4.57,0,0,1,.83-2.52,4.64,4.64,0,0,1,2.08-1.63,4.56,4.56,0,0,1,5.9,2.6Z" transform="translate(-0.57 -3.41)"/><path class="cls-44" d="M30.52,181.54a4.56,4.56,0,0,1-1.11,4.93,4.44,4.44,0,0,1-2.36,1.19,4.53,4.53,0,0,1-2.62-.31,4.6,4.6,0,0,1-2-1.73,4.52,4.52,0,0,1-.71-2.55,4.53,4.53,0,0,1,4.65-4.44A4.45,4.45,0,0,1,29.56,180a4.48,4.48,0,0,1,1,1.5Z" transform="translate(-0.57 -3.41)"/></svg>