<svg id="Capa_1" data-name="Capa 1" xmlns="http://www.w3.org/2000/svg" xmlns:xlink="http://www.w3.org/1999/xlink" viewBox="0 0 801 337.17"><defs><style>.cls-1,.cls-10,.cls-11,.cls-12,.cls-13,.cls-16,.cls-17,.cls-18,.cls-19,.cls-2,.cls-20,.cls-3,.cls-5,.cls-6,.cls-7,.cls-8,.cls-9{fill-rule:evenodd;}.cls-1{fill:url(#Degradado_sin_nombre);}.cls-2{fill:url(#Degradado_sin_nombre_2);}.cls-3{fill:url(#Degradado_sin_nombre_3);}.cls-4{fill:#3c107b;}.cls-5{fill:#31165f;}.cls-6{fill:#0054b5;}.cls-7{fill:#31c7ff;}.cls-8{fill:url(#Degradado_sin_nombre_4);}.cls-15,.cls-9{fill:#fff;}.cls-10{fill:url(#Degradado_sin_nombre_5);}.cls-11{fill:url(#Degradado_sin_nombre_6);}.cls-12{fill:url(#Degradado_sin_nombre_7);}.cls-13{fill:url(#Degradado_sin_nombre_8);}.cls-14{fill:#77439f;}.cls-16{fill:#ff935f;}.cls-17{fill:url(#Degradado_sin_nombre_9);}.cls-18{fill:url(#Degradado_sin_nombre_10);}.cls-19{fill:url(#Degradado_sin_nombre_12);}.cls-20{fill:url(#Degradado_sin_nombre_14);}</style><linearGradient id="Degradado_sin_nombre" x1="393.72" y1="142.05" x2="393.72" y2="339.1" gradientTransform="matrix(1, 0, 0, -1, 0, 340)" gradientUnits="userSpaceOnUse"><stop offset="0" stop-color="#ffff29"/><stop offset="1" stop-color="#ff7e59"/></linearGradient><radialGradient id="Degradado_sin_nombre_2" cx="384.24" cy="185.5" r="1" gradientTransform="matrix(219.57, 0, 0, -307.34, -83979.88, 57301.01)" gradientUnits="userSpaceOnUse"><stop offset="0.02" stop-color="#8343b0"/><stop offset="0.4" stop-color="#7937aa"/><stop offset="0.99" stop-color="#611b9c"/></radialGradient><radialGradient id="Degradado_sin_nombre_3" cx="384.86" cy="185.69" r="1" gradientTransform="matrix(338.05, 0, 0, -223.07, -129729.02, 41584.07)" gradientUnits="userSpaceOnUse"><stop offset="0" stop-color="#d4cfff"/><stop offset="1" stop-color="#8d6fc7"/></radialGradient><linearGradient id="Degradado_sin_nombre_4" x1="400.46" y1="-956.67" x2="400.46" y2="-918.35" xlink:href="#Degradado_sin_nombre"/><linearGradient id="Degradado_sin_nombre_5" x1="537.41" y1="-892.87" x2="537.41" y2="-860.13" xlink:href="#Degradado_sin_nombre"/><linearGradient id="Degradado_sin_nombre_6" x1="625.63" y1="-603.84" x2="625.63" y2="-590.34" xlink:href="#Degradado_sin_nombre"/><linearGradient id="Degradado_sin_nombre_7" x1="276.58" y1="-891.16" x2="276.58" y2="-858.41" xlink:href="#Degradado_sin_nombre"/><linearGradient id="Degradado_sin_nombre_8" x1="172.53" y1="-601.75" x2="172.53" y2="-588.26" xlink:href="#Degradado_sin_nombre"/><radialGradient id="Degradado_sin_nombre_9" cx="383.04" cy="185.79" r="1" gradientTransform="matrix(130.24, 0, 0, -196.61, -49499.41, 36649.64)" gradientUnits="userSpaceOnUse"><stop offset="0.02" stop-color="#725eb0"/><stop offset="0.38" stop-color="#6d52aa"/><stop offset="0.99" stop-color="#61349c"/></radialGradient><linearGradient id="Degradado_sin_nombre_10" x1="397.73" y1="91.96" x2="397.73" y2="101.13" gradientTransform="matrix(1, 0, 0, -1, 0, 340)" gradientUnits="userSpaceOnUse"><stop offset="0" stop-color="#8dc7ff"/><stop offset="0.32" stop-color="#5c4d86"/></linearGradient><linearGradient id="Degradado_sin_nombre_12" x1="727.35" y1="-775.18" x2="727.35" y2="-745.41" xlink:href="#Degradado_sin_nombre_10"/><linearGradient id="Degradado_sin_nombre_14" x1="84.39" y1="-613.66" x2="84.39" y2="-589.45" xlink:href="#Degradado_sin_nombre_10"/></defs><path class="cls-1" d="M149.22,190.9S255.2,8.16,384.87,1.08C519.42-6,638.22,198,638.22,198Z" transform="translate(0 -0.9)"/><path class="cls-2" d="M800.79,267.59c-2.06,6.79-149.47,70.06-400.13,70.06C168.8,337.65-2.12,278.1.18,267.59c1.63-7.4,179.24-32.22,400.3-32.22S802.31,262.49,800.79,267.59Z" transform="translate(0 -0.9)"/><path class="cls-3" d="M.18,267.59s116.32-112.3,384.69-112.3,415.92,112.3,415.92,112.3S690.7,242.1,384.87,242.1C140.68,242.1.18,267.59.18,267.59Z" transform="translate(0 -0.9)"/><path class="cls-4" d="M721.4,298.46l-1.7-.54c1.49-4.81-7.26-8.78-14.87-11.25C653.24,269.92,489.4,264.22,359,266c-163.16,2.23-276.62,15-282.32,31.86l-1.7-.6c7.37-21.49,151.52-31.08,284-32.89,130.55-1.77,294.67,4,346.44,20.78C717.72,289,723,293.43,721.4,298.46Z" transform="translate(0 -0.9)"/><path class="cls-5" d="M236.68,327.77s136.25-17.91,318.22,1.49C554.9,329.26,392,347.06,236.68,327.77Z" transform="translate(0 -0.9)"/><path class="cls-6" d="M252.79,329.26A1321.26,1321.26,0,0,1,538.19,331S390.5,348,252.79,329.26Z" transform="translate(0 -0.9)"/><path class="cls-7" d="M282.57,326s147.87,12,221.06.64C503.63,326.78,369,318.53,282.57,326Z" transform="translate(0 -0.9)"/><path class="cls-8" d="M427.5,294.56c0,3.22-12.11,5.81-27,5.81s-27.05-2.59-27.05-5.81a1.91,1.91,0,0,1,.21-.73,1.84,1.84,0,0,1,.5-.58c2.72-2.58,13.49-4.53,26.34-4.53,11.16,0,20.75,1.49,24.79,3.54C426.72,293,427.5,293.75,427.5,294.56Z" transform="translate(0 -0.9)"/><path class="cls-9" d="M425.38,292.33c0,2.76-11.58,5-25.85,5-12.64,0-23.16-1.77-25.39-4.07,2.72-2.58,13.49-4.53,26.34-4.53,11.16,0,20.75,1.49,24.79,3.54Z" transform="translate(0 -0.9)"/><path class="cls-10" d="M554.66,297.75c0,3-7.72,5.38-17.28,5.38-7.86,0-14.52-1.67-16.58-3.9a2.15,2.15,0,0,1-.63-1.48,2.11,2.11,0,0,1,.42-1.21c1.74-2.4,8.61-4.17,16.82-4.17a40.77,40.77,0,0,1,12.75,1.77,10.55,10.55,0,0,1,3.15,1.52,2.77,2.77,0,0,1,1.35,2.09Z" transform="translate(0 -0.9)"/><path class="cls-9" d="M550.83,295.62c0,3-7.72,5.35-17.28,5.35a42,42,0,0,1-12.75-1.74h0a2.15,2.15,0,0,1-.63-1.48,2.11,2.11,0,0,1,.42-1.21c1.74-2.4,8.61-4.17,16.82-4.17a40.77,40.77,0,0,1,12.75,1.77,2.32,2.32,0,0,1,.49.67,2.08,2.08,0,0,1,.18.81Z" transform="translate(0 -0.9)"/><path class="cls-11" d="M639.64,313.22c0,1.91-6.27,3.54-14,3.54a26.55,26.55,0,0,1-13.45-2.48h0a1.42,1.42,0,0,1-.4-.41,1.48,1.48,0,0,1-.17-.54,1.15,1.15,0,0,1,.39-.75c1.38-1.56,7.08-2.69,13.63-2.69A41.16,41.16,0,0,1,636,311a11,11,0,0,1,2.58,1C639.25,312.3,639.64,312.62,639.64,313.22Z" transform="translate(0 -0.9)"/><path class="cls-9" d="M636.52,311.87c0,1.88-6.26,3.54-14,3.54a42.3,42.3,0,0,1-10.34-1.13h0a1.42,1.42,0,0,1-.4-.41,1.48,1.48,0,0,1-.17-.54,1.15,1.15,0,0,1,.39-.75c1.38-1.56,7.08-2.69,13.63-2.69A41.16,41.16,0,0,1,636,311a1.31,1.31,0,0,1,.38.36,1.26,1.26,0,0,1,.18.49Z" transform="translate(0 -0.9)"/><path class="cls-12" d="M259.3,297.32c0,3,7.72,5.38,17.28,5.38,7.87,0,14.52-1.66,16.61-3.89a2.15,2.15,0,0,0,.67-1.49,2,2,0,0,0-.46-1.2c-1.73-2.37-8.6-4.18-16.82-4.18a40.71,40.71,0,0,0-12.74,1.77,11.52,11.52,0,0,0-3.16,1.52,2.83,2.83,0,0,0-.94.88A2.77,2.77,0,0,0,259.3,297.32Z" transform="translate(0 -0.9)"/><path class="cls-9" d="M263.13,295.2c0,3,7.75,5.35,17.28,5.35a42.5,42.5,0,0,0,12.78-1.74h0a2.15,2.15,0,0,0,.67-1.49,2,2,0,0,0-.46-1.2c-1.73-2.37-8.6-4.18-16.82-4.18a40.71,40.71,0,0,0-12.74,1.77,2.06,2.06,0,0,0-.51.67,2.15,2.15,0,0,0-.2.82Z" transform="translate(0 -0.9)"/><path class="cls-13" d="M158.46,312.62c0,1.87,6.27,3.54,14.16,3.54a26.57,26.57,0,0,0,13.46-2.48,1.4,1.4,0,0,0,.53-1,1.14,1.14,0,0,0-.36-.78c-1.38-1.52-7.08-2.65-13.63-2.65a43.33,43.33,0,0,0-10.34,1.1,11.32,11.32,0,0,0-2.55,1C158.85,311.63,158.46,312.09,158.46,312.62Z" transform="translate(0 -0.9)"/><path class="cls-9" d="M161.54,311.2c0,1.88,6.27,3.54,14.16,3.54a42.33,42.33,0,0,0,10.34-1.1h0a1.25,1.25,0,0,0,.37-.42,1.21,1.21,0,0,0,.16-.53,1.13,1.13,0,0,0-.35-.78c-1.38-1.52-7.08-2.66-13.63-2.66a43.33,43.33,0,0,0-10.34,1.1,1.7,1.7,0,0,0-.45.35,1.41,1.41,0,0,0-.26.5Z" transform="translate(0 -0.9)"/><path class="cls-14" d="M738.18,232.75C564.68,158.8,388.76,162,271.7,177.56,144.82,194.52,57.86,229.42,57,229.78l-.67-1.63c.89-.36,88-35.4,215.11-52.33C388.69,160.14,565,157,738.82,231.12Z" transform="translate(0 -0.9)"/><path class="cls-4" d="M.39,268.43,0,266.59c1.17-.24,120.64-25.27,406.61-25.27S799.94,266.59,801,266.59l-.42,1.74c-1-.25-108.22-25.24-394-25.24S1.56,268.19.39,268.43Z" transform="translate(0 -0.9)"/><path class="cls-14" d="M88.91,256.26,87.71,255c.5-.46,48.76-45.21,85-61.25l.71,1.59C137.46,211.23,89.41,256,88.91,256.26Z" transform="translate(0 -0.9)"/><path class="cls-14" d="M726.78,257.57C671.4,212.11,589,186.37,588.15,186.13l.53-1.7c.82.24,83.57,26.09,139.2,71.76Z" transform="translate(0 -0.9)"/><path class="cls-15" d="M450.87,26.11S461.49,38,481.82,60.24l19.37.24s-10.63-18.23-39.8-34.37Z" transform="translate(0 -0.9)"/><path class="cls-16" d="M237.53,162.76a364.94,364.94,0,0,1,163.7-47.93,279.28,279.28,0,0,1,165.32,46.55S397.93,125.48,237.53,162.76Z" transform="translate(0 -0.9)"/><path class="cls-15" d="M176.76,166.3s25.68-39.15,57.12-67.83L245,95.89s-32,40.67-43.12,63.47Z" transform="translate(0 -0.9)"/><path class="cls-17" d="M149.22,190.9l5.52-8.77s293-87.38,474.67,1.77l5.38,8.35s-81.69-33.31-247-33.31S149.22,190.9,149.22,190.9Z" transform="translate(0 -0.9)"/><path class="cls-15" d="M182.47,251s197.44-19.08,498,3.54C680.5,254.49,470.35,239.12,182.47,251Z" transform="translate(0 -0.9)"/><path class="cls-18" d="M403.32,243.44a5.77,5.77,0,0,1-.37,3.43,5.7,5.7,0,1,1-5.23-8,5.17,5.17,0,0,1,5.6,4.56Z" transform="translate(0 -0.9)"/><path class="cls-9" d="M402.15,243.44a4.53,4.53,0,0,1-7.26,4.53,4.54,4.54,0,0,1-1.44-5,4.54,4.54,0,0,1,4.27-3,4.13,4.13,0,0,1,4.43,3.54Z" transform="translate(0 -0.9)"/><path class="cls-19" d="M733,255.62a5.74,5.74,0,0,1-11.15,2.67,5.74,5.74,0,0,1,5.52-7.27,5.16,5.16,0,0,1,5.63,4.6Z" transform="translate(0 -0.9)"/><path class="cls-9" d="M731.7,255.62a4.48,4.48,0,0,1-4.66,5.44,4.43,4.43,0,0,1-2.54-1,4.5,4.5,0,0,1,2.78-8,4.09,4.09,0,0,1,4.42,3.54Z" transform="translate(0 -0.9)"/><path class="cls-20" d="M90,255.62a5.18,5.18,0,0,1-5.6,4.57,4.72,4.72,0,0,1-3.87-1,4.58,4.58,0,0,1-1.26-1.61,4.64,4.64,0,0,1-.45-2A4.7,4.7,0,0,1,80.51,252a4.66,4.66,0,0,1,1.83-.92,4.53,4.53,0,0,1,2,0,5.18,5.18,0,0,1,5.6,4.6Z" transform="translate(0 -0.9)"/><path class="cls-9" d="M88.77,255.62a4.49,4.49,0,0,1-.25,2.71,4.54,4.54,0,0,1-1.78,2.07,4.47,4.47,0,0,1-2.64.66,4.57,4.57,0,0,1-2.55-1,4.5,4.5,0,0,1,2.83-8,4.07,4.07,0,0,1,4.39,3.54Z" transform="translate(0 -0.9)"/><path class="cls-9" d="M159.63,266.59a6.11,6.11,0,0,0,2.69,0,13.59,13.59,0,0,0,2.9-.46c1-.39.74-.92,1-1.38s.28-.6-.39-.92a13.11,13.11,0,0,0-2.52-.85,30.47,30.47,0,0,0-10.26,0,9.28,9.28,0,0,0-4.85,1.7c-.54.75,0,1.6,1.34,2.13a14.14,14.14,0,0,0,5.45.49h3.12a1.7,1.7,0,0,0,.83-.17,1.81,1.81,0,0,0,.66-.54Z" transform="translate(0 -0.9)"/></svg>