<svg width="424" height="155" viewBox="0 0 424 155" fill="none" xmlns="http://www.w3.org/2000/svg">
<path fill-rule="evenodd" clip-rule="evenodd" d="M109.396 74.5259C109.396 74.5259 89.0078 93.6698 76.3496 138.53L83.7044 155H123.005L201.406 149.077L131.36 66.8284L109.396 74.5259Z" fill="url(#paint0_linear)"/>
<path fill-rule="evenodd" clip-rule="evenodd" d="M333.517 130.083C333.517 130.083 315.005 39.6372 247.286 7.62258C247.286 7.62258 212.488 -5.14831 155.376 2.47424C137.682 19.654 123.27 39.912 112.848 62.255L122.855 149.127H201.406L333.517 130.083Z" fill="url(#paint1_linear)"/>
<path fill-rule="evenodd" clip-rule="evenodd" d="M305.248 80.4741C296.192 85.7474 237.454 86.897 212.288 80.4741C208.595 79.8189 205.118 78.2749 202.156 75.9755C190.999 64.6792 167.934 9.7719 172.512 8.2224C188.072 2.92411 229.849 4.27367 251.388 11.6713C276.88 20.3435 316.005 74.2011 305.248 80.4741Z" fill="url(#paint2_linear)"/>
<path style="mix-blend-mode:multiply" opacity="0.5" fill-rule="evenodd" clip-rule="evenodd" d="M155.376 2.42432C155.376 2.42432 188.998 40.9869 201.406 128.309L333.517 130.083L201.406 149.077H123.005L112.999 62.205C112.999 62.205 133.337 21.7181 155.376 2.42432Z" fill="url(#paint3_linear)"/>
<g style="mix-blend-mode:multiply" opacity="0.7">
<path fill-rule="evenodd" clip-rule="evenodd" d="M201.406 128.309L122.98 149.077H201.406L333.517 130.083L201.406 128.309Z" fill="#864577"/>
</g>
<g style="mix-blend-mode:multiply" opacity="0.5">
<path fill-rule="evenodd" clip-rule="evenodd" d="M114.174 72.8516L109.396 74.526C93.9681 93.254 82.7034 115.046 76.3496 138.455L83.7044 154.925H123.005L201.406 149.002H123.005L114.174 72.8516Z" fill="#864577"/>
</g>
<g style="mix-blend-mode:multiply" opacity="0.5">
<path fill-rule="evenodd" clip-rule="evenodd" d="M109.396 74.5261L119.728 149.077L83.6793 155H122.98L201.406 149.077H122.98L114.149 72.8766L109.396 74.5261Z" fill="#864577"/>
</g>
<g style="mix-blend-mode:multiply" opacity="0.5">
<path fill-rule="evenodd" clip-rule="evenodd" d="M112.948 62.205C112.948 62.205 119.002 46.4351 138.89 48.4844C158.778 50.5337 168.485 137.031 168.485 137.031L123.005 149.077L112.948 62.205Z" fill="#864577"/>
</g>
<g style="mix-blend-mode:soft-light">
<path fill-rule="evenodd" clip-rule="evenodd" d="M144.844 51.7584L168.485 22.4178C172.508 29.7061 176.116 37.2157 179.292 44.9106L149.272 57.8064L144.844 51.7584Z" fill="#BBC5E3"/>
</g>
<g style="mix-blend-mode:soft-light">
<path fill-rule="evenodd" clip-rule="evenodd" d="M152.599 64.8041L183.294 55.0073C183.294 55.0073 189.874 72.7765 193.076 86.2722L161.33 94.3946C161.33 94.3946 156.427 73.4763 152.599 64.8041Z" fill="#BBC5E3"/>
</g>
<path d="M168.31 137.056C168.31 136.331 157.953 65.9288 145.67 53.1829C143.959 51.3185 141.808 49.9117 139.414 49.091C137.019 48.2703 134.457 48.0618 131.961 48.4844C128.009 49.2598 124.274 50.8868 121.017 53.2522C117.759 55.6176 115.057 58.6643 113.099 62.18L112.773 62.0051C114.757 58.4383 117.498 55.3484 120.804 52.9523C124.11 50.5561 127.901 48.9117 131.911 48.1345C134.453 47.6894 137.066 47.886 139.513 48.7066C141.959 49.5272 144.162 50.9456 145.92 52.833C158.278 65.6789 168.56 136.181 168.66 136.906L168.31 137.056Z" fill="#5C396B"/>
<path fill-rule="evenodd" clip-rule="evenodd" d="M152.599 113.938L150.748 94.3946C150.748 94.3946 91.9848 93.3949 1.70109 142.329L0 149.502L2.10136 155C2.10136 155 65.7928 140.005 120.829 133.107L152.599 113.938Z" fill="url(#paint4_linear)"/>
<path fill-rule="evenodd" clip-rule="evenodd" d="M323.736 98.6931C323.736 98.6931 382.099 106.191 423.075 120.836L421.299 128.758C386.426 124.51 358.008 122.835 331.24 121.636L323.736 98.6931Z" fill="url(#paint5_linear)"/>
<g style="mix-blend-mode:multiply" opacity="0.5">
<path fill-rule="evenodd" clip-rule="evenodd" d="M1.70109 142.329L5.77875 145.703C5.77875 145.703 91.7597 113.788 152.599 113.938L120.829 133.107C120.829 133.107 77.6505 138.105 2.10136 155L0 149.502L1.70109 142.329Z" fill="#864577"/>
</g>
<g style="mix-blend-mode:multiply" opacity="0.7">
<path fill-rule="evenodd" clip-rule="evenodd" d="M421.299 128.758C421.299 128.758 394.632 122.211 328.739 113.938L331.24 121.636C358.983 122.86 386.626 124.585 421.299 128.758Z" fill="#864577"/>
</g>
<g style="mix-blend-mode:multiply" opacity="0.7">
<path fill-rule="evenodd" clip-rule="evenodd" d="M152.599 113.938L123.005 149.077L83.7044 155L76.975 140.005L2.10132 155L5.77871 145.703C5.77871 145.703 77.0751 118.662 152.599 113.938Z" fill="#864577"/>
</g>
<g style="mix-blend-mode:multiply" opacity="0.5">
<path fill-rule="evenodd" clip-rule="evenodd" d="M220.944 125.759C220.944 125.759 225.522 113.538 231.726 108.515C237.93 103.492 300.345 101.942 307.075 102.517C313.804 103.092 326.737 126.934 326.737 126.934L220.944 125.759Z" fill="#864577"/>
</g>
<path fill-rule="evenodd" clip-rule="evenodd" d="M220.944 125.759L320.133 126.934C320.133 126.934 310.552 110.214 302.171 107.565C293.791 104.916 232.126 108.115 229.349 110.914C226.572 113.713 220.944 125.759 220.944 125.759Z" fill="#361537"/>
<path d="M270.651 106.716L270.401 106.466L273.628 103.142L267.249 84.8976L267.599 84.7726L274.053 103.242L270.651 106.716Z" fill="#5C396B"/>
<path d="M354.831 123.01L354.806 122.635L378.346 120.711L378.746 108.54H379.121L378.696 121.061H378.546L354.831 123.01Z" fill="#5C396B"/>
<path d="M75.0488 125.585L71.3464 111.189L71.6967 111.114L75.3991 125.51L75.0488 125.585Z" fill="#5C396B"/>
<path fill-rule="evenodd" clip-rule="evenodd" d="M52.3839 118.462L59.8888 121.461L88.8576 113.838L97.1881 103.317C97.1881 103.317 68.7445 111.389 52.3839 118.462Z" fill="url(#paint6_radial)"/>
<path fill-rule="evenodd" clip-rule="evenodd" d="M358.133 104.266L363.136 110.914L391.279 115.688L398.509 113.189C398.509 113.189 375.844 107.365 358.133 104.266Z" fill="url(#paint7_radial)"/>
<path style="mix-blend-mode:multiply" opacity="0.5" fill-rule="evenodd" clip-rule="evenodd" d="M251.388 11.5713C251.388 11.5713 219.818 32.5146 212.288 80.4491C208.597 79.8013 205.12 78.2659 202.156 75.9755C190.999 64.6792 167.934 9.77189 172.512 8.22239C188.072 2.82413 229.849 4.1737 251.388 11.5713Z" fill="url(#paint8_linear)"/>
<g style="mix-blend-mode:soft-light">
<path fill-rule="evenodd" clip-rule="evenodd" d="M229.799 11.6462C250.172 21.665 268.246 35.7906 282.884 53.1329L296.718 53.6827C296.718 53.6827 281.208 24.3921 254.716 12.8709C246.59 10.711 238.098 10.2936 229.799 11.6462V11.6462Z" fill="white"/>
</g>
<g style="mix-blend-mode:soft-light">
<path fill-rule="evenodd" clip-rule="evenodd" d="M225.071 11.6463C225.071 11.6463 246.185 18.4941 278.031 53.6828L249.312 55.0073C249.312 55.0073 230.675 22.5178 199.755 12.521C199.755 12.621 210.587 11.6463 225.071 11.6463Z" fill="white"/>
</g>
<path style="mix-blend-mode:screen" d="M339.731 96.7818C342.925 83.3247 334.594 69.8288 321.124 66.6378C307.654 63.4467 294.145 71.7689 290.951 85.226C287.756 98.6831 296.087 112.179 309.557 115.37C323.027 118.561 336.536 110.239 339.731 96.7818Z" fill="url(#paint9_radial)"/>
<path style="mix-blend-mode:screen" d="M225.213 115.123C235.002 105.343 235.002 89.4875 225.213 79.7081C215.424 69.9286 199.553 69.9286 189.764 79.7081C179.975 89.4876 179.975 105.343 189.764 115.123C199.553 124.902 215.424 124.902 225.213 115.123Z" fill="url(#paint10_radial)"/>
<path fill-rule="evenodd" clip-rule="evenodd" d="M144.644 52.808C144.644 52.808 157.152 64.1543 163.006 113.288C163.006 113.288 158.103 72.8515 144.644 52.808Z" fill="#9D89B8"/>
<path fill-rule="evenodd" clip-rule="evenodd" d="M193.651 88.4715C193.651 88.4715 216.716 93.4699 220.944 97.2936C225.171 101.117 197.253 104.266 197.253 104.266C197.253 104.266 195.552 96.3689 193.651 88.4715Z" fill="white"/>
<path fill-rule="evenodd" clip-rule="evenodd" d="M318.582 86.697C318.582 86.697 307.525 91.8704 307.075 94.3945C306.624 96.9187 323.736 98.6931 323.736 98.6931C323.736 98.6931 320.659 91.1456 318.582 86.697Z" fill="white"/>
<defs>
<linearGradient id="paint0_linear" x1="138.89" y1="155" x2="138.89" y2="66.8284" gradientUnits="userSpaceOnUse">
<stop stop-color="#9089BF"/>
<stop offset="1" stop-color="#D1BDF1"/>
</linearGradient>
<linearGradient id="paint1_linear" x1="223.22" y1="149.077" x2="223.22" y2="3.35198e-05" gradientUnits="userSpaceOnUse">
<stop stop-color="#AEA9ED"/>
<stop offset="1" stop-color="#EAE1F9"/>
</linearGradient>
<linearGradient id="paint2_linear" x1="239.481" y1="84.8727" x2="239.481" y2="4.92346" gradientUnits="userSpaceOnUse">
<stop stop-color="#6A6FE2"/>
<stop offset="1" stop-color="#5B2D74"/>
</linearGradient>
<linearGradient id="paint3_linear" x1="112.949" y1="75.7507" x2="333.517" y2="75.7507" gradientUnits="userSpaceOnUse">
<stop stop-color="#8B7CBD"/>
<stop offset="1" stop-color="#724577"/>
</linearGradient>
<linearGradient id="paint4_linear" x1="68149.3" y1="5882.36" x2="77457.8" y2="5882.36" gradientUnits="userSpaceOnUse">
<stop stop-color="#AEA9ED"/>
<stop offset="1" stop-color="#EAE1F9"/>
</linearGradient>
<linearGradient id="paint5_linear" x1="57540.4" y1="2837.64" x2="61485.2" y2="2837.64" gradientUnits="userSpaceOnUse">
<stop stop-color="#AEA9ED"/>
<stop offset="1" stop-color="#EAE1F9"/>
</linearGradient>
<radialGradient id="paint6_radial" cx="0" cy="0" r="1" gradientUnits="userSpaceOnUse" gradientTransform="translate(74.8235 112.264) scale(17.1361 17.1195)">
<stop stop-color="#55DBD6"/>
<stop offset="1" stop-color="#4AA1FF"/>
</radialGradient>
<radialGradient id="paint7_radial" cx="0" cy="0" r="1" gradientUnits="userSpaceOnUse" gradientTransform="translate(24496.3 1127.62) scale(239.835 67.8426)">
<stop stop-color="#55DBD6"/>
<stop offset="1" stop-color="#4AA1FF"/>
</radialGradient>
<linearGradient id="paint8_linear" x1="171.912" y1="42.6863" x2="251.388" y2="42.6863" gradientUnits="userSpaceOnUse">
<stop stop-color="#C77CBD"/>
<stop offset="1" stop-color="#974577"/>
</linearGradient>
<radialGradient id="paint9_radial" cx="0" cy="0" r="1" gradientUnits="userSpaceOnUse" gradientTransform="translate(315.312 91.0235) scale(25.0663 25.0419)">
<stop stop-color="#0056FF"/>
<stop offset="1"/>
</radialGradient>
<radialGradient id="paint10_radial" cx="0" cy="0" r="1" gradientUnits="userSpaceOnUse" gradientTransform="translate(26729.6 4307.97) scale(502.328 501.84)">
<stop stop-color="#0056FF"/>
<stop offset="1"/>
</radialGradient>
</defs>
</svg>
