<svg width="3164" height="810" viewBox="0 0 3164 810" fill="none" xmlns="http://www.w3.org/2000/svg">
<path fill-rule="evenodd" clip-rule="evenodd" d="M132.826 169.054C132.826 169.054 227.163 6.45975 342.587 0.160259C462.355 -6.13923 568.103 175.372 568.103 175.372L132.826 169.054Z" fill="url(#paint0_linear_20:6899)"/>
<path fill-rule="evenodd" clip-rule="evenodd" d="M712.813 237.29C710.979 243.332 579.764 299.627 356.642 299.627C150.255 299.627 -1.88713 246.641 0.160188 237.29C1.61111 230.706 159.708 208.622 356.482 208.622C553.256 208.622 714.166 232.752 712.813 237.29Z" fill="url(#paint1_radial_20:6899)"/>
<path fill-rule="evenodd" clip-rule="evenodd" d="M0.160278 237.29C0.160278 237.29 103.701 137.37 342.587 137.37C581.473 137.37 712.813 237.29 712.813 237.29C712.813 237.29 614.818 214.61 342.587 214.61C125.225 214.61 0.160278 237.29 0.160278 237.29Z" fill="url(#paint2_radial_20:6899)"/>
<path d="M642.145 264.757L640.632 264.276C641.958 259.997 634.169 256.464 627.396 254.266C581.473 239.363 435.633 234.291 319.559 235.875C174.325 237.859 73.3296 249.221 68.2558 264.223L66.7426 263.689C73.3029 244.568 201.616 236.035 319.542 234.425C435.749 232.85 581.838 237.984 627.921 252.914C638.869 256.34 643.569 260.281 642.145 264.757Z" fill="#3C107B"/>
<path fill-rule="evenodd" clip-rule="evenodd" d="M210.678 290.835C210.678 290.835 331.959 274.9 493.937 292.161C493.937 292.161 348.934 307.999 210.678 290.835Z" fill="#31165F"/>
<path fill-rule="evenodd" clip-rule="evenodd" d="M225.018 292.162C309.507 283.507 394.686 284.026 479.063 293.71C479.063 293.71 347.599 308.836 225.018 292.162Z" fill="#0054B5"/>
<path fill-rule="evenodd" clip-rule="evenodd" d="M251.526 289.261C251.526 289.261 383.151 299.938 448.3 289.83C448.3 289.955 328.461 282.614 251.526 289.261Z" fill="#31C7FF"/>
<path fill-rule="evenodd" clip-rule="evenodd" d="M380.534 261.287C380.534 264.152 369.754 266.457 356.5 266.457C343.246 266.457 332.422 264.152 332.422 261.287C332.44 261.06 332.504 260.839 332.609 260.637C332.719 260.436 332.871 260.26 333.054 260.121C335.475 257.826 345.062 256.091 356.5 256.091C366.434 256.091 374.97 257.417 378.567 259.241C379.839 259.899 380.534 260.566 380.534 261.287Z" fill="url(#paint3_linear_20:6899)"/>
<path fill-rule="evenodd" clip-rule="evenodd" d="M378.647 259.303C378.647 261.758 368.339 263.752 355.637 263.752C344.385 263.752 335.021 262.177 333.036 260.13C335.457 257.835 345.044 256.1 356.482 256.1C366.416 256.1 374.953 257.425 378.549 259.249L378.647 259.303Z" fill="white"/>
<path fill-rule="evenodd" clip-rule="evenodd" d="M493.724 264.125C493.724 266.794 486.852 268.912 478.342 268.912C471.346 268.912 465.417 267.426 463.583 265.442C463.233 265.092 463.032 264.62 463.023 264.125C463.033 263.736 463.163 263.36 463.397 263.048C464.945 260.913 471.061 259.338 478.369 259.338C482.211 259.259 486.042 259.79 489.718 260.913C490.721 261.204 491.669 261.661 492.522 262.265C492.853 262.46 493.135 262.73 493.343 263.052C493.552 263.375 493.682 263.742 493.724 264.125Z" fill="url(#paint4_linear_20:6899)"/>
<path fill-rule="evenodd" clip-rule="evenodd" d="M490.314 262.229C490.314 264.899 483.442 266.99 474.933 266.99C471.093 267.059 467.265 266.537 463.583 265.442V265.442C463.233 265.092 463.032 264.62 463.023 264.125C463.033 263.736 463.163 263.36 463.397 263.048C464.945 260.913 471.061 259.338 478.369 259.338C482.211 259.259 486.042 259.79 489.718 260.913C489.898 261.084 490.046 261.285 490.154 261.509C490.255 261.736 490.31 261.981 490.314 262.229V262.229Z" fill="white"/>
<path fill-rule="evenodd" clip-rule="evenodd" d="M569.367 277.889C569.367 279.589 563.786 281.039 556.906 281.039C552.79 281.361 548.663 280.6 544.933 278.832V278.832C544.791 278.736 544.67 278.612 544.577 278.468C544.496 278.319 544.445 278.156 544.426 277.987C544.453 277.729 544.577 277.49 544.773 277.32C546.001 275.932 551.075 274.926 556.906 274.926C560.009 274.864 563.108 275.196 566.127 275.914C566.927 276.113 567.699 276.412 568.424 276.804C569.02 277.071 569.367 277.355 569.367 277.889Z" fill="url(#paint5_linear_20:6899)"/>
<path fill-rule="evenodd" clip-rule="evenodd" d="M566.59 276.688C566.59 278.361 561.018 279.838 554.128 279.838C551.031 279.883 547.939 279.545 544.924 278.833V278.833C544.782 278.736 544.661 278.612 544.568 278.468C544.487 278.319 544.436 278.156 544.417 277.987C544.444 277.729 544.568 277.49 544.764 277.32C545.992 275.932 551.066 274.927 556.897 274.927C560.003 274.863 563.105 275.195 566.127 275.914C566.261 275.997 566.376 276.106 566.466 276.234C566.549 276.367 566.603 276.516 566.626 276.67L566.59 276.688Z" fill="white"/>
<path fill-rule="evenodd" clip-rule="evenodd" d="M230.813 263.742C230.813 266.411 237.684 268.529 246.194 268.529C253.2 268.529 259.119 267.052 260.979 265.068C261.345 264.721 261.559 264.245 261.576 263.742C261.56 263.351 261.417 262.975 261.166 262.674C259.626 260.565 253.511 258.955 246.194 258.955C242.354 258.876 238.527 259.407 234.854 260.53C233.853 260.835 232.904 261.291 232.041 261.882C231.706 262.076 231.419 262.343 231.204 262.665C230.991 262.988 230.857 263.357 230.813 263.742V263.742Z" fill="url(#paint6_linear_20:6899)"/>
<path fill-rule="evenodd" clip-rule="evenodd" d="M234.222 261.856C234.222 264.525 241.12 266.616 249.603 266.616C253.452 266.681 257.288 266.159 260.979 265.068V265.068C261.345 264.721 261.559 264.245 261.576 263.742C261.56 263.351 261.417 262.975 261.166 262.674C259.626 260.565 253.511 258.955 246.194 258.955C242.354 258.876 238.527 259.407 234.854 260.53C234.663 260.695 234.508 260.898 234.4 261.126C234.293 261.355 234.232 261.603 234.222 261.856V261.856Z" fill="white"/>
<path fill-rule="evenodd" clip-rule="evenodd" d="M141.051 277.356C141.051 279.02 146.632 280.506 153.655 280.506C157.773 280.829 161.904 280.068 165.637 278.299C165.773 278.192 165.885 278.057 165.967 277.904C166.048 277.751 166.096 277.582 166.109 277.409C166.096 277.145 165.981 276.896 165.788 276.715C164.56 275.363 159.486 274.357 153.655 274.357C150.559 274.313 147.469 274.642 144.451 275.336C143.662 275.54 142.899 275.839 142.182 276.226C141.398 276.475 141.051 276.884 141.051 277.356Z" fill="url(#paint7_linear_20:6899)"/>
<path fill-rule="evenodd" clip-rule="evenodd" d="M143.793 276.092C143.793 277.765 149.374 279.242 156.397 279.242C159.494 279.295 162.585 278.967 165.601 278.264V278.264C165.738 278.165 165.85 278.038 165.93 277.89C166.014 277.746 166.062 277.584 166.073 277.418C166.064 277.155 165.952 276.906 165.761 276.724C164.533 275.372 159.459 274.357 153.629 274.357C150.533 274.313 147.442 274.642 144.425 275.336C144.275 275.417 144.139 275.522 144.024 275.648C143.918 275.779 143.839 275.93 143.793 276.092V276.092Z" fill="white"/>
<path d="M657.082 206.291C502.643 140.493 346.05 143.34 241.85 157.185C128.91 172.275 51.5034 203.328 50.7379 203.648L50.1415 202.198C50.9337 201.878 128.474 170.7 241.619 155.637C345.988 141.685 502.928 138.892 657.651 204.841L657.082 206.291Z" fill="#77439F"/>
<path d="M0.347154 238.037L0 236.4C1.04146 236.187 107.386 213.916 361.939 213.916C616.491 213.916 712.056 236.4 713 236.4L712.626 237.948C711.736 237.726 616.295 215.491 361.912 215.491C107.529 215.491 1.38861 237.824 0.347154 238.037Z" fill="#3C107B"/>
<path d="M79.1421 227.209L78.074 226.088C78.519 225.678 121.477 185.862 153.736 171.59L154.368 173.005C122.358 187.143 79.5872 226.977 79.1421 227.209Z" fill="#77439F"/>
<path d="M646.934 228.375C597.638 187.926 524.291 165.024 523.534 164.81L524.006 163.298C524.736 163.511 598.395 186.512 647.913 227.147L646.934 228.375Z" fill="#77439F"/>
<path d="M401.336 22.4307C401.336 22.4307 410.789 33.0099 428.886 52.7981L446.128 53.0117C446.128 53.0117 436.666 36.7914 410.7 22.4307H401.336Z" fill="white"/>
<path fill-rule="evenodd" clip-rule="evenodd" d="M211.434 144.017C255.954 118.495 305.89 103.881 357.15 101.371C409.337 99.3833 460.825 113.875 504.307 142.789C504.307 142.789 354.212 110.847 211.434 144.017Z" fill="#FF935F"/>
<path d="M157.341 147.166C157.341 147.166 180.199 112.332 208.185 86.8141L218.084 84.5186C218.084 84.5186 189.599 120.705 179.701 140.992L157.341 147.166Z" fill="white"/>
<path fill-rule="evenodd" clip-rule="evenodd" d="M132.826 169.054L137.74 161.251C137.74 161.251 398.55 83.5034 560.261 162.825L565.05 170.255C565.05 170.255 492.335 140.617 345.186 140.617C198.038 140.617 132.826 169.054 132.826 169.054Z" fill="url(#paint8_radial_20:6899)"/>
<path fill-rule="evenodd" clip-rule="evenodd" d="M359.01 215.803C359.214 216.83 359.099 217.894 358.681 218.854C358.312 219.69 357.725 220.41 356.981 220.94C356.237 221.469 355.364 221.788 354.453 221.863C353.543 221.937 352.629 221.765 351.809 221.364C350.988 220.962 350.292 220.347 349.792 219.583C349.292 218.819 349.008 217.934 348.969 217.022C348.931 216.11 349.139 215.204 349.573 214.4C350.006 213.597 350.649 212.925 351.433 212.456C352.216 211.987 353.112 211.739 354.025 211.736C355.222 211.629 356.413 211.993 357.344 212.751C358.275 213.509 358.873 214.601 359.01 215.794V215.803Z" fill="url(#paint9_linear_20:6899)"/>
<path fill-rule="evenodd" clip-rule="evenodd" d="M357.969 215.802C358.154 216.618 358.081 217.472 357.758 218.245C357.436 219.017 356.881 219.671 356.171 220.114C355.46 220.557 354.63 220.768 353.794 220.718C352.958 220.667 352.158 220.358 351.506 219.833C350.862 219.312 350.394 218.606 350.165 217.81C349.935 217.014 349.956 216.167 350.225 215.384C350.506 214.602 351.023 213.927 351.703 213.449C352.383 212.971 353.194 212.715 354.025 212.715C354.961 212.637 355.89 212.921 356.623 213.506C357.356 214.092 357.838 214.935 357.969 215.864V215.802Z" fill="white"/>
<path fill-rule="evenodd" clip-rule="evenodd" d="M652.471 226.64C652.711 227.927 652.447 229.258 651.734 230.356C651.02 231.455 649.912 232.237 648.638 232.542C647.363 232.847 646.021 232.651 644.887 231.995C643.753 231.339 642.915 230.272 642.546 229.015C642.336 228.258 642.304 227.462 642.453 226.69C642.601 225.919 642.925 225.192 643.401 224.566C643.876 223.94 644.49 223.432 645.194 223.082C645.898 222.732 646.673 222.549 647.459 222.547C648.666 222.43 649.87 222.795 650.809 223.561C651.747 224.328 652.345 225.435 652.471 226.64V226.64Z" fill="url(#paint10_linear_20:6899)"/>
<path fill-rule="evenodd" clip-rule="evenodd" d="M651.313 226.639C651.447 227.243 651.439 227.869 651.289 228.469C651.139 229.069 650.851 229.625 650.449 230.095C650.046 230.564 649.54 230.934 648.97 231.174C648.401 231.414 647.783 231.519 647.165 231.479C646.337 231.428 645.546 231.117 644.904 230.59C644.263 230.072 643.797 229.368 643.57 228.576C643.344 227.783 643.368 226.94 643.638 226.161C643.909 225.382 644.413 224.706 645.083 224.225C645.753 223.743 646.554 223.48 647.379 223.472C648.315 223.388 649.247 223.669 649.98 224.256C650.713 224.843 651.191 225.69 651.313 226.621V226.639Z" fill="white"/>
<path fill-rule="evenodd" clip-rule="evenodd" d="M80.1124 226.639C79.9755 227.832 79.3779 228.925 78.4468 229.685C77.5157 230.444 76.3248 230.81 75.1276 230.705C74.5233 230.818 73.9015 230.796 73.3063 230.643C72.7111 230.489 72.1569 230.207 71.6828 229.815C71.2057 229.428 70.8223 228.939 70.5612 228.383C70.2966 227.827 70.1598 227.219 70.1606 226.603C70.1645 225.995 70.3011 225.395 70.5609 224.845C70.8207 224.294 71.1975 223.808 71.665 223.418C72.1405 223.028 72.6969 222.748 73.2939 222.599C73.8799 222.467 74.4882 222.467 75.0742 222.599C76.2755 222.495 77.4701 222.864 78.4019 223.629C79.3337 224.395 79.9285 225.494 80.059 226.692L80.1124 226.639Z" fill="url(#paint11_linear_20:6899)"/>
<path fill-rule="evenodd" clip-rule="evenodd" d="M79.0175 226.639C79.1947 227.447 79.1169 228.289 78.795 229.05C78.4684 229.812 77.9152 230.455 77.2105 230.892C76.5073 231.327 75.6859 231.533 74.8606 231.479C74.0307 231.422 73.2385 231.111 72.5907 230.59C71.9464 230.069 71.4793 229.362 71.2539 228.565C71.0285 227.768 71.0558 226.921 71.3321 226.14C71.6084 225.36 72.1201 224.684 72.7966 224.206C73.4732 223.728 74.2813 223.471 75.1098 223.472C76.042 223.391 76.9694 223.673 77.6979 224.26C78.4263 224.847 78.8992 225.694 79.0175 226.621V226.639Z" fill="white"/>
<path fill-rule="evenodd" clip-rule="evenodd" d="M2583.83 169.054C2583.83 169.054 2678.16 6.45975 2793.59 0.160259C2913.35 -6.13923 3019.1 175.372 3019.1 175.372L2583.83 169.054Z" fill="url(#paint12_linear_20:6899)"/>
<path fill-rule="evenodd" clip-rule="evenodd" d="M3163.81 237.29C3161.98 243.332 3030.76 299.627 2807.64 299.627C2601.26 299.627 2449.11 246.641 2451.16 237.29C2452.61 230.706 2610.71 208.622 2807.48 208.622C3004.26 208.622 3165.17 232.752 3163.81 237.29Z" fill="url(#paint13_radial_20:6899)"/>
<path fill-rule="evenodd" clip-rule="evenodd" d="M2451.16 237.29C2451.16 237.29 2554.7 137.37 2793.59 137.37C3032.47 137.37 3163.81 237.29 3163.81 237.29C3163.81 237.29 3065.82 214.61 2793.59 214.61C2576.22 214.61 2451.16 237.29 2451.16 237.29Z" fill="url(#paint14_radial_20:6899)"/>
<path d="M3093.15 264.757L3091.63 264.276C3092.96 259.997 3085.17 256.464 3078.4 254.266C3032.47 239.363 2886.63 234.291 2770.56 235.875C2625.32 237.859 2524.33 249.221 2519.26 264.223L2517.74 263.689C2524.3 244.568 2652.62 236.035 2770.54 234.425C2886.75 232.85 3032.84 237.984 3078.92 252.914C3089.87 256.34 3094.57 260.281 3093.15 264.757Z" fill="#3C107B"/>
<path fill-rule="evenodd" clip-rule="evenodd" d="M2661.68 290.835C2661.68 290.835 2782.96 274.9 2944.94 292.161C2944.94 292.161 2799.93 307.999 2661.68 290.835Z" fill="#31165F"/>
<path fill-rule="evenodd" clip-rule="evenodd" d="M2676.02 292.162C2760.51 283.507 2845.69 284.026 2930.06 293.71C2930.06 293.71 2798.6 308.836 2676.02 292.162Z" fill="#0054B5"/>
<path fill-rule="evenodd" clip-rule="evenodd" d="M2702.53 289.261C2702.53 289.261 2834.15 299.938 2899.3 289.83C2899.3 289.955 2779.46 282.614 2702.53 289.261Z" fill="#31C7FF"/>
<path fill-rule="evenodd" clip-rule="evenodd" d="M2831.53 261.287C2831.53 264.152 2820.75 266.457 2807.5 266.457C2794.25 266.457 2783.42 264.152 2783.42 261.287C2783.44 261.06 2783.5 260.839 2783.61 260.637C2783.72 260.436 2783.87 260.26 2784.05 260.121C2786.48 257.826 2796.06 256.091 2807.5 256.091C2817.43 256.091 2825.97 257.417 2829.57 259.241C2830.84 259.899 2831.53 260.566 2831.53 261.287Z" fill="url(#paint15_linear_20:6899)"/>
<path fill-rule="evenodd" clip-rule="evenodd" d="M2829.65 259.303C2829.65 261.758 2819.34 263.752 2806.64 263.752C2795.39 263.752 2786.02 262.177 2784.04 260.13C2786.46 257.835 2796.04 256.1 2807.48 256.1C2817.42 256.1 2825.95 257.425 2829.55 259.249L2829.65 259.303Z" fill="white"/>
<path fill-rule="evenodd" clip-rule="evenodd" d="M2944.72 264.125C2944.72 266.794 2937.85 268.912 2929.34 268.912C2922.35 268.912 2916.42 267.426 2914.58 265.442C2914.23 265.092 2914.03 264.62 2914.02 264.125C2914.03 263.736 2914.16 263.36 2914.4 263.048C2915.95 260.913 2922.06 259.338 2929.37 259.338C2933.21 259.259 2937.04 259.79 2940.72 260.913C2941.72 261.204 2942.67 261.661 2943.52 262.265C2943.85 262.46 2944.13 262.73 2944.34 263.052C2944.55 263.375 2944.68 263.742 2944.72 264.125Z" fill="url(#paint16_linear_20:6899)"/>
<path fill-rule="evenodd" clip-rule="evenodd" d="M2941.31 262.229C2941.31 264.899 2934.44 266.99 2925.93 266.99C2922.09 267.059 2918.26 266.537 2914.58 265.442V265.442C2914.23 265.092 2914.03 264.62 2914.02 264.125C2914.03 263.736 2914.16 263.36 2914.4 263.048C2915.95 260.913 2922.06 259.338 2929.37 259.338C2933.21 259.259 2937.04 259.79 2940.72 260.913C2940.9 261.084 2941.05 261.285 2941.15 261.509C2941.26 261.736 2941.31 261.981 2941.31 262.229V262.229Z" fill="white"/>
<path fill-rule="evenodd" clip-rule="evenodd" d="M3020.37 277.889C3020.37 279.589 3014.79 281.039 3007.91 281.039C3003.79 281.361 2999.66 280.6 2995.93 278.832V278.832C2995.79 278.736 2995.67 278.612 2995.58 278.468C2995.5 278.319 2995.44 278.156 2995.43 277.987C2995.45 277.729 2995.58 277.49 2995.77 277.32C2997 275.932 3002.08 274.926 3007.91 274.926C3011.01 274.864 3014.11 275.196 3017.13 275.914C3017.93 276.113 3018.7 276.412 3019.42 276.804C3020.02 277.071 3020.37 277.355 3020.37 277.889Z" fill="url(#paint17_linear_20:6899)"/>
<path fill-rule="evenodd" clip-rule="evenodd" d="M3017.59 276.688C3017.59 278.361 3012.02 279.838 3005.13 279.838C3002.03 279.883 2998.94 279.545 2995.92 278.833V278.833C2995.78 278.736 2995.66 278.612 2995.57 278.468C2995.49 278.319 2995.44 278.156 2995.42 277.987C2995.44 277.729 2995.57 277.49 2995.76 277.32C2996.99 275.932 3002.07 274.927 3007.9 274.927C3011 274.863 3014.1 275.195 3017.13 275.914C3017.26 275.997 3017.38 276.106 3017.47 276.234C3017.55 276.367 3017.6 276.516 3017.63 276.67L3017.59 276.688Z" fill="white"/>
<path fill-rule="evenodd" clip-rule="evenodd" d="M2681.81 263.742C2681.81 266.411 2688.68 268.529 2697.19 268.529C2704.2 268.529 2710.12 267.052 2711.98 265.068C2712.34 264.721 2712.56 264.245 2712.58 263.742C2712.56 263.351 2712.42 262.975 2712.17 262.674C2710.63 260.565 2704.51 258.955 2697.19 258.955C2693.35 258.876 2689.53 259.407 2685.85 260.53C2684.85 260.835 2683.9 261.291 2683.04 261.882C2682.71 262.076 2682.42 262.343 2682.2 262.665C2681.99 262.988 2681.86 263.357 2681.81 263.742V263.742Z" fill="url(#paint18_linear_20:6899)"/>
<path fill-rule="evenodd" clip-rule="evenodd" d="M2685.22 261.856C2685.22 264.525 2692.12 266.616 2700.6 266.616C2704.45 266.681 2708.29 266.159 2711.98 265.068V265.068C2712.34 264.721 2712.56 264.245 2712.58 263.742C2712.56 263.351 2712.42 262.975 2712.17 262.674C2710.63 260.565 2704.51 258.955 2697.19 258.955C2693.35 258.876 2689.53 259.407 2685.85 260.53C2685.66 260.695 2685.51 260.898 2685.4 261.126C2685.29 261.355 2685.23 261.603 2685.22 261.856V261.856Z" fill="white"/>
<path fill-rule="evenodd" clip-rule="evenodd" d="M2592.05 277.356C2592.05 279.02 2597.63 280.506 2604.66 280.506C2608.77 280.829 2612.9 280.068 2616.64 278.299C2616.77 278.192 2616.89 278.057 2616.97 277.904C2617.05 277.751 2617.1 277.582 2617.11 277.409C2617.1 277.145 2616.98 276.896 2616.79 276.715C2615.56 275.363 2610.49 274.357 2604.66 274.357C2601.56 274.313 2598.47 274.642 2595.45 275.336C2594.66 275.54 2593.9 275.839 2593.18 276.226C2592.4 276.475 2592.05 276.884 2592.05 277.356Z" fill="url(#paint19_linear_20:6899)"/>
<path fill-rule="evenodd" clip-rule="evenodd" d="M2594.79 276.092C2594.79 277.765 2600.37 279.242 2607.4 279.242C2610.49 279.295 2613.58 278.967 2616.6 278.264V278.264C2616.74 278.165 2616.85 278.038 2616.93 277.89C2617.01 277.746 2617.06 277.584 2617.07 277.418C2617.06 277.155 2616.95 276.906 2616.76 276.724C2615.53 275.372 2610.46 274.357 2604.63 274.357C2601.53 274.313 2598.44 274.642 2595.42 275.336C2595.27 275.417 2595.14 275.522 2595.02 275.648C2594.92 275.779 2594.84 275.93 2594.79 276.092V276.092Z" fill="white"/>
<path d="M3108.08 206.291C2953.64 140.493 2797.05 143.34 2692.85 157.185C2579.91 172.275 2502.5 203.328 2501.74 203.648L2501.14 202.198C2501.93 201.878 2579.47 170.7 2692.62 155.637C2796.99 141.685 2953.93 138.892 3108.65 204.841L3108.08 206.291Z" fill="#77439F"/>
<path d="M2451.35 238.037L2451 236.4C2452.04 236.187 2558.39 213.916 2812.94 213.916C3067.49 213.916 3163.06 236.4 3164 236.4L3163.63 237.948C3162.74 237.726 3067.3 215.491 2812.91 215.491C2558.53 215.491 2452.39 237.824 2451.35 238.037Z" fill="#3C107B"/>
<path d="M2530.14 227.209L2529.07 226.088C2529.52 225.678 2572.48 185.862 2604.74 171.59L2605.37 173.005C2573.36 187.143 2530.59 226.977 2530.14 227.209Z" fill="#77439F"/>
<path d="M3097.93 228.375C3048.64 187.926 2975.29 165.024 2974.53 164.81L2975.01 163.298C2975.74 163.511 3049.39 186.512 3098.91 227.147L3097.93 228.375Z" fill="#77439F"/>
<path d="M2852.34 22.4307C2852.34 22.4307 2861.79 33.0099 2879.89 52.7981L2897.13 53.0117C2897.13 53.0117 2887.67 36.7914 2861.7 22.4307H2852.34Z" fill="white"/>
<path fill-rule="evenodd" clip-rule="evenodd" d="M2662.43 144.017C2706.95 118.495 2756.89 103.881 2808.15 101.371C2860.34 99.3833 2911.82 113.875 2955.31 142.789C2955.31 142.789 2805.21 110.847 2662.43 144.017Z" fill="#FF935F"/>
<path d="M2608.34 147.166C2608.34 147.166 2631.2 112.332 2659.19 86.8141L2669.08 84.5186C2669.08 84.5186 2640.6 120.705 2630.7 140.992L2608.34 147.166Z" fill="white"/>
<path fill-rule="evenodd" clip-rule="evenodd" d="M2583.83 169.054L2588.74 161.251C2588.74 161.251 2849.55 83.5034 3011.26 162.825L3016.05 170.255C3016.05 170.255 2943.33 140.617 2796.19 140.617C2649.04 140.617 2583.83 169.054 2583.83 169.054Z" fill="url(#paint20_radial_20:6899)"/>
<path fill-rule="evenodd" clip-rule="evenodd" d="M2810.01 215.803C2810.21 216.83 2810.1 217.894 2809.68 218.854C2809.31 219.69 2808.73 220.41 2807.98 220.94C2807.24 221.469 2806.36 221.788 2805.45 221.863C2804.54 221.937 2803.63 221.765 2802.81 221.364C2801.99 220.962 2801.29 220.347 2800.79 219.583C2800.29 218.819 2800.01 217.934 2799.97 217.022C2799.93 216.11 2800.14 215.204 2800.57 214.4C2801.01 213.597 2801.65 212.925 2802.43 212.456C2803.22 211.987 2804.11 211.739 2805.03 211.736C2806.22 211.629 2807.41 211.993 2808.34 212.751C2809.28 213.509 2809.87 214.601 2810.01 215.794V215.803Z" fill="url(#paint21_linear_20:6899)"/>
<path fill-rule="evenodd" clip-rule="evenodd" d="M2808.97 215.802C2809.15 216.618 2809.08 217.472 2808.76 218.245C2808.44 219.017 2807.88 219.671 2807.17 220.114C2806.46 220.557 2805.63 220.768 2804.79 220.718C2803.96 220.667 2803.16 220.358 2802.51 219.833C2801.86 219.312 2801.39 218.606 2801.16 217.81C2800.94 217.014 2800.96 216.167 2801.22 215.384C2801.51 214.602 2802.02 213.927 2802.7 213.449C2803.38 212.971 2804.19 212.715 2805.03 212.715C2805.96 212.637 2806.89 212.921 2807.62 213.506C2808.36 214.092 2808.84 214.935 2808.97 215.864V215.802Z" fill="white"/>
<path fill-rule="evenodd" clip-rule="evenodd" d="M3103.47 226.64C3103.71 227.927 3103.45 229.258 3102.73 230.356C3102.02 231.455 3100.91 232.237 3099.64 232.542C3098.36 232.847 3097.02 232.651 3095.89 231.995C3094.75 231.339 3093.92 230.272 3093.55 229.015C3093.34 228.258 3093.3 227.462 3093.45 226.69C3093.6 225.919 3093.93 225.192 3094.4 224.566C3094.88 223.94 3095.49 223.432 3096.19 223.082C3096.9 222.732 3097.67 222.549 3098.46 222.547C3099.67 222.43 3100.87 222.795 3101.81 223.561C3102.75 224.328 3103.34 225.435 3103.47 226.64V226.64Z" fill="url(#paint22_linear_20:6899)"/>
<path fill-rule="evenodd" clip-rule="evenodd" d="M3102.31 226.639C3102.45 227.243 3102.44 227.869 3102.29 228.469C3102.14 229.069 3101.85 229.625 3101.45 230.095C3101.05 230.564 3100.54 230.934 3099.97 231.174C3099.4 231.414 3098.78 231.519 3098.17 231.479C3097.34 231.428 3096.55 231.117 3095.9 230.59C3095.26 230.072 3094.8 229.368 3094.57 228.576C3094.34 227.783 3094.37 226.94 3094.64 226.161C3094.91 225.382 3095.41 224.706 3096.08 224.225C3096.75 223.743 3097.55 223.48 3098.38 223.472C3099.31 223.388 3100.25 223.669 3100.98 224.256C3101.71 224.843 3102.19 225.69 3102.31 226.621V226.639Z" fill="white"/>
<path fill-rule="evenodd" clip-rule="evenodd" d="M2531.11 220.639C2530.98 221.832 2530.38 222.925 2529.45 223.685C2528.52 224.444 2527.32 224.81 2526.13 224.705C2525.52 224.818 2524.9 224.796 2524.31 224.643C2523.71 224.489 2523.16 224.207 2522.68 223.815C2522.21 223.428 2521.82 222.939 2521.56 222.383C2521.3 221.827 2521.16 221.219 2521.16 220.603C2521.16 219.995 2521.3 219.395 2521.56 218.845C2521.82 218.294 2522.2 217.808 2522.66 217.418C2523.14 217.028 2523.7 216.748 2524.29 216.599C2524.88 216.467 2525.49 216.467 2526.07 216.599C2527.28 216.495 2528.47 216.864 2529.4 217.629C2530.33 218.395 2530.93 219.494 2531.06 220.692L2531.11 220.639Z" fill="url(#paint23_linear_20:6899)"/>
<path fill-rule="evenodd" clip-rule="evenodd" d="M2530.02 220.639C2530.19 221.447 2530.12 222.289 2529.79 223.05C2529.47 223.812 2528.92 224.455 2528.21 224.892C2527.51 225.327 2526.69 225.533 2525.86 225.479C2525.03 225.422 2524.24 225.111 2523.59 224.59C2522.95 224.069 2522.48 223.362 2522.25 222.565C2522.03 221.768 2522.06 220.921 2522.33 220.14C2522.61 219.36 2523.12 218.684 2523.8 218.206C2524.47 217.728 2525.28 217.471 2526.11 217.472C2527.04 217.391 2527.97 217.673 2528.7 218.26C2529.43 218.847 2529.9 219.694 2530.02 220.621V220.639Z" fill="white"/>
<path fill-rule="evenodd" clip-rule="evenodd" d="M1751.82 168.888C1751.82 168.888 1846.17 6.49519 1961.61 0.360364C2081.43 -6.06767 2187.1 175.203 2187.1 175.203L1751.82 168.888Z" fill="url(#paint24_linear_20:6899)"/>
<path fill-rule="evenodd" clip-rule="evenodd" d="M2331.82 237.001C2330.01 243.046 2198.79 299.229 1975.49 299.229C1769.25 299.229 1617.12 246.339 1619.16 237.001C1620.6 230.438 1778.71 208.402 1975.49 208.402C2172.27 208.402 2333.18 232.468 2331.82 237.001Z" fill="url(#paint25_radial_20:6899)"/>
<path fill-rule="evenodd" clip-rule="evenodd" d="M1619.16 237.002C1619.16 237.002 1722.7 137.243 1961.61 137.243C2200.51 137.243 2331.82 237.002 2331.82 237.002C2331.82 237.002 2233.81 214.447 1961.61 214.447C1744.23 214.357 1619.16 237.002 1619.16 237.002Z" fill="url(#paint26_radial_20:6899)"/>
<path d="M2261.08 264.45L2259.59 263.977C2260.9 259.691 2253.12 256.173 2246.34 253.985C2200.42 239.122 2054.57 234.069 1938.48 235.626C1793.31 237.588 1692.32 248.865 1687.23 263.774L1685.74 263.278C1692.27 244.174 1820.6 235.648 1938.52 233.957C2054.73 232.378 2200.78 237.475 2246.9 252.406C2257.87 256.038 2262.52 259.962 2261.08 264.45Z" fill="#3C107B"/>
<path fill-rule="evenodd" clip-rule="evenodd" d="M1829.66 290.456C1829.66 290.456 1950.96 274.668 2112.95 291.765C2112.95 291.719 1967.91 307.508 1829.66 290.456Z" fill="#31165F"/>
<path fill-rule="evenodd" clip-rule="evenodd" d="M1844.04 291.72C1844.04 291.72 1958.1 277.24 2098.07 293.276C2098.07 293.321 1966.58 308.297 1844.04 291.72Z" fill="#0054B5"/>
<path fill-rule="evenodd" clip-rule="evenodd" d="M1870.54 288.901C1870.54 288.901 2002.17 299.569 2067.23 289.465C2067.3 289.465 1947.5 282.247 1870.54 288.901Z" fill="#31C7FF"/>
<path fill-rule="evenodd" clip-rule="evenodd" d="M1999.54 260.955C1999.54 263.819 1988.76 266.12 1975.47 266.12C1962.17 266.12 1951.41 263.865 1951.41 260.955C1951.43 260.732 1951.49 260.516 1951.6 260.318C1951.7 260.121 1951.85 259.946 1952.02 259.805C1954.46 257.549 1964.03 255.79 1975.47 255.79C1985.41 255.79 1993.96 257.076 1997.62 258.925C1998.82 259.557 1999.54 260.256 1999.54 260.955Z" fill="url(#paint27_linear_20:6899)"/>
<path fill-rule="evenodd" clip-rule="evenodd" d="M1997.64 258.993C1997.64 261.429 1987.34 263.504 1974.63 263.504C1963.33 263.504 1954.03 261.948 1952.02 259.896C1954.46 257.64 1964.03 255.881 1975.47 255.881C1985.41 255.881 1993.96 257.166 1997.62 259.016L1997.64 258.993Z" fill="white"/>
<path fill-rule="evenodd" clip-rule="evenodd" d="M2112.72 263.798C2112.72 266.414 2105.94 268.557 2097.35 268.557C2090.34 268.557 2084.42 267.091 2082.58 265.106C2082.23 264.762 2082.02 264.293 2082 263.798C2082.01 263.408 2082.15 263.034 2082.4 262.738C2083.94 260.482 2090.05 259.016 2097.37 259.016C2101.2 258.951 2105.01 259.476 2108.67 260.572C2109.67 260.877 2110.62 261.333 2111.48 261.926C2111.82 262.118 2112.11 262.388 2112.32 262.713C2112.54 263.038 2112.68 263.41 2112.72 263.798V263.798Z" fill="url(#paint28_linear_20:6899)"/>
<path fill-rule="evenodd" clip-rule="evenodd" d="M2109.31 261.903C2109.31 264.542 2102.53 266.662 2093.93 266.662C2090.11 266.738 2086.29 266.213 2082.63 265.106V265.106C2082.27 264.762 2082.06 264.293 2082.04 263.798C2082.05 263.408 2082.19 263.034 2082.45 262.738C2083.99 260.482 2090.09 259.016 2097.42 259.016C2101.24 258.951 2105.05 259.476 2108.72 260.572C2109.08 260.923 2109.29 261.4 2109.31 261.903Z" fill="white"/>
<path fill-rule="evenodd" clip-rule="evenodd" d="M2188.37 277.533C2188.37 279.224 2182.78 280.577 2175.91 280.577C2170.21 280.577 2165.42 279.653 2163.93 278.322C2163.79 278.223 2163.68 278.095 2163.6 277.946C2163.51 277.798 2163.47 277.634 2163.45 277.465C2163.47 277.208 2163.59 276.967 2163.77 276.788C2165.01 275.435 2169.99 274.533 2175.91 274.533C2179.01 274.485 2182.1 274.818 2185.11 275.525C2185.9 275.711 2186.66 276 2187.37 276.382C2188.03 276.721 2188.37 277.127 2188.37 277.533Z" fill="url(#paint29_linear_20:6899)"/>
<path fill-rule="evenodd" clip-rule="evenodd" d="M2185.61 276.338C2185.61 278.029 2180.03 279.383 2173.13 279.383C2170.03 279.431 2166.94 279.097 2163.93 278.39V278.39C2163.79 278.291 2163.68 278.163 2163.6 278.015C2163.51 277.867 2163.47 277.702 2163.45 277.533C2163.47 277.276 2163.59 277.035 2163.77 276.857C2165.01 275.503 2169.99 274.601 2175.91 274.601C2179.01 274.553 2182.1 274.887 2185.11 275.594C2185.37 275.768 2185.55 276.035 2185.61 276.338V276.338Z" fill="white"/>
<path fill-rule="evenodd" clip-rule="evenodd" d="M1849.81 263.413C1849.81 266.052 1856.59 268.172 1865.21 268.172C1872.21 268.172 1878.11 266.728 1879.97 264.721C1880.15 264.552 1880.29 264.35 1880.39 264.125C1880.49 263.901 1880.55 263.659 1880.56 263.413C1880.55 263.023 1880.4 262.649 1880.15 262.353C1878.61 260.233 1872.49 258.654 1865.18 258.654C1861.36 258.583 1857.55 259.1 1853.88 260.188C1852.88 260.501 1851.94 260.957 1851.07 261.541C1850.73 261.732 1850.44 262.001 1850.22 262.326C1850 262.652 1849.86 263.024 1849.81 263.413V263.413Z" fill="url(#paint30_linear_20:6899)"/>
<path fill-rule="evenodd" clip-rule="evenodd" d="M1853.22 261.541C1853.22 264.157 1860.12 266.3 1868.62 266.3C1872.45 266.37 1876.26 265.837 1879.92 264.721C1880.1 264.552 1880.25 264.35 1880.35 264.125C1880.45 263.901 1880.5 263.659 1880.51 263.413C1880.5 263.023 1880.36 262.649 1880.1 262.353C1878.57 260.233 1872.44 258.654 1865.14 258.654C1861.31 258.583 1857.5 259.1 1853.83 260.188C1853.46 260.543 1853.24 261.028 1853.22 261.541V261.541Z" fill="white"/>
<path fill-rule="evenodd" clip-rule="evenodd" d="M1760.05 276.947C1760.05 278.616 1765.62 279.992 1772.51 279.992C1778.19 279.992 1782.98 279.044 1784.47 277.736C1784.61 277.64 1784.72 277.516 1784.8 277.372C1784.88 277.227 1784.93 277.067 1784.95 276.902C1784.93 276.637 1784.82 276.387 1784.63 276.202C1783.36 274.849 1778.41 273.947 1772.49 273.947C1769.39 273.899 1766.3 274.232 1763.29 274.939C1762.49 275.122 1761.73 275.418 1761.03 275.819C1760.39 276.112 1760.05 276.518 1760.05 276.947Z" fill="url(#paint31_linear_20:6899)"/>
<path fill-rule="evenodd" clip-rule="evenodd" d="M1762.81 275.729C1762.81 277.42 1768.4 278.773 1775.27 278.773C1778.37 278.823 1781.46 278.489 1784.47 277.781V277.781C1784.61 277.685 1784.72 277.561 1784.8 277.417C1784.88 277.272 1784.93 277.112 1784.95 276.946C1784.93 276.682 1784.82 276.431 1784.63 276.247C1783.36 274.894 1778.41 273.992 1772.49 273.992C1769.39 273.944 1766.3 274.277 1763.29 274.984C1763.04 275.163 1762.87 275.429 1762.81 275.729V275.729Z" fill="white"/>
<path d="M2276.09 206.012C2121.67 140.356 1965.04 143.153 1860.91 157.046C1747.87 172.18 1670.48 203.103 1669.73 203.418L1669.12 201.975C1669.89 201.659 1747.46 170.579 1860.59 155.49C1964.91 141.574 2121.97 138.777 2276.7 204.614L2276.09 206.012Z" fill="#77439F"/>
<path d="M1619.34 237.77L1619 236.236C1620.04 236.011 1726.37 213.682 1980.94 213.682C2235.51 213.682 2331.07 235.92 2332 236.236L2331.64 237.747C2330.71 237.544 2235.28 215.351 1980.94 215.351C1726.59 215.351 1620.38 237.589 1619.34 237.77Z" fill="#3C107B"/>
<path d="M1698.13 226.943L1697.04 225.792C1697.5 225.386 1740.47 185.713 1772.74 171.368L1773.37 172.812C1741.36 186.953 1698.58 226.537 1698.13 226.943Z" fill="#77439F"/>
<path d="M2265.92 228.094C2216.65 187.721 2143.29 164.941 2142.54 164.648L2143.02 163.137C2143.76 163.362 2217.4 186.3 2266.93 226.876L2265.92 228.094Z" fill="#77439F"/>
<path d="M2020.34 22.5312C2020.34 22.5312 2029.7 33.0642 2047.88 52.822L2065.11 53.0475C2065.11 53.0475 2055.64 36.8534 2029.7 22.5312H2020.34Z" fill="white"/>
<path fill-rule="evenodd" clip-rule="evenodd" d="M1830.43 143.898C1830.43 143.898 1890.73 105.555 1976.14 101.337C2061.56 97.1196 2123.35 142.68 2123.35 142.68C2123.35 142.68 1973.23 110.788 1830.43 143.898Z" fill="#FF935F"/>
<path d="M1776.33 147.054C1776.33 147.054 1799.19 112.253 1827.18 86.7887L1837.06 84.5332C1837.06 84.5332 1808.53 120.62 1798.62 140.919L1776.33 147.054Z" fill="white"/>
<path fill-rule="evenodd" clip-rule="evenodd" d="M1751.82 168.888L1756.73 161.084C1756.73 161.084 2017.59 83.4962 2179.28 162.663L2184.05 170.196C2184.05 170.196 2111.34 140.604 1964.18 140.604C1817.03 140.604 1751.82 168.888 1751.82 168.888Z" fill="url(#paint32_radial_20:6899)"/>
<path fill-rule="evenodd" clip-rule="evenodd" d="M1978.02 215.575C1978.23 216.601 1978.11 217.665 1977.68 218.621C1977.26 219.578 1976.55 220.38 1975.65 220.918C1974.75 221.457 1973.71 221.705 1972.66 221.629C1971.62 221.553 1970.62 221.156 1969.81 220.494C1969 219.831 1968.41 218.934 1968.13 217.926C1967.85 216.919 1967.89 215.849 1968.24 214.864C1968.59 213.879 1969.24 213.026 1970.1 212.422C1970.95 211.819 1971.98 211.494 1973.02 211.493C1973.62 211.427 1974.23 211.482 1974.8 211.652C1975.38 211.823 1975.92 212.107 1976.38 212.487C1976.85 212.867 1977.23 213.336 1977.51 213.866C1977.79 214.397 1977.97 214.977 1978.02 215.575V215.575Z" fill="url(#paint33_linear_20:6899)"/>
<path fill-rule="evenodd" clip-rule="evenodd" d="M1976.96 215.575C1977.12 216.382 1977.02 217.218 1976.69 217.969C1976.35 218.719 1975.79 219.348 1975.08 219.77C1974.37 220.191 1973.55 220.384 1972.73 220.323C1971.91 220.261 1971.13 219.948 1970.49 219.426C1969.85 218.904 1969.39 218.199 1969.17 217.406C1968.95 216.614 1968.99 215.773 1969.26 214.999C1969.54 214.224 1970.05 213.554 1970.72 213.08C1971.4 212.606 1972.2 212.351 1973.02 212.35C1973.97 212.267 1974.92 212.559 1975.65 213.162C1976.39 213.765 1976.86 214.631 1976.96 215.575Z" fill="white"/>
<path style="mix-blend-mode:screen" d="M2001.69 207.005C2007.5 219.23 2000.06 232.965 1985.1 237.702C1970.13 242.438 1953.33 236.371 1947.54 224.169C1941.76 211.967 1949.17 198.209 1964.12 193.472C1979.06 188.736 1995.9 194.735 2001.69 207.005Z" fill="url(#paint34_radial_20:6899)"/>
<path fill-rule="evenodd" clip-rule="evenodd" d="M2271.39 226.311C2271.59 227.337 2271.47 228.401 2271.05 229.357C2270.63 230.314 2269.92 231.116 2269.02 231.655C2268.12 232.193 2267.07 232.441 2266.03 232.365C2264.98 232.289 2263.99 231.893 2263.18 231.23C2262.36 230.567 2261.78 229.671 2261.5 228.663C2261.22 227.655 2261.25 226.585 2261.61 225.6C2261.96 224.615 2262.61 223.762 2263.46 223.159C2264.32 222.555 2265.34 222.231 2266.39 222.229C2266.99 222.164 2267.59 222.218 2268.17 222.389C2268.75 222.559 2269.28 222.843 2269.75 223.223C2270.21 223.603 2270.6 224.072 2270.88 224.603C2271.16 225.133 2271.33 225.714 2271.39 226.311Z" fill="url(#paint35_linear_20:6899)"/>
<path fill-rule="evenodd" clip-rule="evenodd" d="M2270.32 226.311C2270.49 227.123 2270.4 227.967 2270.07 228.728C2269.74 229.488 2269.18 230.127 2268.47 230.556C2267.76 230.986 2266.93 231.186 2266.1 231.128C2265.27 231.07 2264.48 230.758 2263.84 230.234C2263.2 229.709 2262.73 228.999 2262.51 228.2C2262.28 227.401 2262.31 226.553 2262.59 225.773C2262.87 224.992 2263.39 224.316 2264.07 223.839C2264.75 223.362 2265.56 223.107 2266.39 223.109C2267.34 223.026 2268.28 223.315 2269.01 223.913C2269.74 224.511 2270.22 225.371 2270.32 226.311V226.311Z" fill="white"/>
<path style="mix-blend-mode:screen" d="M2294.99 217.786C2300.78 230.01 2293.36 243.746 2278.4 248.482C2263.43 253.219 2246.63 247.152 2240.82 234.95C2235.01 222.748 2242.47 208.989 2257.41 204.253C2272.36 199.516 2289.27 205.561 2294.99 217.786Z" fill="url(#paint36_radial_20:6899)"/>
<path fill-rule="evenodd" clip-rule="evenodd" d="M1699.1 226.312C1699.05 226.91 1698.88 227.491 1698.59 228.021C1698.31 228.551 1697.93 229.02 1697.46 229.4C1697 229.781 1696.46 230.064 1695.88 230.235C1695.31 230.406 1694.7 230.46 1694.1 230.395C1693.5 230.523 1692.87 230.514 1692.26 230.369C1691.65 230.223 1691.09 229.945 1690.61 229.553C1690.12 229.162 1689.73 228.668 1689.46 228.108C1689.2 227.547 1689.06 226.933 1689.06 226.312C1689.06 225.691 1689.2 225.078 1689.46 224.517C1689.73 223.956 1690.12 223.462 1690.61 223.071C1691.09 222.68 1691.65 222.401 1692.26 222.256C1692.87 222.11 1693.5 222.101 1694.1 222.23C1694.7 222.164 1695.31 222.219 1695.88 222.389C1696.46 222.56 1697 222.844 1697.46 223.224C1697.93 223.604 1698.31 224.073 1698.59 224.603C1698.88 225.134 1699.05 225.715 1699.1 226.312V226.312Z" fill="url(#paint37_linear_20:6899)"/>
<path fill-rule="evenodd" clip-rule="evenodd" d="M1698.13 226.311C1698.3 227.123 1698.21 227.967 1697.88 228.728C1697.55 229.488 1696.99 230.127 1696.27 230.556C1695.56 230.986 1694.74 231.186 1693.91 231.128C1693.08 231.07 1692.29 230.758 1691.64 230.234C1691 229.709 1690.53 228.999 1690.31 228.2C1690.09 227.401 1690.12 226.553 1690.4 225.773C1690.68 224.992 1691.19 224.316 1691.87 223.839C1692.55 223.362 1693.36 223.107 1694.2 223.109C1695.14 223.026 1696.08 223.315 1696.81 223.913C1697.55 224.511 1698.02 225.371 1698.13 226.311Z" fill="white"/>
<path style="mix-blend-mode:screen" d="M1722.77 217.786C1728.56 230.01 1721.14 243.746 1706.18 248.482C1691.21 253.219 1674.53 247.152 1668.6 234.95C1662.68 222.748 1670.25 208.989 1685.2 204.253C1700.14 199.516 1716.98 205.561 1722.77 217.786Z" fill="url(#paint38_radial_20:6899)"/>
<path style="mix-blend-mode:screen" d="M1978.02 291.877C2010.5 291.877 2036.83 277.427 2036.83 259.602C2036.83 241.776 2010.5 227.326 1978.02 227.326C1945.54 227.326 1919.22 241.776 1919.22 259.602C1919.22 277.427 1945.54 291.877 1978.02 291.877Z" fill="url(#paint39_radial_20:6899)"/>
<path style="mix-blend-mode:screen" d="M1886.32 265.353C1886.32 271.758 1876.87 276.946 1865.21 276.946C1853.54 276.946 1844.07 271.758 1844.07 265.353C1844.07 258.947 1853.52 253.76 1865.21 253.76C1876.89 253.76 1886.32 258.947 1886.32 265.353Z" fill="url(#paint40_radial_20:6899)"/>
<path style="mix-blend-mode:screen" d="M2195.67 276.923C2195.67 283.329 2186.2 288.539 2174.53 288.539C2162.87 288.539 2153.39 283.329 2153.39 276.923C2153.39 270.518 2162.87 265.33 2174.53 265.33C2186.2 265.33 2195.67 270.54 2195.67 276.923Z" fill="url(#paint41_radial_20:6899)"/>
<path style="mix-blend-mode:screen" d="M1870.54 293.163L1884.67 801.226L2065.11 782.145L2067.37 294.494C2067.37 294.494 1923.74 281.953 1870.54 293.163Z" fill="url(#paint42_linear_20:6899)"/>
<path style="mix-blend-mode:screen" d="M1895.93 806.956L1886.32 288.495L1948.38 285.766V800.392L1895.93 806.956Z" fill="url(#paint43_linear_20:6899)"/>
<path style="mix-blend-mode:screen" d="M1982.59 285.766L1984.31 808.828H1990.18L1991.93 287.615L1982.59 285.766Z" fill="url(#paint44_linear_20:6899)"/>
<path style="mix-blend-mode:screen" d="M2026.31 290.118V810L2044.92 802.873L2040.87 292.486L2026.31 290.118Z" fill="url(#paint45_linear_20:6899)"/>
<path fill-rule="evenodd" clip-rule="evenodd" d="M943.823 169.15C943.823 169.15 1038.16 6.46363 1153.58 0.1604C1273.36 -6.14283 1379.11 175.422 1379.11 175.422L943.823 169.15Z" fill="url(#paint46_linear_20:6899)"/>
<path fill-rule="evenodd" clip-rule="evenodd" d="M1523.81 237.412C1521.98 243.463 1390.77 299.783 1167.64 299.783C961.253 299.783 809.109 246.772 811.158 237.412C812.608 230.825 970.709 208.732 1167.48 208.732C1364.26 208.732 1525.17 232.874 1523.81 237.412Z" fill="url(#paint47_radial_20:6899)"/>
<path fill-rule="evenodd" clip-rule="evenodd" d="M811.158 237.413C811.158 237.413 914.699 137.443 1153.58 137.443C1392.47 137.443 1523.81 237.413 1523.81 237.413C1523.81 237.413 1425.82 214.721 1153.58 214.721C936.227 214.721 811.158 237.413 811.158 237.413Z" fill="url(#paint48_radial_20:6899)"/>
<path d="M1453.14 264.895L1451.63 264.422C1452.96 260.136 1445.17 256.606 1438.39 254.4C1392.47 239.493 1246.63 234.419 1130.54 235.995C985.302 237.98 884.314 249.326 879.239 264.359L877.727 263.824C884.283 244.693 1012.6 236.153 1130.51 234.545C1246.72 232.969 1392.82 238.075 1438.9 253.045C1449.87 256.512 1454.53 260.42 1453.14 264.895Z" fill="#3C107B"/>
<path fill-rule="evenodd" clip-rule="evenodd" d="M1021.68 290.99C1021.68 290.99 1142.96 275.043 1304.94 292.314C1304.94 292.314 1159.92 308.167 1021.68 290.99Z" fill="#31165F"/>
<path fill-rule="evenodd" clip-rule="evenodd" d="M1036.02 292.315C1120.51 283.653 1205.69 284.17 1290.06 293.859C1290.06 293.859 1158.6 309.018 1036.02 292.315Z" fill="#0054B5"/>
<path fill-rule="evenodd" clip-rule="evenodd" d="M1062.52 289.447C1062.52 289.447 1194.15 300.099 1259.3 290.014C1259.3 290.109 1139.5 282.765 1062.52 289.447Z" fill="#31C7FF"/>
<path fill-rule="evenodd" clip-rule="evenodd" d="M1191.53 261.429C1191.53 264.297 1180.75 266.597 1167.48 266.597C1154.21 266.597 1143.4 264.297 1143.4 261.429C1143.42 261.201 1143.48 260.979 1143.59 260.778C1143.7 260.577 1143.85 260.401 1144.03 260.263C1146.46 257.962 1156.04 256.229 1167.48 256.229C1177.41 256.229 1185.95 257.552 1189.55 259.38C1190.84 260.01 1191.53 260.704 1191.53 261.429Z" fill="url(#paint49_linear_20:6899)"/>
<path fill-rule="evenodd" clip-rule="evenodd" d="M1189.64 259.443C1189.64 261.901 1179.34 263.887 1166.63 263.887C1155.38 263.887 1146.02 262.311 1144.03 260.263C1146.46 257.962 1156.04 256.229 1167.48 256.229C1177.41 256.229 1185.95 257.552 1189.55 259.38L1189.64 259.443Z" fill="white"/>
<path fill-rule="evenodd" clip-rule="evenodd" d="M1304.72 264.265C1304.72 266.912 1297.85 269.055 1289.34 269.055C1282.34 269.055 1276.42 267.574 1274.59 265.589C1274.23 265.238 1274.03 264.763 1274.02 264.265C1274.03 263.877 1274.16 263.502 1274.4 263.193C1275.94 261.05 1282.06 259.475 1289.37 259.475C1293.21 259.395 1297.04 259.927 1300.72 261.05C1301.72 261.344 1302.67 261.802 1303.52 262.406C1303.85 262.598 1304.14 262.868 1304.34 263.191C1304.55 263.514 1304.68 263.882 1304.72 264.265V264.265Z" fill="url(#paint50_linear_20:6899)"/>
<path fill-rule="evenodd" clip-rule="evenodd" d="M1301.32 262.374C1301.32 265.021 1294.44 267.133 1285.93 267.133C1282.09 267.205 1278.27 266.684 1274.59 265.589V265.589C1274.23 265.238 1274.03 264.763 1274.02 264.265C1274.03 263.877 1274.16 263.502 1274.4 263.193C1275.94 261.05 1282.06 259.475 1289.37 259.475C1293.21 259.395 1297.04 259.927 1300.72 261.05C1300.9 261.22 1301.05 261.424 1301.15 261.651C1301.25 261.879 1301.31 262.125 1301.32 262.374V262.374Z" fill="white"/>
<path fill-rule="evenodd" clip-rule="evenodd" d="M1380.37 278.038C1380.37 279.74 1374.79 281.19 1367.92 281.19C1363.8 281.513 1359.67 280.753 1355.94 278.984V278.984C1355.8 278.889 1355.68 278.764 1355.59 278.616C1355.5 278.469 1355.45 278.304 1355.43 278.133C1355.46 277.875 1355.58 277.637 1355.78 277.471C1357.01 276.084 1362.08 275.076 1367.92 275.076C1371 275.021 1374.09 275.36 1377.09 276.085C1377.89 276.272 1378.66 276.557 1379.39 276.935C1380.02 277.219 1380.37 277.503 1380.37 278.038Z" fill="url(#paint51_linear_20:6899)"/>
<path fill-rule="evenodd" clip-rule="evenodd" d="M1377.59 276.841C1377.59 278.511 1372.01 279.992 1365.14 279.992C1362.04 280.033 1358.95 279.694 1355.94 278.984V278.984C1355.8 278.889 1355.68 278.764 1355.59 278.616C1355.5 278.469 1355.45 278.304 1355.43 278.133C1355.46 277.875 1355.58 277.637 1355.78 277.471C1357.01 276.084 1362.08 275.076 1367.92 275.076C1371 275.021 1374.09 275.36 1377.09 276.084C1377.22 276.164 1377.34 276.274 1377.43 276.405C1377.51 276.536 1377.57 276.685 1377.59 276.841V276.841Z" fill="white"/>
<path fill-rule="evenodd" clip-rule="evenodd" d="M1041.82 263.886C1041.82 266.533 1048.69 268.677 1057.2 268.677C1064.2 268.677 1070.12 267.195 1071.98 265.21C1072.34 264.862 1072.56 264.388 1072.58 263.886C1072.56 263.495 1072.41 263.121 1072.17 262.815C1070.63 260.703 1064.51 259.096 1057.2 259.096C1053.36 259.016 1049.53 259.548 1045.85 260.671C1044.85 260.976 1043.91 261.433 1043.05 262.027C1042.71 262.216 1042.42 262.483 1042.2 262.807C1041.99 263.13 1041.86 263.5 1041.82 263.886Z" fill="url(#paint52_linear_20:6899)"/>
<path fill-rule="evenodd" clip-rule="evenodd" d="M1045.22 261.995C1045.22 264.642 1052.12 266.754 1060.6 266.754C1064.45 266.826 1068.29 266.305 1071.98 265.21V265.21C1072.34 264.862 1072.56 264.388 1072.58 263.886C1072.56 263.495 1072.41 263.121 1072.17 262.815C1070.63 260.703 1064.51 259.096 1057.2 259.096C1053.36 259.016 1049.53 259.548 1045.85 260.671C1045.66 260.838 1045.51 261.041 1045.4 261.269C1045.29 261.496 1045.23 261.743 1045.22 261.995V261.995Z" fill="white"/>
<path fill-rule="evenodd" clip-rule="evenodd" d="M952.049 277.502C952.049 279.172 957.628 280.653 964.657 280.653C968.774 280.977 972.903 280.216 976.634 278.447C976.768 278.346 976.88 278.219 976.961 278.072C977.043 277.925 977.092 277.763 977.107 277.596C977.097 277.333 976.984 277.084 976.792 276.903C975.563 275.548 970.488 274.539 964.657 274.539C961.561 274.494 958.471 274.822 955.453 275.516C954.664 275.717 953.902 276.013 953.184 276.399C952.396 276.619 952.049 277.029 952.049 277.502Z" fill="url(#paint53_linear_20:6899)"/>
<path fill-rule="evenodd" clip-rule="evenodd" d="M954.792 276.241C954.792 277.912 960.37 279.393 967.399 279.393C970.495 279.441 973.586 279.113 976.603 278.416V278.416C976.737 278.315 976.848 278.187 976.93 278.041C977.011 277.894 977.061 277.732 977.076 277.565C977.065 277.302 976.952 277.053 976.761 276.872C975.531 275.516 970.457 274.508 964.626 274.508C961.53 274.463 958.439 274.791 955.422 275.485C955.27 275.561 955.136 275.667 955.028 275.797C954.919 275.927 954.839 276.079 954.792 276.241V276.241Z" fill="white"/>
<path d="M1468.08 206.401C1313.64 140.564 1157.05 143.369 1052.85 157.268C939.914 172.364 862.503 203.439 861.715 203.754L861.116 202.304C861.904 201.989 939.473 170.788 1052.6 155.723C1156.99 141.762 1313.95 138.957 1468.65 204.952L1468.08 206.401Z" fill="#77439F"/>
<path d="M811.347 238.171L811 236.532C812.04 236.311 918.387 214.029 1172.94 214.029C1427.49 214.029 1523.05 236.532 1524 236.532L1523.62 238.076C1522.71 237.855 1427.3 215.605 1172.94 215.605C918.576 215.605 812.387 237.95 811.347 238.171Z" fill="#3C107B"/>
<path d="M890.145 227.329L889.073 226.163C889.515 225.753 932.476 185.916 964.72 171.64L965.35 173.058C933.358 187.24 890.586 227.077 890.145 227.329Z" fill="#77439F"/>
<path d="M1457.94 228.494C1408.64 188.027 1335.29 165.115 1334.54 164.895L1335.01 163.382C1335.73 163.602 1409.4 186.609 1458.91 227.265L1457.94 228.494Z" fill="#77439F"/>
<path d="M1212.34 22.4424C1212.34 22.4424 1221.79 33.0003 1239.88 52.8239L1257.13 53.0445C1257.13 53.0445 1247.67 36.8137 1221.7 22.4424H1212.34Z" fill="white"/>
<path fill-rule="evenodd" clip-rule="evenodd" d="M1022.43 144.095C1066.95 118.563 1116.89 103.939 1168.15 101.422C1220.34 99.436 1271.83 113.937 1315.31 142.866C1315.31 142.866 1165.21 110.908 1022.43 144.095Z" fill="#FF935F"/>
<path d="M968.345 147.246C968.345 147.246 991.196 112.389 1019.19 86.8612L1029.05 84.5605C1029.05 84.5605 1000.53 120.773 990.66 141.069L968.345 147.246Z" fill="white"/>
<path fill-rule="evenodd" clip-rule="evenodd" d="M943.823 169.149L948.74 161.333C948.74 161.333 1209.56 83.5513 1371.26 162.909L1376.05 170.347C1376.05 170.347 1303.33 140.69 1156.17 140.69C1009 140.69 943.823 169.149 943.823 169.149Z" fill="url(#paint54_radial_20:6899)"/>
<path fill-rule="evenodd" clip-rule="evenodd" d="M1170.01 215.919C1170.21 216.944 1170.1 218.009 1169.68 218.967C1169.26 219.926 1168.55 220.73 1167.65 221.271C1166.76 221.812 1165.72 222.063 1164.67 221.989C1163.63 221.914 1162.63 221.519 1161.82 220.858C1161.01 220.196 1160.43 219.299 1160.14 218.291C1159.86 217.283 1159.9 216.213 1160.25 215.227C1160.6 214.241 1161.25 213.387 1162.1 212.783C1162.96 212.179 1163.98 211.854 1165.03 211.853C1166.22 211.747 1167.41 212.112 1168.34 212.872C1169.27 213.632 1169.87 214.725 1170.01 215.919V215.919Z" fill="url(#paint55_linear_20:6899)"/>
<path fill-rule="evenodd" clip-rule="evenodd" d="M1168.97 215.92C1169.15 216.736 1169.07 217.588 1168.75 218.359C1168.43 219.13 1167.87 219.782 1167.17 220.224C1166.46 220.667 1165.63 220.879 1164.79 220.83C1163.96 220.781 1163.16 220.475 1162.51 219.953C1161.86 219.431 1161.38 218.719 1161.15 217.916C1160.92 217.113 1160.94 216.258 1161.22 215.469C1161.5 214.68 1162.01 213.997 1162.69 213.513C1163.38 213.029 1164.19 212.769 1165.03 212.769C1165.96 212.687 1166.89 212.969 1167.63 213.556C1168.36 214.143 1168.84 214.989 1168.97 215.92V215.92Z" fill="white"/>
<path style="mix-blend-mode:screen" d="M1193.71 207.347C1199.48 219.575 1192.07 233.379 1177.1 238.106C1162.13 242.834 1145.33 236.783 1139.53 224.523C1133.73 212.263 1141.17 198.491 1156.14 193.763C1171.11 189.036 1187.91 195.087 1193.71 207.347Z" fill="url(#paint56_radial_20:6899)"/>
<path fill-rule="evenodd" clip-rule="evenodd" d="M1463.45 226.761C1463.66 227.793 1463.54 228.864 1463.12 229.828C1462.69 230.791 1461.98 231.6 1461.08 232.143C1460.18 232.687 1459.13 232.938 1458.08 232.862C1457.03 232.787 1456.03 232.389 1455.21 231.722C1454.4 231.056 1453.81 230.154 1453.53 229.14C1453.24 228.126 1453.28 227.049 1453.64 226.057C1453.99 225.065 1454.64 224.207 1455.5 223.599C1456.36 222.992 1457.39 222.665 1458.44 222.664C1459.65 222.55 1460.85 222.916 1461.79 223.683C1462.73 224.45 1463.32 225.556 1463.45 226.761V226.761Z" fill="url(#paint57_linear_20:6899)"/>
<path fill-rule="evenodd" clip-rule="evenodd" d="M1462.32 226.761C1462.49 227.569 1462.41 228.412 1462.09 229.173C1461.77 229.935 1461.22 230.578 1460.51 231.013C1459.81 231.449 1458.99 231.657 1458.17 231.607C1457.34 231.558 1456.55 231.254 1455.9 230.737C1455.26 230.221 1454.79 229.517 1454.56 228.722C1454.33 227.928 1454.35 227.082 1454.62 226.3C1454.89 225.519 1455.4 224.841 1456.07 224.359C1456.74 223.877 1457.55 223.615 1458.38 223.609C1459.31 223.528 1460.24 223.81 1460.98 224.397C1461.71 224.984 1462.19 225.83 1462.32 226.761V226.761Z" fill="white"/>
<path fill-rule="evenodd" clip-rule="evenodd" d="M891.091 226.762C890.956 227.955 890.359 229.049 889.429 229.808C888.498 230.568 887.307 230.934 886.111 230.827C885.508 230.946 884.886 230.93 884.29 230.78C883.694 230.63 883.138 230.35 882.663 229.96C882.188 229.57 881.806 229.079 881.543 228.523C881.28 227.968 881.144 227.361 881.144 226.746C881.144 226.131 881.28 225.524 881.543 224.969C881.806 224.413 882.188 223.922 882.663 223.532C883.138 223.142 883.694 222.862 884.29 222.712C884.886 222.562 885.508 222.546 886.111 222.665C887.312 222.559 888.507 222.929 889.439 223.695C890.37 224.461 890.963 225.563 891.091 226.762V226.762Z" fill="url(#paint58_linear_20:6899)"/>
<path fill-rule="evenodd" clip-rule="evenodd" d="M890.019 226.761C890.195 227.57 890.116 228.414 889.792 229.177C889.468 229.939 888.916 230.582 888.211 231.017C887.506 231.453 886.683 231.658 885.857 231.606C885.03 231.555 884.24 231.247 883.595 230.727C882.95 230.207 882.482 229.5 882.256 228.703C882.031 227.906 882.057 227.059 882.334 226.278C882.61 225.497 883.121 224.821 883.798 224.343C884.474 223.865 885.282 223.609 886.111 223.609C887.043 223.528 887.971 223.811 888.699 224.399C889.428 224.986 889.901 225.833 890.019 226.761Z" fill="white"/>
<path style="mix-blend-mode:screen" d="M887.687 250.554C903.719 250.554 916.716 239.901 916.716 226.76C916.716 213.618 903.719 202.965 887.687 202.965C871.654 202.965 858.657 213.618 858.657 226.76C858.657 239.901 871.654 250.554 887.687 250.554Z" fill="url(#paint59_radial_20:6899)"/>
<path style="mix-blend-mode:screen" d="M1170.01 292.409C1202.49 292.409 1228.82 277.932 1228.82 260.074C1228.82 242.215 1202.49 227.738 1170.01 227.738C1137.52 227.738 1111.19 242.215 1111.19 260.074C1111.19 277.932 1137.52 292.409 1170.01 292.409Z" fill="url(#paint60_radial_20:6899)"/>
<path style="mix-blend-mode:screen" d="M1078.32 265.81C1078.32 272.113 1068.86 277.439 1057.2 277.439C1045.54 277.439 1036.05 272.239 1036.05 265.81C1036.05 259.381 1045.5 254.212 1057.2 254.212C1068.89 254.212 1078.32 259.412 1078.32 265.81Z" fill="url(#paint61_radial_20:6899)"/>
<path style="mix-blend-mode:screen" d="M1062.52 289.446L1076.68 505.836L1257.13 497.705L1259.3 290.014C1259.3 290.014 1115.73 284.656 1062.52 289.446Z" fill="url(#paint62_linear_20:6899)"/>
<path style="mix-blend-mode:screen" d="M1087.93 508.263L1078.32 287.461L1140.38 286.295V505.49L1087.93 508.263Z" fill="url(#paint63_linear_20:6899)"/>
<path style="mix-blend-mode:screen" d="M1174.58 286.295L1176.31 509.082H1182.2L1183.91 287.083L1174.58 286.295Z" fill="url(#paint64_linear_20:6899)"/>
<path style="mix-blend-mode:screen" d="M1218.29 288.154V509.555L1236.92 506.529L1232.89 289.163L1218.29 288.154Z" fill="url(#paint65_linear_20:6899)"/>
<defs>
<linearGradient id="paint0_linear_20:6899" x1="350.465" y1="175.327" x2="350.465" y2="0.000104503" gradientUnits="userSpaceOnUse">
<stop stop-color="#FFFF29"/>
<stop offset="1" stop-color="#FF7E59"/>
</linearGradient>
<radialGradient id="paint1_radial_20:6899" cx="0" cy="0" r="1" gradientUnits="userSpaceOnUse" gradientTransform="translate(345.103 256.731) scale(195.447 273.458)">
<stop offset="0.02" stop-color="#8343B0"/>
<stop offset="0.4" stop-color="#7937AA"/>
<stop offset="0.99" stop-color="#611B9C"/>
</radialGradient>
<radialGradient id="paint2_radial_20:6899" cx="0" cy="0" r="1" gradientUnits="userSpaceOnUse" gradientTransform="translate(331.935 143.52) scale(300.911 198.479)">
<stop stop-color="#D4CFFF"/>
<stop offset="1" stop-color="#8D6FC7"/>
</radialGradient>
<linearGradient id="paint3_linear_20:6899" x1="19599.3" y1="-9660.46" x2="19599.3" y2="-9263.24" gradientUnits="userSpaceOnUse">
<stop stop-color="#FFFF29"/>
<stop offset="1" stop-color="#FF7E59"/>
</linearGradient>
<linearGradient id="paint4_linear_20:6899" x1="16962" y1="-8295.69" x2="16962" y2="-7981.99" gradientUnits="userSpaceOnUse">
<stop stop-color="#FFFF29"/>
<stop offset="1" stop-color="#FF7E59"/>
</linearGradient>
<linearGradient id="paint5_linear_20:6899" x1="16148.7" y1="-3464.2" x2="16148.7" y2="-3380.6" gradientUnits="userSpaceOnUse">
<stop stop-color="#FFFF29"/>
<stop offset="1" stop-color="#FF7E59"/>
</linearGradient>
<linearGradient id="paint6_linear_20:6899" x1="8739.28" y1="-8279.69" x2="8739.28" y2="-7965.89" gradientUnits="userSpaceOnUse">
<stop stop-color="#FFFF29"/>
<stop offset="1" stop-color="#FF7E59"/>
</linearGradient>
<linearGradient id="paint7_linear_20:6899" x1="4464.2" y1="-3471.31" x2="4464.2" y2="-3387.34" gradientUnits="userSpaceOnUse">
<stop stop-color="#FFFF29"/>
<stop offset="1" stop-color="#FF7E59"/>
</linearGradient>
<radialGradient id="paint8_radial_20:6899" cx="0" cy="0" r="1" gradientUnits="userSpaceOnUse" gradientTransform="translate(345.124 107.276) scale(115.931 174.936)">
<stop offset="0.02" stop-color="#725EB0"/>
<stop offset="0.38" stop-color="#6D52AA"/>
<stop offset="0.99" stop-color="#61349C"/>
</radialGradient>
<linearGradient id="paint9_linear_20:6899" x1="354.034" y1="219.895" x2="354.034" y2="211.736" gradientUnits="userSpaceOnUse">
<stop stop-color="#8DC7FF"/>
<stop offset="0.32" stop-color="#5C4D86"/>
</linearGradient>
<linearGradient id="paint10_linear_20:6899" x1="8058.72" y1="-7651.34" x2="8058.72" y2="-7348.95" gradientUnits="userSpaceOnUse">
<stop stop-color="#8DC7FF"/>
<stop offset="0.32" stop-color="#5C4D86"/>
</linearGradient>
<linearGradient id="paint11_linear_20:6899" x1="909.988" y1="-4856.34" x2="909.988" y2="-4655.97" gradientUnits="userSpaceOnUse">
<stop stop-color="#8DC7FF"/>
<stop offset="0.32" stop-color="#5C4D86"/>
</linearGradient>
<linearGradient id="paint12_linear_20:6899" x1="2801.46" y1="175.327" x2="2801.46" y2="0.000104503" gradientUnits="userSpaceOnUse">
<stop stop-color="#FFFF29"/>
<stop offset="1" stop-color="#FF7E59"/>
</linearGradient>
<radialGradient id="paint13_radial_20:6899" cx="0" cy="0" r="1" gradientUnits="userSpaceOnUse" gradientTransform="translate(2796.1 256.731) scale(195.447 273.458)">
<stop offset="0.02" stop-color="#8343B0"/>
<stop offset="0.4" stop-color="#7937AA"/>
<stop offset="0.99" stop-color="#611B9C"/>
</radialGradient>
<radialGradient id="paint14_radial_20:6899" cx="0" cy="0" r="1" gradientUnits="userSpaceOnUse" gradientTransform="translate(2782.93 143.52) scale(300.911 198.479)">
<stop stop-color="#D4CFFF"/>
<stop offset="1" stop-color="#8D6FC7"/>
</radialGradient>
<linearGradient id="paint15_linear_20:6899" x1="22050.3" y1="-9660.46" x2="22050.3" y2="-9263.24" gradientUnits="userSpaceOnUse">
<stop stop-color="#FFFF29"/>
<stop offset="1" stop-color="#FF7E59"/>
</linearGradient>
<linearGradient id="paint16_linear_20:6899" x1="19413" y1="-8295.69" x2="19413" y2="-7981.99" gradientUnits="userSpaceOnUse">
<stop stop-color="#FFFF29"/>
<stop offset="1" stop-color="#FF7E59"/>
</linearGradient>
<linearGradient id="paint17_linear_20:6899" x1="18599.7" y1="-3464.2" x2="18599.7" y2="-3380.6" gradientUnits="userSpaceOnUse">
<stop stop-color="#FFFF29"/>
<stop offset="1" stop-color="#FF7E59"/>
</linearGradient>
<linearGradient id="paint18_linear_20:6899" x1="11190.3" y1="-8279.69" x2="11190.3" y2="-7965.89" gradientUnits="userSpaceOnUse">
<stop stop-color="#FFFF29"/>
<stop offset="1" stop-color="#FF7E59"/>
</linearGradient>
<linearGradient id="paint19_linear_20:6899" x1="6915.2" y1="-3471.31" x2="6915.2" y2="-3387.34" gradientUnits="userSpaceOnUse">
<stop stop-color="#FFFF29"/>
<stop offset="1" stop-color="#FF7E59"/>
</linearGradient>
<radialGradient id="paint20_radial_20:6899" cx="0" cy="0" r="1" gradientUnits="userSpaceOnUse" gradientTransform="translate(2796.12 107.276) scale(115.931 174.936)">
<stop offset="0.02" stop-color="#725EB0"/>
<stop offset="0.38" stop-color="#6D52AA"/>
<stop offset="0.99" stop-color="#61349C"/>
</radialGradient>
<linearGradient id="paint21_linear_20:6899" x1="2805.03" y1="219.895" x2="2805.03" y2="211.736" gradientUnits="userSpaceOnUse">
<stop stop-color="#8DC7FF"/>
<stop offset="0.32" stop-color="#5C4D86"/>
</linearGradient>
<linearGradient id="paint22_linear_20:6899" x1="10509.7" y1="-7651.34" x2="10509.7" y2="-7348.95" gradientUnits="userSpaceOnUse">
<stop stop-color="#8DC7FF"/>
<stop offset="0.32" stop-color="#5C4D86"/>
</linearGradient>
<linearGradient id="paint23_linear_20:6899" x1="3360.99" y1="-4862.34" x2="3360.99" y2="-4661.97" gradientUnits="userSpaceOnUse">
<stop stop-color="#8DC7FF"/>
<stop offset="0.32" stop-color="#5C4D86"/>
</linearGradient>
<linearGradient id="paint24_linear_20:6899" x1="1969.45" y1="175.203" x2="1969.45" y2="0.179923" gradientUnits="userSpaceOnUse">
<stop stop-color="#FFFF29"/>
<stop offset="1" stop-color="#FF7E59"/>
</linearGradient>
<radialGradient id="paint25_radial_20:6899" cx="0" cy="0" r="1" gradientUnits="userSpaceOnUse" gradientTransform="translate(1966.22 242.821) scale(195.472 273.009)">
<stop offset="0.02" stop-color="#8343B0"/>
<stop offset="0.4" stop-color="#7937AA"/>
<stop offset="0.99" stop-color="#611B9C"/>
</radialGradient>
<radialGradient id="paint26_radial_20:6899" cx="0" cy="0" r="1" gradientUnits="userSpaceOnUse" gradientTransform="translate(1952.09 145.001) scale(300.917 198.132)">
<stop stop-color="#D4CFFF"/>
<stop offset="1" stop-color="#8D6FC7"/>
</radialGradient>
<linearGradient id="paint27_linear_20:6899" x1="9540.57" y1="1502.11" x2="9540.57" y2="1454.8" gradientUnits="userSpaceOnUse">
<stop stop-color="#FFFF29"/>
<stop offset="1" stop-color="#FF7E59"/>
</linearGradient>
<linearGradient id="paint28_linear_20:6899" x1="8582.75" y1="1421.03" x2="8582.75" y2="1380.65" gradientUnits="userSpaceOnUse">
<stop stop-color="#FFFF29"/>
<stop offset="1" stop-color="#FF7E59"/>
</linearGradient>
<linearGradient id="paint29_linear_20:6899" x1="8300.63" y1="1043.13" x2="8300.63" y2="1026.8" gradientUnits="userSpaceOnUse">
<stop stop-color="#FFFF29"/>
<stop offset="1" stop-color="#FF7E59"/>
</linearGradient>
<linearGradient id="paint30_linear_20:6899" x1="89435.4" y1="1416.44" x2="89435.4" y2="1376.24" gradientUnits="userSpaceOnUse">
<stop stop-color="#FFFF29"/>
<stop offset="1" stop-color="#FF7E59"/>
</linearGradient>
<linearGradient id="paint31_linear_20:6899" x1="70456.6" y1="1040.97" x2="70456.6" y2="1024.58" gradientUnits="userSpaceOnUse">
<stop stop-color="#FFFF29"/>
<stop offset="1" stop-color="#FF7E59"/>
</linearGradient>
<radialGradient id="paint32_radial_20:6899" cx="0" cy="0" r="1" gradientUnits="userSpaceOnUse" gradientTransform="translate(1962.31 112.667) scale(115.936 174.646)">
<stop offset="0.02" stop-color="#725EB0"/>
<stop offset="0.38" stop-color="#6D52AA"/>
<stop offset="0.99" stop-color="#61349C"/>
</radialGradient>
<linearGradient id="paint33_linear_20:6899" x1="1973.02" y1="219.657" x2="1973.02" y2="211.493" gradientUnits="userSpaceOnUse">
<stop stop-color="#8DC7FF"/>
<stop offset="0.32" stop-color="#5C4D86"/>
</linearGradient>
<radialGradient id="paint34_radial_20:6899" cx="0" cy="0" r="1" gradientUnits="userSpaceOnUse" gradientTransform="translate(1975.27 217.699) rotate(-17.7656) scale(28.3938 24.1931)">
<stop stop-color="#003CEE"/>
<stop offset="0.06" stop-color="#0036D6"/>
<stop offset="0.2" stop-color="#00289E"/>
<stop offset="0.34" stop-color="#001C6D"/>
<stop offset="0.48" stop-color="#001246"/>
<stop offset="0.62" stop-color="#000A27"/>
<stop offset="0.75" stop-color="#000412"/>
<stop offset="0.88" stop-color="#000104"/>
<stop offset="1"/>
</radialGradient>
<linearGradient id="paint35_linear_20:6899" x1="5174.55" y1="1288.99" x2="5174.55" y2="1252.16" gradientUnits="userSpaceOnUse">
<stop stop-color="#8DC7FF"/>
<stop offset="0.32" stop-color="#5C4D86"/>
</linearGradient>
<radialGradient id="paint36_radial_20:6899" cx="0" cy="0" r="1" gradientUnits="userSpaceOnUse" gradientTransform="translate(-5611.83 3225.88) scale(507.301 414.265)">
<stop stop-color="#003CEE"/>
<stop offset="0.06" stop-color="#0036D6"/>
<stop offset="0.2" stop-color="#00289E"/>
<stop offset="0.34" stop-color="#001C6D"/>
<stop offset="0.48" stop-color="#001246"/>
<stop offset="0.62" stop-color="#000A27"/>
<stop offset="0.75" stop-color="#000412"/>
<stop offset="0.88" stop-color="#000104"/>
<stop offset="1"/>
</radialGradient>
<linearGradient id="paint37_linear_20:6899" x1="2022.72" y1="1096.96" x2="2022.72" y2="1066.75" gradientUnits="userSpaceOnUse">
<stop stop-color="#8DC7FF"/>
<stop offset="0.32" stop-color="#5C4D86"/>
</linearGradient>
<radialGradient id="paint38_radial_20:6899" cx="0" cy="0" r="1" gradientUnits="userSpaceOnUse" gradientTransform="translate(-15522.7 275.717) scale(507.705 414.265)">
<stop stop-color="#003CEE"/>
<stop offset="0.06" stop-color="#0036D6"/>
<stop offset="0.2" stop-color="#00289E"/>
<stop offset="0.34" stop-color="#001C6D"/>
<stop offset="0.48" stop-color="#001246"/>
<stop offset="0.62" stop-color="#000A27"/>
<stop offset="0.75" stop-color="#000412"/>
<stop offset="0.88" stop-color="#000104"/>
<stop offset="1"/>
</radialGradient>
<radialGradient id="paint39_radial_20:6899" cx="0" cy="0" r="1" gradientUnits="userSpaceOnUse" gradientTransform="translate(1983.67 260.268) scale(58.7345 32.26)">
<stop stop-color="#FF9A00"/>
<stop offset="0.09" stop-color="#D68100"/>
<stop offset="0.23" stop-color="#9E5F00"/>
<stop offset="0.36" stop-color="#6E4200"/>
<stop offset="0.5" stop-color="#462A00"/>
<stop offset="0.63" stop-color="#271800"/>
<stop offset="0.76" stop-color="#120B00"/>
<stop offset="0.89" stop-color="#040300"/>
<stop offset="1"/>
</radialGradient>
<radialGradient id="paint40_radial_20:6899" cx="0" cy="0" r="1" gradientUnits="userSpaceOnUse" gradientTransform="translate(-23575.3 -8192.46) scale(147.893 81.1512)">
<stop stop-color="#FF9A00"/>
<stop offset="0.09" stop-color="#D68100"/>
<stop offset="0.23" stop-color="#9E5F00"/>
<stop offset="0.36" stop-color="#6E4200"/>
<stop offset="0.5" stop-color="#462A00"/>
<stop offset="0.63" stop-color="#271800"/>
<stop offset="0.76" stop-color="#120B00"/>
<stop offset="0.89" stop-color="#040300"/>
<stop offset="1"/>
</radialGradient>
<radialGradient id="paint41_radial_20:6899" cx="0" cy="0" r="1" gradientUnits="userSpaceOnUse" gradientTransform="translate(-21116.6 -8108.08) scale(147.972 81.2299)">
<stop stop-color="#FF9A00"/>
<stop offset="0.09" stop-color="#D68100"/>
<stop offset="0.23" stop-color="#9E5F00"/>
<stop offset="0.36" stop-color="#6E4200"/>
<stop offset="0.5" stop-color="#462A00"/>
<stop offset="0.63" stop-color="#271800"/>
<stop offset="0.76" stop-color="#120B00"/>
<stop offset="0.89" stop-color="#040300"/>
<stop offset="1"/>
</radialGradient>
<linearGradient id="paint42_linear_20:6899" x1="1968.91" y1="801.226" x2="1968.91" y2="288.494" gradientUnits="userSpaceOnUse">
<stop/>
<stop offset="0.15" stop-color="#000304"/>
<stop offset="0.32" stop-color="#020D12"/>
<stop offset="0.5" stop-color="#041E27"/>
<stop offset="0.68" stop-color="#083546"/>
<stop offset="0.86" stop-color="#0C526D"/>
<stop offset="1" stop-color="#106D90"/>
</linearGradient>
<linearGradient id="paint43_linear_20:6899" x1="10076.4" y1="188143" x2="10076.4" y2="67706.9" gradientUnits="userSpaceOnUse">
<stop/>
<stop offset="0.15" stop-color="#000304"/>
<stop offset="0.32" stop-color="#020D12"/>
<stop offset="0.5" stop-color="#041E27"/>
<stop offset="0.68" stop-color="#083546"/>
<stop offset="0.86" stop-color="#0C526D"/>
<stop offset="1" stop-color="#106D90"/>
</linearGradient>
<linearGradient id="paint44_linear_20:6899" x1="3503.43" y1="189252" x2="3503.43" y2="67949" gradientUnits="userSpaceOnUse">
<stop/>
<stop offset="0.15" stop-color="#000304"/>
<stop offset="0.32" stop-color="#020D12"/>
<stop offset="0.5" stop-color="#041E27"/>
<stop offset="0.68" stop-color="#083546"/>
<stop offset="0.86" stop-color="#0C526D"/>
<stop offset="1" stop-color="#106D90"/>
</linearGradient>
<linearGradient id="paint45_linear_20:6899" x1="5454.96" y1="188378" x2="5454.96" y2="68545.4" gradientUnits="userSpaceOnUse">
<stop/>
<stop offset="0.15" stop-color="#000304"/>
<stop offset="0.32" stop-color="#020D12"/>
<stop offset="0.5" stop-color="#041E27"/>
<stop offset="0.68" stop-color="#083546"/>
<stop offset="0.86" stop-color="#0C526D"/>
<stop offset="1" stop-color="#106D90"/>
</linearGradient>
<linearGradient id="paint46_linear_20:6899" x1="1161.46" y1="175.485" x2="1161.46" y2="0.0658505" gradientUnits="userSpaceOnUse">
<stop stop-color="#FFFF29"/>
<stop offset="1" stop-color="#FF7E59"/>
</linearGradient>
<radialGradient id="paint47_radial_20:6899" cx="0" cy="0" r="1" gradientUnits="userSpaceOnUse" gradientTransform="translate(1158.22 257.097) scale(195.452 273.604)">
<stop offset="0.02" stop-color="#8343B0"/>
<stop offset="0.4" stop-color="#7937AA"/>
<stop offset="0.99" stop-color="#611B9C"/>
</radialGradient>
<radialGradient id="paint48_radial_20:6899" cx="0" cy="0" r="1" gradientUnits="userSpaceOnUse" gradientTransform="translate(1144.1 142.266) scale(300.916 198.584)">
<stop stop-color="#D4CFFF"/>
<stop offset="1" stop-color="#8D6FC7"/>
</radialGradient>
<linearGradient id="paint49_linear_20:6899" x1="6586.92" y1="1153.55" x2="6586.92" y2="1119.43" gradientUnits="userSpaceOnUse">
<stop stop-color="#FFFF29"/>
<stop offset="1" stop-color="#FF7E59"/>
</linearGradient>
<linearGradient id="paint50_linear_20:6899" x1="5933.04" y1="1096.75" x2="5933.04" y2="1067.6" gradientUnits="userSpaceOnUse">
<stop stop-color="#FFFF29"/>
<stop offset="1" stop-color="#FF7E59"/>
</linearGradient>
<linearGradient id="paint51_linear_20:6899" x1="5760.64" y1="839.44" x2="5760.64" y2="827.427" gradientUnits="userSpaceOnUse">
<stop stop-color="#FFFF29"/>
<stop offset="1" stop-color="#FF7E59"/>
</linearGradient>
<linearGradient id="paint52_linear_20:6899" x1="-178.933" y1="1095.22" x2="-178.933" y2="1066.07" gradientUnits="userSpaceOnUse">
<stop stop-color="#FFFF29"/>
<stop offset="1" stop-color="#FF7E59"/>
</linearGradient>
<linearGradient id="paint53_linear_20:6899" x1="-618.15" y1="837.581" x2="-618.15" y2="825.571" gradientUnits="userSpaceOnUse">
<stop stop-color="#FFFF29"/>
<stop offset="1" stop-color="#FF7E59"/>
</linearGradient>
<radialGradient id="paint54_radial_20:6899" cx="0" cy="0" r="1" gradientUnits="userSpaceOnUse" gradientTransform="translate(1154.31 106.356) scale(115.928 175.034)">
<stop offset="0.02" stop-color="#725EB0"/>
<stop offset="0.38" stop-color="#6D52AA"/>
<stop offset="0.99" stop-color="#61349C"/>
</radialGradient>
<linearGradient id="paint55_linear_20:6899" x1="1165.03" y1="220.016" x2="1165.03" y2="211.853" gradientUnits="userSpaceOnUse">
<stop stop-color="#8DC7FF"/>
<stop offset="0.32" stop-color="#5C4D86"/>
</linearGradient>
<radialGradient id="paint56_radial_20:6899" cx="0" cy="0" r="1" gradientUnits="userSpaceOnUse" gradientTransform="translate(1167.23 216.341) rotate(-17.8036) scale(28.3913 24.2358)">
<stop stop-color="#003CEE"/>
<stop offset="0.06" stop-color="#0036D6"/>
<stop offset="0.2" stop-color="#00289E"/>
<stop offset="0.34" stop-color="#001C6D"/>
<stop offset="0.48" stop-color="#001246"/>
<stop offset="0.62" stop-color="#000A27"/>
<stop offset="0.75" stop-color="#000412"/>
<stop offset="0.88" stop-color="#000104"/>
<stop offset="1"/>
</radialGradient>
<linearGradient id="paint57_linear_20:6899" x1="3550.83" y1="991.978" x2="3550.83" y2="965.478" gradientUnits="userSpaceOnUse">
<stop stop-color="#8DC7FF"/>
<stop offset="0.32" stop-color="#5C4D86"/>
</linearGradient>
<linearGradient id="paint58_linear_20:6899" x1="1118.17" y1="848.188" x2="1118.17" y2="826.638" gradientUnits="userSpaceOnUse">
<stop stop-color="#8DC7FF"/>
<stop offset="0.32" stop-color="#5C4D86"/>
</linearGradient>
<radialGradient id="paint59_radial_20:6899" cx="0" cy="0" r="1" gradientUnits="userSpaceOnUse" gradientTransform="translate(13166.5 -21114.2) scale(363.448 297.909)">
<stop stop-color="#003CEE"/>
<stop offset="0.06" stop-color="#0036D6"/>
<stop offset="0.2" stop-color="#00289E"/>
<stop offset="0.34" stop-color="#001C6D"/>
<stop offset="0.48" stop-color="#001246"/>
<stop offset="0.62" stop-color="#000A27"/>
<stop offset="0.75" stop-color="#000412"/>
<stop offset="0.88" stop-color="#000104"/>
<stop offset="1"/>
</radialGradient>
<radialGradient id="paint60_radial_20:6899" cx="0" cy="0" r="1" gradientUnits="userSpaceOnUse" gradientTransform="translate(1165.07 261.201) scale(58.7414 32.3374)">
<stop stop-color="#FF9A00"/>
<stop offset="0.09" stop-color="#D68100"/>
<stop offset="0.23" stop-color="#9E5F00"/>
<stop offset="0.36" stop-color="#6E4200"/>
<stop offset="0.5" stop-color="#462A00"/>
<stop offset="0.63" stop-color="#271800"/>
<stop offset="0.76" stop-color="#120B00"/>
<stop offset="0.89" stop-color="#040300"/>
<stop offset="1"/>
</radialGradient>
<radialGradient id="paint61_radial_20:6899" cx="0" cy="0" r="1" gradientUnits="userSpaceOnUse" gradientTransform="translate(15978 -10236.9) scale(106.091 58.3008)">
<stop stop-color="#FF9A00"/>
<stop offset="0.09" stop-color="#D68100"/>
<stop offset="0.23" stop-color="#9E5F00"/>
<stop offset="0.36" stop-color="#6E4200"/>
<stop offset="0.5" stop-color="#462A00"/>
<stop offset="0.63" stop-color="#271800"/>
<stop offset="0.76" stop-color="#120B00"/>
<stop offset="0.89" stop-color="#040300"/>
<stop offset="1"/>
</radialGradient>
<linearGradient id="paint62_linear_20:6899" x1="1160.93" y1="505.836" x2="1160.93" y2="287.461" gradientUnits="userSpaceOnUse">
<stop/>
<stop offset="0.15" stop-color="#000304"/>
<stop offset="0.32" stop-color="#020D12"/>
<stop offset="0.5" stop-color="#041E27"/>
<stop offset="0.68" stop-color="#083546"/>
<stop offset="0.86" stop-color="#0C526D"/>
<stop offset="1" stop-color="#106D90"/>
</linearGradient>
<linearGradient id="paint63_linear_20:6899" x1="6953.08" y1="36515.9" x2="6953.08" y2="20882.7" gradientUnits="userSpaceOnUse">
<stop/>
<stop offset="0.15" stop-color="#000304"/>
<stop offset="0.32" stop-color="#020D12"/>
<stop offset="0.5" stop-color="#041E27"/>
<stop offset="0.68" stop-color="#083546"/>
<stop offset="0.86" stop-color="#0C526D"/>
<stop offset="1" stop-color="#106D90"/>
</linearGradient>
<linearGradient id="paint64_linear_20:6899" x1="2264.56" y1="36707.6" x2="2264.56" y2="20958.7" gradientUnits="userSpaceOnUse">
<stop/>
<stop offset="0.15" stop-color="#000304"/>
<stop offset="0.32" stop-color="#020D12"/>
<stop offset="0.5" stop-color="#041E27"/>
<stop offset="0.68" stop-color="#083546"/>
<stop offset="0.86" stop-color="#0C526D"/>
<stop offset="1" stop-color="#106D90"/>
</linearGradient>
<linearGradient id="paint65_linear_20:6899" x1="3680.53" y1="36516" x2="3680.53" y2="20962.6" gradientUnits="userSpaceOnUse">
<stop/>
<stop offset="0.15" stop-color="#000304"/>
<stop offset="0.32" stop-color="#020D12"/>
<stop offset="0.5" stop-color="#041E27"/>
<stop offset="0.68" stop-color="#083546"/>
<stop offset="0.86" stop-color="#0C526D"/>
<stop offset="1" stop-color="#106D90"/>
</linearGradient>
</defs>
</svg>
