<svg xmlns="http://www.w3.org/2000/svg" viewBox="0 0 134.89 210.36"><defs><style>.cls-1,.cls-2{fill:#fff;}.cls-2{font-size:49.24px;font-family:Montserrat-SemiBold, Montserrat;font-weight:600;}.cls-3{letter-spacing:-0.02em;}.cls-4{letter-spacing:0em;}.cls-5{font-size:65.66px;}</style></defs><g id="Capa_2" data-name="Capa 2"><g id="Capa_2-2" data-name="Capa 2"><path class="cls-1" d="M67.45,0V15.81H79.58a9.26,9.26,0,0,1,9.22,8.92V46.59h21c4.87,0,8.76,3.52,8.76,8.39V79.53a8.72,8.72,0,0,1-8.76,8.77h-21v21.48a9.59,9.59,0,0,1-9.22,9.3H67.45v15.81A67.45,67.45,0,0,0,67.45,0Z"/><path class="cls-1" d="M67,119.08H55c-4.88,0-9.93-4.43-9.93-9.3V88.3H24.78a8.49,8.49,0,0,1-8.48-8.77V55a8.18,8.18,0,0,1,8.48-8.39H45.1V24.73c0-4.87,5-8.92,9.93-8.92H67.45V0a67.45,67.45,0,1,0,0,134.89V119.08Z"/><path class="cls-1" d="M61.86,62.31c2.76-.36,4.47-4.68,4-8.54s-3-5.8-5.78-5.45-4.71,2.88-4.21,6.74S59.1,62.66,61.86,62.31Z"/><path class="cls-1" d="M54.45,60.36c-1.59-3-4.33-3.68-6.58-2.46s-3.15,3.89-1.56,6.85,5.08,5,7.33,3.84S56.05,63.31,54.45,60.36Z"/><path class="cls-1" d="M73,62.31c2.76.35,5.52-3.39,6-7.25s-1.45-6.38-4.21-6.74-5.28,1.58-5.78,5.45S70.27,62,73,62.31Z"/><path class="cls-1" d="M80,70.62c-3.8-.05-6.28.81-7.63-3.35a5.29,5.29,0,0,0-4.7-3.52h-.22V86.61h.34c8,0,14.46-5.71,14.46-13.71h0A2.28,2.28,0,0,0,80,70.62Z"/><path class="cls-1" d="M67.28,63.75h-.06a5.29,5.29,0,0,0-4.7,3.52c-1.35,4.16-3.83,3.3-7.63,3.35a2.28,2.28,0,0,0-2.24,2.27h0c0,8,6.42,13.71,14.45,13.71h.35V63.75Z"/><path class="cls-1" d="M87,57.9c-2.25-1.22-5-.5-6.58,2.46s-1.44,7,.81,8.23,5.74-.89,7.33-3.84S89.27,59.11,87,57.9Z"/><text class="cls-2" transform="translate(18.9 192.96)"><tspan class="cls-3">v</tspan><tspan class="cls-4" x="27.72" y="0">e</tspan><tspan class="cls-5" x="58.35" y="0">t</tspan></text></g></g></svg>